M48
; DRILL file {KiCad (5.1.6)-1} date 12/21/20 13:22:17
; FORMAT={-:-/ absolute / inch / decimal}
; #@! TF.CreationDate,2020-12-21T13:22:17+01:00
; #@! TF.GenerationSoftware,Kicad,Pcbnew,(5.1.6)-1
; #@! TF.FileFunction,Plated,1,4,PTH
FMAT,2
INCH
T1C0.0079
T2C0.0394
T3C0.0433
%
G90
G05
T1
X3.9547Y-3.2386
X3.9685Y-3.1831
X3.9744Y-5.4843
X3.9961Y-3.815
X3.9961Y-3.8839
X3.9961Y-3.9665
X4.0453Y-3.3465
X4.0453Y-3.3858
X4.0453Y-3.4252
X4.0453Y-3.4646
X4.0453Y-3.4941
X4.0453Y-3.9665
X4.0846Y-3.3465
X4.0846Y-3.3858
X4.0846Y-3.4252
X4.0846Y-3.4646
X4.0846Y-3.4941
X4.0866Y-3.8268
X4.0945Y-3.9665
X4.124Y-3.4941
X4.1339Y-5.0197
X4.1614Y-3.9508
X4.1634Y-3.4941
X4.1634Y-3.8346
X4.1634Y-5.0197
X4.1929Y-5.0197
X4.1929Y-5.0591
X4.1929Y-5.0984
X4.1929Y-5.1378
X4.1929Y-5.1673
X4.198Y-3.9204
X4.1988Y-3.9508
X4.211Y-3.3894
X4.2224Y-5.0197
X4.2224Y-5.0591
X4.2224Y-5.0984
X4.2224Y-5.1378
X4.2224Y-5.1673
X4.2256Y-3.5461
X4.2264Y-3.4921
X4.2323Y-3.622
X4.2323Y-5.2264
X4.2421Y-3.7205
X4.248Y-3.9665
X4.25Y-3.874
X4.2559Y-3.5173
X4.261Y-3.3894
X4.2618Y-3.4217
X4.2618Y-3.4587
X4.2618Y-3.622
X4.2717Y-5.0197
X4.2717Y-5.0591
X4.2717Y-5.0984
X4.2717Y-5.1378
X4.2717Y-5.2362
X4.2913Y-3.622
X4.2913Y-5.2657
X4.2913Y-5.2953
X4.2913Y-5.3248
X4.2913Y-5.3543
X4.2933Y-3.874
X4.3012Y-3.7205
X4.3012Y-3.9665
X4.3063Y-4.7541
X4.3146Y-3.4736
X4.3156Y-4.7018
X4.3165Y-3.5472
X4.3169Y-4.6516
X4.3484Y-3.9665
X4.3504Y-3.7008
X4.3504Y-3.7402
X4.3504Y-3.7795
X4.3504Y-3.8386
X4.3504Y-3.8976
X4.3583Y-1.6811
X4.3622Y-1.8425
X4.3799Y-5.1575
X4.3799Y-5.187
X4.3799Y-5.2165
X4.3799Y-5.2461
X4.3892Y-4.3518
X4.3898Y-3.1457
X4.3996Y-3.2185
X4.3996Y-3.248
X4.3996Y-3.2776
X4.3996Y-3.3071
X4.3996Y-3.3366
X4.3996Y-3.3661
X4.3996Y-3.3957
X4.3996Y-3.4252
X4.3996Y-3.4547
X4.3996Y-3.4843
X4.3996Y-3.5138
X4.3996Y-3.5433
X4.4035Y-3.9996
X4.4039Y-3.8638
X4.4094Y-5.1575
X4.4094Y-5.187
X4.4094Y-5.2165
X4.4094Y-5.2461
X4.4213Y-2.0354
X4.4213Y-2.252
X4.4252Y-2.4567
X4.4291Y-3.2185
X4.4291Y-3.3957
X4.4406Y-3.5606
X4.4587Y-3.2185
X4.4587Y-3.3957
X4.4693Y-3.5752
X4.4697Y-4.0114
X4.4787Y-3.4673
X4.4882Y-3.2185
X4.4882Y-3.248
X4.4882Y-3.2776
X4.4882Y-3.3071
X4.4882Y-3.3366
X4.4882Y-3.3661
X4.4882Y-3.3957
X4.5065Y-4.3518
X4.5079Y-3.4252
X4.5191Y-3.4531
X4.5396Y-4.5285
X4.5396Y-4.8339
X4.5407Y-3.3837
X4.5484Y-5.0839
X4.5516Y-3.6
X4.5626Y-4.213
X4.5644Y-3.4228
X4.5693Y-3.3539
X4.5711Y-4.5053
X4.5741Y-3.939
X4.5835Y-4.8693
X4.6083Y-4.1657
X4.6091Y-3.2024
X4.6144Y-4.5301
X4.6144Y-4.8339
X4.6165Y-3.3701
X4.628Y-3.0755
X4.6448Y-3.3996
X4.6492Y-3.2012
X4.6613Y-3.0609
X4.6614Y-3.2402
X4.6636Y-4.6449
X4.6636Y-4.7108
X4.6674Y-4.7915
X4.673Y-3.3695
X4.6856Y-4.6152
X4.689Y-4.1669
X4.6892Y-3.0809
X4.6972Y-5.2047
X4.7008Y-3.4528
X4.7008Y-3.5079
X4.7008Y-3.563
X4.7016Y-4.6791
X4.7047Y-4.0354
X4.7156Y-4.0031
X4.722Y-4.8539
X4.724Y-4.6484
X4.7283Y-3.5354
X4.7284Y-3.4252
X4.7284Y-3.9697
X4.7413Y-3.9386
X4.7453Y-5.0811
X4.7461Y-4.935
X4.7469Y-4.7843
X4.7542Y-3.9067
X4.7559Y-3.3976
X4.7562Y-3.2877
X4.7567Y-3.5087
X4.7573Y-3.5644
X4.7656Y-4.1652
X4.7671Y-3.8787
X4.7799Y-3.848
X4.7811Y-4.9457
X4.7878Y-4.6862
X4.7927Y-3.8069
X4.7931Y-4.6482
X4.8062Y-3.3417
X4.8087Y-4.2142
X4.811Y-3.2874
X4.811Y-3.3976
X4.8118Y-3.4531
X4.8119Y-3.5678
X4.815Y-4.8484
X4.8169Y-4.7602
X4.8209Y-3.8343
X4.8228Y-5.2319
X4.8319Y-5.115
X4.8397Y-3.0956
X4.8449Y-4.8898
X4.8463Y-4.1663
X4.8514Y-3.8309
X4.8583Y-4.6232
X4.8622Y-2.0382
X4.8654Y-4.9252
X4.8661Y-3.6772
X4.8676Y-3.1746
X4.8681Y-3.6201
X4.8681Y-3.064
X4.8685Y-1.9957
X4.8789Y-4.8754
X4.8924Y-3.8337
X4.8937Y-3.7008
X4.8976Y-4.5579
X4.9047Y-1.9602
X4.9055Y-2.0748
X4.9232Y-2.4472
X4.9232Y-3.2303
X4.9232Y-3.7882
X4.9232Y-3.1791
X4.9232Y-3.6201
X4.9232Y-3.6713
X4.9244Y-2.4862
X4.9252Y-3.7323
X4.9291Y-2.3819
X4.935Y-4.5595
X4.9449Y-2.0744
X4.9465Y-2.5213
X4.948Y-2.6008
X4.9488Y-1.9291
X4.9496Y-3.1465
X4.9504Y-3.2579
X4.9511Y-3.207
X4.9516Y-3.4256
X4.9516Y-3.4807
X4.9528Y-1.6575
X4.9528Y-3.8858
X4.9555Y-4.5118
X4.9556Y-3.7036
X4.9606Y-2.4173
X4.9724Y-2.3425
X4.9755Y-3.119
X4.9787Y-3.3453
X4.9787Y-3.4531
X4.9792Y-3.3974
X4.9823Y-2.0748
X4.9921Y-1.8701
X4.9921Y-1.9291
X4.9969Y-2.6469
X5.0Y-2.4173
X5.0Y-4.6654
X5.0Y-4.7244
X5.0Y-4.8031
X5.0Y-4.8819
X5.0028Y-3.1468
X5.0043Y-5.1276
X5.0051Y-3.2579
X5.0068Y-3.0366
X5.0068Y-3.3692
X5.0068Y-3.481
X5.0075Y-3.3134
X5.0161Y-3.5398
X5.0197Y-1.7795
X5.0197Y-1.8189
X5.0201Y-2.0921
X5.0209Y-2.0409
X5.0278Y-5.0969
X5.0312Y-3.8428
X5.0322Y-3.6224
X5.0329Y-3.286
X5.0333Y-3.228
X5.0339Y-3.5079
X5.0363Y-3.3417
X5.0378Y-2.5531
X5.0437Y-2.5957
X5.0512Y-1.9173
X5.0551Y-1.6575
X5.0551Y-1.7795
X5.0551Y-1.8189
X5.0585Y-3.0911
X5.0591Y-4.0315
X5.0614Y-2.7469
X5.0618Y-2.1343
X5.0624Y-2.9809
X5.0624Y-3.2565
X5.0624Y-3.5364
X5.0626Y-2.0921
X5.0626Y-3.3146
X5.063Y-3.4252
X5.063Y-3.8701
X5.0632Y-3.7045
X5.0787Y-4.4094
X5.0787Y-4.6654
X5.0787Y-4.7244
X5.0787Y-4.8031
X5.0787Y-4.8819
X5.0879Y-3.6781
X5.0898Y-3.6209
X5.0902Y-2.8961
X5.0902Y-3.1165
X5.0903Y-3.0082
X5.0903Y-3.2877
X5.0903Y-3.3979
X5.0903Y-3.453
X5.0903Y-3.953
X5.0906Y-1.9685
X5.0906Y-2.0039
X5.0906Y-2.1929
X5.0908Y-3.8428
X5.0909Y-3.563
X5.0929Y-2.0925
X5.1063Y-2.3661
X5.1102Y-5.4744
X5.1146Y-2.7843
X5.1181Y-3.8149
X5.1181Y-3.0354
X5.1181Y-3.0866
X5.1181Y-3.3701
X5.1181Y-3.4252
X5.1181Y-3.4803
X5.1181Y-3.5941
X5.1181Y-3.9803
X5.1181Y-4.4094
X5.1204Y-3.2579
X5.122Y-3.7598
X5.126Y-1.9685
X5.126Y-2.0039
X5.126Y-2.4528
X5.126Y-2.4961
X5.1368Y-2.8237
X5.1437Y-4.0098
X5.1448Y-3.9541
X5.1453Y-3.7311
X5.1457Y-3.6213
X5.1459Y-3.2867
X5.1459Y-3.3974
X5.1459Y-3.4525
X5.1459Y-3.8944
X5.1461Y-3.5642
X5.1465Y-3.6756
X5.1575Y-4.4094
X5.1575Y-4.6654
X5.1575Y-4.7244
X5.1575Y-4.8031
X5.1575Y-4.8819
X5.1618Y-2.7972
X5.1646Y-2.85
X5.1654Y-1.8858
X5.1654Y-1.9252
X5.1693Y-3.0355
X5.1693Y-2.0472
X5.1693Y-2.4528
X5.1693Y-4.1732
X5.1709Y-4.5276
X5.1717Y-3.2575
X5.1729Y-3.5366
X5.1732Y-2.2717
X5.1732Y-3.0913
X5.1732Y-3.4252
X5.1738Y-2.9809
X5.1738Y-3.314
X5.1738Y-3.8144
X5.1744Y-2.924
X5.1772Y-1.6575
X5.178Y-2.7661
X5.185Y-1.7819
X5.185Y-1.8189
X5.1906Y-4.552
X5.1969Y-3.2854
X5.2012Y-5.0307
X5.2016Y-3.0638
X5.2016Y-3.3417
X5.2016Y-3.509
X5.2016Y-3.8377
X5.2043Y-2.189
X5.2055Y-2.1496
X5.2087Y-1.9252
X5.2087Y-2.563
X5.2102Y-4.5276
X5.2126Y-2.6811
X5.2126Y-4.3307
X5.213Y-2.0571
X5.2165Y-2.4134
X5.2165Y-4.2126
X5.2165Y-4.6654
X5.2165Y-4.7244
X5.2165Y-4.8031
X5.2165Y-4.8819
X5.2205Y-1.7835
X5.2205Y-1.8189
X5.2292Y-3.4809
X5.2293Y-3.3696
X5.2295Y-3.7587
X5.2295Y-3.2583
X5.2313Y-5.0337
X5.2318Y-3.3161
X5.252Y-4.1142
X5.2524Y-2.1488
X5.2528Y-2.3169
X5.2531Y-2.1016
X5.2551Y-4.9614
X5.2555Y-3.2858
X5.2556Y-3.0633
X5.2559Y-3.7835
X5.2564Y-3.2358
X5.2578Y-3.3974
X5.2701Y-2.5976
X5.2756Y-4.2992
X5.2756Y-4.3622
X5.2783Y-3.2583
X5.2785Y-4.2136
X5.2795Y-1.6575
X5.2823Y-3.1468
X5.2835Y-3.3701
X5.2846Y-3.426
X5.2851Y-3.6991
X5.2862Y-2.2764
X5.2882Y-2.2362
X5.2902Y-2.0606
X5.3102Y-3.119
X5.3126Y-2.637
X5.3126Y-3.6193
X5.313Y-3.1791
X5.313Y-3.7264
X5.315Y-4.722
X5.315Y-4.7614
X5.315Y-4.8004
X5.3157Y-4.252
X5.3205Y-2.3567
X5.3236Y-4.5933
X5.3247Y-3.8428
X5.3363Y-3.2025
X5.3408Y-3.1474
X5.3408Y-3.5903
X5.3413Y-3.6461
X5.3518Y-4.6565
X5.3543Y-4.7417
X5.3543Y-4.7811
X5.3602Y-2.3929
X5.3642Y-3.2303
X5.3647Y-3.1746
X5.3693Y-3.4528
X5.389Y-1.9843
X5.3914Y-3.5922
X5.3954Y-3.2025
X5.3965Y-3.2626
X5.3976Y-3.6457
X5.4043Y-2.45
X5.4048Y-5.0958
X5.4232Y-3.5075
X5.4232Y-3.6762
X5.4236Y-3.4
X5.4236Y-3.452
X5.4252Y-3.2874
X5.4252Y-3.563
X5.4331Y-4.0898
X5.4331Y-4.1476
X5.4331Y-4.2063
X5.4331Y-4.2654
X5.4331Y-4.324
X5.4331Y-4.3827
X5.4331Y-4.4421
X5.4331Y-4.5016
X5.4409Y-3.0866
X5.4488Y-3.315
X5.4528Y-3.4252
X5.4528Y-3.5906
X5.4724Y-2.1378
X5.4724Y-4.0236
X5.48Y-3.5036
X5.4806Y-3.3974
X5.5024Y-3.7701
X5.5079Y-3.5315
X5.5157Y-5.0669
X5.5268Y-3.8185
X5.5283Y-5.1996
X5.5299Y-5.374
X5.5357Y-3.3979
X5.5357Y-3.4486
X5.5433Y-3.1811
X5.5585Y-3.3695
X5.563Y-3.4803
X5.5713Y-4.9587
X5.5852Y-3.7525
X5.5866Y-3.939
X5.5906Y-3.4528
X5.5909Y-4.9051
X5.5925Y-5.1992
X5.6075Y-3.9618
X5.6078Y-3.7709
X5.6114Y-4.9606
X5.6167Y-3.4809
X5.627Y-3.7992
X5.6283Y-3.9917
X5.631Y-4.9035
X5.6382Y-3.5473
X5.6457Y-3.2874
X5.6459Y-3.3974
X5.647Y-3.4547
X5.6547Y-3.9193
X5.6673Y-3.8051
X5.6756Y-4.0488
X5.6819Y-4.5441
X5.6998Y-4.7898
X5.7244Y-3.4252
X5.7319Y-4.1941
X5.7441Y-3.8465
X5.7465Y-4.6
X5.7476Y-4.3949
X5.748Y-3.9291
X5.748Y-4.0118
X5.7488Y-4.1039
X5.7559Y-4.6811
X5.7579Y-3.6028
X5.7752Y-4.2795
X5.7795Y-4.5551
X5.7799Y-4.3339
X5.7803Y-4.1031
X5.8025Y-3.6195
X5.811Y-4.0157
X5.815Y-3.9291
X5.8189Y-2.0551
X5.8189Y-4.874
X5.8228Y-2.248
X5.8228Y-2.4449
X5.8228Y-4.9646
X5.8323Y-5.211
X5.8323Y-5.2504
X5.8323Y-5.3685
X5.8323Y-5.4079
X5.8386Y-4.4234
X5.8465Y-3.3366
X5.8465Y-3.5669
X5.8622Y-4.7283
X5.8661Y-1.6772
X5.8661Y-3.4291
X5.8661Y-4.6732
X5.8701Y-1.8386
X5.8701Y-4.563
X5.873Y-4.2561
X5.8866Y-4.8335
X5.8927Y-4.4657
X5.8941Y-3.5799
X5.9094Y-3.3898
X5.911Y-5.2594
X5.9124Y-4.2541
X5.9134Y-4.9055
X5.9327Y-3.5811
X5.9409Y-3.4291
X5.9459Y-4.4628
X5.9488Y-5.0945
X5.9504Y-5.2594
X5.9567Y-4.1732
X5.9606Y-3.874
X5.9606Y-3.9646
X5.9606Y-4.0709
X5.9677Y-3.8323
X5.9715Y-4.3329
X5.9803Y-3.6929
X5.9843Y-3.1894
X5.9846Y-3.5614
X5.9945Y-4.5402
X6.0024Y-3.822
X6.0079Y-5.0039
X6.0157Y-4.3386
X6.0197Y-4.2323
X6.0197Y-4.4713
X6.0197Y-5.1457
X6.0233Y-4.9438
X6.0276Y-3.7362
X6.0315Y-3.5
X6.0354Y-3.6102
X6.0512Y-5.0157
X6.0709Y-4.8543
X6.0906Y-5.2087
X6.0925Y-4.9134
X6.0945Y-4.2008
X6.0945Y-4.4094
X6.0945Y-4.5906
X6.1181Y-5.0551
X6.1185Y-4.9437
X6.1346Y-4.7587
X6.1675Y-3.8506
X6.1683Y-4.1506
X6.1685Y-4.7933
X6.1685Y-4.2488
X6.1693Y-4.8425
X6.1693Y-4.9173
X6.1695Y-3.9006
X6.2126Y-4.2402
X6.2126Y-4.2992
X6.2126Y-4.3386
X6.2165Y-4.4291
X6.2205Y-4.937
X6.2435Y-5.3436
X6.2441Y-5.2354
X6.2598Y-3.1929
X6.2657Y-5.4744
T2
X4.4764Y-1.689
X4.4764Y-1.789
X4.4764Y-1.889
X4.4764Y-1.989
X4.4764Y-2.089
X4.4764Y-2.189
X4.4764Y-2.289
X4.4764Y-2.389
X4.4764Y-2.489
X4.4764Y-2.589
X4.5764Y-1.689
X4.5764Y-1.789
X4.5764Y-1.889
X4.5764Y-1.989
X4.5764Y-2.089
X4.5764Y-2.189
X4.5764Y-2.289
X4.5764Y-2.389
X4.5764Y-2.489
X4.5764Y-2.589
X6.0878Y-3.2602
X6.0878Y-3.3602
X6.0878Y-3.4602
X6.0878Y-3.5602
X6.0878Y-3.6602
X6.1878Y-3.2602
X6.1878Y-3.3602
X6.1878Y-3.4602
X6.1878Y-3.5602
X6.1878Y-3.6602
X4.0369Y-4.0601
X4.0369Y-4.1601
X4.0369Y-4.2601
X4.0369Y-4.3601
X4.0369Y-4.4601
X4.0369Y-4.5601
X4.0369Y-4.6601
X4.1369Y-4.0601
X4.1369Y-4.1601
X4.1369Y-4.2601
X4.1369Y-4.3601
X4.1369Y-4.4601
X4.1369Y-4.5601
X4.1369Y-4.6601
X4.0236Y-4.937
X4.1236Y-4.937
X4.2236Y-4.937
X5.6654Y-1.7
X5.6654Y-1.8
X5.6654Y-1.9
X5.6654Y-2.0
X5.6654Y-2.1
X5.6654Y-2.2
X5.6654Y-2.3
X5.6654Y-2.4
X5.6654Y-2.5
X5.6654Y-2.6
X5.7654Y-1.7
X5.7654Y-1.8
X5.7654Y-1.9
X5.7654Y-2.0
X5.7654Y-2.1
X5.7654Y-2.2
X5.7654Y-2.3
X5.7654Y-2.4
X5.7654Y-2.5
X5.7654Y-2.6
T3
X5.0315Y-5.3449
X5.2047Y-5.3449
T2
G00X4.5827Y-5.2193
M15
G01X4.5591Y-5.2193
M16
G05
G00X4.5827Y-5.4555
M15
G01X4.5591Y-5.4555
M16
G05
G00X4.7559Y-5.3492
M15
G01X4.7559Y-5.3256
M16
G05
T0
M30
