%TF.GenerationSoftware,KiCad,Pcbnew,(5.1.6)-1*%
%TF.CreationDate,2020-12-21T13:22:22+01:00*%
%TF.ProjectId,PCB-Drone-With-FPGA,5043422d-4472-46f6-9e65-2d576974682d,rev?*%
%TF.SameCoordinates,Original*%
%TF.FileFunction,Paste,Top*%
%TF.FilePolarity,Positive*%
%FSLAX46Y46*%
G04 Gerber Fmt 4.6, Leading zero omitted, Abs format (unit mm)*
G04 Created by KiCad (PCBNEW (5.1.6)-1) date 2020-12-21 13:22:22*
%MOMM*%
%LPD*%
G01*
G04 APERTURE LIST*
%ADD10R,1.050000X0.550000*%
%ADD11R,1.250000X0.600000*%
%ADD12R,0.600000X1.150000*%
%ADD13R,1.200000X1.400000*%
%ADD14R,0.250000X0.550000*%
%ADD15C,0.100000*%
%ADD16R,1.400000X1.200000*%
%ADD17R,1.000000X1.800000*%
%ADD18R,1.500000X3.600000*%
%ADD19R,1.000000X3.000000*%
%ADD20R,1.500000X4.000000*%
%ADD21R,0.500000X2.500000*%
%ADD22R,2.000000X2.500000*%
%ADD23R,0.355600X0.355600*%
%ADD24R,0.675000X0.254000*%
%ADD25R,0.254000X0.675000*%
%ADD26R,1.270000X3.600000*%
%ADD27R,1.350000X4.200000*%
G04 APERTURE END LIST*
%TO.C,U801*%
G36*
G01*
X128882500Y-64265000D02*
X128182500Y-64265000D01*
G75*
G02*
X128120000Y-64202500I0J62500D01*
G01*
X128120000Y-64077500D01*
G75*
G02*
X128182500Y-64015000I62500J0D01*
G01*
X128882500Y-64015000D01*
G75*
G02*
X128945000Y-64077500I0J-62500D01*
G01*
X128945000Y-64202500D01*
G75*
G02*
X128882500Y-64265000I-62500J0D01*
G01*
G37*
G36*
G01*
X128882500Y-63765000D02*
X128182500Y-63765000D01*
G75*
G02*
X128120000Y-63702500I0J62500D01*
G01*
X128120000Y-63577500D01*
G75*
G02*
X128182500Y-63515000I62500J0D01*
G01*
X128882500Y-63515000D01*
G75*
G02*
X128945000Y-63577500I0J-62500D01*
G01*
X128945000Y-63702500D01*
G75*
G02*
X128882500Y-63765000I-62500J0D01*
G01*
G37*
G36*
G01*
X128882500Y-63265000D02*
X128182500Y-63265000D01*
G75*
G02*
X128120000Y-63202500I0J62500D01*
G01*
X128120000Y-63077500D01*
G75*
G02*
X128182500Y-63015000I62500J0D01*
G01*
X128882500Y-63015000D01*
G75*
G02*
X128945000Y-63077500I0J-62500D01*
G01*
X128945000Y-63202500D01*
G75*
G02*
X128882500Y-63265000I-62500J0D01*
G01*
G37*
G36*
G01*
X128882500Y-62765000D02*
X128182500Y-62765000D01*
G75*
G02*
X128120000Y-62702500I0J62500D01*
G01*
X128120000Y-62577500D01*
G75*
G02*
X128182500Y-62515000I62500J0D01*
G01*
X128882500Y-62515000D01*
G75*
G02*
X128945000Y-62577500I0J-62500D01*
G01*
X128945000Y-62702500D01*
G75*
G02*
X128882500Y-62765000I-62500J0D01*
G01*
G37*
G36*
G01*
X128882500Y-62265000D02*
X128182500Y-62265000D01*
G75*
G02*
X128120000Y-62202500I0J62500D01*
G01*
X128120000Y-62077500D01*
G75*
G02*
X128182500Y-62015000I62500J0D01*
G01*
X128882500Y-62015000D01*
G75*
G02*
X128945000Y-62077500I0J-62500D01*
G01*
X128945000Y-62202500D01*
G75*
G02*
X128882500Y-62265000I-62500J0D01*
G01*
G37*
G36*
G01*
X129532500Y-61615000D02*
X129407500Y-61615000D01*
G75*
G02*
X129345000Y-61552500I0J62500D01*
G01*
X129345000Y-60852500D01*
G75*
G02*
X129407500Y-60790000I62500J0D01*
G01*
X129532500Y-60790000D01*
G75*
G02*
X129595000Y-60852500I0J-62500D01*
G01*
X129595000Y-61552500D01*
G75*
G02*
X129532500Y-61615000I-62500J0D01*
G01*
G37*
G36*
G01*
X130032500Y-61615000D02*
X129907500Y-61615000D01*
G75*
G02*
X129845000Y-61552500I0J62500D01*
G01*
X129845000Y-60852500D01*
G75*
G02*
X129907500Y-60790000I62500J0D01*
G01*
X130032500Y-60790000D01*
G75*
G02*
X130095000Y-60852500I0J-62500D01*
G01*
X130095000Y-61552500D01*
G75*
G02*
X130032500Y-61615000I-62500J0D01*
G01*
G37*
G36*
G01*
X130532500Y-61615000D02*
X130407500Y-61615000D01*
G75*
G02*
X130345000Y-61552500I0J62500D01*
G01*
X130345000Y-60852500D01*
G75*
G02*
X130407500Y-60790000I62500J0D01*
G01*
X130532500Y-60790000D01*
G75*
G02*
X130595000Y-60852500I0J-62500D01*
G01*
X130595000Y-61552500D01*
G75*
G02*
X130532500Y-61615000I-62500J0D01*
G01*
G37*
G36*
G01*
X131032500Y-61615000D02*
X130907500Y-61615000D01*
G75*
G02*
X130845000Y-61552500I0J62500D01*
G01*
X130845000Y-60852500D01*
G75*
G02*
X130907500Y-60790000I62500J0D01*
G01*
X131032500Y-60790000D01*
G75*
G02*
X131095000Y-60852500I0J-62500D01*
G01*
X131095000Y-61552500D01*
G75*
G02*
X131032500Y-61615000I-62500J0D01*
G01*
G37*
G36*
G01*
X131532500Y-61615000D02*
X131407500Y-61615000D01*
G75*
G02*
X131345000Y-61552500I0J62500D01*
G01*
X131345000Y-60852500D01*
G75*
G02*
X131407500Y-60790000I62500J0D01*
G01*
X131532500Y-60790000D01*
G75*
G02*
X131595000Y-60852500I0J-62500D01*
G01*
X131595000Y-61552500D01*
G75*
G02*
X131532500Y-61615000I-62500J0D01*
G01*
G37*
G36*
G01*
X132757500Y-62265000D02*
X132057500Y-62265000D01*
G75*
G02*
X131995000Y-62202500I0J62500D01*
G01*
X131995000Y-62077500D01*
G75*
G02*
X132057500Y-62015000I62500J0D01*
G01*
X132757500Y-62015000D01*
G75*
G02*
X132820000Y-62077500I0J-62500D01*
G01*
X132820000Y-62202500D01*
G75*
G02*
X132757500Y-62265000I-62500J0D01*
G01*
G37*
G36*
G01*
X132757500Y-62765000D02*
X132057500Y-62765000D01*
G75*
G02*
X131995000Y-62702500I0J62500D01*
G01*
X131995000Y-62577500D01*
G75*
G02*
X132057500Y-62515000I62500J0D01*
G01*
X132757500Y-62515000D01*
G75*
G02*
X132820000Y-62577500I0J-62500D01*
G01*
X132820000Y-62702500D01*
G75*
G02*
X132757500Y-62765000I-62500J0D01*
G01*
G37*
G36*
G01*
X132757500Y-63265000D02*
X132057500Y-63265000D01*
G75*
G02*
X131995000Y-63202500I0J62500D01*
G01*
X131995000Y-63077500D01*
G75*
G02*
X132057500Y-63015000I62500J0D01*
G01*
X132757500Y-63015000D01*
G75*
G02*
X132820000Y-63077500I0J-62500D01*
G01*
X132820000Y-63202500D01*
G75*
G02*
X132757500Y-63265000I-62500J0D01*
G01*
G37*
G36*
G01*
X132757500Y-63765000D02*
X132057500Y-63765000D01*
G75*
G02*
X131995000Y-63702500I0J62500D01*
G01*
X131995000Y-63577500D01*
G75*
G02*
X132057500Y-63515000I62500J0D01*
G01*
X132757500Y-63515000D01*
G75*
G02*
X132820000Y-63577500I0J-62500D01*
G01*
X132820000Y-63702500D01*
G75*
G02*
X132757500Y-63765000I-62500J0D01*
G01*
G37*
G36*
G01*
X132757500Y-64265000D02*
X132057500Y-64265000D01*
G75*
G02*
X131995000Y-64202500I0J62500D01*
G01*
X131995000Y-64077500D01*
G75*
G02*
X132057500Y-64015000I62500J0D01*
G01*
X132757500Y-64015000D01*
G75*
G02*
X132820000Y-64077500I0J-62500D01*
G01*
X132820000Y-64202500D01*
G75*
G02*
X132757500Y-64265000I-62500J0D01*
G01*
G37*
G36*
G01*
X131532500Y-65490000D02*
X131407500Y-65490000D01*
G75*
G02*
X131345000Y-65427500I0J62500D01*
G01*
X131345000Y-64727500D01*
G75*
G02*
X131407500Y-64665000I62500J0D01*
G01*
X131532500Y-64665000D01*
G75*
G02*
X131595000Y-64727500I0J-62500D01*
G01*
X131595000Y-65427500D01*
G75*
G02*
X131532500Y-65490000I-62500J0D01*
G01*
G37*
G36*
G01*
X131032500Y-65490000D02*
X130907500Y-65490000D01*
G75*
G02*
X130845000Y-65427500I0J62500D01*
G01*
X130845000Y-64727500D01*
G75*
G02*
X130907500Y-64665000I62500J0D01*
G01*
X131032500Y-64665000D01*
G75*
G02*
X131095000Y-64727500I0J-62500D01*
G01*
X131095000Y-65427500D01*
G75*
G02*
X131032500Y-65490000I-62500J0D01*
G01*
G37*
G36*
G01*
X130532500Y-65490000D02*
X130407500Y-65490000D01*
G75*
G02*
X130345000Y-65427500I0J62500D01*
G01*
X130345000Y-64727500D01*
G75*
G02*
X130407500Y-64665000I62500J0D01*
G01*
X130532500Y-64665000D01*
G75*
G02*
X130595000Y-64727500I0J-62500D01*
G01*
X130595000Y-65427500D01*
G75*
G02*
X130532500Y-65490000I-62500J0D01*
G01*
G37*
G36*
G01*
X130032500Y-65490000D02*
X129907500Y-65490000D01*
G75*
G02*
X129845000Y-65427500I0J62500D01*
G01*
X129845000Y-64727500D01*
G75*
G02*
X129907500Y-64665000I62500J0D01*
G01*
X130032500Y-64665000D01*
G75*
G02*
X130095000Y-64727500I0J-62500D01*
G01*
X130095000Y-65427500D01*
G75*
G02*
X130032500Y-65490000I-62500J0D01*
G01*
G37*
G36*
G01*
X129532500Y-65490000D02*
X129407500Y-65490000D01*
G75*
G02*
X129345000Y-65427500I0J62500D01*
G01*
X129345000Y-64727500D01*
G75*
G02*
X129407500Y-64665000I62500J0D01*
G01*
X129532500Y-64665000D01*
G75*
G02*
X129595000Y-64727500I0J-62500D01*
G01*
X129595000Y-65427500D01*
G75*
G02*
X129532500Y-65490000I-62500J0D01*
G01*
G37*
%TD*%
D10*
%TO.C,U501*%
X107990000Y-83470000D03*
X107990000Y-84420000D03*
X107990000Y-85370000D03*
X105390000Y-85370000D03*
X105390000Y-84420000D03*
X105390000Y-83470000D03*
%TD*%
D11*
%TO.C,U402*%
X116012498Y-99151166D03*
X116012498Y-101051166D03*
X113512498Y-101051166D03*
X113512498Y-100101166D03*
X113512498Y-99151166D03*
%TD*%
D12*
%TO.C,U401*%
X104730000Y-96108000D03*
X106630000Y-96108000D03*
X106630000Y-98608000D03*
X105680000Y-98608000D03*
X104730000Y-98608000D03*
%TD*%
D10*
%TO.C,U301*%
X107599999Y-135400000D03*
X107599999Y-134450000D03*
X107599999Y-133500000D03*
X110199999Y-133500000D03*
X110199999Y-134450000D03*
X110199999Y-135400000D03*
%TD*%
D13*
%TO.C,X801*%
X134210000Y-64420000D03*
X134210000Y-62220000D03*
X135910000Y-62220000D03*
X135910000Y-64420000D03*
%TD*%
%TO.C,R803*%
G36*
G01*
X132615000Y-50287500D02*
X132615000Y-50632500D01*
G75*
G02*
X132467500Y-50780000I-147500J0D01*
G01*
X132172500Y-50780000D01*
G75*
G02*
X132025000Y-50632500I0J147500D01*
G01*
X132025000Y-50287500D01*
G75*
G02*
X132172500Y-50140000I147500J0D01*
G01*
X132467500Y-50140000D01*
G75*
G02*
X132615000Y-50287500I0J-147500D01*
G01*
G37*
G36*
G01*
X133585000Y-50287500D02*
X133585000Y-50632500D01*
G75*
G02*
X133437500Y-50780000I-147500J0D01*
G01*
X133142500Y-50780000D01*
G75*
G02*
X132995000Y-50632500I0J147500D01*
G01*
X132995000Y-50287500D01*
G75*
G02*
X133142500Y-50140000I147500J0D01*
G01*
X133437500Y-50140000D01*
G75*
G02*
X133585000Y-50287500I0J-147500D01*
G01*
G37*
%TD*%
%TO.C,R802*%
G36*
G01*
X132620000Y-51247500D02*
X132620000Y-51592500D01*
G75*
G02*
X132472500Y-51740000I-147500J0D01*
G01*
X132177500Y-51740000D01*
G75*
G02*
X132030000Y-51592500I0J147500D01*
G01*
X132030000Y-51247500D01*
G75*
G02*
X132177500Y-51100000I147500J0D01*
G01*
X132472500Y-51100000D01*
G75*
G02*
X132620000Y-51247500I0J-147500D01*
G01*
G37*
G36*
G01*
X133590000Y-51247500D02*
X133590000Y-51592500D01*
G75*
G02*
X133442500Y-51740000I-147500J0D01*
G01*
X133147500Y-51740000D01*
G75*
G02*
X133000000Y-51592500I0J147500D01*
G01*
X133000000Y-51247500D01*
G75*
G02*
X133147500Y-51100000I147500J0D01*
G01*
X133442500Y-51100000D01*
G75*
G02*
X133590000Y-51247500I0J-147500D01*
G01*
G37*
%TD*%
%TO.C,R801*%
G36*
G01*
X126580000Y-60367500D02*
X126580000Y-60712500D01*
G75*
G02*
X126432500Y-60860000I-147500J0D01*
G01*
X126137500Y-60860000D01*
G75*
G02*
X125990000Y-60712500I0J147500D01*
G01*
X125990000Y-60367500D01*
G75*
G02*
X126137500Y-60220000I147500J0D01*
G01*
X126432500Y-60220000D01*
G75*
G02*
X126580000Y-60367500I0J-147500D01*
G01*
G37*
G36*
G01*
X127550000Y-60367500D02*
X127550000Y-60712500D01*
G75*
G02*
X127402500Y-60860000I-147500J0D01*
G01*
X127107500Y-60860000D01*
G75*
G02*
X126960000Y-60712500I0J147500D01*
G01*
X126960000Y-60367500D01*
G75*
G02*
X127107500Y-60220000I147500J0D01*
G01*
X127402500Y-60220000D01*
G75*
G02*
X127550000Y-60367500I0J-147500D01*
G01*
G37*
%TD*%
%TO.C,L803*%
G36*
G01*
X130642500Y-58160000D02*
X130297500Y-58160000D01*
G75*
G02*
X130150000Y-58012500I0J147500D01*
G01*
X130150000Y-57717500D01*
G75*
G02*
X130297500Y-57570000I147500J0D01*
G01*
X130642500Y-57570000D01*
G75*
G02*
X130790000Y-57717500I0J-147500D01*
G01*
X130790000Y-58012500D01*
G75*
G02*
X130642500Y-58160000I-147500J0D01*
G01*
G37*
G36*
G01*
X130642500Y-59130000D02*
X130297500Y-59130000D01*
G75*
G02*
X130150000Y-58982500I0J147500D01*
G01*
X130150000Y-58687500D01*
G75*
G02*
X130297500Y-58540000I147500J0D01*
G01*
X130642500Y-58540000D01*
G75*
G02*
X130790000Y-58687500I0J-147500D01*
G01*
X130790000Y-58982500D01*
G75*
G02*
X130642500Y-59130000I-147500J0D01*
G01*
G37*
%TD*%
%TO.C,L802*%
G36*
G01*
X132120000Y-58942500D02*
X132120000Y-58597500D01*
G75*
G02*
X132267500Y-58450000I147500J0D01*
G01*
X132562500Y-58450000D01*
G75*
G02*
X132710000Y-58597500I0J-147500D01*
G01*
X132710000Y-58942500D01*
G75*
G02*
X132562500Y-59090000I-147500J0D01*
G01*
X132267500Y-59090000D01*
G75*
G02*
X132120000Y-58942500I0J147500D01*
G01*
G37*
G36*
G01*
X131150000Y-58942500D02*
X131150000Y-58597500D01*
G75*
G02*
X131297500Y-58450000I147500J0D01*
G01*
X131592500Y-58450000D01*
G75*
G02*
X131740000Y-58597500I0J-147500D01*
G01*
X131740000Y-58942500D01*
G75*
G02*
X131592500Y-59090000I-147500J0D01*
G01*
X131297500Y-59090000D01*
G75*
G02*
X131150000Y-58942500I0J147500D01*
G01*
G37*
%TD*%
%TO.C,L801*%
G36*
G01*
X130765000Y-59607500D02*
X130765000Y-59952500D01*
G75*
G02*
X130617500Y-60100000I-147500J0D01*
G01*
X130322500Y-60100000D01*
G75*
G02*
X130175000Y-59952500I0J147500D01*
G01*
X130175000Y-59607500D01*
G75*
G02*
X130322500Y-59460000I147500J0D01*
G01*
X130617500Y-59460000D01*
G75*
G02*
X130765000Y-59607500I0J-147500D01*
G01*
G37*
G36*
G01*
X131735000Y-59607500D02*
X131735000Y-59952500D01*
G75*
G02*
X131587500Y-60100000I-147500J0D01*
G01*
X131292500Y-60100000D01*
G75*
G02*
X131145000Y-59952500I0J147500D01*
G01*
X131145000Y-59607500D01*
G75*
G02*
X131292500Y-59460000I147500J0D01*
G01*
X131587500Y-59460000D01*
G75*
G02*
X131735000Y-59607500I0J-147500D01*
G01*
G37*
%TD*%
%TO.C,C813*%
G36*
G01*
X129455000Y-47757500D02*
X129455000Y-47282500D01*
G75*
G02*
X129692500Y-47045000I237500J0D01*
G01*
X130267500Y-47045000D01*
G75*
G02*
X130505000Y-47282500I0J-237500D01*
G01*
X130505000Y-47757500D01*
G75*
G02*
X130267500Y-47995000I-237500J0D01*
G01*
X129692500Y-47995000D01*
G75*
G02*
X129455000Y-47757500I0J237500D01*
G01*
G37*
G36*
G01*
X127705000Y-47757500D02*
X127705000Y-47282500D01*
G75*
G02*
X127942500Y-47045000I237500J0D01*
G01*
X128517500Y-47045000D01*
G75*
G02*
X128755000Y-47282500I0J-237500D01*
G01*
X128755000Y-47757500D01*
G75*
G02*
X128517500Y-47995000I-237500J0D01*
G01*
X127942500Y-47995000D01*
G75*
G02*
X127705000Y-47757500I0J237500D01*
G01*
G37*
%TD*%
%TO.C,C812*%
G36*
G01*
X124752500Y-50980000D02*
X124407500Y-50980000D01*
G75*
G02*
X124260000Y-50832500I0J147500D01*
G01*
X124260000Y-50537500D01*
G75*
G02*
X124407500Y-50390000I147500J0D01*
G01*
X124752500Y-50390000D01*
G75*
G02*
X124900000Y-50537500I0J-147500D01*
G01*
X124900000Y-50832500D01*
G75*
G02*
X124752500Y-50980000I-147500J0D01*
G01*
G37*
G36*
G01*
X124752500Y-51950000D02*
X124407500Y-51950000D01*
G75*
G02*
X124260000Y-51802500I0J147500D01*
G01*
X124260000Y-51507500D01*
G75*
G02*
X124407500Y-51360000I147500J0D01*
G01*
X124752500Y-51360000D01*
G75*
G02*
X124900000Y-51507500I0J-147500D01*
G01*
X124900000Y-51802500D01*
G75*
G02*
X124752500Y-51950000I-147500J0D01*
G01*
G37*
%TD*%
%TO.C,C811*%
G36*
G01*
X125742500Y-50980000D02*
X125397500Y-50980000D01*
G75*
G02*
X125250000Y-50832500I0J147500D01*
G01*
X125250000Y-50537500D01*
G75*
G02*
X125397500Y-50390000I147500J0D01*
G01*
X125742500Y-50390000D01*
G75*
G02*
X125890000Y-50537500I0J-147500D01*
G01*
X125890000Y-50832500D01*
G75*
G02*
X125742500Y-50980000I-147500J0D01*
G01*
G37*
G36*
G01*
X125742500Y-51950000D02*
X125397500Y-51950000D01*
G75*
G02*
X125250000Y-51802500I0J147500D01*
G01*
X125250000Y-51507500D01*
G75*
G02*
X125397500Y-51360000I147500J0D01*
G01*
X125742500Y-51360000D01*
G75*
G02*
X125890000Y-51507500I0J-147500D01*
G01*
X125890000Y-51802500D01*
G75*
G02*
X125742500Y-51950000I-147500J0D01*
G01*
G37*
%TD*%
%TO.C,C810*%
G36*
G01*
X126722500Y-50979999D02*
X126377500Y-50979999D01*
G75*
G02*
X126230000Y-50832499I0J147500D01*
G01*
X126230000Y-50537499D01*
G75*
G02*
X126377500Y-50389999I147500J0D01*
G01*
X126722500Y-50389999D01*
G75*
G02*
X126870000Y-50537499I0J-147500D01*
G01*
X126870000Y-50832499D01*
G75*
G02*
X126722500Y-50979999I-147500J0D01*
G01*
G37*
G36*
G01*
X126722500Y-51949999D02*
X126377500Y-51949999D01*
G75*
G02*
X126230000Y-51802499I0J147500D01*
G01*
X126230000Y-51507499D01*
G75*
G02*
X126377500Y-51359999I147500J0D01*
G01*
X126722500Y-51359999D01*
G75*
G02*
X126870000Y-51507499I0J-147500D01*
G01*
X126870000Y-51802499D01*
G75*
G02*
X126722500Y-51949999I-147500J0D01*
G01*
G37*
%TD*%
%TO.C,C809*%
G36*
G01*
X131004999Y-53082500D02*
X131004999Y-53557500D01*
G75*
G02*
X130767499Y-53795000I-237500J0D01*
G01*
X130192499Y-53795000D01*
G75*
G02*
X129954999Y-53557500I0J237500D01*
G01*
X129954999Y-53082500D01*
G75*
G02*
X130192499Y-52845000I237500J0D01*
G01*
X130767499Y-52845000D01*
G75*
G02*
X131004999Y-53082500I0J-237500D01*
G01*
G37*
G36*
G01*
X132754999Y-53082500D02*
X132754999Y-53557500D01*
G75*
G02*
X132517499Y-53795000I-237500J0D01*
G01*
X131942499Y-53795000D01*
G75*
G02*
X131704999Y-53557500I0J237500D01*
G01*
X131704999Y-53082500D01*
G75*
G02*
X131942499Y-52845000I237500J0D01*
G01*
X132517499Y-52845000D01*
G75*
G02*
X132754999Y-53082500I0J-237500D01*
G01*
G37*
%TD*%
%TO.C,C808*%
G36*
G01*
X132710000Y-57607500D02*
X132710000Y-57952500D01*
G75*
G02*
X132562500Y-58100000I-147500J0D01*
G01*
X132267500Y-58100000D01*
G75*
G02*
X132120000Y-57952500I0J147500D01*
G01*
X132120000Y-57607500D01*
G75*
G02*
X132267500Y-57460000I147500J0D01*
G01*
X132562500Y-57460000D01*
G75*
G02*
X132710000Y-57607500I0J-147500D01*
G01*
G37*
G36*
G01*
X133680000Y-57607500D02*
X133680000Y-57952500D01*
G75*
G02*
X133532500Y-58100000I-147500J0D01*
G01*
X133237500Y-58100000D01*
G75*
G02*
X133090000Y-57952500I0J147500D01*
G01*
X133090000Y-57607500D01*
G75*
G02*
X133237500Y-57460000I147500J0D01*
G01*
X133532500Y-57460000D01*
G75*
G02*
X133680000Y-57607500I0J-147500D01*
G01*
G37*
%TD*%
%TO.C,C807*%
G36*
G01*
X130247500Y-56064999D02*
X130722500Y-56064999D01*
G75*
G02*
X130960000Y-56302499I0J-237500D01*
G01*
X130960000Y-56877499D01*
G75*
G02*
X130722500Y-57114999I-237500J0D01*
G01*
X130247500Y-57114999D01*
G75*
G02*
X130010000Y-56877499I0J237500D01*
G01*
X130010000Y-56302499D01*
G75*
G02*
X130247500Y-56064999I237500J0D01*
G01*
G37*
G36*
G01*
X130247500Y-54314999D02*
X130722500Y-54314999D01*
G75*
G02*
X130960000Y-54552499I0J-237500D01*
G01*
X130960000Y-55127499D01*
G75*
G02*
X130722500Y-55364999I-237500J0D01*
G01*
X130247500Y-55364999D01*
G75*
G02*
X130010000Y-55127499I0J237500D01*
G01*
X130010000Y-54552499D01*
G75*
G02*
X130247500Y-54314999I237500J0D01*
G01*
G37*
%TD*%
%TO.C,C806*%
G36*
G01*
X132710000Y-56627500D02*
X132710000Y-56972500D01*
G75*
G02*
X132562500Y-57120000I-147500J0D01*
G01*
X132267500Y-57120000D01*
G75*
G02*
X132120000Y-56972500I0J147500D01*
G01*
X132120000Y-56627500D01*
G75*
G02*
X132267500Y-56480000I147500J0D01*
G01*
X132562500Y-56480000D01*
G75*
G02*
X132710000Y-56627500I0J-147500D01*
G01*
G37*
G36*
G01*
X133680000Y-56627500D02*
X133680000Y-56972500D01*
G75*
G02*
X133532500Y-57120000I-147500J0D01*
G01*
X133237500Y-57120000D01*
G75*
G02*
X133090000Y-56972500I0J147500D01*
G01*
X133090000Y-56627500D01*
G75*
G02*
X133237500Y-56480000I147500J0D01*
G01*
X133532500Y-56480000D01*
G75*
G02*
X133680000Y-56627500I0J-147500D01*
G01*
G37*
%TD*%
%TO.C,C805*%
G36*
G01*
X134510000Y-60577500D02*
X134510000Y-60922500D01*
G75*
G02*
X134362500Y-61070000I-147500J0D01*
G01*
X134067500Y-61070000D01*
G75*
G02*
X133920000Y-60922500I0J147500D01*
G01*
X133920000Y-60577500D01*
G75*
G02*
X134067500Y-60430000I147500J0D01*
G01*
X134362500Y-60430000D01*
G75*
G02*
X134510000Y-60577500I0J-147500D01*
G01*
G37*
G36*
G01*
X135480000Y-60577500D02*
X135480000Y-60922500D01*
G75*
G02*
X135332500Y-61070000I-147500J0D01*
G01*
X135037500Y-61070000D01*
G75*
G02*
X134890000Y-60922500I0J147500D01*
G01*
X134890000Y-60577500D01*
G75*
G02*
X135037500Y-60430000I147500J0D01*
G01*
X135332500Y-60430000D01*
G75*
G02*
X135480000Y-60577500I0J-147500D01*
G01*
G37*
%TD*%
%TO.C,C804*%
G36*
G01*
X135630000Y-66112500D02*
X135630000Y-65767500D01*
G75*
G02*
X135777500Y-65620000I147500J0D01*
G01*
X136072500Y-65620000D01*
G75*
G02*
X136220000Y-65767500I0J-147500D01*
G01*
X136220000Y-66112500D01*
G75*
G02*
X136072500Y-66260000I-147500J0D01*
G01*
X135777500Y-66260000D01*
G75*
G02*
X135630000Y-66112500I0J147500D01*
G01*
G37*
G36*
G01*
X134660000Y-66112500D02*
X134660000Y-65767500D01*
G75*
G02*
X134807500Y-65620000I147500J0D01*
G01*
X135102500Y-65620000D01*
G75*
G02*
X135250000Y-65767500I0J-147500D01*
G01*
X135250000Y-66112500D01*
G75*
G02*
X135102500Y-66260000I-147500J0D01*
G01*
X134807500Y-66260000D01*
G75*
G02*
X134660000Y-66112500I0J147500D01*
G01*
G37*
%TD*%
%TO.C,C803*%
G36*
G01*
X126162500Y-62470000D02*
X125817500Y-62470000D01*
G75*
G02*
X125670000Y-62322500I0J147500D01*
G01*
X125670000Y-62027500D01*
G75*
G02*
X125817500Y-61880000I147500J0D01*
G01*
X126162500Y-61880000D01*
G75*
G02*
X126310000Y-62027500I0J-147500D01*
G01*
X126310000Y-62322500D01*
G75*
G02*
X126162500Y-62470000I-147500J0D01*
G01*
G37*
G36*
G01*
X126162500Y-63440000D02*
X125817500Y-63440000D01*
G75*
G02*
X125670000Y-63292500I0J147500D01*
G01*
X125670000Y-62997500D01*
G75*
G02*
X125817500Y-62850000I147500J0D01*
G01*
X126162500Y-62850000D01*
G75*
G02*
X126310000Y-62997500I0J-147500D01*
G01*
X126310000Y-63292500D01*
G75*
G02*
X126162500Y-63440000I-147500J0D01*
G01*
G37*
%TD*%
%TO.C,C802*%
G36*
G01*
X127142500Y-62470000D02*
X126797500Y-62470000D01*
G75*
G02*
X126650000Y-62322500I0J147500D01*
G01*
X126650000Y-62027500D01*
G75*
G02*
X126797500Y-61880000I147500J0D01*
G01*
X127142500Y-61880000D01*
G75*
G02*
X127290000Y-62027500I0J-147500D01*
G01*
X127290000Y-62322500D01*
G75*
G02*
X127142500Y-62470000I-147500J0D01*
G01*
G37*
G36*
G01*
X127142500Y-63440000D02*
X126797500Y-63440000D01*
G75*
G02*
X126650000Y-63292500I0J147500D01*
G01*
X126650000Y-62997500D01*
G75*
G02*
X126797500Y-62850000I147500J0D01*
G01*
X127142500Y-62850000D01*
G75*
G02*
X127290000Y-62997500I0J-147500D01*
G01*
X127290000Y-63292500D01*
G75*
G02*
X127142500Y-63440000I-147500J0D01*
G01*
G37*
%TD*%
%TO.C,C801*%
G36*
G01*
X126613750Y-65640000D02*
X127126250Y-65640000D01*
G75*
G02*
X127345000Y-65858750I0J-218750D01*
G01*
X127345000Y-66296250D01*
G75*
G02*
X127126250Y-66515000I-218750J0D01*
G01*
X126613750Y-66515000D01*
G75*
G02*
X126395000Y-66296250I0J218750D01*
G01*
X126395000Y-65858750D01*
G75*
G02*
X126613750Y-65640000I218750J0D01*
G01*
G37*
G36*
G01*
X126613750Y-64065000D02*
X127126250Y-64065000D01*
G75*
G02*
X127345000Y-64283750I0J-218750D01*
G01*
X127345000Y-64721250D01*
G75*
G02*
X127126250Y-64940000I-218750J0D01*
G01*
X126613750Y-64940000D01*
G75*
G02*
X126395000Y-64721250I0J218750D01*
G01*
X126395000Y-64283750D01*
G75*
G02*
X126613750Y-64065000I218750J0D01*
G01*
G37*
%TD*%
%TO.C,U802*%
G36*
G01*
X130347500Y-50345000D02*
X129992500Y-50345000D01*
G75*
G02*
X129815000Y-50167500I0J177500D01*
G01*
X129815000Y-49812500D01*
G75*
G02*
X129992500Y-49635000I177500J0D01*
G01*
X130347500Y-49635000D01*
G75*
G02*
X130525000Y-49812500I0J-177500D01*
G01*
X130525000Y-50167500D01*
G75*
G02*
X130347500Y-50345000I-177500J0D01*
G01*
G37*
G36*
G01*
X129467500Y-50345000D02*
X129112500Y-50345000D01*
G75*
G02*
X128935000Y-50167500I0J177500D01*
G01*
X128935000Y-49812500D01*
G75*
G02*
X129112500Y-49635000I177500J0D01*
G01*
X129467500Y-49635000D01*
G75*
G02*
X129645000Y-49812500I0J-177500D01*
G01*
X129645000Y-50167500D01*
G75*
G02*
X129467500Y-50345000I-177500J0D01*
G01*
G37*
G36*
G01*
X130347500Y-51225000D02*
X129992500Y-51225000D01*
G75*
G02*
X129815000Y-51047500I0J177500D01*
G01*
X129815000Y-50692500D01*
G75*
G02*
X129992500Y-50515000I177500J0D01*
G01*
X130347500Y-50515000D01*
G75*
G02*
X130525000Y-50692500I0J-177500D01*
G01*
X130525000Y-51047500D01*
G75*
G02*
X130347500Y-51225000I-177500J0D01*
G01*
G37*
G36*
G01*
X129467500Y-51225000D02*
X129112500Y-51225000D01*
G75*
G02*
X128935000Y-51047500I0J177500D01*
G01*
X128935000Y-50692500D01*
G75*
G02*
X129112500Y-50515000I177500J0D01*
G01*
X129467500Y-50515000D01*
G75*
G02*
X129645000Y-50692500I0J-177500D01*
G01*
X129645000Y-51047500D01*
G75*
G02*
X129467500Y-51225000I-177500J0D01*
G01*
G37*
G36*
G01*
X128592500Y-51305000D02*
X127942500Y-51305000D01*
G75*
G02*
X127880000Y-51242500I0J62500D01*
G01*
X127880000Y-51117500D01*
G75*
G02*
X127942500Y-51055000I62500J0D01*
G01*
X128592500Y-51055000D01*
G75*
G02*
X128655000Y-51117500I0J-62500D01*
G01*
X128655000Y-51242500D01*
G75*
G02*
X128592500Y-51305000I-62500J0D01*
G01*
G37*
G36*
G01*
X128592500Y-50805000D02*
X127942500Y-50805000D01*
G75*
G02*
X127880000Y-50742500I0J62500D01*
G01*
X127880000Y-50617500D01*
G75*
G02*
X127942500Y-50555000I62500J0D01*
G01*
X128592500Y-50555000D01*
G75*
G02*
X128655000Y-50617500I0J-62500D01*
G01*
X128655000Y-50742500D01*
G75*
G02*
X128592500Y-50805000I-62500J0D01*
G01*
G37*
G36*
G01*
X128592500Y-50305000D02*
X127942500Y-50305000D01*
G75*
G02*
X127880000Y-50242500I0J62500D01*
G01*
X127880000Y-50117500D01*
G75*
G02*
X127942500Y-50055000I62500J0D01*
G01*
X128592500Y-50055000D01*
G75*
G02*
X128655000Y-50117500I0J-62500D01*
G01*
X128655000Y-50242500D01*
G75*
G02*
X128592500Y-50305000I-62500J0D01*
G01*
G37*
G36*
G01*
X128592500Y-49805000D02*
X127942500Y-49805000D01*
G75*
G02*
X127880000Y-49742500I0J62500D01*
G01*
X127880000Y-49617500D01*
G75*
G02*
X127942500Y-49555000I62500J0D01*
G01*
X128592500Y-49555000D01*
G75*
G02*
X128655000Y-49617500I0J-62500D01*
G01*
X128655000Y-49742500D01*
G75*
G02*
X128592500Y-49805000I-62500J0D01*
G01*
G37*
G36*
G01*
X129042500Y-49355000D02*
X128917500Y-49355000D01*
G75*
G02*
X128855000Y-49292500I0J62500D01*
G01*
X128855000Y-48642500D01*
G75*
G02*
X128917500Y-48580000I62500J0D01*
G01*
X129042500Y-48580000D01*
G75*
G02*
X129105000Y-48642500I0J-62500D01*
G01*
X129105000Y-49292500D01*
G75*
G02*
X129042500Y-49355000I-62500J0D01*
G01*
G37*
G36*
G01*
X129542500Y-49355000D02*
X129417500Y-49355000D01*
G75*
G02*
X129355000Y-49292500I0J62500D01*
G01*
X129355000Y-48642500D01*
G75*
G02*
X129417500Y-48580000I62500J0D01*
G01*
X129542500Y-48580000D01*
G75*
G02*
X129605000Y-48642500I0J-62500D01*
G01*
X129605000Y-49292500D01*
G75*
G02*
X129542500Y-49355000I-62500J0D01*
G01*
G37*
G36*
G01*
X130042500Y-49355000D02*
X129917500Y-49355000D01*
G75*
G02*
X129855000Y-49292500I0J62500D01*
G01*
X129855000Y-48642500D01*
G75*
G02*
X129917500Y-48580000I62500J0D01*
G01*
X130042500Y-48580000D01*
G75*
G02*
X130105000Y-48642500I0J-62500D01*
G01*
X130105000Y-49292500D01*
G75*
G02*
X130042500Y-49355000I-62500J0D01*
G01*
G37*
G36*
G01*
X130542500Y-49355000D02*
X130417500Y-49355000D01*
G75*
G02*
X130355000Y-49292500I0J62500D01*
G01*
X130355000Y-48642500D01*
G75*
G02*
X130417500Y-48580000I62500J0D01*
G01*
X130542500Y-48580000D01*
G75*
G02*
X130605000Y-48642500I0J-62500D01*
G01*
X130605000Y-49292500D01*
G75*
G02*
X130542500Y-49355000I-62500J0D01*
G01*
G37*
G36*
G01*
X131517500Y-49805000D02*
X130867500Y-49805000D01*
G75*
G02*
X130805000Y-49742500I0J62500D01*
G01*
X130805000Y-49617500D01*
G75*
G02*
X130867500Y-49555000I62500J0D01*
G01*
X131517500Y-49555000D01*
G75*
G02*
X131580000Y-49617500I0J-62500D01*
G01*
X131580000Y-49742500D01*
G75*
G02*
X131517500Y-49805000I-62500J0D01*
G01*
G37*
G36*
G01*
X131517500Y-50305000D02*
X130867500Y-50305000D01*
G75*
G02*
X130805000Y-50242500I0J62500D01*
G01*
X130805000Y-50117500D01*
G75*
G02*
X130867500Y-50055000I62500J0D01*
G01*
X131517500Y-50055000D01*
G75*
G02*
X131580000Y-50117500I0J-62500D01*
G01*
X131580000Y-50242500D01*
G75*
G02*
X131517500Y-50305000I-62500J0D01*
G01*
G37*
G36*
G01*
X131517500Y-50805000D02*
X130867500Y-50805000D01*
G75*
G02*
X130805000Y-50742500I0J62500D01*
G01*
X130805000Y-50617500D01*
G75*
G02*
X130867500Y-50555000I62500J0D01*
G01*
X131517500Y-50555000D01*
G75*
G02*
X131580000Y-50617500I0J-62500D01*
G01*
X131580000Y-50742500D01*
G75*
G02*
X131517500Y-50805000I-62500J0D01*
G01*
G37*
G36*
G01*
X131517500Y-51305000D02*
X130867500Y-51305000D01*
G75*
G02*
X130805000Y-51242500I0J62500D01*
G01*
X130805000Y-51117500D01*
G75*
G02*
X130867500Y-51055000I62500J0D01*
G01*
X131517500Y-51055000D01*
G75*
G02*
X131580000Y-51117500I0J-62500D01*
G01*
X131580000Y-51242500D01*
G75*
G02*
X131517500Y-51305000I-62500J0D01*
G01*
G37*
G36*
G01*
X130542500Y-52280000D02*
X130417500Y-52280000D01*
G75*
G02*
X130355000Y-52217500I0J62500D01*
G01*
X130355000Y-51567500D01*
G75*
G02*
X130417500Y-51505000I62500J0D01*
G01*
X130542500Y-51505000D01*
G75*
G02*
X130605000Y-51567500I0J-62500D01*
G01*
X130605000Y-52217500D01*
G75*
G02*
X130542500Y-52280000I-62500J0D01*
G01*
G37*
G36*
G01*
X130042500Y-52280000D02*
X129917500Y-52280000D01*
G75*
G02*
X129855000Y-52217500I0J62500D01*
G01*
X129855000Y-51567500D01*
G75*
G02*
X129917500Y-51505000I62500J0D01*
G01*
X130042500Y-51505000D01*
G75*
G02*
X130105000Y-51567500I0J-62500D01*
G01*
X130105000Y-52217500D01*
G75*
G02*
X130042500Y-52280000I-62500J0D01*
G01*
G37*
G36*
G01*
X129542500Y-52280000D02*
X129417500Y-52280000D01*
G75*
G02*
X129355000Y-52217500I0J62500D01*
G01*
X129355000Y-51567500D01*
G75*
G02*
X129417500Y-51505000I62500J0D01*
G01*
X129542500Y-51505000D01*
G75*
G02*
X129605000Y-51567500I0J-62500D01*
G01*
X129605000Y-52217500D01*
G75*
G02*
X129542500Y-52280000I-62500J0D01*
G01*
G37*
G36*
G01*
X129042500Y-52280000D02*
X128917500Y-52280000D01*
G75*
G02*
X128855000Y-52217500I0J62500D01*
G01*
X128855000Y-51567500D01*
G75*
G02*
X128917500Y-51505000I62500J0D01*
G01*
X129042500Y-51505000D01*
G75*
G02*
X129105000Y-51567500I0J-62500D01*
G01*
X129105000Y-52217500D01*
G75*
G02*
X129042500Y-52280000I-62500J0D01*
G01*
G37*
%TD*%
D14*
%TO.C,FL801*%
X129470000Y-45320000D03*
X129970000Y-45320000D03*
X130470000Y-45320000D03*
X130470000Y-46120000D03*
X129970000Y-46120000D03*
X129470000Y-46120000D03*
%TD*%
%TO.C,R1405*%
G36*
G01*
X134539273Y-103554678D02*
X134295322Y-103310726D01*
G75*
G02*
X134295322Y-103102130I104298J104298D01*
G01*
X134503918Y-102893534D01*
G75*
G02*
X134712514Y-102893534I104298J-104298D01*
G01*
X134956466Y-103137486D01*
G75*
G02*
X134956466Y-103346082I-104298J-104298D01*
G01*
X134747870Y-103554678D01*
G75*
G02*
X134539274Y-103554678I-104298J104298D01*
G01*
G37*
G36*
G01*
X133853379Y-104240572D02*
X133609428Y-103996620D01*
G75*
G02*
X133609428Y-103788024I104298J104298D01*
G01*
X133818024Y-103579428D01*
G75*
G02*
X134026620Y-103579428I104298J-104298D01*
G01*
X134270572Y-103823380D01*
G75*
G02*
X134270572Y-104031976I-104298J-104298D01*
G01*
X134061976Y-104240572D01*
G75*
G02*
X133853380Y-104240572I-104298J104298D01*
G01*
G37*
%TD*%
%TO.C,C1401*%
G36*
G01*
X138393674Y-101122375D02*
X138637625Y-101366327D01*
G75*
G02*
X138637625Y-101574923I-104298J-104298D01*
G01*
X138429029Y-101783519D01*
G75*
G02*
X138220433Y-101783519I-104298J104298D01*
G01*
X137976481Y-101539567D01*
G75*
G02*
X137976481Y-101330971I104298J104298D01*
G01*
X138185077Y-101122375D01*
G75*
G02*
X138393673Y-101122375I104298J-104298D01*
G01*
G37*
G36*
G01*
X139079568Y-100436481D02*
X139323519Y-100680433D01*
G75*
G02*
X139323519Y-100889029I-104298J-104298D01*
G01*
X139114923Y-101097625D01*
G75*
G02*
X138906327Y-101097625I-104298J104298D01*
G01*
X138662375Y-100853673D01*
G75*
G02*
X138662375Y-100645077I104298J104298D01*
G01*
X138870971Y-100436481D01*
G75*
G02*
X139079567Y-100436481I104298J-104298D01*
G01*
G37*
%TD*%
D15*
%TO.C,X1401*%
G36*
X135951109Y-99665007D02*
G01*
X135491490Y-99205388D01*
X136594577Y-98102301D01*
X137054196Y-98561920D01*
X135951109Y-99665007D01*
G37*
G36*
X137294612Y-101008510D02*
G01*
X136834993Y-100548891D01*
X137938080Y-99445804D01*
X138397699Y-99905423D01*
X137294612Y-101008510D01*
G37*
G36*
X135385423Y-102917699D02*
G01*
X134925804Y-102458080D01*
X136028891Y-101354993D01*
X136488510Y-101814612D01*
X135385423Y-102917699D01*
G37*
G36*
X134713672Y-102245947D02*
G01*
X134254053Y-101786328D01*
X135357140Y-100683241D01*
X135816759Y-101142860D01*
X134713672Y-102245947D01*
G37*
G36*
X134041920Y-101574196D02*
G01*
X133582301Y-101114577D01*
X134685388Y-100011490D01*
X135145007Y-100471109D01*
X134041920Y-101574196D01*
G37*
%TD*%
%TO.C,R915*%
G36*
G01*
X137770000Y-130233750D02*
X137770000Y-131146250D01*
G75*
G02*
X137526250Y-131390000I-243750J0D01*
G01*
X137038750Y-131390000D01*
G75*
G02*
X136795000Y-131146250I0J243750D01*
G01*
X136795000Y-130233750D01*
G75*
G02*
X137038750Y-129990000I243750J0D01*
G01*
X137526250Y-129990000D01*
G75*
G02*
X137770000Y-130233750I0J-243750D01*
G01*
G37*
G36*
G01*
X139645000Y-130233750D02*
X139645000Y-131146250D01*
G75*
G02*
X139401250Y-131390000I-243750J0D01*
G01*
X138913750Y-131390000D01*
G75*
G02*
X138670000Y-131146250I0J243750D01*
G01*
X138670000Y-130233750D01*
G75*
G02*
X138913750Y-129990000I243750J0D01*
G01*
X139401250Y-129990000D01*
G75*
G02*
X139645000Y-130233750I0J-243750D01*
G01*
G37*
%TD*%
%TO.C,R914*%
G36*
G01*
X138670000Y-133056250D02*
X138670000Y-132143750D01*
G75*
G02*
X138913750Y-131900000I243750J0D01*
G01*
X139401250Y-131900000D01*
G75*
G02*
X139645000Y-132143750I0J-243750D01*
G01*
X139645000Y-133056250D01*
G75*
G02*
X139401250Y-133300000I-243750J0D01*
G01*
X138913750Y-133300000D01*
G75*
G02*
X138670000Y-133056250I0J243750D01*
G01*
G37*
G36*
G01*
X136795000Y-133056250D02*
X136795000Y-132143750D01*
G75*
G02*
X137038750Y-131900000I243750J0D01*
G01*
X137526250Y-131900000D01*
G75*
G02*
X137770000Y-132143750I0J-243750D01*
G01*
X137770000Y-133056250D01*
G75*
G02*
X137526250Y-133300000I-243750J0D01*
G01*
X137038750Y-133300000D01*
G75*
G02*
X136795000Y-133056250I0J243750D01*
G01*
G37*
%TD*%
%TO.C,R913*%
G36*
G01*
X137770000Y-134043750D02*
X137770000Y-134956250D01*
G75*
G02*
X137526250Y-135200000I-243750J0D01*
G01*
X137038750Y-135200000D01*
G75*
G02*
X136795000Y-134956250I0J243750D01*
G01*
X136795000Y-134043750D01*
G75*
G02*
X137038750Y-133800000I243750J0D01*
G01*
X137526250Y-133800000D01*
G75*
G02*
X137770000Y-134043750I0J-243750D01*
G01*
G37*
G36*
G01*
X139645000Y-134043750D02*
X139645000Y-134956250D01*
G75*
G02*
X139401250Y-135200000I-243750J0D01*
G01*
X138913750Y-135200000D01*
G75*
G02*
X138670000Y-134956250I0J243750D01*
G01*
X138670000Y-134043750D01*
G75*
G02*
X138913750Y-133800000I243750J0D01*
G01*
X139401250Y-133800000D01*
G75*
G02*
X139645000Y-134043750I0J-243750D01*
G01*
G37*
%TD*%
%TO.C,R912*%
G36*
G01*
X138667500Y-136866250D02*
X138667500Y-135953750D01*
G75*
G02*
X138911250Y-135710000I243750J0D01*
G01*
X139398750Y-135710000D01*
G75*
G02*
X139642500Y-135953750I0J-243750D01*
G01*
X139642500Y-136866250D01*
G75*
G02*
X139398750Y-137110000I-243750J0D01*
G01*
X138911250Y-137110000D01*
G75*
G02*
X138667500Y-136866250I0J243750D01*
G01*
G37*
G36*
G01*
X136792500Y-136866250D02*
X136792500Y-135953750D01*
G75*
G02*
X137036250Y-135710000I243750J0D01*
G01*
X137523750Y-135710000D01*
G75*
G02*
X137767500Y-135953750I0J-243750D01*
G01*
X137767500Y-136866250D01*
G75*
G02*
X137523750Y-137110000I-243750J0D01*
G01*
X137036250Y-137110000D01*
G75*
G02*
X136792500Y-136866250I0J243750D01*
G01*
G37*
%TD*%
%TO.C,R911*%
G36*
G01*
X143497500Y-104136250D02*
X143497500Y-103623750D01*
G75*
G02*
X143716250Y-103405000I218750J0D01*
G01*
X144153750Y-103405000D01*
G75*
G02*
X144372500Y-103623750I0J-218750D01*
G01*
X144372500Y-104136250D01*
G75*
G02*
X144153750Y-104355000I-218750J0D01*
G01*
X143716250Y-104355000D01*
G75*
G02*
X143497500Y-104136250I0J218750D01*
G01*
G37*
G36*
G01*
X141922500Y-104136250D02*
X141922500Y-103623750D01*
G75*
G02*
X142141250Y-103405000I218750J0D01*
G01*
X142578750Y-103405000D01*
G75*
G02*
X142797500Y-103623750I0J-218750D01*
G01*
X142797500Y-104136250D01*
G75*
G02*
X142578750Y-104355000I-218750J0D01*
G01*
X142141250Y-104355000D01*
G75*
G02*
X141922500Y-104136250I0J218750D01*
G01*
G37*
%TD*%
%TO.C,R910*%
G36*
G01*
X143500000Y-105606251D02*
X143500000Y-105093751D01*
G75*
G02*
X143718750Y-104875001I218750J0D01*
G01*
X144156250Y-104875001D01*
G75*
G02*
X144375000Y-105093751I0J-218750D01*
G01*
X144375000Y-105606251D01*
G75*
G02*
X144156250Y-105825001I-218750J0D01*
G01*
X143718750Y-105825001D01*
G75*
G02*
X143500000Y-105606251I0J218750D01*
G01*
G37*
G36*
G01*
X141925000Y-105606251D02*
X141925000Y-105093751D01*
G75*
G02*
X142143750Y-104875001I218750J0D01*
G01*
X142581250Y-104875001D01*
G75*
G02*
X142800000Y-105093751I0J-218750D01*
G01*
X142800000Y-105606251D01*
G75*
G02*
X142581250Y-105825001I-218750J0D01*
G01*
X142143750Y-105825001D01*
G75*
G02*
X141925000Y-105606251I0J218750D01*
G01*
G37*
%TD*%
%TO.C,R909*%
G36*
G01*
X143500000Y-107096250D02*
X143500000Y-106583750D01*
G75*
G02*
X143718750Y-106365000I218750J0D01*
G01*
X144156250Y-106365000D01*
G75*
G02*
X144375000Y-106583750I0J-218750D01*
G01*
X144375000Y-107096250D01*
G75*
G02*
X144156250Y-107315000I-218750J0D01*
G01*
X143718750Y-107315000D01*
G75*
G02*
X143500000Y-107096250I0J218750D01*
G01*
G37*
G36*
G01*
X141925000Y-107096250D02*
X141925000Y-106583750D01*
G75*
G02*
X142143750Y-106365000I218750J0D01*
G01*
X142581250Y-106365000D01*
G75*
G02*
X142800000Y-106583750I0J-218750D01*
G01*
X142800000Y-107096250D01*
G75*
G02*
X142581250Y-107315000I-218750J0D01*
G01*
X142143750Y-107315000D01*
G75*
G02*
X141925000Y-107096250I0J218750D01*
G01*
G37*
%TD*%
%TO.C,R908*%
G36*
G01*
X143500000Y-108596250D02*
X143500000Y-108083750D01*
G75*
G02*
X143718750Y-107865000I218750J0D01*
G01*
X144156250Y-107865000D01*
G75*
G02*
X144375000Y-108083750I0J-218750D01*
G01*
X144375000Y-108596250D01*
G75*
G02*
X144156250Y-108815000I-218750J0D01*
G01*
X143718750Y-108815000D01*
G75*
G02*
X143500000Y-108596250I0J218750D01*
G01*
G37*
G36*
G01*
X141925000Y-108596250D02*
X141925000Y-108083750D01*
G75*
G02*
X142143750Y-107865000I218750J0D01*
G01*
X142581250Y-107865000D01*
G75*
G02*
X142800000Y-108083750I0J-218750D01*
G01*
X142800000Y-108596250D01*
G75*
G02*
X142581250Y-108815000I-218750J0D01*
G01*
X142143750Y-108815000D01*
G75*
G02*
X141925000Y-108596250I0J218750D01*
G01*
G37*
%TD*%
%TO.C,R907*%
G36*
G01*
X143492500Y-110086250D02*
X143492500Y-109573750D01*
G75*
G02*
X143711250Y-109355000I218750J0D01*
G01*
X144148750Y-109355000D01*
G75*
G02*
X144367500Y-109573750I0J-218750D01*
G01*
X144367500Y-110086250D01*
G75*
G02*
X144148750Y-110305000I-218750J0D01*
G01*
X143711250Y-110305000D01*
G75*
G02*
X143492500Y-110086250I0J218750D01*
G01*
G37*
G36*
G01*
X141917500Y-110086250D02*
X141917500Y-109573750D01*
G75*
G02*
X142136250Y-109355000I218750J0D01*
G01*
X142573750Y-109355000D01*
G75*
G02*
X142792500Y-109573750I0J-218750D01*
G01*
X142792500Y-110086250D01*
G75*
G02*
X142573750Y-110305000I-218750J0D01*
G01*
X142136250Y-110305000D01*
G75*
G02*
X141917500Y-110086250I0J218750D01*
G01*
G37*
%TD*%
%TO.C,R906*%
G36*
G01*
X143490000Y-111576250D02*
X143490000Y-111063750D01*
G75*
G02*
X143708750Y-110845000I218750J0D01*
G01*
X144146250Y-110845000D01*
G75*
G02*
X144365000Y-111063750I0J-218750D01*
G01*
X144365000Y-111576250D01*
G75*
G02*
X144146250Y-111795000I-218750J0D01*
G01*
X143708750Y-111795000D01*
G75*
G02*
X143490000Y-111576250I0J218750D01*
G01*
G37*
G36*
G01*
X141915000Y-111576250D02*
X141915000Y-111063750D01*
G75*
G02*
X142133750Y-110845000I218750J0D01*
G01*
X142571250Y-110845000D01*
G75*
G02*
X142790000Y-111063750I0J-218750D01*
G01*
X142790000Y-111576250D01*
G75*
G02*
X142571250Y-111795000I-218750J0D01*
G01*
X142133750Y-111795000D01*
G75*
G02*
X141915000Y-111576250I0J218750D01*
G01*
G37*
%TD*%
%TO.C,R905*%
G36*
G01*
X143490000Y-113086250D02*
X143490000Y-112573750D01*
G75*
G02*
X143708750Y-112355000I218750J0D01*
G01*
X144146250Y-112355000D01*
G75*
G02*
X144365000Y-112573750I0J-218750D01*
G01*
X144365000Y-113086250D01*
G75*
G02*
X144146250Y-113305000I-218750J0D01*
G01*
X143708750Y-113305000D01*
G75*
G02*
X143490000Y-113086250I0J218750D01*
G01*
G37*
G36*
G01*
X141915000Y-113086250D02*
X141915000Y-112573750D01*
G75*
G02*
X142133750Y-112355000I218750J0D01*
G01*
X142571250Y-112355000D01*
G75*
G02*
X142790000Y-112573750I0J-218750D01*
G01*
X142790000Y-113086250D01*
G75*
G02*
X142571250Y-113305000I-218750J0D01*
G01*
X142133750Y-113305000D01*
G75*
G02*
X141915000Y-113086250I0J218750D01*
G01*
G37*
%TD*%
%TO.C,R904*%
G36*
G01*
X143489999Y-114596250D02*
X143489999Y-114083750D01*
G75*
G02*
X143708749Y-113865000I218750J0D01*
G01*
X144146249Y-113865000D01*
G75*
G02*
X144364999Y-114083750I0J-218750D01*
G01*
X144364999Y-114596250D01*
G75*
G02*
X144146249Y-114815000I-218750J0D01*
G01*
X143708749Y-114815000D01*
G75*
G02*
X143489999Y-114596250I0J218750D01*
G01*
G37*
G36*
G01*
X141914999Y-114596250D02*
X141914999Y-114083750D01*
G75*
G02*
X142133749Y-113865000I218750J0D01*
G01*
X142571249Y-113865000D01*
G75*
G02*
X142789999Y-114083750I0J-218750D01*
G01*
X142789999Y-114596250D01*
G75*
G02*
X142571249Y-114815000I-218750J0D01*
G01*
X142133749Y-114815000D01*
G75*
G02*
X141914999Y-114596250I0J218750D01*
G01*
G37*
%TD*%
%TO.C,R903*%
G36*
G01*
X103020000Y-91026250D02*
X103020000Y-90513750D01*
G75*
G02*
X103238750Y-90295000I218750J0D01*
G01*
X103676250Y-90295000D01*
G75*
G02*
X103895000Y-90513750I0J-218750D01*
G01*
X103895000Y-91026250D01*
G75*
G02*
X103676250Y-91245000I-218750J0D01*
G01*
X103238750Y-91245000D01*
G75*
G02*
X103020000Y-91026250I0J218750D01*
G01*
G37*
G36*
G01*
X101445000Y-91026250D02*
X101445000Y-90513750D01*
G75*
G02*
X101663750Y-90295000I218750J0D01*
G01*
X102101250Y-90295000D01*
G75*
G02*
X102320000Y-90513750I0J-218750D01*
G01*
X102320000Y-91026250D01*
G75*
G02*
X102101250Y-91245000I-218750J0D01*
G01*
X101663750Y-91245000D01*
G75*
G02*
X101445000Y-91026250I0J218750D01*
G01*
G37*
%TD*%
%TO.C,D909*%
G36*
G01*
X140500000Y-104136250D02*
X140500000Y-103623750D01*
G75*
G02*
X140718750Y-103405000I218750J0D01*
G01*
X141156250Y-103405000D01*
G75*
G02*
X141375000Y-103623750I0J-218750D01*
G01*
X141375000Y-104136250D01*
G75*
G02*
X141156250Y-104355000I-218750J0D01*
G01*
X140718750Y-104355000D01*
G75*
G02*
X140500000Y-104136250I0J218750D01*
G01*
G37*
G36*
G01*
X138925000Y-104136250D02*
X138925000Y-103623750D01*
G75*
G02*
X139143750Y-103405000I218750J0D01*
G01*
X139581250Y-103405000D01*
G75*
G02*
X139800000Y-103623750I0J-218750D01*
G01*
X139800000Y-104136250D01*
G75*
G02*
X139581250Y-104355000I-218750J0D01*
G01*
X139143750Y-104355000D01*
G75*
G02*
X138925000Y-104136250I0J218750D01*
G01*
G37*
%TD*%
%TO.C,D908*%
G36*
G01*
X140500000Y-105606250D02*
X140500000Y-105093750D01*
G75*
G02*
X140718750Y-104875000I218750J0D01*
G01*
X141156250Y-104875000D01*
G75*
G02*
X141375000Y-105093750I0J-218750D01*
G01*
X141375000Y-105606250D01*
G75*
G02*
X141156250Y-105825000I-218750J0D01*
G01*
X140718750Y-105825000D01*
G75*
G02*
X140500000Y-105606250I0J218750D01*
G01*
G37*
G36*
G01*
X138925000Y-105606250D02*
X138925000Y-105093750D01*
G75*
G02*
X139143750Y-104875000I218750J0D01*
G01*
X139581250Y-104875000D01*
G75*
G02*
X139800000Y-105093750I0J-218750D01*
G01*
X139800000Y-105606250D01*
G75*
G02*
X139581250Y-105825000I-218750J0D01*
G01*
X139143750Y-105825000D01*
G75*
G02*
X138925000Y-105606250I0J218750D01*
G01*
G37*
%TD*%
%TO.C,D907*%
G36*
G01*
X140500000Y-107096250D02*
X140500000Y-106583750D01*
G75*
G02*
X140718750Y-106365000I218750J0D01*
G01*
X141156250Y-106365000D01*
G75*
G02*
X141375000Y-106583750I0J-218750D01*
G01*
X141375000Y-107096250D01*
G75*
G02*
X141156250Y-107315000I-218750J0D01*
G01*
X140718750Y-107315000D01*
G75*
G02*
X140500000Y-107096250I0J218750D01*
G01*
G37*
G36*
G01*
X138925000Y-107096250D02*
X138925000Y-106583750D01*
G75*
G02*
X139143750Y-106365000I218750J0D01*
G01*
X139581250Y-106365000D01*
G75*
G02*
X139800000Y-106583750I0J-218750D01*
G01*
X139800000Y-107096250D01*
G75*
G02*
X139581250Y-107315000I-218750J0D01*
G01*
X139143750Y-107315000D01*
G75*
G02*
X138925000Y-107096250I0J218750D01*
G01*
G37*
%TD*%
%TO.C,D906*%
G36*
G01*
X140500001Y-108596250D02*
X140500001Y-108083750D01*
G75*
G02*
X140718751Y-107865000I218750J0D01*
G01*
X141156251Y-107865000D01*
G75*
G02*
X141375001Y-108083750I0J-218750D01*
G01*
X141375001Y-108596250D01*
G75*
G02*
X141156251Y-108815000I-218750J0D01*
G01*
X140718751Y-108815000D01*
G75*
G02*
X140500001Y-108596250I0J218750D01*
G01*
G37*
G36*
G01*
X138925001Y-108596250D02*
X138925001Y-108083750D01*
G75*
G02*
X139143751Y-107865000I218750J0D01*
G01*
X139581251Y-107865000D01*
G75*
G02*
X139800001Y-108083750I0J-218750D01*
G01*
X139800001Y-108596250D01*
G75*
G02*
X139581251Y-108815000I-218750J0D01*
G01*
X139143751Y-108815000D01*
G75*
G02*
X138925001Y-108596250I0J218750D01*
G01*
G37*
%TD*%
%TO.C,D905*%
G36*
G01*
X140500001Y-110086250D02*
X140500001Y-109573750D01*
G75*
G02*
X140718751Y-109355000I218750J0D01*
G01*
X141156251Y-109355000D01*
G75*
G02*
X141375001Y-109573750I0J-218750D01*
G01*
X141375001Y-110086250D01*
G75*
G02*
X141156251Y-110305000I-218750J0D01*
G01*
X140718751Y-110305000D01*
G75*
G02*
X140500001Y-110086250I0J218750D01*
G01*
G37*
G36*
G01*
X138925001Y-110086250D02*
X138925001Y-109573750D01*
G75*
G02*
X139143751Y-109355000I218750J0D01*
G01*
X139581251Y-109355000D01*
G75*
G02*
X139800001Y-109573750I0J-218750D01*
G01*
X139800001Y-110086250D01*
G75*
G02*
X139581251Y-110305000I-218750J0D01*
G01*
X139143751Y-110305000D01*
G75*
G02*
X138925001Y-110086250I0J218750D01*
G01*
G37*
%TD*%
%TO.C,D904*%
G36*
G01*
X140500001Y-111576250D02*
X140500001Y-111063750D01*
G75*
G02*
X140718751Y-110845000I218750J0D01*
G01*
X141156251Y-110845000D01*
G75*
G02*
X141375001Y-111063750I0J-218750D01*
G01*
X141375001Y-111576250D01*
G75*
G02*
X141156251Y-111795000I-218750J0D01*
G01*
X140718751Y-111795000D01*
G75*
G02*
X140500001Y-111576250I0J218750D01*
G01*
G37*
G36*
G01*
X138925001Y-111576250D02*
X138925001Y-111063750D01*
G75*
G02*
X139143751Y-110845000I218750J0D01*
G01*
X139581251Y-110845000D01*
G75*
G02*
X139800001Y-111063750I0J-218750D01*
G01*
X139800001Y-111576250D01*
G75*
G02*
X139581251Y-111795000I-218750J0D01*
G01*
X139143751Y-111795000D01*
G75*
G02*
X138925001Y-111576250I0J218750D01*
G01*
G37*
%TD*%
%TO.C,D903*%
G36*
G01*
X140500000Y-113086250D02*
X140500000Y-112573750D01*
G75*
G02*
X140718750Y-112355000I218750J0D01*
G01*
X141156250Y-112355000D01*
G75*
G02*
X141375000Y-112573750I0J-218750D01*
G01*
X141375000Y-113086250D01*
G75*
G02*
X141156250Y-113305000I-218750J0D01*
G01*
X140718750Y-113305000D01*
G75*
G02*
X140500000Y-113086250I0J218750D01*
G01*
G37*
G36*
G01*
X138925000Y-113086250D02*
X138925000Y-112573750D01*
G75*
G02*
X139143750Y-112355000I218750J0D01*
G01*
X139581250Y-112355000D01*
G75*
G02*
X139800000Y-112573750I0J-218750D01*
G01*
X139800000Y-113086250D01*
G75*
G02*
X139581250Y-113305000I-218750J0D01*
G01*
X139143750Y-113305000D01*
G75*
G02*
X138925000Y-113086250I0J218750D01*
G01*
G37*
%TD*%
%TO.C,D902*%
G36*
G01*
X140510000Y-114596250D02*
X140510000Y-114083750D01*
G75*
G02*
X140728750Y-113865000I218750J0D01*
G01*
X141166250Y-113865000D01*
G75*
G02*
X141385000Y-114083750I0J-218750D01*
G01*
X141385000Y-114596250D01*
G75*
G02*
X141166250Y-114815000I-218750J0D01*
G01*
X140728750Y-114815000D01*
G75*
G02*
X140510000Y-114596250I0J218750D01*
G01*
G37*
G36*
G01*
X138935000Y-114596250D02*
X138935000Y-114083750D01*
G75*
G02*
X139153750Y-113865000I218750J0D01*
G01*
X139591250Y-113865000D01*
G75*
G02*
X139810000Y-114083750I0J-218750D01*
G01*
X139810000Y-114596250D01*
G75*
G02*
X139591250Y-114815000I-218750J0D01*
G01*
X139153750Y-114815000D01*
G75*
G02*
X138935000Y-114596250I0J218750D01*
G01*
G37*
%TD*%
%TO.C,D901*%
G36*
G01*
X102386250Y-93117500D02*
X101873750Y-93117500D01*
G75*
G02*
X101655000Y-92898750I0J218750D01*
G01*
X101655000Y-92461250D01*
G75*
G02*
X101873750Y-92242500I218750J0D01*
G01*
X102386250Y-92242500D01*
G75*
G02*
X102605000Y-92461250I0J-218750D01*
G01*
X102605000Y-92898750D01*
G75*
G02*
X102386250Y-93117500I-218750J0D01*
G01*
G37*
G36*
G01*
X102386250Y-94692500D02*
X101873750Y-94692500D01*
G75*
G02*
X101655000Y-94473750I0J218750D01*
G01*
X101655000Y-94036250D01*
G75*
G02*
X101873750Y-93817500I218750J0D01*
G01*
X102386250Y-93817500D01*
G75*
G02*
X102605000Y-94036250I0J-218750D01*
G01*
X102605000Y-94473750D01*
G75*
G02*
X102386250Y-94692500I-218750J0D01*
G01*
G37*
%TD*%
D16*
%TO.C,Y601*%
X125220000Y-127870000D03*
X123020000Y-127870000D03*
X123020000Y-126170000D03*
X125220000Y-126170000D03*
%TD*%
%TO.C,R607*%
G36*
G01*
X128000000Y-130067500D02*
X128000000Y-130412500D01*
G75*
G02*
X127852500Y-130560000I-147500J0D01*
G01*
X127557500Y-130560000D01*
G75*
G02*
X127410000Y-130412500I0J147500D01*
G01*
X127410000Y-130067500D01*
G75*
G02*
X127557500Y-129920000I147500J0D01*
G01*
X127852500Y-129920000D01*
G75*
G02*
X128000000Y-130067500I0J-147500D01*
G01*
G37*
G36*
G01*
X128970000Y-130067500D02*
X128970000Y-130412500D01*
G75*
G02*
X128822500Y-130560000I-147500J0D01*
G01*
X128527500Y-130560000D01*
G75*
G02*
X128380000Y-130412500I0J147500D01*
G01*
X128380000Y-130067500D01*
G75*
G02*
X128527500Y-129920000I147500J0D01*
G01*
X128822500Y-129920000D01*
G75*
G02*
X128970000Y-130067500I0J-147500D01*
G01*
G37*
%TD*%
%TO.C,R606*%
G36*
G01*
X127370000Y-114762500D02*
X127370000Y-114417500D01*
G75*
G02*
X127517500Y-114270000I147500J0D01*
G01*
X127812500Y-114270000D01*
G75*
G02*
X127960000Y-114417500I0J-147500D01*
G01*
X127960000Y-114762500D01*
G75*
G02*
X127812500Y-114910000I-147500J0D01*
G01*
X127517500Y-114910000D01*
G75*
G02*
X127370000Y-114762500I0J147500D01*
G01*
G37*
G36*
G01*
X126400000Y-114762500D02*
X126400000Y-114417500D01*
G75*
G02*
X126547500Y-114270000I147500J0D01*
G01*
X126842500Y-114270000D01*
G75*
G02*
X126990000Y-114417500I0J-147500D01*
G01*
X126990000Y-114762500D01*
G75*
G02*
X126842500Y-114910000I-147500J0D01*
G01*
X126547500Y-114910000D01*
G75*
G02*
X126400000Y-114762500I0J147500D01*
G01*
G37*
%TD*%
%TO.C,FB603*%
G36*
G01*
X120600000Y-130790001D02*
X120600000Y-129889999D01*
G75*
G02*
X120849999Y-129640000I249999J0D01*
G01*
X121500001Y-129640000D01*
G75*
G02*
X121750000Y-129889999I0J-249999D01*
G01*
X121750000Y-130790001D01*
G75*
G02*
X121500001Y-131040000I-249999J0D01*
G01*
X120849999Y-131040000D01*
G75*
G02*
X120600000Y-130790001I0J249999D01*
G01*
G37*
G36*
G01*
X118550000Y-130790001D02*
X118550000Y-129889999D01*
G75*
G02*
X118799999Y-129640000I249999J0D01*
G01*
X119450001Y-129640000D01*
G75*
G02*
X119700000Y-129889999I0J-249999D01*
G01*
X119700000Y-130790001D01*
G75*
G02*
X119450001Y-131040000I-249999J0D01*
G01*
X118799999Y-131040000D01*
G75*
G02*
X118550000Y-130790001I0J249999D01*
G01*
G37*
%TD*%
%TO.C,FB602*%
G36*
G01*
X124445000Y-129509999D02*
X124445000Y-130410001D01*
G75*
G02*
X124195001Y-130660000I-249999J0D01*
G01*
X123544999Y-130660000D01*
G75*
G02*
X123295000Y-130410001I0J249999D01*
G01*
X123295000Y-129509999D01*
G75*
G02*
X123544999Y-129260000I249999J0D01*
G01*
X124195001Y-129260000D01*
G75*
G02*
X124445000Y-129509999I0J-249999D01*
G01*
G37*
G36*
G01*
X126495000Y-129509999D02*
X126495000Y-130410001D01*
G75*
G02*
X126245001Y-130660000I-249999J0D01*
G01*
X125594999Y-130660000D01*
G75*
G02*
X125345000Y-130410001I0J249999D01*
G01*
X125345000Y-129509999D01*
G75*
G02*
X125594999Y-129260000I249999J0D01*
G01*
X126245001Y-129260000D01*
G75*
G02*
X126495000Y-129509999I0J-249999D01*
G01*
G37*
%TD*%
%TO.C,FB601*%
G36*
G01*
X132300000Y-129660001D02*
X132300000Y-128759999D01*
G75*
G02*
X132549999Y-128510000I249999J0D01*
G01*
X133200001Y-128510000D01*
G75*
G02*
X133450000Y-128759999I0J-249999D01*
G01*
X133450000Y-129660001D01*
G75*
G02*
X133200001Y-129910000I-249999J0D01*
G01*
X132549999Y-129910000D01*
G75*
G02*
X132300000Y-129660001I0J249999D01*
G01*
G37*
G36*
G01*
X130250000Y-129660001D02*
X130250000Y-128759999D01*
G75*
G02*
X130499999Y-128510000I249999J0D01*
G01*
X131150001Y-128510000D01*
G75*
G02*
X131400000Y-128759999I0J-249999D01*
G01*
X131400000Y-129660001D01*
G75*
G02*
X131150001Y-129910000I-249999J0D01*
G01*
X130499999Y-129910000D01*
G75*
G02*
X130250000Y-129660001I0J249999D01*
G01*
G37*
%TD*%
%TO.C,C620*%
G36*
G01*
X122327500Y-131885000D02*
X122672500Y-131885000D01*
G75*
G02*
X122820000Y-132032500I0J-147500D01*
G01*
X122820000Y-132327500D01*
G75*
G02*
X122672500Y-132475000I-147500J0D01*
G01*
X122327500Y-132475000D01*
G75*
G02*
X122180000Y-132327500I0J147500D01*
G01*
X122180000Y-132032500D01*
G75*
G02*
X122327500Y-131885000I147500J0D01*
G01*
G37*
G36*
G01*
X122327500Y-130915000D02*
X122672500Y-130915000D01*
G75*
G02*
X122820000Y-131062500I0J-147500D01*
G01*
X122820000Y-131357500D01*
G75*
G02*
X122672500Y-131505000I-147500J0D01*
G01*
X122327500Y-131505000D01*
G75*
G02*
X122180000Y-131357500I0J147500D01*
G01*
X122180000Y-131062500D01*
G75*
G02*
X122327500Y-130915000I147500J0D01*
G01*
G37*
%TD*%
%TO.C,C619*%
G36*
G01*
X123250000Y-122977500D02*
X123250000Y-123322500D01*
G75*
G02*
X123102500Y-123470000I-147500J0D01*
G01*
X122807500Y-123470000D01*
G75*
G02*
X122660000Y-123322500I0J147500D01*
G01*
X122660000Y-122977500D01*
G75*
G02*
X122807500Y-122830000I147500J0D01*
G01*
X123102500Y-122830000D01*
G75*
G02*
X123250000Y-122977500I0J-147500D01*
G01*
G37*
G36*
G01*
X124220000Y-122977500D02*
X124220000Y-123322500D01*
G75*
G02*
X124072500Y-123470000I-147500J0D01*
G01*
X123777500Y-123470000D01*
G75*
G02*
X123630000Y-123322500I0J147500D01*
G01*
X123630000Y-122977500D01*
G75*
G02*
X123777500Y-122830000I147500J0D01*
G01*
X124072500Y-122830000D01*
G75*
G02*
X124220000Y-122977500I0J-147500D01*
G01*
G37*
%TD*%
%TO.C,C618*%
G36*
G01*
X133185000Y-126992500D02*
X133185000Y-126647500D01*
G75*
G02*
X133332500Y-126500000I147500J0D01*
G01*
X133627500Y-126500000D01*
G75*
G02*
X133775000Y-126647500I0J-147500D01*
G01*
X133775000Y-126992500D01*
G75*
G02*
X133627500Y-127140000I-147500J0D01*
G01*
X133332500Y-127140000D01*
G75*
G02*
X133185000Y-126992500I0J147500D01*
G01*
G37*
G36*
G01*
X132215000Y-126992500D02*
X132215000Y-126647500D01*
G75*
G02*
X132362500Y-126500000I147500J0D01*
G01*
X132657500Y-126500000D01*
G75*
G02*
X132805000Y-126647500I0J-147500D01*
G01*
X132805000Y-126992500D01*
G75*
G02*
X132657500Y-127140000I-147500J0D01*
G01*
X132362500Y-127140000D01*
G75*
G02*
X132215000Y-126992500I0J147500D01*
G01*
G37*
%TD*%
%TO.C,C617*%
G36*
G01*
X135392500Y-117600000D02*
X135047500Y-117600000D01*
G75*
G02*
X134900000Y-117452500I0J147500D01*
G01*
X134900000Y-117157500D01*
G75*
G02*
X135047500Y-117010000I147500J0D01*
G01*
X135392500Y-117010000D01*
G75*
G02*
X135540000Y-117157500I0J-147500D01*
G01*
X135540000Y-117452500D01*
G75*
G02*
X135392500Y-117600000I-147500J0D01*
G01*
G37*
G36*
G01*
X135392500Y-118570000D02*
X135047500Y-118570000D01*
G75*
G02*
X134900000Y-118422500I0J147500D01*
G01*
X134900000Y-118127500D01*
G75*
G02*
X135047500Y-117980000I147500J0D01*
G01*
X135392500Y-117980000D01*
G75*
G02*
X135540000Y-118127500I0J-147500D01*
G01*
X135540000Y-118422500D01*
G75*
G02*
X135392500Y-118570000I-147500J0D01*
G01*
G37*
%TD*%
%TO.C,C616*%
G36*
G01*
X131150000Y-126992500D02*
X131150000Y-126647500D01*
G75*
G02*
X131297500Y-126500000I147500J0D01*
G01*
X131592500Y-126500000D01*
G75*
G02*
X131740000Y-126647500I0J-147500D01*
G01*
X131740000Y-126992500D01*
G75*
G02*
X131592500Y-127140000I-147500J0D01*
G01*
X131297500Y-127140000D01*
G75*
G02*
X131150000Y-126992500I0J147500D01*
G01*
G37*
G36*
G01*
X130180000Y-126992500D02*
X130180000Y-126647500D01*
G75*
G02*
X130327500Y-126500000I147500J0D01*
G01*
X130622500Y-126500000D01*
G75*
G02*
X130770000Y-126647500I0J-147500D01*
G01*
X130770000Y-126992500D01*
G75*
G02*
X130622500Y-127140000I-147500J0D01*
G01*
X130327500Y-127140000D01*
G75*
G02*
X130180000Y-126992500I0J147500D01*
G01*
G37*
%TD*%
%TO.C,C615*%
G36*
G01*
X131150000Y-127952500D02*
X131150000Y-127607500D01*
G75*
G02*
X131297500Y-127460000I147500J0D01*
G01*
X131592500Y-127460000D01*
G75*
G02*
X131740000Y-127607500I0J-147500D01*
G01*
X131740000Y-127952500D01*
G75*
G02*
X131592500Y-128100000I-147500J0D01*
G01*
X131297500Y-128100000D01*
G75*
G02*
X131150000Y-127952500I0J147500D01*
G01*
G37*
G36*
G01*
X130180000Y-127952500D02*
X130180000Y-127607500D01*
G75*
G02*
X130327500Y-127460000I147500J0D01*
G01*
X130622500Y-127460000D01*
G75*
G02*
X130770000Y-127607500I0J-147500D01*
G01*
X130770000Y-127952500D01*
G75*
G02*
X130622500Y-128100000I-147500J0D01*
G01*
X130327500Y-128100000D01*
G75*
G02*
X130180000Y-127952500I0J147500D01*
G01*
G37*
%TD*%
%TO.C,C614*%
G36*
G01*
X127900000Y-127852500D02*
X127900000Y-127507500D01*
G75*
G02*
X128047500Y-127360000I147500J0D01*
G01*
X128342500Y-127360000D01*
G75*
G02*
X128490000Y-127507500I0J-147500D01*
G01*
X128490000Y-127852500D01*
G75*
G02*
X128342500Y-128000000I-147500J0D01*
G01*
X128047500Y-128000000D01*
G75*
G02*
X127900000Y-127852500I0J147500D01*
G01*
G37*
G36*
G01*
X126930000Y-127852500D02*
X126930000Y-127507500D01*
G75*
G02*
X127077500Y-127360000I147500J0D01*
G01*
X127372500Y-127360000D01*
G75*
G02*
X127520000Y-127507500I0J-147500D01*
G01*
X127520000Y-127852500D01*
G75*
G02*
X127372500Y-128000000I-147500J0D01*
G01*
X127077500Y-128000000D01*
G75*
G02*
X126930000Y-127852500I0J147500D01*
G01*
G37*
%TD*%
%TO.C,C613*%
G36*
G01*
X127900000Y-128822500D02*
X127900000Y-128477500D01*
G75*
G02*
X128047500Y-128330000I147500J0D01*
G01*
X128342500Y-128330000D01*
G75*
G02*
X128490000Y-128477500I0J-147500D01*
G01*
X128490000Y-128822500D01*
G75*
G02*
X128342500Y-128970000I-147500J0D01*
G01*
X128047500Y-128970000D01*
G75*
G02*
X127900000Y-128822500I0J147500D01*
G01*
G37*
G36*
G01*
X126930000Y-128822500D02*
X126930000Y-128477500D01*
G75*
G02*
X127077500Y-128330000I147500J0D01*
G01*
X127372500Y-128330000D01*
G75*
G02*
X127520000Y-128477500I0J-147500D01*
G01*
X127520000Y-128822500D01*
G75*
G02*
X127372500Y-128970000I-147500J0D01*
G01*
X127077500Y-128970000D01*
G75*
G02*
X126930000Y-128822500I0J147500D01*
G01*
G37*
%TD*%
%TO.C,C612*%
G36*
G01*
X121672500Y-127220000D02*
X121327500Y-127220000D01*
G75*
G02*
X121180000Y-127072500I0J147500D01*
G01*
X121180000Y-126777500D01*
G75*
G02*
X121327500Y-126630000I147500J0D01*
G01*
X121672500Y-126630000D01*
G75*
G02*
X121820000Y-126777500I0J-147500D01*
G01*
X121820000Y-127072500D01*
G75*
G02*
X121672500Y-127220000I-147500J0D01*
G01*
G37*
G36*
G01*
X121672500Y-128190000D02*
X121327500Y-128190000D01*
G75*
G02*
X121180000Y-128042500I0J147500D01*
G01*
X121180000Y-127747500D01*
G75*
G02*
X121327500Y-127600000I147500J0D01*
G01*
X121672500Y-127600000D01*
G75*
G02*
X121820000Y-127747500I0J-147500D01*
G01*
X121820000Y-128042500D01*
G75*
G02*
X121672500Y-128190000I-147500J0D01*
G01*
G37*
%TD*%
%TO.C,C611*%
G36*
G01*
X125532500Y-116870000D02*
X125187500Y-116870000D01*
G75*
G02*
X125040000Y-116722500I0J147500D01*
G01*
X125040000Y-116427500D01*
G75*
G02*
X125187500Y-116280000I147500J0D01*
G01*
X125532500Y-116280000D01*
G75*
G02*
X125680000Y-116427500I0J-147500D01*
G01*
X125680000Y-116722500D01*
G75*
G02*
X125532500Y-116870000I-147500J0D01*
G01*
G37*
G36*
G01*
X125532500Y-117840000D02*
X125187500Y-117840000D01*
G75*
G02*
X125040000Y-117692500I0J147500D01*
G01*
X125040000Y-117397500D01*
G75*
G02*
X125187500Y-117250000I147500J0D01*
G01*
X125532500Y-117250000D01*
G75*
G02*
X125680000Y-117397500I0J-147500D01*
G01*
X125680000Y-117692500D01*
G75*
G02*
X125532500Y-117840000I-147500J0D01*
G01*
G37*
%TD*%
%TO.C,C610*%
G36*
G01*
X124552500Y-116870000D02*
X124207500Y-116870000D01*
G75*
G02*
X124060000Y-116722500I0J147500D01*
G01*
X124060000Y-116427500D01*
G75*
G02*
X124207500Y-116280000I147500J0D01*
G01*
X124552500Y-116280000D01*
G75*
G02*
X124700000Y-116427500I0J-147500D01*
G01*
X124700000Y-116722500D01*
G75*
G02*
X124552500Y-116870000I-147500J0D01*
G01*
G37*
G36*
G01*
X124552500Y-117840000D02*
X124207500Y-117840000D01*
G75*
G02*
X124060000Y-117692500I0J147500D01*
G01*
X124060000Y-117397500D01*
G75*
G02*
X124207500Y-117250000I147500J0D01*
G01*
X124552500Y-117250000D01*
G75*
G02*
X124700000Y-117397500I0J-147500D01*
G01*
X124700000Y-117692500D01*
G75*
G02*
X124552500Y-117840000I-147500J0D01*
G01*
G37*
%TD*%
%TO.C,C609*%
G36*
G01*
X123787500Y-120615000D02*
X124132500Y-120615000D01*
G75*
G02*
X124280000Y-120762500I0J-147500D01*
G01*
X124280000Y-121057500D01*
G75*
G02*
X124132500Y-121205000I-147500J0D01*
G01*
X123787500Y-121205000D01*
G75*
G02*
X123640000Y-121057500I0J147500D01*
G01*
X123640000Y-120762500D01*
G75*
G02*
X123787500Y-120615000I147500J0D01*
G01*
G37*
G36*
G01*
X123787500Y-119645000D02*
X124132500Y-119645000D01*
G75*
G02*
X124280000Y-119792500I0J-147500D01*
G01*
X124280000Y-120087500D01*
G75*
G02*
X124132500Y-120235000I-147500J0D01*
G01*
X123787500Y-120235000D01*
G75*
G02*
X123640000Y-120087500I0J147500D01*
G01*
X123640000Y-119792500D01*
G75*
G02*
X123787500Y-119645000I147500J0D01*
G01*
G37*
%TD*%
%TO.C,C608*%
G36*
G01*
X124700000Y-124667500D02*
X124700000Y-125012500D01*
G75*
G02*
X124552500Y-125160000I-147500J0D01*
G01*
X124257500Y-125160000D01*
G75*
G02*
X124110000Y-125012500I0J147500D01*
G01*
X124110000Y-124667500D01*
G75*
G02*
X124257500Y-124520000I147500J0D01*
G01*
X124552500Y-124520000D01*
G75*
G02*
X124700000Y-124667500I0J-147500D01*
G01*
G37*
G36*
G01*
X125670000Y-124667500D02*
X125670000Y-125012500D01*
G75*
G02*
X125522500Y-125160000I-147500J0D01*
G01*
X125227500Y-125160000D01*
G75*
G02*
X125080000Y-125012500I0J147500D01*
G01*
X125080000Y-124667500D01*
G75*
G02*
X125227500Y-124520000I147500J0D01*
G01*
X125522500Y-124520000D01*
G75*
G02*
X125670000Y-124667500I0J-147500D01*
G01*
G37*
%TD*%
%TO.C,C607*%
G36*
G01*
X123572500Y-118360000D02*
X123227500Y-118360000D01*
G75*
G02*
X123080000Y-118212500I0J147500D01*
G01*
X123080000Y-117917500D01*
G75*
G02*
X123227500Y-117770000I147500J0D01*
G01*
X123572500Y-117770000D01*
G75*
G02*
X123720000Y-117917500I0J-147500D01*
G01*
X123720000Y-118212500D01*
G75*
G02*
X123572500Y-118360000I-147500J0D01*
G01*
G37*
G36*
G01*
X123572500Y-119330000D02*
X123227500Y-119330000D01*
G75*
G02*
X123080000Y-119182500I0J147500D01*
G01*
X123080000Y-118887500D01*
G75*
G02*
X123227500Y-118740000I147500J0D01*
G01*
X123572500Y-118740000D01*
G75*
G02*
X123720000Y-118887500I0J-147500D01*
G01*
X123720000Y-119182500D01*
G75*
G02*
X123572500Y-119330000I-147500J0D01*
G01*
G37*
%TD*%
%TO.C,C606*%
G36*
G01*
X126990000Y-115377500D02*
X126990000Y-115722500D01*
G75*
G02*
X126842500Y-115870000I-147500J0D01*
G01*
X126547500Y-115870000D01*
G75*
G02*
X126400000Y-115722500I0J147500D01*
G01*
X126400000Y-115377500D01*
G75*
G02*
X126547500Y-115230000I147500J0D01*
G01*
X126842500Y-115230000D01*
G75*
G02*
X126990000Y-115377500I0J-147500D01*
G01*
G37*
G36*
G01*
X127960000Y-115377500D02*
X127960000Y-115722500D01*
G75*
G02*
X127812500Y-115870000I-147500J0D01*
G01*
X127517500Y-115870000D01*
G75*
G02*
X127370000Y-115722500I0J147500D01*
G01*
X127370000Y-115377500D01*
G75*
G02*
X127517500Y-115230000I147500J0D01*
G01*
X127812500Y-115230000D01*
G75*
G02*
X127960000Y-115377500I0J-147500D01*
G01*
G37*
%TD*%
%TO.C,C605*%
G36*
G01*
X122582500Y-118360000D02*
X122237500Y-118360000D01*
G75*
G02*
X122090000Y-118212500I0J147500D01*
G01*
X122090000Y-117917500D01*
G75*
G02*
X122237500Y-117770000I147500J0D01*
G01*
X122582500Y-117770000D01*
G75*
G02*
X122730000Y-117917500I0J-147500D01*
G01*
X122730000Y-118212500D01*
G75*
G02*
X122582500Y-118360000I-147500J0D01*
G01*
G37*
G36*
G01*
X122582500Y-119330000D02*
X122237500Y-119330000D01*
G75*
G02*
X122090000Y-119182500I0J147500D01*
G01*
X122090000Y-118887500D01*
G75*
G02*
X122237500Y-118740000I147500J0D01*
G01*
X122582500Y-118740000D01*
G75*
G02*
X122730000Y-118887500I0J-147500D01*
G01*
X122730000Y-119182500D01*
G75*
G02*
X122582500Y-119330000I-147500J0D01*
G01*
G37*
%TD*%
%TO.C,C604*%
G36*
G01*
X122817500Y-120615000D02*
X123162500Y-120615000D01*
G75*
G02*
X123310000Y-120762500I0J-147500D01*
G01*
X123310000Y-121057500D01*
G75*
G02*
X123162500Y-121205000I-147500J0D01*
G01*
X122817500Y-121205000D01*
G75*
G02*
X122670000Y-121057500I0J147500D01*
G01*
X122670000Y-120762500D01*
G75*
G02*
X122817500Y-120615000I147500J0D01*
G01*
G37*
G36*
G01*
X122817500Y-119645000D02*
X123162500Y-119645000D01*
G75*
G02*
X123310000Y-119792500I0J-147500D01*
G01*
X123310000Y-120087500D01*
G75*
G02*
X123162500Y-120235000I-147500J0D01*
G01*
X122817500Y-120235000D01*
G75*
G02*
X122670000Y-120087500I0J147500D01*
G01*
X122670000Y-119792500D01*
G75*
G02*
X122817500Y-119645000I147500J0D01*
G01*
G37*
%TD*%
%TO.C,R1404*%
G36*
G01*
X141362500Y-98020000D02*
X141017500Y-98020000D01*
G75*
G02*
X140870000Y-97872500I0J147500D01*
G01*
X140870000Y-97577500D01*
G75*
G02*
X141017500Y-97430000I147500J0D01*
G01*
X141362500Y-97430000D01*
G75*
G02*
X141510000Y-97577500I0J-147500D01*
G01*
X141510000Y-97872500D01*
G75*
G02*
X141362500Y-98020000I-147500J0D01*
G01*
G37*
G36*
G01*
X141362500Y-98990000D02*
X141017500Y-98990000D01*
G75*
G02*
X140870000Y-98842500I0J147500D01*
G01*
X140870000Y-98547500D01*
G75*
G02*
X141017500Y-98400000I147500J0D01*
G01*
X141362500Y-98400000D01*
G75*
G02*
X141510000Y-98547500I0J-147500D01*
G01*
X141510000Y-98842500D01*
G75*
G02*
X141362500Y-98990000I-147500J0D01*
G01*
G37*
%TD*%
%TO.C,C304*%
G36*
G01*
X104850000Y-129150001D02*
X104850000Y-128249999D01*
G75*
G02*
X105099999Y-128000000I249999J0D01*
G01*
X105750001Y-128000000D01*
G75*
G02*
X106000000Y-128249999I0J-249999D01*
G01*
X106000000Y-129150001D01*
G75*
G02*
X105750001Y-129400000I-249999J0D01*
G01*
X105099999Y-129400000D01*
G75*
G02*
X104850000Y-129150001I0J249999D01*
G01*
G37*
G36*
G01*
X102800000Y-129150001D02*
X102800000Y-128249999D01*
G75*
G02*
X103049999Y-128000000I249999J0D01*
G01*
X103700001Y-128000000D01*
G75*
G02*
X103950000Y-128249999I0J-249999D01*
G01*
X103950000Y-129150001D01*
G75*
G02*
X103700001Y-129400000I-249999J0D01*
G01*
X103049999Y-129400000D01*
G75*
G02*
X102800000Y-129150001I0J249999D01*
G01*
G37*
%TD*%
%TO.C,C303*%
G36*
G01*
X104849999Y-131150001D02*
X104849999Y-130249999D01*
G75*
G02*
X105099998Y-130000000I249999J0D01*
G01*
X105750000Y-130000000D01*
G75*
G02*
X105999999Y-130249999I0J-249999D01*
G01*
X105999999Y-131150001D01*
G75*
G02*
X105750000Y-131400000I-249999J0D01*
G01*
X105099998Y-131400000D01*
G75*
G02*
X104849999Y-131150001I0J249999D01*
G01*
G37*
G36*
G01*
X102799999Y-131150001D02*
X102799999Y-130249999D01*
G75*
G02*
X103049998Y-130000000I249999J0D01*
G01*
X103700000Y-130000000D01*
G75*
G02*
X103949999Y-130249999I0J-249999D01*
G01*
X103949999Y-131150001D01*
G75*
G02*
X103700000Y-131400000I-249999J0D01*
G01*
X103049998Y-131400000D01*
G75*
G02*
X102799999Y-131150001I0J249999D01*
G01*
G37*
%TD*%
%TO.C,C302*%
G36*
G01*
X106450000Y-137749998D02*
X106450000Y-138650000D01*
G75*
G02*
X106200001Y-138899999I-249999J0D01*
G01*
X105549999Y-138899999D01*
G75*
G02*
X105300000Y-138650000I0J249999D01*
G01*
X105300000Y-137749998D01*
G75*
G02*
X105549999Y-137499999I249999J0D01*
G01*
X106200001Y-137499999D01*
G75*
G02*
X106450000Y-137749998I0J-249999D01*
G01*
G37*
G36*
G01*
X108500000Y-137749998D02*
X108500000Y-138650000D01*
G75*
G02*
X108250001Y-138899999I-249999J0D01*
G01*
X107599999Y-138899999D01*
G75*
G02*
X107350000Y-138650000I0J249999D01*
G01*
X107350000Y-137749998D01*
G75*
G02*
X107599999Y-137499999I249999J0D01*
G01*
X108250001Y-137499999D01*
G75*
G02*
X108500000Y-137749998I0J-249999D01*
G01*
G37*
%TD*%
%TO.C,C301*%
G36*
G01*
X108700000Y-131249999D02*
X108700000Y-132150001D01*
G75*
G02*
X108450001Y-132400000I-249999J0D01*
G01*
X107799999Y-132400000D01*
G75*
G02*
X107550000Y-132150001I0J249999D01*
G01*
X107550000Y-131249999D01*
G75*
G02*
X107799999Y-131000000I249999J0D01*
G01*
X108450001Y-131000000D01*
G75*
G02*
X108700000Y-131249999I0J-249999D01*
G01*
G37*
G36*
G01*
X110750000Y-131249999D02*
X110750000Y-132150001D01*
G75*
G02*
X110500001Y-132400000I-249999J0D01*
G01*
X109849999Y-132400000D01*
G75*
G02*
X109600000Y-132150001I0J249999D01*
G01*
X109600000Y-131249999D01*
G75*
G02*
X109849999Y-131000000I249999J0D01*
G01*
X110500001Y-131000000D01*
G75*
G02*
X110750000Y-131249999I0J-249999D01*
G01*
G37*
%TD*%
%TO.C,FB1502*%
G36*
G01*
X136450000Y-86137500D02*
X136450000Y-85662500D01*
G75*
G02*
X136687500Y-85425000I237500J0D01*
G01*
X137262500Y-85425000D01*
G75*
G02*
X137500000Y-85662500I0J-237500D01*
G01*
X137500000Y-86137500D01*
G75*
G02*
X137262500Y-86375000I-237500J0D01*
G01*
X136687500Y-86375000D01*
G75*
G02*
X136450000Y-86137500I0J237500D01*
G01*
G37*
G36*
G01*
X134700000Y-86137500D02*
X134700000Y-85662500D01*
G75*
G02*
X134937500Y-85425000I237500J0D01*
G01*
X135512500Y-85425000D01*
G75*
G02*
X135750000Y-85662500I0J-237500D01*
G01*
X135750000Y-86137500D01*
G75*
G02*
X135512500Y-86375000I-237500J0D01*
G01*
X134937500Y-86375000D01*
G75*
G02*
X134700000Y-86137500I0J237500D01*
G01*
G37*
%TD*%
%TO.C,FB1501*%
G36*
G01*
X128195425Y-93550451D02*
X127859549Y-93214575D01*
G75*
G02*
X127859549Y-92878699I167938J167938D01*
G01*
X128266135Y-92472113D01*
G75*
G02*
X128602011Y-92472113I167938J-167938D01*
G01*
X128937887Y-92807989D01*
G75*
G02*
X128937887Y-93143865I-167938J-167938D01*
G01*
X128531301Y-93550451D01*
G75*
G02*
X128195425Y-93550451I-167938J167938D01*
G01*
G37*
G36*
G01*
X126957989Y-94787887D02*
X126622113Y-94452011D01*
G75*
G02*
X126622113Y-94116135I167938J167938D01*
G01*
X127028699Y-93709549D01*
G75*
G02*
X127364575Y-93709549I167938J-167938D01*
G01*
X127700451Y-94045425D01*
G75*
G02*
X127700451Y-94381301I-167938J-167938D01*
G01*
X127293865Y-94787887D01*
G75*
G02*
X126957989Y-94787887I-167938J167938D01*
G01*
G37*
%TD*%
%TO.C,C1542*%
G36*
G01*
X128952375Y-85556326D02*
X129196327Y-85312375D01*
G75*
G02*
X129404923Y-85312375I104298J-104298D01*
G01*
X129613519Y-85520971D01*
G75*
G02*
X129613519Y-85729567I-104298J-104298D01*
G01*
X129369567Y-85973519D01*
G75*
G02*
X129160971Y-85973519I-104298J104298D01*
G01*
X128952375Y-85764923D01*
G75*
G02*
X128952375Y-85556327I104298J104298D01*
G01*
G37*
G36*
G01*
X128266481Y-84870432D02*
X128510433Y-84626481D01*
G75*
G02*
X128719029Y-84626481I104298J-104298D01*
G01*
X128927625Y-84835077D01*
G75*
G02*
X128927625Y-85043673I-104298J-104298D01*
G01*
X128683673Y-85287625D01*
G75*
G02*
X128475077Y-85287625I-104298J104298D01*
G01*
X128266481Y-85079029D01*
G75*
G02*
X128266481Y-84870433I104298J104298D01*
G01*
G37*
%TD*%
%TO.C,C1541*%
G36*
G01*
X129632375Y-84856326D02*
X129876327Y-84612375D01*
G75*
G02*
X130084923Y-84612375I104298J-104298D01*
G01*
X130293519Y-84820971D01*
G75*
G02*
X130293519Y-85029567I-104298J-104298D01*
G01*
X130049567Y-85273519D01*
G75*
G02*
X129840971Y-85273519I-104298J104298D01*
G01*
X129632375Y-85064923D01*
G75*
G02*
X129632375Y-84856327I104298J104298D01*
G01*
G37*
G36*
G01*
X128946481Y-84170432D02*
X129190433Y-83926481D01*
G75*
G02*
X129399029Y-83926481I104298J-104298D01*
G01*
X129607625Y-84135077D01*
G75*
G02*
X129607625Y-84343673I-104298J-104298D01*
G01*
X129363673Y-84587625D01*
G75*
G02*
X129155077Y-84587625I-104298J104298D01*
G01*
X128946481Y-84379029D01*
G75*
G02*
X128946481Y-84170433I104298J104298D01*
G01*
G37*
%TD*%
%TO.C,C1540*%
G36*
G01*
X128262375Y-86256326D02*
X128506327Y-86012375D01*
G75*
G02*
X128714923Y-86012375I104298J-104298D01*
G01*
X128923519Y-86220971D01*
G75*
G02*
X128923519Y-86429567I-104298J-104298D01*
G01*
X128679567Y-86673519D01*
G75*
G02*
X128470971Y-86673519I-104298J104298D01*
G01*
X128262375Y-86464923D01*
G75*
G02*
X128262375Y-86256327I104298J104298D01*
G01*
G37*
G36*
G01*
X127576481Y-85570432D02*
X127820433Y-85326481D01*
G75*
G02*
X128029029Y-85326481I104298J-104298D01*
G01*
X128237625Y-85535077D01*
G75*
G02*
X128237625Y-85743673I-104298J-104298D01*
G01*
X127993673Y-85987625D01*
G75*
G02*
X127785077Y-85987625I-104298J104298D01*
G01*
X127576481Y-85779029D01*
G75*
G02*
X127576481Y-85570433I104298J104298D01*
G01*
G37*
%TD*%
%TO.C,C1539*%
G36*
G01*
X128917625Y-81993674D02*
X128673673Y-82237625D01*
G75*
G02*
X128465077Y-82237625I-104298J104298D01*
G01*
X128256481Y-82029029D01*
G75*
G02*
X128256481Y-81820433I104298J104298D01*
G01*
X128500433Y-81576481D01*
G75*
G02*
X128709029Y-81576481I104298J-104298D01*
G01*
X128917625Y-81785077D01*
G75*
G02*
X128917625Y-81993673I-104298J-104298D01*
G01*
G37*
G36*
G01*
X129603519Y-82679568D02*
X129359567Y-82923519D01*
G75*
G02*
X129150971Y-82923519I-104298J104298D01*
G01*
X128942375Y-82714923D01*
G75*
G02*
X128942375Y-82506327I104298J104298D01*
G01*
X129186327Y-82262375D01*
G75*
G02*
X129394923Y-82262375I104298J-104298D01*
G01*
X129603519Y-82470971D01*
G75*
G02*
X129603519Y-82679567I-104298J-104298D01*
G01*
G37*
%TD*%
%TO.C,C1538*%
G36*
G01*
X128117625Y-82753674D02*
X127873673Y-82997625D01*
G75*
G02*
X127665077Y-82997625I-104298J104298D01*
G01*
X127456481Y-82789029D01*
G75*
G02*
X127456481Y-82580433I104298J104298D01*
G01*
X127700433Y-82336481D01*
G75*
G02*
X127909029Y-82336481I104298J-104298D01*
G01*
X128117625Y-82545077D01*
G75*
G02*
X128117625Y-82753673I-104298J-104298D01*
G01*
G37*
G36*
G01*
X128803519Y-83439568D02*
X128559567Y-83683519D01*
G75*
G02*
X128350971Y-83683519I-104298J104298D01*
G01*
X128142375Y-83474923D01*
G75*
G02*
X128142375Y-83266327I104298J104298D01*
G01*
X128386327Y-83022375D01*
G75*
G02*
X128594923Y-83022375I104298J-104298D01*
G01*
X128803519Y-83230971D01*
G75*
G02*
X128803519Y-83439567I-104298J-104298D01*
G01*
G37*
%TD*%
%TO.C,C1537*%
G36*
G01*
X129427500Y-95490000D02*
X129772500Y-95490000D01*
G75*
G02*
X129920000Y-95637500I0J-147500D01*
G01*
X129920000Y-95932500D01*
G75*
G02*
X129772500Y-96080000I-147500J0D01*
G01*
X129427500Y-96080000D01*
G75*
G02*
X129280000Y-95932500I0J147500D01*
G01*
X129280000Y-95637500D01*
G75*
G02*
X129427500Y-95490000I147500J0D01*
G01*
G37*
G36*
G01*
X129427500Y-94520000D02*
X129772500Y-94520000D01*
G75*
G02*
X129920000Y-94667500I0J-147500D01*
G01*
X129920000Y-94962500D01*
G75*
G02*
X129772500Y-95110000I-147500J0D01*
G01*
X129427500Y-95110000D01*
G75*
G02*
X129280000Y-94962500I0J147500D01*
G01*
X129280000Y-94667500D01*
G75*
G02*
X129427500Y-94520000I147500J0D01*
G01*
G37*
%TD*%
%TO.C,C1536*%
G36*
G01*
X131453674Y-85972375D02*
X131697625Y-86216327D01*
G75*
G02*
X131697625Y-86424923I-104298J-104298D01*
G01*
X131489029Y-86633519D01*
G75*
G02*
X131280433Y-86633519I-104298J104298D01*
G01*
X131036481Y-86389567D01*
G75*
G02*
X131036481Y-86180971I104298J104298D01*
G01*
X131245077Y-85972375D01*
G75*
G02*
X131453673Y-85972375I104298J-104298D01*
G01*
G37*
G36*
G01*
X132139568Y-85286481D02*
X132383519Y-85530433D01*
G75*
G02*
X132383519Y-85739029I-104298J-104298D01*
G01*
X132174923Y-85947625D01*
G75*
G02*
X131966327Y-85947625I-104298J104298D01*
G01*
X131722375Y-85703673D01*
G75*
G02*
X131722375Y-85495077I104298J104298D01*
G01*
X131930971Y-85286481D01*
G75*
G02*
X132139567Y-85286481I104298J-104298D01*
G01*
G37*
%TD*%
%TO.C,C1535*%
G36*
G01*
X132143674Y-86652375D02*
X132387625Y-86896327D01*
G75*
G02*
X132387625Y-87104923I-104298J-104298D01*
G01*
X132179029Y-87313519D01*
G75*
G02*
X131970433Y-87313519I-104298J104298D01*
G01*
X131726481Y-87069567D01*
G75*
G02*
X131726481Y-86860971I104298J104298D01*
G01*
X131935077Y-86652375D01*
G75*
G02*
X132143673Y-86652375I104298J-104298D01*
G01*
G37*
G36*
G01*
X132829568Y-85966481D02*
X133073519Y-86210433D01*
G75*
G02*
X133073519Y-86419029I-104298J-104298D01*
G01*
X132864923Y-86627625D01*
G75*
G02*
X132656327Y-86627625I-104298J104298D01*
G01*
X132412375Y-86383673D01*
G75*
G02*
X132412375Y-86175077I104298J104298D01*
G01*
X132620971Y-85966481D01*
G75*
G02*
X132829567Y-85966481I104298J-104298D01*
G01*
G37*
%TD*%
%TO.C,C1534*%
G36*
G01*
X130750727Y-85272375D02*
X130994678Y-85516327D01*
G75*
G02*
X130994678Y-85724923I-104298J-104298D01*
G01*
X130786082Y-85933519D01*
G75*
G02*
X130577486Y-85933519I-104298J104298D01*
G01*
X130333534Y-85689567D01*
G75*
G02*
X130333534Y-85480971I104298J104298D01*
G01*
X130542130Y-85272375D01*
G75*
G02*
X130750726Y-85272375I104298J-104298D01*
G01*
G37*
G36*
G01*
X131436621Y-84586481D02*
X131680572Y-84830433D01*
G75*
G02*
X131680572Y-85039029I-104298J-104298D01*
G01*
X131471976Y-85247625D01*
G75*
G02*
X131263380Y-85247625I-104298J104298D01*
G01*
X131019428Y-85003673D01*
G75*
G02*
X131019428Y-84795077I104298J104298D01*
G01*
X131228024Y-84586481D01*
G75*
G02*
X131436620Y-84586481I104298J-104298D01*
G01*
G37*
%TD*%
%TO.C,C1533*%
G36*
G01*
X132293674Y-83742375D02*
X132537625Y-83986327D01*
G75*
G02*
X132537625Y-84194923I-104298J-104298D01*
G01*
X132329029Y-84403519D01*
G75*
G02*
X132120433Y-84403519I-104298J104298D01*
G01*
X131876481Y-84159567D01*
G75*
G02*
X131876481Y-83950971I104298J104298D01*
G01*
X132085077Y-83742375D01*
G75*
G02*
X132293673Y-83742375I104298J-104298D01*
G01*
G37*
G36*
G01*
X132979568Y-83056481D02*
X133223519Y-83300433D01*
G75*
G02*
X133223519Y-83509029I-104298J-104298D01*
G01*
X133014923Y-83717625D01*
G75*
G02*
X132806327Y-83717625I-104298J104298D01*
G01*
X132562375Y-83473673D01*
G75*
G02*
X132562375Y-83265077I104298J104298D01*
G01*
X132770971Y-83056481D01*
G75*
G02*
X132979567Y-83056481I104298J-104298D01*
G01*
G37*
%TD*%
%TO.C,C1532*%
G36*
G01*
X131583674Y-83032375D02*
X131827625Y-83276327D01*
G75*
G02*
X131827625Y-83484923I-104298J-104298D01*
G01*
X131619029Y-83693519D01*
G75*
G02*
X131410433Y-83693519I-104298J104298D01*
G01*
X131166481Y-83449567D01*
G75*
G02*
X131166481Y-83240971I104298J104298D01*
G01*
X131375077Y-83032375D01*
G75*
G02*
X131583673Y-83032375I104298J-104298D01*
G01*
G37*
G36*
G01*
X132269568Y-82346481D02*
X132513519Y-82590433D01*
G75*
G02*
X132513519Y-82799029I-104298J-104298D01*
G01*
X132304923Y-83007625D01*
G75*
G02*
X132096327Y-83007625I-104298J104298D01*
G01*
X131852375Y-82763673D01*
G75*
G02*
X131852375Y-82555077I104298J104298D01*
G01*
X132060971Y-82346481D01*
G75*
G02*
X132269567Y-82346481I104298J-104298D01*
G01*
G37*
%TD*%
%TO.C,C1531*%
G36*
G01*
X137290000Y-84772500D02*
X137290000Y-84427500D01*
G75*
G02*
X137437500Y-84280000I147500J0D01*
G01*
X137732500Y-84280000D01*
G75*
G02*
X137880000Y-84427500I0J-147500D01*
G01*
X137880000Y-84772500D01*
G75*
G02*
X137732500Y-84920000I-147500J0D01*
G01*
X137437500Y-84920000D01*
G75*
G02*
X137290000Y-84772500I0J147500D01*
G01*
G37*
G36*
G01*
X136320000Y-84772500D02*
X136320000Y-84427500D01*
G75*
G02*
X136467500Y-84280000I147500J0D01*
G01*
X136762500Y-84280000D01*
G75*
G02*
X136910000Y-84427500I0J-147500D01*
G01*
X136910000Y-84772500D01*
G75*
G02*
X136762500Y-84920000I-147500J0D01*
G01*
X136467500Y-84920000D01*
G75*
G02*
X136320000Y-84772500I0J147500D01*
G01*
G37*
%TD*%
%TO.C,C1530*%
G36*
G01*
X131027625Y-88463674D02*
X130783673Y-88707625D01*
G75*
G02*
X130575077Y-88707625I-104298J104298D01*
G01*
X130366481Y-88499029D01*
G75*
G02*
X130366481Y-88290433I104298J104298D01*
G01*
X130610433Y-88046481D01*
G75*
G02*
X130819029Y-88046481I104298J-104298D01*
G01*
X131027625Y-88255077D01*
G75*
G02*
X131027625Y-88463673I-104298J-104298D01*
G01*
G37*
G36*
G01*
X131713519Y-89149568D02*
X131469567Y-89393519D01*
G75*
G02*
X131260971Y-89393519I-104298J104298D01*
G01*
X131052375Y-89184923D01*
G75*
G02*
X131052375Y-88976327I104298J104298D01*
G01*
X131296327Y-88732375D01*
G75*
G02*
X131504923Y-88732375I104298J-104298D01*
G01*
X131713519Y-88940971D01*
G75*
G02*
X131713519Y-89149567I-104298J-104298D01*
G01*
G37*
%TD*%
%TO.C,C1529*%
G36*
G01*
X130347625Y-89143674D02*
X130103673Y-89387625D01*
G75*
G02*
X129895077Y-89387625I-104298J104298D01*
G01*
X129686481Y-89179029D01*
G75*
G02*
X129686481Y-88970433I104298J104298D01*
G01*
X129930433Y-88726481D01*
G75*
G02*
X130139029Y-88726481I104298J-104298D01*
G01*
X130347625Y-88935077D01*
G75*
G02*
X130347625Y-89143673I-104298J-104298D01*
G01*
G37*
G36*
G01*
X131033519Y-89829568D02*
X130789567Y-90073519D01*
G75*
G02*
X130580971Y-90073519I-104298J104298D01*
G01*
X130372375Y-89864923D01*
G75*
G02*
X130372375Y-89656327I104298J104298D01*
G01*
X130616327Y-89412375D01*
G75*
G02*
X130824923Y-89412375I104298J-104298D01*
G01*
X131033519Y-89620971D01*
G75*
G02*
X131033519Y-89829567I-104298J-104298D01*
G01*
G37*
%TD*%
%TO.C,C1528*%
G36*
G01*
X131717625Y-87773674D02*
X131473673Y-88017625D01*
G75*
G02*
X131265077Y-88017625I-104298J104298D01*
G01*
X131056481Y-87809029D01*
G75*
G02*
X131056481Y-87600433I104298J104298D01*
G01*
X131300433Y-87356481D01*
G75*
G02*
X131509029Y-87356481I104298J-104298D01*
G01*
X131717625Y-87565077D01*
G75*
G02*
X131717625Y-87773673I-104298J-104298D01*
G01*
G37*
G36*
G01*
X132403519Y-88459568D02*
X132159567Y-88703519D01*
G75*
G02*
X131950971Y-88703519I-104298J104298D01*
G01*
X131742375Y-88494923D01*
G75*
G02*
X131742375Y-88286327I104298J104298D01*
G01*
X131986327Y-88042375D01*
G75*
G02*
X132194923Y-88042375I104298J-104298D01*
G01*
X132403519Y-88250971D01*
G75*
G02*
X132403519Y-88459567I-104298J-104298D01*
G01*
G37*
%TD*%
%TO.C,C1527*%
G36*
G01*
X130893674Y-91002375D02*
X131137625Y-91246327D01*
G75*
G02*
X131137625Y-91454923I-104298J-104298D01*
G01*
X130929029Y-91663519D01*
G75*
G02*
X130720433Y-91663519I-104298J104298D01*
G01*
X130476481Y-91419567D01*
G75*
G02*
X130476481Y-91210971I104298J104298D01*
G01*
X130685077Y-91002375D01*
G75*
G02*
X130893673Y-91002375I104298J-104298D01*
G01*
G37*
G36*
G01*
X131579568Y-90316481D02*
X131823519Y-90560433D01*
G75*
G02*
X131823519Y-90769029I-104298J-104298D01*
G01*
X131614923Y-90977625D01*
G75*
G02*
X131406327Y-90977625I-104298J104298D01*
G01*
X131162375Y-90733673D01*
G75*
G02*
X131162375Y-90525077I104298J104298D01*
G01*
X131370971Y-90316481D01*
G75*
G02*
X131579567Y-90316481I104298J-104298D01*
G01*
G37*
%TD*%
%TO.C,C1526*%
G36*
G01*
X133503379Y-87450572D02*
X133259428Y-87206620D01*
G75*
G02*
X133259428Y-86998024I104298J104298D01*
G01*
X133468024Y-86789428D01*
G75*
G02*
X133676620Y-86789428I104298J-104298D01*
G01*
X133920572Y-87033380D01*
G75*
G02*
X133920572Y-87241976I-104298J-104298D01*
G01*
X133711976Y-87450572D01*
G75*
G02*
X133503380Y-87450572I-104298J104298D01*
G01*
G37*
G36*
G01*
X132817485Y-88136466D02*
X132573534Y-87892514D01*
G75*
G02*
X132573534Y-87683918I104298J104298D01*
G01*
X132782130Y-87475322D01*
G75*
G02*
X132990726Y-87475322I104298J-104298D01*
G01*
X133234678Y-87719274D01*
G75*
G02*
X133234678Y-87927870I-104298J-104298D01*
G01*
X133026082Y-88136466D01*
G75*
G02*
X132817486Y-88136466I-104298J104298D01*
G01*
G37*
%TD*%
%TO.C,C1524*%
G36*
G01*
X127432500Y-90885000D02*
X127087500Y-90885000D01*
G75*
G02*
X126940000Y-90737500I0J147500D01*
G01*
X126940000Y-90442500D01*
G75*
G02*
X127087500Y-90295000I147500J0D01*
G01*
X127432500Y-90295000D01*
G75*
G02*
X127580000Y-90442500I0J-147500D01*
G01*
X127580000Y-90737500D01*
G75*
G02*
X127432500Y-90885000I-147500J0D01*
G01*
G37*
G36*
G01*
X127432500Y-91855000D02*
X127087500Y-91855000D01*
G75*
G02*
X126940000Y-91707500I0J147500D01*
G01*
X126940000Y-91412500D01*
G75*
G02*
X127087500Y-91265000I147500J0D01*
G01*
X127432500Y-91265000D01*
G75*
G02*
X127580000Y-91412500I0J-147500D01*
G01*
X127580000Y-91707500D01*
G75*
G02*
X127432500Y-91855000I-147500J0D01*
G01*
G37*
%TD*%
%TO.C,C1523*%
G36*
G01*
X128556326Y-88047625D02*
X128312375Y-87803673D01*
G75*
G02*
X128312375Y-87595077I104298J104298D01*
G01*
X128520971Y-87386481D01*
G75*
G02*
X128729567Y-87386481I104298J-104298D01*
G01*
X128973519Y-87630433D01*
G75*
G02*
X128973519Y-87839029I-104298J-104298D01*
G01*
X128764923Y-88047625D01*
G75*
G02*
X128556327Y-88047625I-104298J104298D01*
G01*
G37*
G36*
G01*
X127870432Y-88733519D02*
X127626481Y-88489567D01*
G75*
G02*
X127626481Y-88280971I104298J104298D01*
G01*
X127835077Y-88072375D01*
G75*
G02*
X128043673Y-88072375I104298J-104298D01*
G01*
X128287625Y-88316327D01*
G75*
G02*
X128287625Y-88524923I-104298J-104298D01*
G01*
X128079029Y-88733519D01*
G75*
G02*
X127870433Y-88733519I-104298J104298D01*
G01*
G37*
%TD*%
%TO.C,C1522*%
G36*
G01*
X127866326Y-87347625D02*
X127622375Y-87103673D01*
G75*
G02*
X127622375Y-86895077I104298J104298D01*
G01*
X127830971Y-86686481D01*
G75*
G02*
X128039567Y-86686481I104298J-104298D01*
G01*
X128283519Y-86930433D01*
G75*
G02*
X128283519Y-87139029I-104298J-104298D01*
G01*
X128074923Y-87347625D01*
G75*
G02*
X127866327Y-87347625I-104298J104298D01*
G01*
G37*
G36*
G01*
X127180432Y-88033519D02*
X126936481Y-87789567D01*
G75*
G02*
X126936481Y-87580971I104298J104298D01*
G01*
X127145077Y-87372375D01*
G75*
G02*
X127353673Y-87372375I104298J-104298D01*
G01*
X127597625Y-87616327D01*
G75*
G02*
X127597625Y-87824923I-104298J-104298D01*
G01*
X127389029Y-88033519D01*
G75*
G02*
X127180433Y-88033519I-104298J104298D01*
G01*
G37*
%TD*%
%TO.C,C1521*%
G36*
G01*
X129256326Y-88737625D02*
X129012375Y-88493673D01*
G75*
G02*
X129012375Y-88285077I104298J104298D01*
G01*
X129220971Y-88076481D01*
G75*
G02*
X129429567Y-88076481I104298J-104298D01*
G01*
X129673519Y-88320433D01*
G75*
G02*
X129673519Y-88529029I-104298J-104298D01*
G01*
X129464923Y-88737625D01*
G75*
G02*
X129256327Y-88737625I-104298J104298D01*
G01*
G37*
G36*
G01*
X128570432Y-89423519D02*
X128326481Y-89179567D01*
G75*
G02*
X128326481Y-88970971I104298J104298D01*
G01*
X128535077Y-88762375D01*
G75*
G02*
X128743673Y-88762375I104298J-104298D01*
G01*
X128987625Y-89006327D01*
G75*
G02*
X128987625Y-89214923I-104298J-104298D01*
G01*
X128779029Y-89423519D01*
G75*
G02*
X128570433Y-89423519I-104298J104298D01*
G01*
G37*
%TD*%
%TO.C,C1520*%
G36*
G01*
X126697625Y-88593674D02*
X126453673Y-88837625D01*
G75*
G02*
X126245077Y-88837625I-104298J104298D01*
G01*
X126036481Y-88629029D01*
G75*
G02*
X126036481Y-88420433I104298J104298D01*
G01*
X126280433Y-88176481D01*
G75*
G02*
X126489029Y-88176481I104298J-104298D01*
G01*
X126697625Y-88385077D01*
G75*
G02*
X126697625Y-88593673I-104298J-104298D01*
G01*
G37*
G36*
G01*
X127383519Y-89279568D02*
X127139567Y-89523519D01*
G75*
G02*
X126930971Y-89523519I-104298J104298D01*
G01*
X126722375Y-89314923D01*
G75*
G02*
X126722375Y-89106327I104298J104298D01*
G01*
X126966327Y-88862375D01*
G75*
G02*
X127174923Y-88862375I104298J-104298D01*
G01*
X127383519Y-89070971D01*
G75*
G02*
X127383519Y-89279567I-104298J-104298D01*
G01*
G37*
%TD*%
%TO.C,C1519*%
G36*
G01*
X128852375Y-91216326D02*
X129096327Y-90972375D01*
G75*
G02*
X129304923Y-90972375I104298J-104298D01*
G01*
X129513519Y-91180971D01*
G75*
G02*
X129513519Y-91389567I-104298J-104298D01*
G01*
X129269567Y-91633519D01*
G75*
G02*
X129060971Y-91633519I-104298J104298D01*
G01*
X128852375Y-91424923D01*
G75*
G02*
X128852375Y-91216327I104298J104298D01*
G01*
G37*
G36*
G01*
X128166481Y-90530432D02*
X128410433Y-90286481D01*
G75*
G02*
X128619029Y-90286481I104298J-104298D01*
G01*
X128827625Y-90495077D01*
G75*
G02*
X128827625Y-90703673I-104298J-104298D01*
G01*
X128583673Y-90947625D01*
G75*
G02*
X128375077Y-90947625I-104298J104298D01*
G01*
X128166481Y-90739029D01*
G75*
G02*
X128166481Y-90530433I104298J104298D01*
G01*
G37*
%TD*%
%TO.C,C1517*%
G36*
G01*
X130316326Y-79217625D02*
X130072375Y-78973673D01*
G75*
G02*
X130072375Y-78765077I104298J104298D01*
G01*
X130280971Y-78556481D01*
G75*
G02*
X130489567Y-78556481I104298J-104298D01*
G01*
X130733519Y-78800433D01*
G75*
G02*
X130733519Y-79009029I-104298J-104298D01*
G01*
X130524923Y-79217625D01*
G75*
G02*
X130316327Y-79217625I-104298J104298D01*
G01*
G37*
G36*
G01*
X129630432Y-79903519D02*
X129386481Y-79659567D01*
G75*
G02*
X129386481Y-79450971I104298J104298D01*
G01*
X129595077Y-79242375D01*
G75*
G02*
X129803673Y-79242375I104298J-104298D01*
G01*
X130047625Y-79486327D01*
G75*
G02*
X130047625Y-79694923I-104298J-104298D01*
G01*
X129839029Y-79903519D01*
G75*
G02*
X129630433Y-79903519I-104298J104298D01*
G01*
G37*
%TD*%
%TO.C,C1516*%
G36*
G01*
X137882375Y-82996326D02*
X138126327Y-82752375D01*
G75*
G02*
X138334923Y-82752375I104298J-104298D01*
G01*
X138543519Y-82960971D01*
G75*
G02*
X138543519Y-83169567I-104298J-104298D01*
G01*
X138299567Y-83413519D01*
G75*
G02*
X138090971Y-83413519I-104298J104298D01*
G01*
X137882375Y-83204923D01*
G75*
G02*
X137882375Y-82996327I104298J104298D01*
G01*
G37*
G36*
G01*
X137196481Y-82310432D02*
X137440433Y-82066481D01*
G75*
G02*
X137649029Y-82066481I104298J-104298D01*
G01*
X137857625Y-82275077D01*
G75*
G02*
X137857625Y-82483673I-104298J-104298D01*
G01*
X137613673Y-82727625D01*
G75*
G02*
X137405077Y-82727625I-104298J104298D01*
G01*
X137196481Y-82519029D01*
G75*
G02*
X137196481Y-82310433I104298J104298D01*
G01*
G37*
%TD*%
%TO.C,C1515*%
G36*
G01*
X136776326Y-81107625D02*
X136532375Y-80863673D01*
G75*
G02*
X136532375Y-80655077I104298J104298D01*
G01*
X136740971Y-80446481D01*
G75*
G02*
X136949567Y-80446481I104298J-104298D01*
G01*
X137193519Y-80690433D01*
G75*
G02*
X137193519Y-80899029I-104298J-104298D01*
G01*
X136984923Y-81107625D01*
G75*
G02*
X136776327Y-81107625I-104298J104298D01*
G01*
G37*
G36*
G01*
X136090432Y-81793519D02*
X135846481Y-81549567D01*
G75*
G02*
X135846481Y-81340971I104298J104298D01*
G01*
X136055077Y-81132375D01*
G75*
G02*
X136263673Y-81132375I104298J-104298D01*
G01*
X136507625Y-81376327D01*
G75*
G02*
X136507625Y-81584923I-104298J-104298D01*
G01*
X136299029Y-81793519D01*
G75*
G02*
X136090433Y-81793519I-104298J104298D01*
G01*
G37*
%TD*%
%TO.C,C1514*%
G36*
G01*
X128507625Y-77043674D02*
X128263673Y-77287625D01*
G75*
G02*
X128055077Y-77287625I-104298J104298D01*
G01*
X127846481Y-77079029D01*
G75*
G02*
X127846481Y-76870433I104298J104298D01*
G01*
X128090433Y-76626481D01*
G75*
G02*
X128299029Y-76626481I104298J-104298D01*
G01*
X128507625Y-76835077D01*
G75*
G02*
X128507625Y-77043673I-104298J-104298D01*
G01*
G37*
G36*
G01*
X129193519Y-77729568D02*
X128949567Y-77973519D01*
G75*
G02*
X128740971Y-77973519I-104298J104298D01*
G01*
X128532375Y-77764923D01*
G75*
G02*
X128532375Y-77556327I104298J104298D01*
G01*
X128776327Y-77312375D01*
G75*
G02*
X128984923Y-77312375I104298J-104298D01*
G01*
X129193519Y-77520971D01*
G75*
G02*
X129193519Y-77729567I-104298J-104298D01*
G01*
G37*
%TD*%
%TO.C,C1513*%
G36*
G01*
X118997625Y-86343674D02*
X118753673Y-86587625D01*
G75*
G02*
X118545077Y-86587625I-104298J104298D01*
G01*
X118336481Y-86379029D01*
G75*
G02*
X118336481Y-86170433I104298J104298D01*
G01*
X118580433Y-85926481D01*
G75*
G02*
X118789029Y-85926481I104298J-104298D01*
G01*
X118997625Y-86135077D01*
G75*
G02*
X118997625Y-86343673I-104298J-104298D01*
G01*
G37*
G36*
G01*
X119683519Y-87029568D02*
X119439567Y-87273519D01*
G75*
G02*
X119230971Y-87273519I-104298J104298D01*
G01*
X119022375Y-87064923D01*
G75*
G02*
X119022375Y-86856327I104298J104298D01*
G01*
X119266327Y-86612375D01*
G75*
G02*
X119474923Y-86612375I104298J-104298D01*
G01*
X119683519Y-86820971D01*
G75*
G02*
X119683519Y-87029567I-104298J-104298D01*
G01*
G37*
%TD*%
%TO.C,C1512*%
G36*
G01*
X122936621Y-91689428D02*
X123180572Y-91933380D01*
G75*
G02*
X123180572Y-92141976I-104298J-104298D01*
G01*
X122971976Y-92350572D01*
G75*
G02*
X122763380Y-92350572I-104298J104298D01*
G01*
X122519428Y-92106620D01*
G75*
G02*
X122519428Y-91898024I104298J104298D01*
G01*
X122728024Y-91689428D01*
G75*
G02*
X122936620Y-91689428I104298J-104298D01*
G01*
G37*
G36*
G01*
X123622515Y-91003534D02*
X123866466Y-91247486D01*
G75*
G02*
X123866466Y-91456082I-104298J-104298D01*
G01*
X123657870Y-91664678D01*
G75*
G02*
X123449274Y-91664678I-104298J104298D01*
G01*
X123205322Y-91420726D01*
G75*
G02*
X123205322Y-91212130I104298J104298D01*
G01*
X123413918Y-91003534D01*
G75*
G02*
X123622514Y-91003534I104298J-104298D01*
G01*
G37*
%TD*%
%TO.C,C1511*%
G36*
G01*
X129980000Y-99822500D02*
X129980000Y-99477500D01*
G75*
G02*
X130127500Y-99330000I147500J0D01*
G01*
X130422500Y-99330000D01*
G75*
G02*
X130570000Y-99477500I0J-147500D01*
G01*
X130570000Y-99822500D01*
G75*
G02*
X130422500Y-99970000I-147500J0D01*
G01*
X130127500Y-99970000D01*
G75*
G02*
X129980000Y-99822500I0J147500D01*
G01*
G37*
G36*
G01*
X129010000Y-99822500D02*
X129010000Y-99477500D01*
G75*
G02*
X129157500Y-99330000I147500J0D01*
G01*
X129452500Y-99330000D01*
G75*
G02*
X129600000Y-99477500I0J-147500D01*
G01*
X129600000Y-99822500D01*
G75*
G02*
X129452500Y-99970000I-147500J0D01*
G01*
X129157500Y-99970000D01*
G75*
G02*
X129010000Y-99822500I0J147500D01*
G01*
G37*
%TD*%
%TO.C,C1510*%
G36*
G01*
X133892375Y-95206326D02*
X134136327Y-94962375D01*
G75*
G02*
X134344923Y-94962375I104298J-104298D01*
G01*
X134553519Y-95170971D01*
G75*
G02*
X134553519Y-95379567I-104298J-104298D01*
G01*
X134309567Y-95623519D01*
G75*
G02*
X134100971Y-95623519I-104298J104298D01*
G01*
X133892375Y-95414923D01*
G75*
G02*
X133892375Y-95206327I104298J104298D01*
G01*
G37*
G36*
G01*
X133206481Y-94520432D02*
X133450433Y-94276481D01*
G75*
G02*
X133659029Y-94276481I104298J-104298D01*
G01*
X133867625Y-94485077D01*
G75*
G02*
X133867625Y-94693673I-104298J-104298D01*
G01*
X133623673Y-94937625D01*
G75*
G02*
X133415077Y-94937625I-104298J104298D01*
G01*
X133206481Y-94729029D01*
G75*
G02*
X133206481Y-94520433I104298J104298D01*
G01*
G37*
%TD*%
%TO.C,C1509*%
G36*
G01*
X140169428Y-88713379D02*
X140413380Y-88469428D01*
G75*
G02*
X140621976Y-88469428I104298J-104298D01*
G01*
X140830572Y-88678024D01*
G75*
G02*
X140830572Y-88886620I-104298J-104298D01*
G01*
X140586620Y-89130572D01*
G75*
G02*
X140378024Y-89130572I-104298J104298D01*
G01*
X140169428Y-88921976D01*
G75*
G02*
X140169428Y-88713380I104298J104298D01*
G01*
G37*
G36*
G01*
X139483534Y-88027485D02*
X139727486Y-87783534D01*
G75*
G02*
X139936082Y-87783534I104298J-104298D01*
G01*
X140144678Y-87992130D01*
G75*
G02*
X140144678Y-88200726I-104298J-104298D01*
G01*
X139900726Y-88444678D01*
G75*
G02*
X139692130Y-88444678I-104298J104298D01*
G01*
X139483534Y-88236082D01*
G75*
G02*
X139483534Y-88027486I104298J104298D01*
G01*
G37*
%TD*%
%TO.C,C1508*%
G36*
G01*
X142577500Y-87180000D02*
X142922500Y-87180000D01*
G75*
G02*
X143070000Y-87327500I0J-147500D01*
G01*
X143070000Y-87622500D01*
G75*
G02*
X142922500Y-87770000I-147500J0D01*
G01*
X142577500Y-87770000D01*
G75*
G02*
X142430000Y-87622500I0J147500D01*
G01*
X142430000Y-87327500D01*
G75*
G02*
X142577500Y-87180000I147500J0D01*
G01*
G37*
G36*
G01*
X142577500Y-86210000D02*
X142922500Y-86210000D01*
G75*
G02*
X143070000Y-86357500I0J-147500D01*
G01*
X143070000Y-86652500D01*
G75*
G02*
X142922500Y-86800000I-147500J0D01*
G01*
X142577500Y-86800000D01*
G75*
G02*
X142430000Y-86652500I0J147500D01*
G01*
X142430000Y-86357500D01*
G75*
G02*
X142577500Y-86210000I147500J0D01*
G01*
G37*
%TD*%
%TO.C,C1507*%
G36*
G01*
X135426326Y-79707625D02*
X135182375Y-79463673D01*
G75*
G02*
X135182375Y-79255077I104298J104298D01*
G01*
X135390971Y-79046481D01*
G75*
G02*
X135599567Y-79046481I104298J-104298D01*
G01*
X135843519Y-79290433D01*
G75*
G02*
X135843519Y-79499029I-104298J-104298D01*
G01*
X135634923Y-79707625D01*
G75*
G02*
X135426327Y-79707625I-104298J104298D01*
G01*
G37*
G36*
G01*
X134740432Y-80393519D02*
X134496481Y-80149567D01*
G75*
G02*
X134496481Y-79940971I104298J104298D01*
G01*
X134705077Y-79732375D01*
G75*
G02*
X134913673Y-79732375I104298J-104298D01*
G01*
X135157625Y-79976327D01*
G75*
G02*
X135157625Y-80184923I-104298J-104298D01*
G01*
X134949029Y-80393519D01*
G75*
G02*
X134740433Y-80393519I-104298J104298D01*
G01*
G37*
%TD*%
%TO.C,C1506*%
G36*
G01*
X123800000Y-79897500D02*
X123800000Y-80242500D01*
G75*
G02*
X123652500Y-80390000I-147500J0D01*
G01*
X123357500Y-80390000D01*
G75*
G02*
X123210000Y-80242500I0J147500D01*
G01*
X123210000Y-79897500D01*
G75*
G02*
X123357500Y-79750000I147500J0D01*
G01*
X123652500Y-79750000D01*
G75*
G02*
X123800000Y-79897500I0J-147500D01*
G01*
G37*
G36*
G01*
X124770000Y-79897500D02*
X124770000Y-80242500D01*
G75*
G02*
X124622500Y-80390000I-147500J0D01*
G01*
X124327500Y-80390000D01*
G75*
G02*
X124180000Y-80242500I0J147500D01*
G01*
X124180000Y-79897500D01*
G75*
G02*
X124327500Y-79750000I147500J0D01*
G01*
X124622500Y-79750000D01*
G75*
G02*
X124770000Y-79897500I0J-147500D01*
G01*
G37*
%TD*%
%TO.C,C1505*%
G36*
G01*
X122367625Y-84133674D02*
X122123673Y-84377625D01*
G75*
G02*
X121915077Y-84377625I-104298J104298D01*
G01*
X121706481Y-84169029D01*
G75*
G02*
X121706481Y-83960433I104298J104298D01*
G01*
X121950433Y-83716481D01*
G75*
G02*
X122159029Y-83716481I104298J-104298D01*
G01*
X122367625Y-83925077D01*
G75*
G02*
X122367625Y-84133673I-104298J-104298D01*
G01*
G37*
G36*
G01*
X123053519Y-84819568D02*
X122809567Y-85063519D01*
G75*
G02*
X122600971Y-85063519I-104298J104298D01*
G01*
X122392375Y-84854923D01*
G75*
G02*
X122392375Y-84646327I104298J104298D01*
G01*
X122636327Y-84402375D01*
G75*
G02*
X122844923Y-84402375I104298J-104298D01*
G01*
X123053519Y-84610971D01*
G75*
G02*
X123053519Y-84819567I-104298J-104298D01*
G01*
G37*
%TD*%
%TO.C,C1504*%
G36*
G01*
X120980000Y-89717500D02*
X120980000Y-90062500D01*
G75*
G02*
X120832500Y-90210000I-147500J0D01*
G01*
X120537500Y-90210000D01*
G75*
G02*
X120390000Y-90062500I0J147500D01*
G01*
X120390000Y-89717500D01*
G75*
G02*
X120537500Y-89570000I147500J0D01*
G01*
X120832500Y-89570000D01*
G75*
G02*
X120980000Y-89717500I0J-147500D01*
G01*
G37*
G36*
G01*
X121950000Y-89717500D02*
X121950000Y-90062500D01*
G75*
G02*
X121802500Y-90210000I-147500J0D01*
G01*
X121507500Y-90210000D01*
G75*
G02*
X121360000Y-90062500I0J147500D01*
G01*
X121360000Y-89717500D01*
G75*
G02*
X121507500Y-89570000I147500J0D01*
G01*
X121802500Y-89570000D01*
G75*
G02*
X121950000Y-89717500I0J-147500D01*
G01*
G37*
%TD*%
%TO.C,C1503*%
G36*
G01*
X125093674Y-93782375D02*
X125337625Y-94026327D01*
G75*
G02*
X125337625Y-94234923I-104298J-104298D01*
G01*
X125129029Y-94443519D01*
G75*
G02*
X124920433Y-94443519I-104298J104298D01*
G01*
X124676481Y-94199567D01*
G75*
G02*
X124676481Y-93990971I104298J104298D01*
G01*
X124885077Y-93782375D01*
G75*
G02*
X125093673Y-93782375I104298J-104298D01*
G01*
G37*
G36*
G01*
X125779568Y-93096481D02*
X126023519Y-93340433D01*
G75*
G02*
X126023519Y-93549029I-104298J-104298D01*
G01*
X125814923Y-93757625D01*
G75*
G02*
X125606327Y-93757625I-104298J104298D01*
G01*
X125362375Y-93513673D01*
G75*
G02*
X125362375Y-93305077I104298J104298D01*
G01*
X125570971Y-93096481D01*
G75*
G02*
X125779567Y-93096481I104298J-104298D01*
G01*
G37*
%TD*%
%TO.C,C1502*%
G36*
G01*
X131062375Y-97966326D02*
X131306327Y-97722375D01*
G75*
G02*
X131514923Y-97722375I104298J-104298D01*
G01*
X131723519Y-97930971D01*
G75*
G02*
X131723519Y-98139567I-104298J-104298D01*
G01*
X131479567Y-98383519D01*
G75*
G02*
X131270971Y-98383519I-104298J104298D01*
G01*
X131062375Y-98174923D01*
G75*
G02*
X131062375Y-97966327I104298J104298D01*
G01*
G37*
G36*
G01*
X130376481Y-97280432D02*
X130620433Y-97036481D01*
G75*
G02*
X130829029Y-97036481I104298J-104298D01*
G01*
X131037625Y-97245077D01*
G75*
G02*
X131037625Y-97453673I-104298J-104298D01*
G01*
X130793673Y-97697625D01*
G75*
G02*
X130585077Y-97697625I-104298J104298D01*
G01*
X130376481Y-97489029D01*
G75*
G02*
X130376481Y-97280433I104298J104298D01*
G01*
G37*
%TD*%
%TO.C,C1501*%
G36*
G01*
X138062375Y-92156326D02*
X138306327Y-91912375D01*
G75*
G02*
X138514923Y-91912375I104298J-104298D01*
G01*
X138723519Y-92120971D01*
G75*
G02*
X138723519Y-92329567I-104298J-104298D01*
G01*
X138479567Y-92573519D01*
G75*
G02*
X138270971Y-92573519I-104298J104298D01*
G01*
X138062375Y-92364923D01*
G75*
G02*
X138062375Y-92156327I104298J104298D01*
G01*
G37*
G36*
G01*
X137376481Y-91470432D02*
X137620433Y-91226481D01*
G75*
G02*
X137829029Y-91226481I104298J-104298D01*
G01*
X138037625Y-91435077D01*
G75*
G02*
X138037625Y-91643673I-104298J-104298D01*
G01*
X137793673Y-91887625D01*
G75*
G02*
X137585077Y-91887625I-104298J104298D01*
G01*
X137376481Y-91679029D01*
G75*
G02*
X137376481Y-91470433I104298J104298D01*
G01*
G37*
%TD*%
%TO.C,R1403*%
G36*
G01*
X138307500Y-90070000D02*
X138652500Y-90070000D01*
G75*
G02*
X138800000Y-90217500I0J-147500D01*
G01*
X138800000Y-90512500D01*
G75*
G02*
X138652500Y-90660000I-147500J0D01*
G01*
X138307500Y-90660000D01*
G75*
G02*
X138160000Y-90512500I0J147500D01*
G01*
X138160000Y-90217500D01*
G75*
G02*
X138307500Y-90070000I147500J0D01*
G01*
G37*
G36*
G01*
X138307500Y-89100000D02*
X138652500Y-89100000D01*
G75*
G02*
X138800000Y-89247500I0J-147500D01*
G01*
X138800000Y-89542500D01*
G75*
G02*
X138652500Y-89690000I-147500J0D01*
G01*
X138307500Y-89690000D01*
G75*
G02*
X138160000Y-89542500I0J147500D01*
G01*
X138160000Y-89247500D01*
G75*
G02*
X138307500Y-89100000I147500J0D01*
G01*
G37*
%TD*%
%TO.C,R1402*%
G36*
G01*
X136840000Y-90697500D02*
X136840000Y-90352500D01*
G75*
G02*
X136987500Y-90205000I147500J0D01*
G01*
X137282500Y-90205000D01*
G75*
G02*
X137430000Y-90352500I0J-147500D01*
G01*
X137430000Y-90697500D01*
G75*
G02*
X137282500Y-90845000I-147500J0D01*
G01*
X136987500Y-90845000D01*
G75*
G02*
X136840000Y-90697500I0J147500D01*
G01*
G37*
G36*
G01*
X135870000Y-90697500D02*
X135870000Y-90352500D01*
G75*
G02*
X136017500Y-90205000I147500J0D01*
G01*
X136312500Y-90205000D01*
G75*
G02*
X136460000Y-90352500I0J-147500D01*
G01*
X136460000Y-90697500D01*
G75*
G02*
X136312500Y-90845000I-147500J0D01*
G01*
X136017500Y-90845000D01*
G75*
G02*
X135870000Y-90697500I0J147500D01*
G01*
G37*
%TD*%
%TO.C,R1401*%
G36*
G01*
X123443674Y-83637375D02*
X123687625Y-83881327D01*
G75*
G02*
X123687625Y-84089923I-104298J-104298D01*
G01*
X123479029Y-84298519D01*
G75*
G02*
X123270433Y-84298519I-104298J104298D01*
G01*
X123026481Y-84054567D01*
G75*
G02*
X123026481Y-83845971I104298J104298D01*
G01*
X123235077Y-83637375D01*
G75*
G02*
X123443673Y-83637375I104298J-104298D01*
G01*
G37*
G36*
G01*
X124129568Y-82951481D02*
X124373519Y-83195433D01*
G75*
G02*
X124373519Y-83404029I-104298J-104298D01*
G01*
X124164923Y-83612625D01*
G75*
G02*
X123956327Y-83612625I-104298J104298D01*
G01*
X123712375Y-83368673D01*
G75*
G02*
X123712375Y-83160077I104298J104298D01*
G01*
X123920971Y-82951481D01*
G75*
G02*
X124129567Y-82951481I104298J-104298D01*
G01*
G37*
%TD*%
%TO.C,R1003*%
G36*
G01*
X152172500Y-82100000D02*
X151827500Y-82100000D01*
G75*
G02*
X151680000Y-81952500I0J147500D01*
G01*
X151680000Y-81657500D01*
G75*
G02*
X151827500Y-81510000I147500J0D01*
G01*
X152172500Y-81510000D01*
G75*
G02*
X152320000Y-81657500I0J-147500D01*
G01*
X152320000Y-81952500D01*
G75*
G02*
X152172500Y-82100000I-147500J0D01*
G01*
G37*
G36*
G01*
X152172500Y-83070000D02*
X151827500Y-83070000D01*
G75*
G02*
X151680000Y-82922500I0J147500D01*
G01*
X151680000Y-82627500D01*
G75*
G02*
X151827500Y-82480000I147500J0D01*
G01*
X152172500Y-82480000D01*
G75*
G02*
X152320000Y-82627500I0J-147500D01*
G01*
X152320000Y-82922500D01*
G75*
G02*
X152172500Y-83070000I-147500J0D01*
G01*
G37*
%TD*%
%TO.C,R1002*%
G36*
G01*
X152182500Y-88210000D02*
X151837500Y-88210000D01*
G75*
G02*
X151690000Y-88062500I0J147500D01*
G01*
X151690000Y-87767500D01*
G75*
G02*
X151837500Y-87620000I147500J0D01*
G01*
X152182500Y-87620000D01*
G75*
G02*
X152330000Y-87767500I0J-147500D01*
G01*
X152330000Y-88062500D01*
G75*
G02*
X152182500Y-88210000I-147500J0D01*
G01*
G37*
G36*
G01*
X152182500Y-89180000D02*
X151837500Y-89180000D01*
G75*
G02*
X151690000Y-89032500I0J147500D01*
G01*
X151690000Y-88737500D01*
G75*
G02*
X151837500Y-88590000I147500J0D01*
G01*
X152182500Y-88590000D01*
G75*
G02*
X152330000Y-88737500I0J-147500D01*
G01*
X152330000Y-89032500D01*
G75*
G02*
X152182500Y-89180000I-147500J0D01*
G01*
G37*
%TD*%
%TO.C,R1001*%
G36*
G01*
X151827500Y-92555000D02*
X152172500Y-92555000D01*
G75*
G02*
X152320000Y-92702500I0J-147500D01*
G01*
X152320000Y-92997500D01*
G75*
G02*
X152172500Y-93145000I-147500J0D01*
G01*
X151827500Y-93145000D01*
G75*
G02*
X151680000Y-92997500I0J147500D01*
G01*
X151680000Y-92702500D01*
G75*
G02*
X151827500Y-92555000I147500J0D01*
G01*
G37*
G36*
G01*
X151827500Y-91585000D02*
X152172500Y-91585000D01*
G75*
G02*
X152320000Y-91732500I0J-147500D01*
G01*
X152320000Y-92027500D01*
G75*
G02*
X152172500Y-92175000I-147500J0D01*
G01*
X151827500Y-92175000D01*
G75*
G02*
X151680000Y-92027500I0J147500D01*
G01*
X151680000Y-91732500D01*
G75*
G02*
X151827500Y-91585000I147500J0D01*
G01*
G37*
%TD*%
%TO.C,C1525*%
G36*
G01*
X126700816Y-85114419D02*
X126055581Y-84469184D01*
G75*
G02*
X126055581Y-84124470I172357J172357D01*
G01*
X126400296Y-83779755D01*
G75*
G02*
X126745010Y-83779755I172357J-172357D01*
G01*
X127390245Y-84424990D01*
G75*
G02*
X127390245Y-84769704I-172357J-172357D01*
G01*
X127045530Y-85114419D01*
G75*
G02*
X126700816Y-85114419I-172357J172357D01*
G01*
G37*
G36*
G01*
X125374990Y-86440245D02*
X124729755Y-85795010D01*
G75*
G02*
X124729755Y-85450296I172357J172357D01*
G01*
X125074470Y-85105581D01*
G75*
G02*
X125419184Y-85105581I172357J-172357D01*
G01*
X126064419Y-85750816D01*
G75*
G02*
X126064419Y-86095530I-172357J-172357D01*
G01*
X125719704Y-86440245D01*
G75*
G02*
X125374990Y-86440245I-172357J172357D01*
G01*
G37*
%TD*%
%TO.C,U604*%
G36*
G01*
X154925000Y-127920000D02*
X154625000Y-127920000D01*
G75*
G02*
X154475000Y-127770000I0J150000D01*
G01*
X154475000Y-126470000D01*
G75*
G02*
X154625000Y-126320000I150000J0D01*
G01*
X154925000Y-126320000D01*
G75*
G02*
X155075000Y-126470000I0J-150000D01*
G01*
X155075000Y-127770000D01*
G75*
G02*
X154925000Y-127920000I-150000J0D01*
G01*
G37*
G36*
G01*
X156195000Y-127920000D02*
X155895000Y-127920000D01*
G75*
G02*
X155745000Y-127770000I0J150000D01*
G01*
X155745000Y-126470000D01*
G75*
G02*
X155895000Y-126320000I150000J0D01*
G01*
X156195000Y-126320000D01*
G75*
G02*
X156345000Y-126470000I0J-150000D01*
G01*
X156345000Y-127770000D01*
G75*
G02*
X156195000Y-127920000I-150000J0D01*
G01*
G37*
G36*
G01*
X157465000Y-127920000D02*
X157165000Y-127920000D01*
G75*
G02*
X157015000Y-127770000I0J150000D01*
G01*
X157015000Y-126470000D01*
G75*
G02*
X157165000Y-126320000I150000J0D01*
G01*
X157465000Y-126320000D01*
G75*
G02*
X157615000Y-126470000I0J-150000D01*
G01*
X157615000Y-127770000D01*
G75*
G02*
X157465000Y-127920000I-150000J0D01*
G01*
G37*
G36*
G01*
X158735000Y-127920000D02*
X158435000Y-127920000D01*
G75*
G02*
X158285000Y-127770000I0J150000D01*
G01*
X158285000Y-126470000D01*
G75*
G02*
X158435000Y-126320000I150000J0D01*
G01*
X158735000Y-126320000D01*
G75*
G02*
X158885000Y-126470000I0J-150000D01*
G01*
X158885000Y-127770000D01*
G75*
G02*
X158735000Y-127920000I-150000J0D01*
G01*
G37*
G36*
G01*
X158735000Y-135120000D02*
X158435000Y-135120000D01*
G75*
G02*
X158285000Y-134970000I0J150000D01*
G01*
X158285000Y-133670000D01*
G75*
G02*
X158435000Y-133520000I150000J0D01*
G01*
X158735000Y-133520000D01*
G75*
G02*
X158885000Y-133670000I0J-150000D01*
G01*
X158885000Y-134970000D01*
G75*
G02*
X158735000Y-135120000I-150000J0D01*
G01*
G37*
G36*
G01*
X157465000Y-135120000D02*
X157165000Y-135120000D01*
G75*
G02*
X157015000Y-134970000I0J150000D01*
G01*
X157015000Y-133670000D01*
G75*
G02*
X157165000Y-133520000I150000J0D01*
G01*
X157465000Y-133520000D01*
G75*
G02*
X157615000Y-133670000I0J-150000D01*
G01*
X157615000Y-134970000D01*
G75*
G02*
X157465000Y-135120000I-150000J0D01*
G01*
G37*
G36*
G01*
X156195000Y-135120000D02*
X155895000Y-135120000D01*
G75*
G02*
X155745000Y-134970000I0J150000D01*
G01*
X155745000Y-133670000D01*
G75*
G02*
X155895000Y-133520000I150000J0D01*
G01*
X156195000Y-133520000D01*
G75*
G02*
X156345000Y-133670000I0J-150000D01*
G01*
X156345000Y-134970000D01*
G75*
G02*
X156195000Y-135120000I-150000J0D01*
G01*
G37*
G36*
G01*
X154925000Y-135120000D02*
X154625000Y-135120000D01*
G75*
G02*
X154475000Y-134970000I0J150000D01*
G01*
X154475000Y-133670000D01*
G75*
G02*
X154625000Y-133520000I150000J0D01*
G01*
X154925000Y-133520000D01*
G75*
G02*
X155075000Y-133670000I0J-150000D01*
G01*
X155075000Y-134970000D01*
G75*
G02*
X154925000Y-135120000I-150000J0D01*
G01*
G37*
%TD*%
%TO.C,C602*%
G36*
G01*
X154072000Y-125399500D02*
X154072000Y-125744500D01*
G75*
G02*
X153924500Y-125892000I-147500J0D01*
G01*
X153629500Y-125892000D01*
G75*
G02*
X153482000Y-125744500I0J147500D01*
G01*
X153482000Y-125399500D01*
G75*
G02*
X153629500Y-125252000I147500J0D01*
G01*
X153924500Y-125252000D01*
G75*
G02*
X154072000Y-125399500I0J-147500D01*
G01*
G37*
G36*
G01*
X155042000Y-125399500D02*
X155042000Y-125744500D01*
G75*
G02*
X154894500Y-125892000I-147500J0D01*
G01*
X154599500Y-125892000D01*
G75*
G02*
X154452000Y-125744500I0J147500D01*
G01*
X154452000Y-125399500D01*
G75*
G02*
X154599500Y-125252000I147500J0D01*
G01*
X154894500Y-125252000D01*
G75*
G02*
X155042000Y-125399500I0J-147500D01*
G01*
G37*
%TD*%
D17*
%TO.C,Y701*%
X150225000Y-116280000D03*
X147725000Y-116280000D03*
%TD*%
%TO.C,U701*%
G36*
G01*
X131037500Y-109325000D02*
X131412500Y-109325000D01*
G75*
G02*
X131500000Y-109412500I0J-87500D01*
G01*
X131500000Y-109587500D01*
G75*
G02*
X131412500Y-109675000I-87500J0D01*
G01*
X131037500Y-109675000D01*
G75*
G02*
X130950000Y-109587500I0J87500D01*
G01*
X130950000Y-109412500D01*
G75*
G02*
X131037500Y-109325000I87500J0D01*
G01*
G37*
G36*
G01*
X131037500Y-109825000D02*
X131412500Y-109825000D01*
G75*
G02*
X131500000Y-109912500I0J-87500D01*
G01*
X131500000Y-110087500D01*
G75*
G02*
X131412500Y-110175000I-87500J0D01*
G01*
X131037500Y-110175000D01*
G75*
G02*
X130950000Y-110087500I0J87500D01*
G01*
X130950000Y-109912500D01*
G75*
G02*
X131037500Y-109825000I87500J0D01*
G01*
G37*
G36*
G01*
X131037500Y-110325000D02*
X131412500Y-110325000D01*
G75*
G02*
X131500000Y-110412500I0J-87500D01*
G01*
X131500000Y-110587500D01*
G75*
G02*
X131412500Y-110675000I-87500J0D01*
G01*
X131037500Y-110675000D01*
G75*
G02*
X130950000Y-110587500I0J87500D01*
G01*
X130950000Y-110412500D01*
G75*
G02*
X131037500Y-110325000I87500J0D01*
G01*
G37*
G36*
G01*
X130912500Y-110950000D02*
X131087500Y-110950000D01*
G75*
G02*
X131175000Y-111037500I0J-87500D01*
G01*
X131175000Y-111412500D01*
G75*
G02*
X131087500Y-111500000I-87500J0D01*
G01*
X130912500Y-111500000D01*
G75*
G02*
X130825000Y-111412500I0J87500D01*
G01*
X130825000Y-111037500D01*
G75*
G02*
X130912500Y-110950000I87500J0D01*
G01*
G37*
G36*
G01*
X130412500Y-110950000D02*
X130587500Y-110950000D01*
G75*
G02*
X130675000Y-111037500I0J-87500D01*
G01*
X130675000Y-111412500D01*
G75*
G02*
X130587500Y-111500000I-87500J0D01*
G01*
X130412500Y-111500000D01*
G75*
G02*
X130325000Y-111412500I0J87500D01*
G01*
X130325000Y-111037500D01*
G75*
G02*
X130412500Y-110950000I87500J0D01*
G01*
G37*
G36*
G01*
X129912500Y-110950000D02*
X130087500Y-110950000D01*
G75*
G02*
X130175000Y-111037500I0J-87500D01*
G01*
X130175000Y-111412500D01*
G75*
G02*
X130087500Y-111500000I-87500J0D01*
G01*
X129912500Y-111500000D01*
G75*
G02*
X129825000Y-111412500I0J87500D01*
G01*
X129825000Y-111037500D01*
G75*
G02*
X129912500Y-110950000I87500J0D01*
G01*
G37*
G36*
G01*
X129412500Y-110950000D02*
X129587500Y-110950000D01*
G75*
G02*
X129675000Y-111037500I0J-87500D01*
G01*
X129675000Y-111412500D01*
G75*
G02*
X129587500Y-111500000I-87500J0D01*
G01*
X129412500Y-111500000D01*
G75*
G02*
X129325000Y-111412500I0J87500D01*
G01*
X129325000Y-111037500D01*
G75*
G02*
X129412500Y-110950000I87500J0D01*
G01*
G37*
G36*
G01*
X128912500Y-110950000D02*
X129087500Y-110950000D01*
G75*
G02*
X129175000Y-111037500I0J-87500D01*
G01*
X129175000Y-111412500D01*
G75*
G02*
X129087500Y-111500000I-87500J0D01*
G01*
X128912500Y-111500000D01*
G75*
G02*
X128825000Y-111412500I0J87500D01*
G01*
X128825000Y-111037500D01*
G75*
G02*
X128912500Y-110950000I87500J0D01*
G01*
G37*
G36*
G01*
X128587500Y-110325000D02*
X128962500Y-110325000D01*
G75*
G02*
X129050000Y-110412500I0J-87500D01*
G01*
X129050000Y-110587500D01*
G75*
G02*
X128962500Y-110675000I-87500J0D01*
G01*
X128587500Y-110675000D01*
G75*
G02*
X128500000Y-110587500I0J87500D01*
G01*
X128500000Y-110412500D01*
G75*
G02*
X128587500Y-110325000I87500J0D01*
G01*
G37*
G36*
G01*
X128587500Y-109825000D02*
X128962500Y-109825000D01*
G75*
G02*
X129050000Y-109912500I0J-87500D01*
G01*
X129050000Y-110087500D01*
G75*
G02*
X128962500Y-110175000I-87500J0D01*
G01*
X128587500Y-110175000D01*
G75*
G02*
X128500000Y-110087500I0J87500D01*
G01*
X128500000Y-109912500D01*
G75*
G02*
X128587500Y-109825000I87500J0D01*
G01*
G37*
G36*
G01*
X128587500Y-109325000D02*
X128962500Y-109325000D01*
G75*
G02*
X129050000Y-109412500I0J-87500D01*
G01*
X129050000Y-109587500D01*
G75*
G02*
X128962500Y-109675000I-87500J0D01*
G01*
X128587500Y-109675000D01*
G75*
G02*
X128500000Y-109587500I0J87500D01*
G01*
X128500000Y-109412500D01*
G75*
G02*
X128587500Y-109325000I87500J0D01*
G01*
G37*
G36*
G01*
X128912500Y-108500000D02*
X129087500Y-108500000D01*
G75*
G02*
X129175000Y-108587500I0J-87500D01*
G01*
X129175000Y-108962500D01*
G75*
G02*
X129087500Y-109050000I-87500J0D01*
G01*
X128912500Y-109050000D01*
G75*
G02*
X128825000Y-108962500I0J87500D01*
G01*
X128825000Y-108587500D01*
G75*
G02*
X128912500Y-108500000I87500J0D01*
G01*
G37*
G36*
G01*
X129412500Y-108500000D02*
X129587500Y-108500000D01*
G75*
G02*
X129675000Y-108587500I0J-87500D01*
G01*
X129675000Y-108962500D01*
G75*
G02*
X129587500Y-109050000I-87500J0D01*
G01*
X129412500Y-109050000D01*
G75*
G02*
X129325000Y-108962500I0J87500D01*
G01*
X129325000Y-108587500D01*
G75*
G02*
X129412500Y-108500000I87500J0D01*
G01*
G37*
G36*
G01*
X129912500Y-108500000D02*
X130087500Y-108500000D01*
G75*
G02*
X130175000Y-108587500I0J-87500D01*
G01*
X130175000Y-108962500D01*
G75*
G02*
X130087500Y-109050000I-87500J0D01*
G01*
X129912500Y-109050000D01*
G75*
G02*
X129825000Y-108962500I0J87500D01*
G01*
X129825000Y-108587500D01*
G75*
G02*
X129912500Y-108500000I87500J0D01*
G01*
G37*
G36*
G01*
X130412500Y-108500000D02*
X130587500Y-108500000D01*
G75*
G02*
X130675000Y-108587500I0J-87500D01*
G01*
X130675000Y-108962500D01*
G75*
G02*
X130587500Y-109050000I-87500J0D01*
G01*
X130412500Y-109050000D01*
G75*
G02*
X130325000Y-108962500I0J87500D01*
G01*
X130325000Y-108587500D01*
G75*
G02*
X130412500Y-108500000I87500J0D01*
G01*
G37*
G36*
G01*
X130912500Y-108500000D02*
X131087500Y-108500000D01*
G75*
G02*
X131175000Y-108587500I0J-87500D01*
G01*
X131175000Y-108962500D01*
G75*
G02*
X131087500Y-109050000I-87500J0D01*
G01*
X130912500Y-109050000D01*
G75*
G02*
X130825000Y-108962500I0J87500D01*
G01*
X130825000Y-108587500D01*
G75*
G02*
X130912500Y-108500000I87500J0D01*
G01*
G37*
%TD*%
%TO.C,R703*%
G36*
G01*
X149002500Y-109570000D02*
X149347500Y-109570000D01*
G75*
G02*
X149495000Y-109717500I0J-147500D01*
G01*
X149495000Y-110012500D01*
G75*
G02*
X149347500Y-110160000I-147500J0D01*
G01*
X149002500Y-110160000D01*
G75*
G02*
X148855000Y-110012500I0J147500D01*
G01*
X148855000Y-109717500D01*
G75*
G02*
X149002500Y-109570000I147500J0D01*
G01*
G37*
G36*
G01*
X149002500Y-108600000D02*
X149347500Y-108600000D01*
G75*
G02*
X149495000Y-108747500I0J-147500D01*
G01*
X149495000Y-109042500D01*
G75*
G02*
X149347500Y-109190000I-147500J0D01*
G01*
X149002500Y-109190000D01*
G75*
G02*
X148855000Y-109042500I0J147500D01*
G01*
X148855000Y-108747500D01*
G75*
G02*
X149002500Y-108600000I147500J0D01*
G01*
G37*
%TD*%
%TO.C,R702*%
G36*
G01*
X146147500Y-115400000D02*
X145802500Y-115400000D01*
G75*
G02*
X145655000Y-115252500I0J147500D01*
G01*
X145655000Y-114957500D01*
G75*
G02*
X145802500Y-114810000I147500J0D01*
G01*
X146147500Y-114810000D01*
G75*
G02*
X146295000Y-114957500I0J-147500D01*
G01*
X146295000Y-115252500D01*
G75*
G02*
X146147500Y-115400000I-147500J0D01*
G01*
G37*
G36*
G01*
X146147500Y-116370000D02*
X145802500Y-116370000D01*
G75*
G02*
X145655000Y-116222500I0J147500D01*
G01*
X145655000Y-115927500D01*
G75*
G02*
X145802500Y-115780000I147500J0D01*
G01*
X146147500Y-115780000D01*
G75*
G02*
X146295000Y-115927500I0J-147500D01*
G01*
X146295000Y-116222500D01*
G75*
G02*
X146147500Y-116370000I-147500J0D01*
G01*
G37*
%TD*%
%TO.C,R701*%
G36*
G01*
X145802499Y-113070000D02*
X146147499Y-113070000D01*
G75*
G02*
X146294999Y-113217500I0J-147500D01*
G01*
X146294999Y-113512500D01*
G75*
G02*
X146147499Y-113660000I-147500J0D01*
G01*
X145802499Y-113660000D01*
G75*
G02*
X145654999Y-113512500I0J147500D01*
G01*
X145654999Y-113217500D01*
G75*
G02*
X145802499Y-113070000I147500J0D01*
G01*
G37*
G36*
G01*
X145802499Y-112100000D02*
X146147499Y-112100000D01*
G75*
G02*
X146294999Y-112247500I0J-147500D01*
G01*
X146294999Y-112542500D01*
G75*
G02*
X146147499Y-112690000I-147500J0D01*
G01*
X145802499Y-112690000D01*
G75*
G02*
X145654999Y-112542500I0J147500D01*
G01*
X145654999Y-112247500D01*
G75*
G02*
X145802499Y-112100000I147500J0D01*
G01*
G37*
%TD*%
%TO.C,C716*%
G36*
G01*
X117455000Y-91352500D02*
X117455000Y-91007500D01*
G75*
G02*
X117602500Y-90860000I147500J0D01*
G01*
X117897500Y-90860000D01*
G75*
G02*
X118045000Y-91007500I0J-147500D01*
G01*
X118045000Y-91352500D01*
G75*
G02*
X117897500Y-91500000I-147500J0D01*
G01*
X117602500Y-91500000D01*
G75*
G02*
X117455000Y-91352500I0J147500D01*
G01*
G37*
G36*
G01*
X116485000Y-91352500D02*
X116485000Y-91007500D01*
G75*
G02*
X116632500Y-90860000I147500J0D01*
G01*
X116927500Y-90860000D01*
G75*
G02*
X117075000Y-91007500I0J-147500D01*
G01*
X117075000Y-91352500D01*
G75*
G02*
X116927500Y-91500000I-147500J0D01*
G01*
X116632500Y-91500000D01*
G75*
G02*
X116485000Y-91352500I0J147500D01*
G01*
G37*
%TD*%
%TO.C,C713*%
G36*
G01*
X113692500Y-89460000D02*
X113347500Y-89460000D01*
G75*
G02*
X113200000Y-89312500I0J147500D01*
G01*
X113200000Y-89017500D01*
G75*
G02*
X113347500Y-88870000I147500J0D01*
G01*
X113692500Y-88870000D01*
G75*
G02*
X113840000Y-89017500I0J-147500D01*
G01*
X113840000Y-89312500D01*
G75*
G02*
X113692500Y-89460000I-147500J0D01*
G01*
G37*
G36*
G01*
X113692500Y-90430000D02*
X113347500Y-90430000D01*
G75*
G02*
X113200000Y-90282500I0J147500D01*
G01*
X113200000Y-89987500D01*
G75*
G02*
X113347500Y-89840000I147500J0D01*
G01*
X113692500Y-89840000D01*
G75*
G02*
X113840000Y-89987500I0J-147500D01*
G01*
X113840000Y-90282500D01*
G75*
G02*
X113692500Y-90430000I-147500J0D01*
G01*
G37*
%TD*%
%TO.C,C712*%
G36*
G01*
X150481250Y-118605000D02*
X149968750Y-118605000D01*
G75*
G02*
X149750000Y-118386250I0J218750D01*
G01*
X149750000Y-117948750D01*
G75*
G02*
X149968750Y-117730000I218750J0D01*
G01*
X150481250Y-117730000D01*
G75*
G02*
X150700000Y-117948750I0J-218750D01*
G01*
X150700000Y-118386250D01*
G75*
G02*
X150481250Y-118605000I-218750J0D01*
G01*
G37*
G36*
G01*
X150481250Y-120180000D02*
X149968750Y-120180000D01*
G75*
G02*
X149750000Y-119961250I0J218750D01*
G01*
X149750000Y-119523750D01*
G75*
G02*
X149968750Y-119305000I218750J0D01*
G01*
X150481250Y-119305000D01*
G75*
G02*
X150700000Y-119523750I0J-218750D01*
G01*
X150700000Y-119961250D01*
G75*
G02*
X150481250Y-120180000I-218750J0D01*
G01*
G37*
%TD*%
%TO.C,C711*%
G36*
G01*
X147981250Y-118592500D02*
X147468750Y-118592500D01*
G75*
G02*
X147250000Y-118373750I0J218750D01*
G01*
X147250000Y-117936250D01*
G75*
G02*
X147468750Y-117717500I218750J0D01*
G01*
X147981250Y-117717500D01*
G75*
G02*
X148200000Y-117936250I0J-218750D01*
G01*
X148200000Y-118373750D01*
G75*
G02*
X147981250Y-118592500I-218750J0D01*
G01*
G37*
G36*
G01*
X147981250Y-120167500D02*
X147468750Y-120167500D01*
G75*
G02*
X147250000Y-119948750I0J218750D01*
G01*
X147250000Y-119511250D01*
G75*
G02*
X147468750Y-119292500I218750J0D01*
G01*
X147981250Y-119292500D01*
G75*
G02*
X148200000Y-119511250I0J-218750D01*
G01*
X148200000Y-119948750D01*
G75*
G02*
X147981250Y-120167500I-218750J0D01*
G01*
G37*
%TD*%
%TO.C,C710*%
G36*
G01*
X154275000Y-115011250D02*
X154275000Y-114498750D01*
G75*
G02*
X154493750Y-114280000I218750J0D01*
G01*
X154931250Y-114280000D01*
G75*
G02*
X155150000Y-114498750I0J-218750D01*
G01*
X155150000Y-115011250D01*
G75*
G02*
X154931250Y-115230000I-218750J0D01*
G01*
X154493750Y-115230000D01*
G75*
G02*
X154275000Y-115011250I0J218750D01*
G01*
G37*
G36*
G01*
X152700000Y-115011250D02*
X152700000Y-114498750D01*
G75*
G02*
X152918750Y-114280000I218750J0D01*
G01*
X153356250Y-114280000D01*
G75*
G02*
X153575000Y-114498750I0J-218750D01*
G01*
X153575000Y-115011250D01*
G75*
G02*
X153356250Y-115230000I-218750J0D01*
G01*
X152918750Y-115230000D01*
G75*
G02*
X152700000Y-115011250I0J218750D01*
G01*
G37*
%TD*%
%TO.C,C709*%
G36*
G01*
X150347500Y-109215000D02*
X150002500Y-109215000D01*
G75*
G02*
X149855000Y-109067500I0J147500D01*
G01*
X149855000Y-108772500D01*
G75*
G02*
X150002500Y-108625000I147500J0D01*
G01*
X150347500Y-108625000D01*
G75*
G02*
X150495000Y-108772500I0J-147500D01*
G01*
X150495000Y-109067500D01*
G75*
G02*
X150347500Y-109215000I-147500J0D01*
G01*
G37*
G36*
G01*
X150347500Y-110185000D02*
X150002500Y-110185000D01*
G75*
G02*
X149855000Y-110037500I0J147500D01*
G01*
X149855000Y-109742500D01*
G75*
G02*
X150002500Y-109595000I147500J0D01*
G01*
X150347500Y-109595000D01*
G75*
G02*
X150495000Y-109742500I0J-147500D01*
G01*
X150495000Y-110037500D01*
G75*
G02*
X150347500Y-110185000I-147500J0D01*
G01*
G37*
%TD*%
%TO.C,C708*%
G36*
G01*
X151302501Y-115995000D02*
X151647501Y-115995000D01*
G75*
G02*
X151795001Y-116142500I0J-147500D01*
G01*
X151795001Y-116437500D01*
G75*
G02*
X151647501Y-116585000I-147500J0D01*
G01*
X151302501Y-116585000D01*
G75*
G02*
X151155001Y-116437500I0J147500D01*
G01*
X151155001Y-116142500D01*
G75*
G02*
X151302501Y-115995000I147500J0D01*
G01*
G37*
G36*
G01*
X151302501Y-115025000D02*
X151647501Y-115025000D01*
G75*
G02*
X151795001Y-115172500I0J-147500D01*
G01*
X151795001Y-115467500D01*
G75*
G02*
X151647501Y-115615000I-147500J0D01*
G01*
X151302501Y-115615000D01*
G75*
G02*
X151155001Y-115467500I0J147500D01*
G01*
X151155001Y-115172500D01*
G75*
G02*
X151302501Y-115025000I147500J0D01*
G01*
G37*
%TD*%
%TO.C,C705*%
G36*
G01*
X153072500Y-111865000D02*
X152727500Y-111865000D01*
G75*
G02*
X152580000Y-111717500I0J147500D01*
G01*
X152580000Y-111422500D01*
G75*
G02*
X152727500Y-111275000I147500J0D01*
G01*
X153072500Y-111275000D01*
G75*
G02*
X153220000Y-111422500I0J-147500D01*
G01*
X153220000Y-111717500D01*
G75*
G02*
X153072500Y-111865000I-147500J0D01*
G01*
G37*
G36*
G01*
X153072500Y-112835000D02*
X152727500Y-112835000D01*
G75*
G02*
X152580000Y-112687500I0J147500D01*
G01*
X152580000Y-112392500D01*
G75*
G02*
X152727500Y-112245000I147500J0D01*
G01*
X153072500Y-112245000D01*
G75*
G02*
X153220000Y-112392500I0J-147500D01*
G01*
X153220000Y-112687500D01*
G75*
G02*
X153072500Y-112835000I-147500J0D01*
G01*
G37*
%TD*%
%TO.C,C704*%
G36*
G01*
X131472500Y-107125000D02*
X131127500Y-107125000D01*
G75*
G02*
X130980000Y-106977500I0J147500D01*
G01*
X130980000Y-106682500D01*
G75*
G02*
X131127500Y-106535000I147500J0D01*
G01*
X131472500Y-106535000D01*
G75*
G02*
X131620000Y-106682500I0J-147500D01*
G01*
X131620000Y-106977500D01*
G75*
G02*
X131472500Y-107125000I-147500J0D01*
G01*
G37*
G36*
G01*
X131472500Y-108095000D02*
X131127500Y-108095000D01*
G75*
G02*
X130980000Y-107947500I0J147500D01*
G01*
X130980000Y-107652500D01*
G75*
G02*
X131127500Y-107505000I147500J0D01*
G01*
X131472500Y-107505000D01*
G75*
G02*
X131620000Y-107652500I0J-147500D01*
G01*
X131620000Y-107947500D01*
G75*
G02*
X131472500Y-108095000I-147500J0D01*
G01*
G37*
%TD*%
%TO.C,C703*%
G36*
G01*
X132890000Y-110972499D02*
X132890000Y-110627499D01*
G75*
G02*
X133037500Y-110479999I147500J0D01*
G01*
X133332500Y-110479999D01*
G75*
G02*
X133480000Y-110627499I0J-147500D01*
G01*
X133480000Y-110972499D01*
G75*
G02*
X133332500Y-111119999I-147500J0D01*
G01*
X133037500Y-111119999D01*
G75*
G02*
X132890000Y-110972499I0J147500D01*
G01*
G37*
G36*
G01*
X131920000Y-110972499D02*
X131920000Y-110627499D01*
G75*
G02*
X132067500Y-110479999I147500J0D01*
G01*
X132362500Y-110479999D01*
G75*
G02*
X132510000Y-110627499I0J-147500D01*
G01*
X132510000Y-110972499D01*
G75*
G02*
X132362500Y-111119999I-147500J0D01*
G01*
X132067500Y-111119999D01*
G75*
G02*
X131920000Y-110972499I0J147500D01*
G01*
G37*
%TD*%
%TO.C,C702*%
G36*
G01*
X133637501Y-108256250D02*
X133637501Y-107743750D01*
G75*
G02*
X133856251Y-107525000I218750J0D01*
G01*
X134293751Y-107525000D01*
G75*
G02*
X134512501Y-107743750I0J-218750D01*
G01*
X134512501Y-108256250D01*
G75*
G02*
X134293751Y-108475000I-218750J0D01*
G01*
X133856251Y-108475000D01*
G75*
G02*
X133637501Y-108256250I0J218750D01*
G01*
G37*
G36*
G01*
X132062501Y-108256250D02*
X132062501Y-107743750D01*
G75*
G02*
X132281251Y-107525000I218750J0D01*
G01*
X132718751Y-107525000D01*
G75*
G02*
X132937501Y-107743750I0J-218750D01*
G01*
X132937501Y-108256250D01*
G75*
G02*
X132718751Y-108475000I-218750J0D01*
G01*
X132281251Y-108475000D01*
G75*
G02*
X132062501Y-108256250I0J218750D01*
G01*
G37*
%TD*%
%TO.C,C701*%
G36*
G01*
X132889999Y-109372500D02*
X132889999Y-109027500D01*
G75*
G02*
X133037499Y-108880000I147500J0D01*
G01*
X133332499Y-108880000D01*
G75*
G02*
X133479999Y-109027500I0J-147500D01*
G01*
X133479999Y-109372500D01*
G75*
G02*
X133332499Y-109520000I-147500J0D01*
G01*
X133037499Y-109520000D01*
G75*
G02*
X132889999Y-109372500I0J147500D01*
G01*
G37*
G36*
G01*
X131919999Y-109372500D02*
X131919999Y-109027500D01*
G75*
G02*
X132067499Y-108880000I147500J0D01*
G01*
X132362499Y-108880000D01*
G75*
G02*
X132509999Y-109027500I0J-147500D01*
G01*
X132509999Y-109372500D01*
G75*
G02*
X132362499Y-109520000I-147500J0D01*
G01*
X132067499Y-109520000D01*
G75*
G02*
X131919999Y-109372500I0J147500D01*
G01*
G37*
%TD*%
%TO.C,R502*%
G36*
G01*
X106080000Y-81966250D02*
X106080000Y-81053750D01*
G75*
G02*
X106323750Y-80810000I243750J0D01*
G01*
X106811250Y-80810000D01*
G75*
G02*
X107055000Y-81053750I0J-243750D01*
G01*
X107055000Y-81966250D01*
G75*
G02*
X106811250Y-82210000I-243750J0D01*
G01*
X106323750Y-82210000D01*
G75*
G02*
X106080000Y-81966250I0J243750D01*
G01*
G37*
G36*
G01*
X104205000Y-81966250D02*
X104205000Y-81053750D01*
G75*
G02*
X104448750Y-80810000I243750J0D01*
G01*
X104936250Y-80810000D01*
G75*
G02*
X105180000Y-81053750I0J-243750D01*
G01*
X105180000Y-81966250D01*
G75*
G02*
X104936250Y-82210000I-243750J0D01*
G01*
X104448750Y-82210000D01*
G75*
G02*
X104205000Y-81966250I0J243750D01*
G01*
G37*
%TD*%
%TO.C,R501*%
G36*
G01*
X102890000Y-83930001D02*
X102890000Y-83029999D01*
G75*
G02*
X103139999Y-82780000I249999J0D01*
G01*
X103790001Y-82780000D01*
G75*
G02*
X104040000Y-83029999I0J-249999D01*
G01*
X104040000Y-83930001D01*
G75*
G02*
X103790001Y-84180000I-249999J0D01*
G01*
X103139999Y-84180000D01*
G75*
G02*
X102890000Y-83930001I0J249999D01*
G01*
G37*
G36*
G01*
X100840000Y-83930001D02*
X100840000Y-83029999D01*
G75*
G02*
X101089999Y-82780000I249999J0D01*
G01*
X101740001Y-82780000D01*
G75*
G02*
X101990000Y-83029999I0J-249999D01*
G01*
X101990000Y-83930001D01*
G75*
G02*
X101740001Y-84180000I-249999J0D01*
G01*
X101089999Y-84180000D01*
G75*
G02*
X100840000Y-83930001I0J249999D01*
G01*
G37*
%TD*%
D18*
%TO.C,L501*%
X112915000Y-83850000D03*
X109865000Y-83840000D03*
%TD*%
%TO.C,C505*%
G36*
G01*
X109500000Y-86733750D02*
X109500000Y-87646250D01*
G75*
G02*
X109256250Y-87890000I-243750J0D01*
G01*
X108768750Y-87890000D01*
G75*
G02*
X108525000Y-87646250I0J243750D01*
G01*
X108525000Y-86733750D01*
G75*
G02*
X108768750Y-86490000I243750J0D01*
G01*
X109256250Y-86490000D01*
G75*
G02*
X109500000Y-86733750I0J-243750D01*
G01*
G37*
G36*
G01*
X111375000Y-86733750D02*
X111375000Y-87646250D01*
G75*
G02*
X111131250Y-87890000I-243750J0D01*
G01*
X110643750Y-87890000D01*
G75*
G02*
X110400000Y-87646250I0J243750D01*
G01*
X110400000Y-86733750D01*
G75*
G02*
X110643750Y-86490000I243750J0D01*
G01*
X111131250Y-86490000D01*
G75*
G02*
X111375000Y-86733750I0J-243750D01*
G01*
G37*
%TD*%
%TO.C,C504*%
G36*
G01*
X109500000Y-88683750D02*
X109500000Y-89596250D01*
G75*
G02*
X109256250Y-89840000I-243750J0D01*
G01*
X108768750Y-89840000D01*
G75*
G02*
X108525000Y-89596250I0J243750D01*
G01*
X108525000Y-88683750D01*
G75*
G02*
X108768750Y-88440000I243750J0D01*
G01*
X109256250Y-88440000D01*
G75*
G02*
X109500000Y-88683750I0J-243750D01*
G01*
G37*
G36*
G01*
X111375000Y-88683750D02*
X111375000Y-89596250D01*
G75*
G02*
X111131250Y-89840000I-243750J0D01*
G01*
X110643750Y-89840000D01*
G75*
G02*
X110400000Y-89596250I0J243750D01*
G01*
X110400000Y-88683750D01*
G75*
G02*
X110643750Y-88440000I243750J0D01*
G01*
X111131250Y-88440000D01*
G75*
G02*
X111375000Y-88683750I0J-243750D01*
G01*
G37*
%TD*%
%TO.C,C503*%
G36*
G01*
X102490000Y-82152500D02*
X102490000Y-81807500D01*
G75*
G02*
X102637500Y-81660000I147500J0D01*
G01*
X102932500Y-81660000D01*
G75*
G02*
X103080000Y-81807500I0J-147500D01*
G01*
X103080000Y-82152500D01*
G75*
G02*
X102932500Y-82300000I-147500J0D01*
G01*
X102637500Y-82300000D01*
G75*
G02*
X102490000Y-82152500I0J147500D01*
G01*
G37*
G36*
G01*
X101520000Y-82152500D02*
X101520000Y-81807500D01*
G75*
G02*
X101667500Y-81660000I147500J0D01*
G01*
X101962500Y-81660000D01*
G75*
G02*
X102110000Y-81807500I0J-147500D01*
G01*
X102110000Y-82152500D01*
G75*
G02*
X101962500Y-82300000I-147500J0D01*
G01*
X101667500Y-82300000D01*
G75*
G02*
X101520000Y-82152500I0J147500D01*
G01*
G37*
%TD*%
%TO.C,C502*%
G36*
G01*
X109130000Y-81142500D02*
X109130000Y-80797500D01*
G75*
G02*
X109277500Y-80650000I147500J0D01*
G01*
X109572500Y-80650000D01*
G75*
G02*
X109720000Y-80797500I0J-147500D01*
G01*
X109720000Y-81142500D01*
G75*
G02*
X109572500Y-81290000I-147500J0D01*
G01*
X109277500Y-81290000D01*
G75*
G02*
X109130000Y-81142500I0J147500D01*
G01*
G37*
G36*
G01*
X108160000Y-81142500D02*
X108160000Y-80797500D01*
G75*
G02*
X108307500Y-80650000I147500J0D01*
G01*
X108602500Y-80650000D01*
G75*
G02*
X108750000Y-80797500I0J-147500D01*
G01*
X108750000Y-81142500D01*
G75*
G02*
X108602500Y-81290000I-147500J0D01*
G01*
X108307500Y-81290000D01*
G75*
G02*
X108160000Y-81142500I0J147500D01*
G01*
G37*
%TD*%
%TO.C,C501*%
G36*
G01*
X106980000Y-87646250D02*
X106980000Y-86733750D01*
G75*
G02*
X107223750Y-86490000I243750J0D01*
G01*
X107711250Y-86490000D01*
G75*
G02*
X107955000Y-86733750I0J-243750D01*
G01*
X107955000Y-87646250D01*
G75*
G02*
X107711250Y-87890000I-243750J0D01*
G01*
X107223750Y-87890000D01*
G75*
G02*
X106980000Y-87646250I0J243750D01*
G01*
G37*
G36*
G01*
X105105000Y-87646250D02*
X105105000Y-86733750D01*
G75*
G02*
X105348750Y-86490000I243750J0D01*
G01*
X105836250Y-86490000D01*
G75*
G02*
X106080000Y-86733750I0J-243750D01*
G01*
X106080000Y-87646250D01*
G75*
G02*
X105836250Y-87890000I-243750J0D01*
G01*
X105348750Y-87890000D01*
G75*
G02*
X105105000Y-87646250I0J243750D01*
G01*
G37*
%TD*%
D19*
%TO.C,L401*%
X106680000Y-93548000D03*
X104680000Y-93548000D03*
%TD*%
%TO.C,C404*%
G36*
G01*
X108017750Y-96792000D02*
X108930250Y-96792000D01*
G75*
G02*
X109174000Y-97035750I0J-243750D01*
G01*
X109174000Y-97523250D01*
G75*
G02*
X108930250Y-97767000I-243750J0D01*
G01*
X108017750Y-97767000D01*
G75*
G02*
X107774000Y-97523250I0J243750D01*
G01*
X107774000Y-97035750D01*
G75*
G02*
X108017750Y-96792000I243750J0D01*
G01*
G37*
G36*
G01*
X108017750Y-94917000D02*
X108930250Y-94917000D01*
G75*
G02*
X109174000Y-95160750I0J-243750D01*
G01*
X109174000Y-95648250D01*
G75*
G02*
X108930250Y-95892000I-243750J0D01*
G01*
X108017750Y-95892000D01*
G75*
G02*
X107774000Y-95648250I0J243750D01*
G01*
X107774000Y-95160750D01*
G75*
G02*
X108017750Y-94917000I243750J0D01*
G01*
G37*
%TD*%
%TO.C,C403*%
G36*
G01*
X117375522Y-100300196D02*
X117888022Y-100300196D01*
G75*
G02*
X118106772Y-100518946I0J-218750D01*
G01*
X118106772Y-100956446D01*
G75*
G02*
X117888022Y-101175196I-218750J0D01*
G01*
X117375522Y-101175196D01*
G75*
G02*
X117156772Y-100956446I0J218750D01*
G01*
X117156772Y-100518946D01*
G75*
G02*
X117375522Y-100300196I218750J0D01*
G01*
G37*
G36*
G01*
X117375522Y-98725196D02*
X117888022Y-98725196D01*
G75*
G02*
X118106772Y-98943946I0J-218750D01*
G01*
X118106772Y-99381446D01*
G75*
G02*
X117888022Y-99600196I-218750J0D01*
G01*
X117375522Y-99600196D01*
G75*
G02*
X117156772Y-99381446I0J218750D01*
G01*
X117156772Y-98943946D01*
G75*
G02*
X117375522Y-98725196I218750J0D01*
G01*
G37*
%TD*%
%TO.C,C402*%
G36*
G01*
X111598460Y-100300196D02*
X112110960Y-100300196D01*
G75*
G02*
X112329710Y-100518946I0J-218750D01*
G01*
X112329710Y-100956446D01*
G75*
G02*
X112110960Y-101175196I-218750J0D01*
G01*
X111598460Y-101175196D01*
G75*
G02*
X111379710Y-100956446I0J218750D01*
G01*
X111379710Y-100518946D01*
G75*
G02*
X111598460Y-100300196I218750J0D01*
G01*
G37*
G36*
G01*
X111598460Y-98725196D02*
X112110960Y-98725196D01*
G75*
G02*
X112329710Y-98943946I0J-218750D01*
G01*
X112329710Y-99381446D01*
G75*
G02*
X112110960Y-99600196I-218750J0D01*
G01*
X111598460Y-99600196D01*
G75*
G02*
X111379710Y-99381446I0J218750D01*
G01*
X111379710Y-98943946D01*
G75*
G02*
X111598460Y-98725196I218750J0D01*
G01*
G37*
%TD*%
%TO.C,C401*%
G36*
G01*
X103342250Y-97162000D02*
X102429750Y-97162000D01*
G75*
G02*
X102186000Y-96918250I0J243750D01*
G01*
X102186000Y-96430750D01*
G75*
G02*
X102429750Y-96187000I243750J0D01*
G01*
X103342250Y-96187000D01*
G75*
G02*
X103586000Y-96430750I0J-243750D01*
G01*
X103586000Y-96918250D01*
G75*
G02*
X103342250Y-97162000I-243750J0D01*
G01*
G37*
G36*
G01*
X103342250Y-99037000D02*
X102429750Y-99037000D01*
G75*
G02*
X102186000Y-98793250I0J243750D01*
G01*
X102186000Y-98305750D01*
G75*
G02*
X102429750Y-98062000I243750J0D01*
G01*
X103342250Y-98062000D01*
G75*
G02*
X103586000Y-98305750I0J-243750D01*
G01*
X103586000Y-98793250D01*
G75*
G02*
X103342250Y-99037000I-243750J0D01*
G01*
G37*
%TD*%
D20*
%TO.C,L301*%
X102300000Y-134450000D03*
X105900000Y-134450000D03*
%TD*%
D21*
%TO.C,J601*%
X131600000Y-132650000D03*
X130800000Y-132650000D03*
X130000000Y-132650000D03*
X129200000Y-132650000D03*
X128400000Y-132650000D03*
D22*
X134360000Y-132650000D03*
X125640000Y-132650000D03*
X125640000Y-138130000D03*
X134360000Y-138130000D03*
%TD*%
%TO.C,U602*%
G36*
G01*
X126090000Y-124090000D02*
X124765000Y-124090000D01*
G75*
G02*
X124690000Y-124015000I0J75000D01*
G01*
X124690000Y-123865000D01*
G75*
G02*
X124765000Y-123790000I75000J0D01*
G01*
X126090000Y-123790000D01*
G75*
G02*
X126165000Y-123865000I0J-75000D01*
G01*
X126165000Y-124015000D01*
G75*
G02*
X126090000Y-124090000I-75000J0D01*
G01*
G37*
G36*
G01*
X126090000Y-123590000D02*
X124765000Y-123590000D01*
G75*
G02*
X124690000Y-123515000I0J75000D01*
G01*
X124690000Y-123365000D01*
G75*
G02*
X124765000Y-123290000I75000J0D01*
G01*
X126090000Y-123290000D01*
G75*
G02*
X126165000Y-123365000I0J-75000D01*
G01*
X126165000Y-123515000D01*
G75*
G02*
X126090000Y-123590000I-75000J0D01*
G01*
G37*
G36*
G01*
X126090000Y-123090000D02*
X124765000Y-123090000D01*
G75*
G02*
X124690000Y-123015000I0J75000D01*
G01*
X124690000Y-122865000D01*
G75*
G02*
X124765000Y-122790000I75000J0D01*
G01*
X126090000Y-122790000D01*
G75*
G02*
X126165000Y-122865000I0J-75000D01*
G01*
X126165000Y-123015000D01*
G75*
G02*
X126090000Y-123090000I-75000J0D01*
G01*
G37*
G36*
G01*
X126090000Y-122590000D02*
X124765000Y-122590000D01*
G75*
G02*
X124690000Y-122515000I0J75000D01*
G01*
X124690000Y-122365000D01*
G75*
G02*
X124765000Y-122290000I75000J0D01*
G01*
X126090000Y-122290000D01*
G75*
G02*
X126165000Y-122365000I0J-75000D01*
G01*
X126165000Y-122515000D01*
G75*
G02*
X126090000Y-122590000I-75000J0D01*
G01*
G37*
G36*
G01*
X126090000Y-122090000D02*
X124765000Y-122090000D01*
G75*
G02*
X124690000Y-122015000I0J75000D01*
G01*
X124690000Y-121865000D01*
G75*
G02*
X124765000Y-121790000I75000J0D01*
G01*
X126090000Y-121790000D01*
G75*
G02*
X126165000Y-121865000I0J-75000D01*
G01*
X126165000Y-122015000D01*
G75*
G02*
X126090000Y-122090000I-75000J0D01*
G01*
G37*
G36*
G01*
X126090000Y-121590000D02*
X124765000Y-121590000D01*
G75*
G02*
X124690000Y-121515000I0J75000D01*
G01*
X124690000Y-121365000D01*
G75*
G02*
X124765000Y-121290000I75000J0D01*
G01*
X126090000Y-121290000D01*
G75*
G02*
X126165000Y-121365000I0J-75000D01*
G01*
X126165000Y-121515000D01*
G75*
G02*
X126090000Y-121590000I-75000J0D01*
G01*
G37*
G36*
G01*
X126090000Y-121090000D02*
X124765000Y-121090000D01*
G75*
G02*
X124690000Y-121015000I0J75000D01*
G01*
X124690000Y-120865000D01*
G75*
G02*
X124765000Y-120790000I75000J0D01*
G01*
X126090000Y-120790000D01*
G75*
G02*
X126165000Y-120865000I0J-75000D01*
G01*
X126165000Y-121015000D01*
G75*
G02*
X126090000Y-121090000I-75000J0D01*
G01*
G37*
G36*
G01*
X126090000Y-120590000D02*
X124765000Y-120590000D01*
G75*
G02*
X124690000Y-120515000I0J75000D01*
G01*
X124690000Y-120365000D01*
G75*
G02*
X124765000Y-120290000I75000J0D01*
G01*
X126090000Y-120290000D01*
G75*
G02*
X126165000Y-120365000I0J-75000D01*
G01*
X126165000Y-120515000D01*
G75*
G02*
X126090000Y-120590000I-75000J0D01*
G01*
G37*
G36*
G01*
X126090000Y-120090000D02*
X124765000Y-120090000D01*
G75*
G02*
X124690000Y-120015000I0J75000D01*
G01*
X124690000Y-119865000D01*
G75*
G02*
X124765000Y-119790000I75000J0D01*
G01*
X126090000Y-119790000D01*
G75*
G02*
X126165000Y-119865000I0J-75000D01*
G01*
X126165000Y-120015000D01*
G75*
G02*
X126090000Y-120090000I-75000J0D01*
G01*
G37*
G36*
G01*
X126090000Y-119590000D02*
X124765000Y-119590000D01*
G75*
G02*
X124690000Y-119515000I0J75000D01*
G01*
X124690000Y-119365000D01*
G75*
G02*
X124765000Y-119290000I75000J0D01*
G01*
X126090000Y-119290000D01*
G75*
G02*
X126165000Y-119365000I0J-75000D01*
G01*
X126165000Y-119515000D01*
G75*
G02*
X126090000Y-119590000I-75000J0D01*
G01*
G37*
G36*
G01*
X126090000Y-119090000D02*
X124765000Y-119090000D01*
G75*
G02*
X124690000Y-119015000I0J75000D01*
G01*
X124690000Y-118865000D01*
G75*
G02*
X124765000Y-118790000I75000J0D01*
G01*
X126090000Y-118790000D01*
G75*
G02*
X126165000Y-118865000I0J-75000D01*
G01*
X126165000Y-119015000D01*
G75*
G02*
X126090000Y-119090000I-75000J0D01*
G01*
G37*
G36*
G01*
X126090000Y-118590000D02*
X124765000Y-118590000D01*
G75*
G02*
X124690000Y-118515000I0J75000D01*
G01*
X124690000Y-118365000D01*
G75*
G02*
X124765000Y-118290000I75000J0D01*
G01*
X126090000Y-118290000D01*
G75*
G02*
X126165000Y-118365000I0J-75000D01*
G01*
X126165000Y-118515000D01*
G75*
G02*
X126090000Y-118590000I-75000J0D01*
G01*
G37*
G36*
G01*
X126915000Y-117765000D02*
X126765000Y-117765000D01*
G75*
G02*
X126690000Y-117690000I0J75000D01*
G01*
X126690000Y-116365000D01*
G75*
G02*
X126765000Y-116290000I75000J0D01*
G01*
X126915000Y-116290000D01*
G75*
G02*
X126990000Y-116365000I0J-75000D01*
G01*
X126990000Y-117690000D01*
G75*
G02*
X126915000Y-117765000I-75000J0D01*
G01*
G37*
G36*
G01*
X127415000Y-117765000D02*
X127265000Y-117765000D01*
G75*
G02*
X127190000Y-117690000I0J75000D01*
G01*
X127190000Y-116365000D01*
G75*
G02*
X127265000Y-116290000I75000J0D01*
G01*
X127415000Y-116290000D01*
G75*
G02*
X127490000Y-116365000I0J-75000D01*
G01*
X127490000Y-117690000D01*
G75*
G02*
X127415000Y-117765000I-75000J0D01*
G01*
G37*
G36*
G01*
X127915000Y-117765000D02*
X127765000Y-117765000D01*
G75*
G02*
X127690000Y-117690000I0J75000D01*
G01*
X127690000Y-116365000D01*
G75*
G02*
X127765000Y-116290000I75000J0D01*
G01*
X127915000Y-116290000D01*
G75*
G02*
X127990000Y-116365000I0J-75000D01*
G01*
X127990000Y-117690000D01*
G75*
G02*
X127915000Y-117765000I-75000J0D01*
G01*
G37*
G36*
G01*
X128415000Y-117765000D02*
X128265000Y-117765000D01*
G75*
G02*
X128190000Y-117690000I0J75000D01*
G01*
X128190000Y-116365000D01*
G75*
G02*
X128265000Y-116290000I75000J0D01*
G01*
X128415000Y-116290000D01*
G75*
G02*
X128490000Y-116365000I0J-75000D01*
G01*
X128490000Y-117690000D01*
G75*
G02*
X128415000Y-117765000I-75000J0D01*
G01*
G37*
G36*
G01*
X128915000Y-117765000D02*
X128765000Y-117765000D01*
G75*
G02*
X128690000Y-117690000I0J75000D01*
G01*
X128690000Y-116365000D01*
G75*
G02*
X128765000Y-116290000I75000J0D01*
G01*
X128915000Y-116290000D01*
G75*
G02*
X128990000Y-116365000I0J-75000D01*
G01*
X128990000Y-117690000D01*
G75*
G02*
X128915000Y-117765000I-75000J0D01*
G01*
G37*
G36*
G01*
X129415000Y-117765000D02*
X129265000Y-117765000D01*
G75*
G02*
X129190000Y-117690000I0J75000D01*
G01*
X129190000Y-116365000D01*
G75*
G02*
X129265000Y-116290000I75000J0D01*
G01*
X129415000Y-116290000D01*
G75*
G02*
X129490000Y-116365000I0J-75000D01*
G01*
X129490000Y-117690000D01*
G75*
G02*
X129415000Y-117765000I-75000J0D01*
G01*
G37*
G36*
G01*
X129915000Y-117765000D02*
X129765000Y-117765000D01*
G75*
G02*
X129690000Y-117690000I0J75000D01*
G01*
X129690000Y-116365000D01*
G75*
G02*
X129765000Y-116290000I75000J0D01*
G01*
X129915000Y-116290000D01*
G75*
G02*
X129990000Y-116365000I0J-75000D01*
G01*
X129990000Y-117690000D01*
G75*
G02*
X129915000Y-117765000I-75000J0D01*
G01*
G37*
G36*
G01*
X130415000Y-117765000D02*
X130265000Y-117765000D01*
G75*
G02*
X130190000Y-117690000I0J75000D01*
G01*
X130190000Y-116365000D01*
G75*
G02*
X130265000Y-116290000I75000J0D01*
G01*
X130415000Y-116290000D01*
G75*
G02*
X130490000Y-116365000I0J-75000D01*
G01*
X130490000Y-117690000D01*
G75*
G02*
X130415000Y-117765000I-75000J0D01*
G01*
G37*
G36*
G01*
X130915000Y-117765000D02*
X130765000Y-117765000D01*
G75*
G02*
X130690000Y-117690000I0J75000D01*
G01*
X130690000Y-116365000D01*
G75*
G02*
X130765000Y-116290000I75000J0D01*
G01*
X130915000Y-116290000D01*
G75*
G02*
X130990000Y-116365000I0J-75000D01*
G01*
X130990000Y-117690000D01*
G75*
G02*
X130915000Y-117765000I-75000J0D01*
G01*
G37*
G36*
G01*
X131415000Y-117765000D02*
X131265000Y-117765000D01*
G75*
G02*
X131190000Y-117690000I0J75000D01*
G01*
X131190000Y-116365000D01*
G75*
G02*
X131265000Y-116290000I75000J0D01*
G01*
X131415000Y-116290000D01*
G75*
G02*
X131490000Y-116365000I0J-75000D01*
G01*
X131490000Y-117690000D01*
G75*
G02*
X131415000Y-117765000I-75000J0D01*
G01*
G37*
G36*
G01*
X131915000Y-117765000D02*
X131765000Y-117765000D01*
G75*
G02*
X131690000Y-117690000I0J75000D01*
G01*
X131690000Y-116365000D01*
G75*
G02*
X131765000Y-116290000I75000J0D01*
G01*
X131915000Y-116290000D01*
G75*
G02*
X131990000Y-116365000I0J-75000D01*
G01*
X131990000Y-117690000D01*
G75*
G02*
X131915000Y-117765000I-75000J0D01*
G01*
G37*
G36*
G01*
X132415000Y-117765000D02*
X132265000Y-117765000D01*
G75*
G02*
X132190000Y-117690000I0J75000D01*
G01*
X132190000Y-116365000D01*
G75*
G02*
X132265000Y-116290000I75000J0D01*
G01*
X132415000Y-116290000D01*
G75*
G02*
X132490000Y-116365000I0J-75000D01*
G01*
X132490000Y-117690000D01*
G75*
G02*
X132415000Y-117765000I-75000J0D01*
G01*
G37*
G36*
G01*
X134415000Y-118590000D02*
X133090000Y-118590000D01*
G75*
G02*
X133015000Y-118515000I0J75000D01*
G01*
X133015000Y-118365000D01*
G75*
G02*
X133090000Y-118290000I75000J0D01*
G01*
X134415000Y-118290000D01*
G75*
G02*
X134490000Y-118365000I0J-75000D01*
G01*
X134490000Y-118515000D01*
G75*
G02*
X134415000Y-118590000I-75000J0D01*
G01*
G37*
G36*
G01*
X134415000Y-119090000D02*
X133090000Y-119090000D01*
G75*
G02*
X133015000Y-119015000I0J75000D01*
G01*
X133015000Y-118865000D01*
G75*
G02*
X133090000Y-118790000I75000J0D01*
G01*
X134415000Y-118790000D01*
G75*
G02*
X134490000Y-118865000I0J-75000D01*
G01*
X134490000Y-119015000D01*
G75*
G02*
X134415000Y-119090000I-75000J0D01*
G01*
G37*
G36*
G01*
X134415000Y-119590000D02*
X133090000Y-119590000D01*
G75*
G02*
X133015000Y-119515000I0J75000D01*
G01*
X133015000Y-119365000D01*
G75*
G02*
X133090000Y-119290000I75000J0D01*
G01*
X134415000Y-119290000D01*
G75*
G02*
X134490000Y-119365000I0J-75000D01*
G01*
X134490000Y-119515000D01*
G75*
G02*
X134415000Y-119590000I-75000J0D01*
G01*
G37*
G36*
G01*
X134415000Y-120090000D02*
X133090000Y-120090000D01*
G75*
G02*
X133015000Y-120015000I0J75000D01*
G01*
X133015000Y-119865000D01*
G75*
G02*
X133090000Y-119790000I75000J0D01*
G01*
X134415000Y-119790000D01*
G75*
G02*
X134490000Y-119865000I0J-75000D01*
G01*
X134490000Y-120015000D01*
G75*
G02*
X134415000Y-120090000I-75000J0D01*
G01*
G37*
G36*
G01*
X134415000Y-120590000D02*
X133090000Y-120590000D01*
G75*
G02*
X133015000Y-120515000I0J75000D01*
G01*
X133015000Y-120365000D01*
G75*
G02*
X133090000Y-120290000I75000J0D01*
G01*
X134415000Y-120290000D01*
G75*
G02*
X134490000Y-120365000I0J-75000D01*
G01*
X134490000Y-120515000D01*
G75*
G02*
X134415000Y-120590000I-75000J0D01*
G01*
G37*
G36*
G01*
X134415000Y-121090000D02*
X133090000Y-121090000D01*
G75*
G02*
X133015000Y-121015000I0J75000D01*
G01*
X133015000Y-120865000D01*
G75*
G02*
X133090000Y-120790000I75000J0D01*
G01*
X134415000Y-120790000D01*
G75*
G02*
X134490000Y-120865000I0J-75000D01*
G01*
X134490000Y-121015000D01*
G75*
G02*
X134415000Y-121090000I-75000J0D01*
G01*
G37*
G36*
G01*
X134415000Y-121590000D02*
X133090000Y-121590000D01*
G75*
G02*
X133015000Y-121515000I0J75000D01*
G01*
X133015000Y-121365000D01*
G75*
G02*
X133090000Y-121290000I75000J0D01*
G01*
X134415000Y-121290000D01*
G75*
G02*
X134490000Y-121365000I0J-75000D01*
G01*
X134490000Y-121515000D01*
G75*
G02*
X134415000Y-121590000I-75000J0D01*
G01*
G37*
G36*
G01*
X134415000Y-122090000D02*
X133090000Y-122090000D01*
G75*
G02*
X133015000Y-122015000I0J75000D01*
G01*
X133015000Y-121865000D01*
G75*
G02*
X133090000Y-121790000I75000J0D01*
G01*
X134415000Y-121790000D01*
G75*
G02*
X134490000Y-121865000I0J-75000D01*
G01*
X134490000Y-122015000D01*
G75*
G02*
X134415000Y-122090000I-75000J0D01*
G01*
G37*
G36*
G01*
X134415000Y-122590000D02*
X133090000Y-122590000D01*
G75*
G02*
X133015000Y-122515000I0J75000D01*
G01*
X133015000Y-122365000D01*
G75*
G02*
X133090000Y-122290000I75000J0D01*
G01*
X134415000Y-122290000D01*
G75*
G02*
X134490000Y-122365000I0J-75000D01*
G01*
X134490000Y-122515000D01*
G75*
G02*
X134415000Y-122590000I-75000J0D01*
G01*
G37*
G36*
G01*
X134415000Y-123090000D02*
X133090000Y-123090000D01*
G75*
G02*
X133015000Y-123015000I0J75000D01*
G01*
X133015000Y-122865000D01*
G75*
G02*
X133090000Y-122790000I75000J0D01*
G01*
X134415000Y-122790000D01*
G75*
G02*
X134490000Y-122865000I0J-75000D01*
G01*
X134490000Y-123015000D01*
G75*
G02*
X134415000Y-123090000I-75000J0D01*
G01*
G37*
G36*
G01*
X134415000Y-123590000D02*
X133090000Y-123590000D01*
G75*
G02*
X133015000Y-123515000I0J75000D01*
G01*
X133015000Y-123365000D01*
G75*
G02*
X133090000Y-123290000I75000J0D01*
G01*
X134415000Y-123290000D01*
G75*
G02*
X134490000Y-123365000I0J-75000D01*
G01*
X134490000Y-123515000D01*
G75*
G02*
X134415000Y-123590000I-75000J0D01*
G01*
G37*
G36*
G01*
X134415000Y-124090000D02*
X133090000Y-124090000D01*
G75*
G02*
X133015000Y-124015000I0J75000D01*
G01*
X133015000Y-123865000D01*
G75*
G02*
X133090000Y-123790000I75000J0D01*
G01*
X134415000Y-123790000D01*
G75*
G02*
X134490000Y-123865000I0J-75000D01*
G01*
X134490000Y-124015000D01*
G75*
G02*
X134415000Y-124090000I-75000J0D01*
G01*
G37*
G36*
G01*
X132415000Y-126090000D02*
X132265000Y-126090000D01*
G75*
G02*
X132190000Y-126015000I0J75000D01*
G01*
X132190000Y-124690000D01*
G75*
G02*
X132265000Y-124615000I75000J0D01*
G01*
X132415000Y-124615000D01*
G75*
G02*
X132490000Y-124690000I0J-75000D01*
G01*
X132490000Y-126015000D01*
G75*
G02*
X132415000Y-126090000I-75000J0D01*
G01*
G37*
G36*
G01*
X131915000Y-126090000D02*
X131765000Y-126090000D01*
G75*
G02*
X131690000Y-126015000I0J75000D01*
G01*
X131690000Y-124690000D01*
G75*
G02*
X131765000Y-124615000I75000J0D01*
G01*
X131915000Y-124615000D01*
G75*
G02*
X131990000Y-124690000I0J-75000D01*
G01*
X131990000Y-126015000D01*
G75*
G02*
X131915000Y-126090000I-75000J0D01*
G01*
G37*
G36*
G01*
X131415000Y-126090000D02*
X131265000Y-126090000D01*
G75*
G02*
X131190000Y-126015000I0J75000D01*
G01*
X131190000Y-124690000D01*
G75*
G02*
X131265000Y-124615000I75000J0D01*
G01*
X131415000Y-124615000D01*
G75*
G02*
X131490000Y-124690000I0J-75000D01*
G01*
X131490000Y-126015000D01*
G75*
G02*
X131415000Y-126090000I-75000J0D01*
G01*
G37*
G36*
G01*
X130915000Y-126090000D02*
X130765000Y-126090000D01*
G75*
G02*
X130690000Y-126015000I0J75000D01*
G01*
X130690000Y-124690000D01*
G75*
G02*
X130765000Y-124615000I75000J0D01*
G01*
X130915000Y-124615000D01*
G75*
G02*
X130990000Y-124690000I0J-75000D01*
G01*
X130990000Y-126015000D01*
G75*
G02*
X130915000Y-126090000I-75000J0D01*
G01*
G37*
G36*
G01*
X130415000Y-126090000D02*
X130265000Y-126090000D01*
G75*
G02*
X130190000Y-126015000I0J75000D01*
G01*
X130190000Y-124690000D01*
G75*
G02*
X130265000Y-124615000I75000J0D01*
G01*
X130415000Y-124615000D01*
G75*
G02*
X130490000Y-124690000I0J-75000D01*
G01*
X130490000Y-126015000D01*
G75*
G02*
X130415000Y-126090000I-75000J0D01*
G01*
G37*
G36*
G01*
X129915000Y-126090000D02*
X129765000Y-126090000D01*
G75*
G02*
X129690000Y-126015000I0J75000D01*
G01*
X129690000Y-124690000D01*
G75*
G02*
X129765000Y-124615000I75000J0D01*
G01*
X129915000Y-124615000D01*
G75*
G02*
X129990000Y-124690000I0J-75000D01*
G01*
X129990000Y-126015000D01*
G75*
G02*
X129915000Y-126090000I-75000J0D01*
G01*
G37*
G36*
G01*
X129415000Y-126090000D02*
X129265000Y-126090000D01*
G75*
G02*
X129190000Y-126015000I0J75000D01*
G01*
X129190000Y-124690000D01*
G75*
G02*
X129265000Y-124615000I75000J0D01*
G01*
X129415000Y-124615000D01*
G75*
G02*
X129490000Y-124690000I0J-75000D01*
G01*
X129490000Y-126015000D01*
G75*
G02*
X129415000Y-126090000I-75000J0D01*
G01*
G37*
G36*
G01*
X128915000Y-126090000D02*
X128765000Y-126090000D01*
G75*
G02*
X128690000Y-126015000I0J75000D01*
G01*
X128690000Y-124690000D01*
G75*
G02*
X128765000Y-124615000I75000J0D01*
G01*
X128915000Y-124615000D01*
G75*
G02*
X128990000Y-124690000I0J-75000D01*
G01*
X128990000Y-126015000D01*
G75*
G02*
X128915000Y-126090000I-75000J0D01*
G01*
G37*
G36*
G01*
X128415000Y-126090000D02*
X128265000Y-126090000D01*
G75*
G02*
X128190000Y-126015000I0J75000D01*
G01*
X128190000Y-124690000D01*
G75*
G02*
X128265000Y-124615000I75000J0D01*
G01*
X128415000Y-124615000D01*
G75*
G02*
X128490000Y-124690000I0J-75000D01*
G01*
X128490000Y-126015000D01*
G75*
G02*
X128415000Y-126090000I-75000J0D01*
G01*
G37*
G36*
G01*
X127915000Y-126090000D02*
X127765000Y-126090000D01*
G75*
G02*
X127690000Y-126015000I0J75000D01*
G01*
X127690000Y-124690000D01*
G75*
G02*
X127765000Y-124615000I75000J0D01*
G01*
X127915000Y-124615000D01*
G75*
G02*
X127990000Y-124690000I0J-75000D01*
G01*
X127990000Y-126015000D01*
G75*
G02*
X127915000Y-126090000I-75000J0D01*
G01*
G37*
G36*
G01*
X127415000Y-126090000D02*
X127265000Y-126090000D01*
G75*
G02*
X127190000Y-126015000I0J75000D01*
G01*
X127190000Y-124690000D01*
G75*
G02*
X127265000Y-124615000I75000J0D01*
G01*
X127415000Y-124615000D01*
G75*
G02*
X127490000Y-124690000I0J-75000D01*
G01*
X127490000Y-126015000D01*
G75*
G02*
X127415000Y-126090000I-75000J0D01*
G01*
G37*
G36*
G01*
X126915000Y-126090000D02*
X126765000Y-126090000D01*
G75*
G02*
X126690000Y-126015000I0J75000D01*
G01*
X126690000Y-124690000D01*
G75*
G02*
X126765000Y-124615000I75000J0D01*
G01*
X126915000Y-124615000D01*
G75*
G02*
X126990000Y-124690000I0J-75000D01*
G01*
X126990000Y-126015000D01*
G75*
G02*
X126915000Y-126090000I-75000J0D01*
G01*
G37*
%TD*%
D23*
%TO.C,U704*%
X114685021Y-88585300D03*
X115335007Y-88585300D03*
X115984993Y-88585300D03*
X116634979Y-88585300D03*
X116634979Y-90134700D03*
X115984993Y-90134700D03*
X115335007Y-90134700D03*
X114685021Y-90134700D03*
%TD*%
D24*
%TO.C,U703*%
X147037500Y-111855000D03*
X147037500Y-112355000D03*
X147037500Y-112855000D03*
D25*
X147175000Y-110942500D03*
X147675000Y-110942500D03*
X148175000Y-110942500D03*
X148675000Y-110942500D03*
X149175000Y-110942500D03*
X149675000Y-110942500D03*
X150175000Y-110942500D03*
X150675000Y-110942500D03*
X151175000Y-110942500D03*
X147175000Y-114267500D03*
X147675000Y-114267500D03*
X148175000Y-114267500D03*
X148675000Y-114267500D03*
X149175000Y-114267500D03*
X149675000Y-114267500D03*
X150175000Y-114267500D03*
X150675000Y-114267500D03*
X151175000Y-114267500D03*
D24*
X151812500Y-111855000D03*
X151812500Y-112355000D03*
X151812500Y-112855000D03*
D25*
X151675000Y-114267500D03*
D24*
X151812500Y-113355000D03*
D25*
X151675000Y-110942500D03*
D24*
X147037500Y-113355000D03*
%TD*%
D26*
%TO.C,J801*%
X129975000Y-41875000D03*
D27*
X127150000Y-42075000D03*
X132800000Y-42075000D03*
%TD*%
M02*
