%TF.GenerationSoftware,KiCad,Pcbnew,(5.1.6)-1*%
%TF.CreationDate,2020-12-21T13:22:22+01:00*%
%TF.ProjectId,PCB-Drone-With-FPGA,5043422d-4472-46f6-9e65-2d576974682d,rev?*%
%TF.SameCoordinates,Original*%
%TF.FileFunction,Legend,Top*%
%TF.FilePolarity,Positive*%
%FSLAX46Y46*%
G04 Gerber Fmt 4.6, Leading zero omitted, Abs format (unit mm)*
G04 Created by KiCad (PCBNEW (5.1.6)-1) date 2020-12-21 13:22:22*
%MOMM*%
%LPD*%
G01*
G04 APERTURE LIST*
%ADD10C,0.250000*%
%ADD11C,0.200000*%
%ADD12C,0.300000*%
%ADD13C,0.120000*%
%ADD14C,0.100000*%
%ADD15C,0.152400*%
%ADD16C,0.010000*%
%ADD17C,0.150000*%
%ADD18C,0.254000*%
%ADD19C,0.160000*%
G04 APERTURE END LIST*
D10*
X107700000Y-114766190D02*
X107604761Y-114956666D01*
X107604761Y-115242380D01*
X107700000Y-115528095D01*
X107890476Y-115718571D01*
X108080952Y-115813809D01*
X108461904Y-115909047D01*
X108747619Y-115909047D01*
X109128571Y-115813809D01*
X109319047Y-115718571D01*
X109509523Y-115528095D01*
X109604761Y-115242380D01*
X109604761Y-115051904D01*
X109509523Y-114766190D01*
X109414285Y-114670952D01*
X108747619Y-114670952D01*
X108747619Y-115051904D01*
X109604761Y-113813809D02*
X107604761Y-113813809D01*
X107604761Y-113051904D01*
X107700000Y-112861428D01*
X107795238Y-112766190D01*
X107985714Y-112670952D01*
X108271428Y-112670952D01*
X108461904Y-112766190D01*
X108557142Y-112861428D01*
X108652380Y-113051904D01*
X108652380Y-113813809D01*
X109604761Y-111813809D02*
X107604761Y-111813809D01*
X107604761Y-110480476D02*
X107604761Y-110099523D01*
X107700000Y-109909047D01*
X107890476Y-109718571D01*
X108271428Y-109623333D01*
X108938095Y-109623333D01*
X109319047Y-109718571D01*
X109509523Y-109909047D01*
X109604761Y-110099523D01*
X109604761Y-110480476D01*
X109509523Y-110670952D01*
X109319047Y-110861428D01*
X108938095Y-110956666D01*
X108271428Y-110956666D01*
X107890476Y-110861428D01*
X107700000Y-110670952D01*
X107604761Y-110480476D01*
X107604761Y-106290000D02*
X107604761Y-107242380D01*
X108557142Y-107337619D01*
X108461904Y-107242380D01*
X108366666Y-107051904D01*
X108366666Y-106575714D01*
X108461904Y-106385238D01*
X108557142Y-106290000D01*
X108747619Y-106194761D01*
X109223809Y-106194761D01*
X109414285Y-106290000D01*
X109509523Y-106385238D01*
X109604761Y-106575714D01*
X109604761Y-107051904D01*
X109509523Y-107242380D01*
X109414285Y-107337619D01*
X108271428Y-105528095D02*
X109604761Y-105051904D01*
X108271428Y-104575714D01*
D11*
X153526666Y-95824761D02*
X153526666Y-97253333D01*
X153431428Y-97539047D01*
X153240952Y-97729523D01*
X152955238Y-97824761D01*
X152764761Y-97824761D01*
X154193333Y-95824761D02*
X155336190Y-95824761D01*
X154764761Y-97824761D02*
X154764761Y-95824761D01*
X155907619Y-97253333D02*
X156860000Y-97253333D01*
X155717142Y-97824761D02*
X156383809Y-95824761D01*
X157050476Y-97824761D01*
X158764761Y-95920000D02*
X158574285Y-95824761D01*
X158288571Y-95824761D01*
X158002857Y-95920000D01*
X157812380Y-96110476D01*
X157717142Y-96300952D01*
X157621904Y-96681904D01*
X157621904Y-96967619D01*
X157717142Y-97348571D01*
X157812380Y-97539047D01*
X158002857Y-97729523D01*
X158288571Y-97824761D01*
X158479047Y-97824761D01*
X158764761Y-97729523D01*
X158860000Y-97634285D01*
X158860000Y-96967619D01*
X158479047Y-96967619D01*
D12*
X140850000Y-42271428D02*
X140921428Y-42128571D01*
X140921428Y-41914285D01*
X140850000Y-41700000D01*
X140707142Y-41557142D01*
X140564285Y-41485714D01*
X140278571Y-41414285D01*
X140064285Y-41414285D01*
X139778571Y-41485714D01*
X139635714Y-41557142D01*
X139492857Y-41700000D01*
X139421428Y-41914285D01*
X139421428Y-42057142D01*
X139492857Y-42271428D01*
X139564285Y-42342857D01*
X140064285Y-42342857D01*
X140064285Y-42057142D01*
X139421428Y-42985714D02*
X140921428Y-42985714D01*
X140921428Y-43557142D01*
X140850000Y-43700000D01*
X140778571Y-43771428D01*
X140635714Y-43842857D01*
X140421428Y-43842857D01*
X140278571Y-43771428D01*
X140207142Y-43700000D01*
X140135714Y-43557142D01*
X140135714Y-42985714D01*
X139421428Y-44485714D02*
X140921428Y-44485714D01*
X140921428Y-45485714D02*
X140921428Y-45771428D01*
X140850000Y-45914285D01*
X140707142Y-46057142D01*
X140421428Y-46128571D01*
X139921428Y-46128571D01*
X139635714Y-46057142D01*
X139492857Y-45914285D01*
X139421428Y-45771428D01*
X139421428Y-45485714D01*
X139492857Y-45342857D01*
X139635714Y-45200000D01*
X139921428Y-45128571D01*
X140421428Y-45128571D01*
X140707142Y-45200000D01*
X140850000Y-45342857D01*
X140921428Y-45485714D01*
X140207142Y-48414285D02*
X140207142Y-47914285D01*
X139421428Y-47914285D02*
X140921428Y-47914285D01*
X140921428Y-48628571D01*
X139421428Y-49200000D02*
X140421428Y-49200000D01*
X140135714Y-49200000D02*
X140278571Y-49271428D01*
X140350000Y-49342857D01*
X140421428Y-49485714D01*
X140421428Y-49628571D01*
X139421428Y-50342857D02*
X139492857Y-50200000D01*
X139564285Y-50128571D01*
X139707142Y-50057142D01*
X140135714Y-50057142D01*
X140278571Y-50128571D01*
X140350000Y-50200000D01*
X140421428Y-50342857D01*
X140421428Y-50557142D01*
X140350000Y-50700000D01*
X140278571Y-50771428D01*
X140135714Y-50842857D01*
X139707142Y-50842857D01*
X139564285Y-50771428D01*
X139492857Y-50700000D01*
X139421428Y-50557142D01*
X139421428Y-50342857D01*
X140421428Y-51485714D02*
X139421428Y-51485714D01*
X140278571Y-51485714D02*
X140350000Y-51557142D01*
X140421428Y-51700000D01*
X140421428Y-51914285D01*
X140350000Y-52057142D01*
X140207142Y-52128571D01*
X139421428Y-52128571D01*
X140421428Y-52628571D02*
X140421428Y-53200000D01*
X140921428Y-52842857D02*
X139635714Y-52842857D01*
X139492857Y-52914285D01*
X139421428Y-53057142D01*
X139421428Y-53200000D01*
X139421428Y-55700000D02*
X140135714Y-55200000D01*
X139421428Y-54842857D02*
X140921428Y-54842857D01*
X140921428Y-55414285D01*
X140850000Y-55557142D01*
X140778571Y-55628571D01*
X140635714Y-55700000D01*
X140421428Y-55700000D01*
X140278571Y-55628571D01*
X140207142Y-55557142D01*
X140135714Y-55414285D01*
X140135714Y-54842857D01*
X139421428Y-56342857D02*
X140421428Y-56342857D01*
X140921428Y-56342857D02*
X140850000Y-56271428D01*
X140778571Y-56342857D01*
X140850000Y-56414285D01*
X140921428Y-56342857D01*
X140778571Y-56342857D01*
X140421428Y-57700000D02*
X139207142Y-57700000D01*
X139064285Y-57628571D01*
X138992857Y-57557142D01*
X138921428Y-57414285D01*
X138921428Y-57200000D01*
X138992857Y-57057142D01*
X139492857Y-57700000D02*
X139421428Y-57557142D01*
X139421428Y-57271428D01*
X139492857Y-57128571D01*
X139564285Y-57057142D01*
X139707142Y-56985714D01*
X140135714Y-56985714D01*
X140278571Y-57057142D01*
X140350000Y-57128571D01*
X140421428Y-57271428D01*
X140421428Y-57557142D01*
X140350000Y-57700000D01*
X139421428Y-58414285D02*
X140921428Y-58414285D01*
X139421428Y-59057142D02*
X140207142Y-59057142D01*
X140350000Y-58985714D01*
X140421428Y-58842857D01*
X140421428Y-58628571D01*
X140350000Y-58485714D01*
X140278571Y-58414285D01*
X140421428Y-59557142D02*
X140421428Y-60128571D01*
X140921428Y-59771428D02*
X139635714Y-59771428D01*
X139492857Y-59842857D01*
X139421428Y-59985714D01*
X139421428Y-60128571D01*
X120750000Y-42357142D02*
X120821428Y-42214285D01*
X120821428Y-42000000D01*
X120750000Y-41785714D01*
X120607142Y-41642857D01*
X120464285Y-41571428D01*
X120178571Y-41500000D01*
X119964285Y-41500000D01*
X119678571Y-41571428D01*
X119535714Y-41642857D01*
X119392857Y-41785714D01*
X119321428Y-42000000D01*
X119321428Y-42142857D01*
X119392857Y-42357142D01*
X119464285Y-42428571D01*
X119964285Y-42428571D01*
X119964285Y-42142857D01*
X119321428Y-43071428D02*
X120821428Y-43071428D01*
X120821428Y-43642857D01*
X120750000Y-43785714D01*
X120678571Y-43857142D01*
X120535714Y-43928571D01*
X120321428Y-43928571D01*
X120178571Y-43857142D01*
X120107142Y-43785714D01*
X120035714Y-43642857D01*
X120035714Y-43071428D01*
X119321428Y-44571428D02*
X120821428Y-44571428D01*
X120821428Y-45571428D02*
X120821428Y-45857142D01*
X120750000Y-46000000D01*
X120607142Y-46142857D01*
X120321428Y-46214285D01*
X119821428Y-46214285D01*
X119535714Y-46142857D01*
X119392857Y-46000000D01*
X119321428Y-45857142D01*
X119321428Y-45571428D01*
X119392857Y-45428571D01*
X119535714Y-45285714D01*
X119821428Y-45214285D01*
X120321428Y-45214285D01*
X120607142Y-45285714D01*
X120750000Y-45428571D01*
X120821428Y-45571428D01*
X120107142Y-48500000D02*
X120107142Y-48000000D01*
X119321428Y-48000000D02*
X120821428Y-48000000D01*
X120821428Y-48714285D01*
X119321428Y-49285714D02*
X120321428Y-49285714D01*
X120035714Y-49285714D02*
X120178571Y-49357142D01*
X120250000Y-49428571D01*
X120321428Y-49571428D01*
X120321428Y-49714285D01*
X119321428Y-50428571D02*
X119392857Y-50285714D01*
X119464285Y-50214285D01*
X119607142Y-50142857D01*
X120035714Y-50142857D01*
X120178571Y-50214285D01*
X120250000Y-50285714D01*
X120321428Y-50428571D01*
X120321428Y-50642857D01*
X120250000Y-50785714D01*
X120178571Y-50857142D01*
X120035714Y-50928571D01*
X119607142Y-50928571D01*
X119464285Y-50857142D01*
X119392857Y-50785714D01*
X119321428Y-50642857D01*
X119321428Y-50428571D01*
X120321428Y-51571428D02*
X119321428Y-51571428D01*
X120178571Y-51571428D02*
X120250000Y-51642857D01*
X120321428Y-51785714D01*
X120321428Y-52000000D01*
X120250000Y-52142857D01*
X120107142Y-52214285D01*
X119321428Y-52214285D01*
X120321428Y-52714285D02*
X120321428Y-53285714D01*
X120821428Y-52928571D02*
X119535714Y-52928571D01*
X119392857Y-53000000D01*
X119321428Y-53142857D01*
X119321428Y-53285714D01*
X119321428Y-55642857D02*
X119321428Y-54928571D01*
X120821428Y-54928571D01*
X119392857Y-56714285D02*
X119321428Y-56571428D01*
X119321428Y-56285714D01*
X119392857Y-56142857D01*
X119535714Y-56071428D01*
X120107142Y-56071428D01*
X120250000Y-56142857D01*
X120321428Y-56285714D01*
X120321428Y-56571428D01*
X120250000Y-56714285D01*
X120107142Y-56785714D01*
X119964285Y-56785714D01*
X119821428Y-56071428D01*
X120321428Y-57214285D02*
X120321428Y-57785714D01*
X119321428Y-57428571D02*
X120607142Y-57428571D01*
X120750000Y-57500000D01*
X120821428Y-57642857D01*
X120821428Y-57785714D01*
X120321428Y-58071428D02*
X120321428Y-58642857D01*
X120821428Y-58285714D02*
X119535714Y-58285714D01*
X119392857Y-58357142D01*
X119321428Y-58500000D01*
X119321428Y-58642857D01*
D13*
%TO.C,U801*%
X128360000Y-64525000D02*
X128360000Y-65250000D01*
X132580000Y-61030000D02*
X131855000Y-61030000D01*
X132580000Y-61755000D02*
X132580000Y-61030000D01*
X132580000Y-65250000D02*
X131855000Y-65250000D01*
X132580000Y-64525000D02*
X132580000Y-65250000D01*
X128360000Y-61030000D02*
X129085000Y-61030000D01*
X128360000Y-61755000D02*
X128360000Y-61030000D01*
D11*
%TO.C,U501*%
X106265000Y-82970000D02*
X107115000Y-82970000D01*
X107115000Y-82970000D02*
X107115000Y-85870000D01*
X107115000Y-85870000D02*
X106265000Y-85870000D01*
X106265000Y-85870000D02*
X106265000Y-82970000D01*
X104865000Y-82845000D02*
X105915000Y-82845000D01*
%TO.C,U402*%
X112887498Y-98601166D02*
X114137498Y-98601166D01*
X114487498Y-101601166D02*
X114487498Y-98601166D01*
X115037498Y-101601166D02*
X114487498Y-101601166D01*
X115037498Y-98601166D02*
X115037498Y-101601166D01*
X114487498Y-98601166D02*
X115037498Y-98601166D01*
%TO.C,U401*%
X104180000Y-99183000D02*
X104180000Y-98033000D01*
X107155000Y-97683000D02*
X104205000Y-97683000D01*
X107155000Y-97033000D02*
X107155000Y-97683000D01*
X104205000Y-97033000D02*
X107155000Y-97033000D01*
X104205000Y-97683000D02*
X104205000Y-97033000D01*
%TO.C,U301*%
X109324999Y-135900000D02*
X108474999Y-135900000D01*
X108474999Y-135900000D02*
X108474999Y-133000000D01*
X108474999Y-133000000D02*
X109324999Y-133000000D01*
X109324999Y-133000000D02*
X109324999Y-135900000D01*
X110724999Y-136025000D02*
X109674999Y-136025000D01*
D13*
%TO.C,X801*%
X136710000Y-65320000D02*
X136710000Y-61320000D01*
X133410000Y-65320000D02*
X136710000Y-65320000D01*
%TO.C,C813*%
X128933733Y-48030000D02*
X129276267Y-48030000D01*
X128933733Y-47010000D02*
X129276267Y-47010000D01*
%TO.C,C809*%
X131526266Y-52810000D02*
X131183732Y-52810000D01*
X131526266Y-53830000D02*
X131183732Y-53830000D01*
%TO.C,C807*%
X129975000Y-55543732D02*
X129975000Y-55886266D01*
X130995000Y-55543732D02*
X130995000Y-55886266D01*
%TO.C,C801*%
X126360000Y-65127221D02*
X126360000Y-65452779D01*
X127380000Y-65127221D02*
X127380000Y-65452779D01*
%TO.C,U802*%
X128120000Y-51565000D02*
X128120000Y-52040000D01*
X131340000Y-48820000D02*
X130865000Y-48820000D01*
X131340000Y-49295000D02*
X131340000Y-48820000D01*
X131340000Y-52040000D02*
X130865000Y-52040000D01*
X131340000Y-51565000D02*
X131340000Y-52040000D01*
X128120000Y-48820000D02*
X128595000Y-48820000D01*
X128120000Y-49295000D02*
X128120000Y-48820000D01*
D14*
%TO.C,FL801*%
X129470000Y-46820000D02*
X129470000Y-46820000D01*
X129570000Y-46820000D02*
X129570000Y-46820000D01*
X129170000Y-45820000D02*
X129170000Y-45620000D01*
X130770000Y-45720000D02*
X130770000Y-45520000D01*
X129470000Y-46820000D02*
G75*
G02*
X129570000Y-46820000I50000J0D01*
G01*
X129570000Y-46820000D02*
G75*
G02*
X129470000Y-46820000I-50000J0D01*
G01*
D13*
%TO.C,X1401*%
X136492046Y-102284838D02*
X137764838Y-101012046D01*
X135487954Y-98735162D02*
X133755543Y-100467574D01*
%TO.C,R915*%
X138478578Y-131400000D02*
X137961422Y-131400000D01*
X138478578Y-129980000D02*
X137961422Y-129980000D01*
%TO.C,R914*%
X137961422Y-131890000D02*
X138478578Y-131890000D01*
X137961422Y-133310000D02*
X138478578Y-133310000D01*
%TO.C,R913*%
X138478578Y-135210000D02*
X137961422Y-135210000D01*
X138478578Y-133790000D02*
X137961422Y-133790000D01*
%TO.C,R912*%
X137958922Y-135700000D02*
X138476078Y-135700000D01*
X137958922Y-137120000D02*
X138476078Y-137120000D01*
%TO.C,R911*%
X142984721Y-103370000D02*
X143310279Y-103370000D01*
X142984721Y-104390000D02*
X143310279Y-104390000D01*
%TO.C,R910*%
X142987221Y-104840001D02*
X143312779Y-104840001D01*
X142987221Y-105860001D02*
X143312779Y-105860001D01*
%TO.C,R909*%
X142987221Y-106330000D02*
X143312779Y-106330000D01*
X142987221Y-107350000D02*
X143312779Y-107350000D01*
%TO.C,R908*%
X142987221Y-107830000D02*
X143312779Y-107830000D01*
X142987221Y-108850000D02*
X143312779Y-108850000D01*
%TO.C,R907*%
X142979721Y-109320000D02*
X143305279Y-109320000D01*
X142979721Y-110340000D02*
X143305279Y-110340000D01*
%TO.C,R906*%
X142977221Y-110810000D02*
X143302779Y-110810000D01*
X142977221Y-111830000D02*
X143302779Y-111830000D01*
%TO.C,R905*%
X142977221Y-112320000D02*
X143302779Y-112320000D01*
X142977221Y-113340000D02*
X143302779Y-113340000D01*
%TO.C,R904*%
X142977220Y-113830000D02*
X143302778Y-113830000D01*
X142977220Y-114850000D02*
X143302778Y-114850000D01*
%TO.C,R903*%
X102507221Y-90260000D02*
X102832779Y-90260000D01*
X102507221Y-91280000D02*
X102832779Y-91280000D01*
%TO.C,D909*%
X140950000Y-103145000D02*
X138665000Y-103145000D01*
X138665000Y-103145000D02*
X138665000Y-104615000D01*
X138665000Y-104615000D02*
X140950000Y-104615000D01*
%TO.C,D908*%
X140950000Y-104615000D02*
X138665000Y-104615000D01*
X138665000Y-104615000D02*
X138665000Y-106085000D01*
X138665000Y-106085000D02*
X140950000Y-106085000D01*
%TO.C,D907*%
X140950000Y-106105000D02*
X138665000Y-106105000D01*
X138665000Y-106105000D02*
X138665000Y-107575000D01*
X138665000Y-107575000D02*
X140950000Y-107575000D01*
%TO.C,D906*%
X140950001Y-107605000D02*
X138665001Y-107605000D01*
X138665001Y-107605000D02*
X138665001Y-109075000D01*
X138665001Y-109075000D02*
X140950001Y-109075000D01*
%TO.C,D905*%
X140950001Y-109095000D02*
X138665001Y-109095000D01*
X138665001Y-109095000D02*
X138665001Y-110565000D01*
X138665001Y-110565000D02*
X140950001Y-110565000D01*
%TO.C,D904*%
X140950001Y-110585000D02*
X138665001Y-110585000D01*
X138665001Y-110585000D02*
X138665001Y-112055000D01*
X138665001Y-112055000D02*
X140950001Y-112055000D01*
%TO.C,D903*%
X140950000Y-112095000D02*
X138665000Y-112095000D01*
X138665000Y-112095000D02*
X138665000Y-113565000D01*
X138665000Y-113565000D02*
X140950000Y-113565000D01*
%TO.C,D902*%
X140960000Y-113605000D02*
X138675000Y-113605000D01*
X138675000Y-113605000D02*
X138675000Y-115075000D01*
X138675000Y-115075000D02*
X140960000Y-115075000D01*
%TO.C,D901*%
X101395000Y-92667500D02*
X101395000Y-94952500D01*
X101395000Y-94952500D02*
X102865000Y-94952500D01*
X102865000Y-94952500D02*
X102865000Y-92667500D01*
%TO.C,Y601*%
X126120000Y-125370000D02*
X122120000Y-125370000D01*
X126120000Y-128670000D02*
X126120000Y-125370000D01*
%TO.C,FB603*%
X119888748Y-131050000D02*
X120411252Y-131050000D01*
X119888748Y-129630000D02*
X120411252Y-129630000D01*
%TO.C,FB602*%
X125156252Y-129250000D02*
X124633748Y-129250000D01*
X125156252Y-130670000D02*
X124633748Y-130670000D01*
%TO.C,FB601*%
X131588748Y-129920000D02*
X132111252Y-129920000D01*
X131588748Y-128500000D02*
X132111252Y-128500000D01*
%TO.C,C304*%
X104138748Y-129410000D02*
X104661252Y-129410000D01*
X104138748Y-127990000D02*
X104661252Y-127990000D01*
%TO.C,C303*%
X104138747Y-131410000D02*
X104661251Y-131410000D01*
X104138747Y-129990000D02*
X104661251Y-129990000D01*
%TO.C,C302*%
X107161252Y-137489999D02*
X106638748Y-137489999D01*
X107161252Y-138909999D02*
X106638748Y-138909999D01*
%TO.C,C301*%
X109411252Y-130990000D02*
X108888748Y-130990000D01*
X109411252Y-132410000D02*
X108888748Y-132410000D01*
%TO.C,FB1502*%
X135928733Y-86410000D02*
X136271267Y-86410000D01*
X135928733Y-85390000D02*
X136271267Y-85390000D01*
%TO.C,FB1501*%
X128019520Y-94111729D02*
X128261729Y-93869520D01*
X127298271Y-93390480D02*
X127540480Y-93148271D01*
%TO.C,TP1403*%
X123825000Y-77175000D02*
G75*
G03*
X123825000Y-77175000I-700000J0D01*
G01*
%TO.C,TP1402*%
X122325000Y-78625000D02*
G75*
G03*
X122325000Y-78625000I-700000J0D01*
G01*
%TO.C,TP1401*%
X120825000Y-80075000D02*
G75*
G03*
X120825000Y-80075000I-700000J0D01*
G01*
%TO.C,C1525*%
X126379204Y-85794888D02*
X126744888Y-85429204D01*
X125375112Y-84790796D02*
X125740796Y-84425112D01*
%TO.C,U604*%
X154215000Y-133445000D02*
X154215000Y-135120000D01*
X153955000Y-133445000D02*
X154215000Y-133445000D01*
X153955000Y-130720000D02*
X153955000Y-133445000D01*
X153955000Y-127995000D02*
X154215000Y-127995000D01*
X153955000Y-130720000D02*
X153955000Y-127995000D01*
X159405000Y-133445000D02*
X159145000Y-133445000D01*
X159405000Y-130720000D02*
X159405000Y-133445000D01*
X159405000Y-127995000D02*
X159145000Y-127995000D01*
X159405000Y-130720000D02*
X159405000Y-127995000D01*
%TO.C,Y701*%
X149650000Y-115405000D02*
X148300000Y-115405000D01*
X149650000Y-117155000D02*
X148300000Y-117155000D01*
%TO.C,U701*%
X131610000Y-110935000D02*
X131610000Y-111610000D01*
X131610000Y-111610000D02*
X131435000Y-111610000D01*
X128390000Y-109065000D02*
X128390000Y-108390000D01*
X128390000Y-108390000D02*
X128565000Y-108390000D01*
X128390000Y-110935000D02*
X128390000Y-111610000D01*
X128390000Y-111610000D02*
X128565000Y-111610000D01*
X131610000Y-109065000D02*
X131610000Y-108390000D01*
%TO.C,C712*%
X149715000Y-119117779D02*
X149715000Y-118792221D01*
X150735000Y-119117779D02*
X150735000Y-118792221D01*
%TO.C,C711*%
X147215000Y-119105279D02*
X147215000Y-118779721D01*
X148235000Y-119105279D02*
X148235000Y-118779721D01*
%TO.C,C710*%
X153762221Y-114245000D02*
X154087779Y-114245000D01*
X153762221Y-115265000D02*
X154087779Y-115265000D01*
%TO.C,C702*%
X133124722Y-107490000D02*
X133450280Y-107490000D01*
X133124722Y-108510000D02*
X133450280Y-108510000D01*
%TO.C,R502*%
X105371422Y-80800000D02*
X105888578Y-80800000D01*
X105371422Y-82220000D02*
X105888578Y-82220000D01*
%TO.C,R501*%
X102178748Y-82770000D02*
X102701252Y-82770000D01*
X102178748Y-84190000D02*
X102701252Y-84190000D01*
%TO.C,L501*%
X109390000Y-81640000D02*
X113390000Y-81640000D01*
X109390000Y-86040000D02*
X113390000Y-86040000D01*
%TO.C,C505*%
X110208578Y-87900000D02*
X109691422Y-87900000D01*
X110208578Y-86480000D02*
X109691422Y-86480000D01*
%TO.C,C504*%
X110208578Y-89850000D02*
X109691422Y-89850000D01*
X110208578Y-88430000D02*
X109691422Y-88430000D01*
%TO.C,C501*%
X106271422Y-86480000D02*
X106788578Y-86480000D01*
X106271422Y-87900000D02*
X106788578Y-87900000D01*
%TO.C,C404*%
X107764000Y-96083422D02*
X107764000Y-96600578D01*
X109184000Y-96083422D02*
X109184000Y-96600578D01*
%TO.C,C403*%
X117121772Y-99787417D02*
X117121772Y-100112975D01*
X118141772Y-99787417D02*
X118141772Y-100112975D01*
%TO.C,C402*%
X111344710Y-99787417D02*
X111344710Y-100112975D01*
X112364710Y-99787417D02*
X112364710Y-100112975D01*
%TO.C,C401*%
X103596000Y-97870578D02*
X103596000Y-97353422D01*
X102176000Y-97870578D02*
X102176000Y-97353422D01*
%TO.C,L301*%
X106400000Y-136750000D02*
X101800000Y-136750000D01*
X101800000Y-132150000D02*
X106400000Y-132150000D01*
%TO.C,J1004*%
X153300000Y-94300000D02*
X158500000Y-94300000D01*
X153300000Y-84080000D02*
X153300000Y-94300000D01*
X158500000Y-81480000D02*
X158500000Y-94300000D01*
X153300000Y-84080000D02*
X155900000Y-84080000D01*
X155900000Y-84080000D02*
X155900000Y-81480000D01*
X155900000Y-81480000D02*
X158500000Y-81480000D01*
X153300000Y-82810000D02*
X153300000Y-81480000D01*
X153300000Y-81480000D02*
X154630000Y-81480000D01*
%TO.C,J1003*%
X142570000Y-67370000D02*
X147770000Y-67370000D01*
X142570000Y-44450000D02*
X142570000Y-67370000D01*
X147770000Y-41850000D02*
X147770000Y-67370000D01*
X142570000Y-44450000D02*
X145170000Y-44450000D01*
X145170000Y-44450000D02*
X145170000Y-41850000D01*
X145170000Y-41850000D02*
X147770000Y-41850000D01*
X142570000Y-43180000D02*
X142570000Y-41850000D01*
X142570000Y-41850000D02*
X143900000Y-41850000D01*
%TO.C,J1002*%
X101206000Y-119696000D02*
X106406000Y-119696000D01*
X101206000Y-104396000D02*
X101206000Y-119696000D01*
X106406000Y-101796000D02*
X106406000Y-119696000D01*
X101206000Y-104396000D02*
X103806000Y-104396000D01*
X103806000Y-104396000D02*
X103806000Y-101796000D01*
X103806000Y-101796000D02*
X106406000Y-101796000D01*
X101206000Y-103126000D02*
X101206000Y-101796000D01*
X101206000Y-101796000D02*
X102536000Y-101796000D01*
%TO.C,J1001*%
X112370000Y-67090000D02*
X117570000Y-67090000D01*
X112370000Y-44170000D02*
X112370000Y-67090000D01*
X117570000Y-41570000D02*
X117570000Y-67090000D01*
X112370000Y-44170000D02*
X114970000Y-44170000D01*
X114970000Y-44170000D02*
X114970000Y-41570000D01*
X114970000Y-41570000D02*
X117570000Y-41570000D01*
X112370000Y-42900000D02*
X112370000Y-41570000D01*
X112370000Y-41570000D02*
X113700000Y-41570000D01*
D14*
%TO.C,J601*%
X128025000Y-132375000D02*
X126800000Y-132375000D01*
X133150000Y-132375000D02*
X132075000Y-132375000D01*
X126025000Y-134475000D02*
X126025000Y-136350000D01*
X133975000Y-136200000D02*
X133975000Y-134325000D01*
X133975000Y-141500000D02*
X133975000Y-141425000D01*
X133975000Y-141500000D02*
X133975000Y-141825000D01*
X133975000Y-141825000D02*
X133475000Y-141825000D01*
X126025000Y-141525000D02*
X126025000Y-141450000D01*
X126025000Y-141525000D02*
X126025000Y-141825000D01*
X126025000Y-141825000D02*
X126450000Y-141825000D01*
D13*
%TO.C,JP201*%
X100870000Y-126730000D02*
X100870000Y-125400000D01*
X102200000Y-126730000D02*
X100870000Y-126730000D01*
X103470000Y-126730000D02*
X103470000Y-124070000D01*
X103470000Y-124070000D02*
X108610000Y-124070000D01*
X103470000Y-126730000D02*
X108610000Y-126730000D01*
X108610000Y-126730000D02*
X108610000Y-124070000D01*
D14*
%TO.C,J201*%
X111500000Y-131770000D02*
X112000000Y-131770000D01*
X111500000Y-131770000D02*
X111500000Y-132270000D01*
X120700000Y-131770000D02*
X120200000Y-131770000D01*
X120700000Y-131770000D02*
X120700000Y-132270000D01*
X117300000Y-137370000D02*
X114900000Y-137370000D01*
X120700000Y-146370000D02*
X120700000Y-145870000D01*
X120700000Y-146370000D02*
X120200000Y-146370000D01*
X111500000Y-146370000D02*
X112000000Y-146370000D01*
X111500000Y-146370000D02*
X111500000Y-145870000D01*
X120700000Y-139070000D02*
X120700000Y-140070000D01*
X111500000Y-139070000D02*
X111500000Y-140070000D01*
D13*
%TO.C,U602*%
X126430000Y-124800000D02*
X126430000Y-126090000D01*
X125980000Y-124800000D02*
X126430000Y-124800000D01*
X125980000Y-124350000D02*
X125980000Y-124800000D01*
X125980000Y-117580000D02*
X126430000Y-117580000D01*
X125980000Y-118030000D02*
X125980000Y-117580000D01*
X133200000Y-124800000D02*
X132750000Y-124800000D01*
X133200000Y-124350000D02*
X133200000Y-124800000D01*
X133200000Y-117580000D02*
X132750000Y-117580000D01*
X133200000Y-118030000D02*
X133200000Y-117580000D01*
D15*
%TO.C,U704*%
X117082400Y-89761912D02*
X117082400Y-88958088D01*
X114237600Y-88958088D02*
X114237600Y-89761912D01*
X114761221Y-90739093D02*
G75*
G03*
X114761221Y-90739093I-76200J0D01*
G01*
D13*
%TO.C,U703*%
X146715000Y-114615000D02*
X146715000Y-114355000D01*
X146715000Y-114615000D02*
X146975000Y-114615000D01*
X146715000Y-110595000D02*
X146715000Y-110855000D01*
X146715000Y-110595000D02*
X146975000Y-110595000D01*
X152135000Y-114615000D02*
X151875000Y-114615000D01*
X152135000Y-110595000D02*
X152135000Y-110855000D01*
X152135000Y-110595000D02*
X151875000Y-110595000D01*
%TO.C,J801*%
X130225000Y-44835000D02*
X129975000Y-44335000D01*
X129725000Y-44835000D02*
X130225000Y-44835000D01*
X129975000Y-44335000D02*
X129725000Y-44835000D01*
X131925000Y-40075000D02*
X130815000Y-40075000D01*
X129135000Y-40075000D02*
X128025000Y-40075000D01*
X131925000Y-43785000D02*
X130815000Y-43785000D01*
X129135000Y-43785000D02*
X128025000Y-43785000D01*
D16*
%TO.C,LOGO101*%
G36*
X142851241Y-137469184D02*
G01*
X142877753Y-137482282D01*
X142910447Y-137505106D01*
X142934275Y-137529996D01*
X142950594Y-137561249D01*
X142960760Y-137603166D01*
X142966128Y-137660044D01*
X142968056Y-137736184D01*
X142968169Y-137768917D01*
X142967839Y-137840656D01*
X142966473Y-137891927D01*
X142963500Y-137927404D01*
X142958351Y-137951763D01*
X142950457Y-137969680D01*
X142942243Y-137981902D01*
X142889813Y-138033905D01*
X142828070Y-138065184D01*
X142761464Y-138074592D01*
X142694442Y-138060980D01*
X142673208Y-138051354D01*
X142622376Y-138024859D01*
X142622376Y-138440052D01*
X142659475Y-138420868D01*
X142708357Y-138406025D01*
X142768439Y-138402222D01*
X142828436Y-138409243D01*
X142873744Y-138425013D01*
X142911325Y-138455047D01*
X142943436Y-138498024D01*
X142945850Y-138502436D01*
X142956033Y-138523221D01*
X142963470Y-138544170D01*
X142968589Y-138569548D01*
X142971819Y-138603618D01*
X142973587Y-138650641D01*
X142974323Y-138714882D01*
X142974456Y-138787176D01*
X142974456Y-139017822D01*
X142836139Y-139017822D01*
X142836139Y-138592533D01*
X142797451Y-138559979D01*
X142757262Y-138533940D01*
X142719203Y-138529205D01*
X142680934Y-138541389D01*
X142660538Y-138553320D01*
X142645358Y-138570313D01*
X142634562Y-138595995D01*
X142627317Y-138633991D01*
X142622792Y-138687926D01*
X142620156Y-138761425D01*
X142619228Y-138810347D01*
X142616089Y-139011535D01*
X142550074Y-139015336D01*
X142484060Y-139019136D01*
X142484060Y-137770650D01*
X142622376Y-137770650D01*
X142625903Y-137840254D01*
X142637785Y-137888569D01*
X142659980Y-137918631D01*
X142694441Y-137933471D01*
X142729258Y-137936436D01*
X142768671Y-137933028D01*
X142794829Y-137919617D01*
X142811186Y-137901896D01*
X142824063Y-137882835D01*
X142831728Y-137861601D01*
X142835139Y-137831849D01*
X142835251Y-137787236D01*
X142834103Y-137749880D01*
X142831468Y-137693604D01*
X142827544Y-137656658D01*
X142820937Y-137633223D01*
X142810251Y-137617480D01*
X142800167Y-137608380D01*
X142758030Y-137588537D01*
X142708160Y-137585332D01*
X142679524Y-137592168D01*
X142651172Y-137616464D01*
X142632391Y-137663728D01*
X142623288Y-137733624D01*
X142622376Y-137770650D01*
X142484060Y-137770650D01*
X142484060Y-137458614D01*
X142553218Y-137458614D01*
X142594740Y-137460256D01*
X142616162Y-137466087D01*
X142622374Y-137477461D01*
X142622376Y-137477798D01*
X142625258Y-137488938D01*
X142637970Y-137487673D01*
X142663243Y-137475433D01*
X142722131Y-137456707D01*
X142788385Y-137454739D01*
X142851241Y-137469184D01*
G37*
X142851241Y-137469184D02*
X142877753Y-137482282D01*
X142910447Y-137505106D01*
X142934275Y-137529996D01*
X142950594Y-137561249D01*
X142960760Y-137603166D01*
X142966128Y-137660044D01*
X142968056Y-137736184D01*
X142968169Y-137768917D01*
X142967839Y-137840656D01*
X142966473Y-137891927D01*
X142963500Y-137927404D01*
X142958351Y-137951763D01*
X142950457Y-137969680D01*
X142942243Y-137981902D01*
X142889813Y-138033905D01*
X142828070Y-138065184D01*
X142761464Y-138074592D01*
X142694442Y-138060980D01*
X142673208Y-138051354D01*
X142622376Y-138024859D01*
X142622376Y-138440052D01*
X142659475Y-138420868D01*
X142708357Y-138406025D01*
X142768439Y-138402222D01*
X142828436Y-138409243D01*
X142873744Y-138425013D01*
X142911325Y-138455047D01*
X142943436Y-138498024D01*
X142945850Y-138502436D01*
X142956033Y-138523221D01*
X142963470Y-138544170D01*
X142968589Y-138569548D01*
X142971819Y-138603618D01*
X142973587Y-138650641D01*
X142974323Y-138714882D01*
X142974456Y-138787176D01*
X142974456Y-139017822D01*
X142836139Y-139017822D01*
X142836139Y-138592533D01*
X142797451Y-138559979D01*
X142757262Y-138533940D01*
X142719203Y-138529205D01*
X142680934Y-138541389D01*
X142660538Y-138553320D01*
X142645358Y-138570313D01*
X142634562Y-138595995D01*
X142627317Y-138633991D01*
X142622792Y-138687926D01*
X142620156Y-138761425D01*
X142619228Y-138810347D01*
X142616089Y-139011535D01*
X142550074Y-139015336D01*
X142484060Y-139019136D01*
X142484060Y-137770650D01*
X142622376Y-137770650D01*
X142625903Y-137840254D01*
X142637785Y-137888569D01*
X142659980Y-137918631D01*
X142694441Y-137933471D01*
X142729258Y-137936436D01*
X142768671Y-137933028D01*
X142794829Y-137919617D01*
X142811186Y-137901896D01*
X142824063Y-137882835D01*
X142831728Y-137861601D01*
X142835139Y-137831849D01*
X142835251Y-137787236D01*
X142834103Y-137749880D01*
X142831468Y-137693604D01*
X142827544Y-137656658D01*
X142820937Y-137633223D01*
X142810251Y-137617480D01*
X142800167Y-137608380D01*
X142758030Y-137588537D01*
X142708160Y-137585332D01*
X142679524Y-137592168D01*
X142651172Y-137616464D01*
X142632391Y-137663728D01*
X142623288Y-137733624D01*
X142622376Y-137770650D01*
X142484060Y-137770650D01*
X142484060Y-137458614D01*
X142553218Y-137458614D01*
X142594740Y-137460256D01*
X142616162Y-137466087D01*
X142622374Y-137477461D01*
X142622376Y-137477798D01*
X142625258Y-137488938D01*
X142637970Y-137487673D01*
X142663243Y-137475433D01*
X142722131Y-137456707D01*
X142788385Y-137454739D01*
X142851241Y-137469184D01*
G36*
X143375790Y-138406555D02*
G01*
X143434945Y-138422339D01*
X143479977Y-138450948D01*
X143511754Y-138488419D01*
X143521634Y-138504411D01*
X143528927Y-138521163D01*
X143534026Y-138542592D01*
X143537321Y-138572616D01*
X143539203Y-138615154D01*
X143540063Y-138674122D01*
X143540293Y-138753440D01*
X143540297Y-138774484D01*
X143540297Y-139017822D01*
X143479941Y-139017822D01*
X143441443Y-139015126D01*
X143412977Y-139008295D01*
X143405845Y-139004083D01*
X143386348Y-138996813D01*
X143366434Y-139004083D01*
X143333647Y-139013160D01*
X143286022Y-139016813D01*
X143233236Y-139015228D01*
X143184964Y-139008589D01*
X143156782Y-139000072D01*
X143102247Y-138965063D01*
X143068165Y-138916479D01*
X143052843Y-138851882D01*
X143052701Y-138850223D01*
X143054045Y-138821566D01*
X143175644Y-138821566D01*
X143186274Y-138854161D01*
X143203590Y-138872505D01*
X143238348Y-138886379D01*
X143284227Y-138891917D01*
X143331012Y-138889191D01*
X143368486Y-138878274D01*
X143378985Y-138871269D01*
X143397332Y-138838904D01*
X143401980Y-138802111D01*
X143401980Y-138753763D01*
X143332418Y-138753763D01*
X143266333Y-138758850D01*
X143216236Y-138773263D01*
X143185071Y-138795729D01*
X143175644Y-138821566D01*
X143054045Y-138821566D01*
X143056013Y-138779647D01*
X143079290Y-138723845D01*
X143123052Y-138681647D01*
X143129101Y-138677808D01*
X143155093Y-138665309D01*
X143187265Y-138657740D01*
X143232240Y-138654061D01*
X143285669Y-138653216D01*
X143401980Y-138653169D01*
X143401980Y-138604411D01*
X143397047Y-138566581D01*
X143384457Y-138541236D01*
X143382983Y-138539887D01*
X143354966Y-138528800D01*
X143312674Y-138524503D01*
X143265936Y-138526615D01*
X143224582Y-138534756D01*
X143200043Y-138546965D01*
X143186747Y-138556746D01*
X143172706Y-138558613D01*
X143153329Y-138550600D01*
X143124024Y-138530739D01*
X143080197Y-138497063D01*
X143076175Y-138493909D01*
X143078236Y-138482236D01*
X143095432Y-138462822D01*
X143121567Y-138441248D01*
X143150448Y-138423096D01*
X143159522Y-138418809D01*
X143192620Y-138410256D01*
X143241120Y-138404155D01*
X143295305Y-138401708D01*
X143297839Y-138401703D01*
X143375790Y-138406555D01*
G37*
X143375790Y-138406555D02*
X143434945Y-138422339D01*
X143479977Y-138450948D01*
X143511754Y-138488419D01*
X143521634Y-138504411D01*
X143528927Y-138521163D01*
X143534026Y-138542592D01*
X143537321Y-138572616D01*
X143539203Y-138615154D01*
X143540063Y-138674122D01*
X143540293Y-138753440D01*
X143540297Y-138774484D01*
X143540297Y-139017822D01*
X143479941Y-139017822D01*
X143441443Y-139015126D01*
X143412977Y-139008295D01*
X143405845Y-139004083D01*
X143386348Y-138996813D01*
X143366434Y-139004083D01*
X143333647Y-139013160D01*
X143286022Y-139016813D01*
X143233236Y-139015228D01*
X143184964Y-139008589D01*
X143156782Y-139000072D01*
X143102247Y-138965063D01*
X143068165Y-138916479D01*
X143052843Y-138851882D01*
X143052701Y-138850223D01*
X143054045Y-138821566D01*
X143175644Y-138821566D01*
X143186274Y-138854161D01*
X143203590Y-138872505D01*
X143238348Y-138886379D01*
X143284227Y-138891917D01*
X143331012Y-138889191D01*
X143368486Y-138878274D01*
X143378985Y-138871269D01*
X143397332Y-138838904D01*
X143401980Y-138802111D01*
X143401980Y-138753763D01*
X143332418Y-138753763D01*
X143266333Y-138758850D01*
X143216236Y-138773263D01*
X143185071Y-138795729D01*
X143175644Y-138821566D01*
X143054045Y-138821566D01*
X143056013Y-138779647D01*
X143079290Y-138723845D01*
X143123052Y-138681647D01*
X143129101Y-138677808D01*
X143155093Y-138665309D01*
X143187265Y-138657740D01*
X143232240Y-138654061D01*
X143285669Y-138653216D01*
X143401980Y-138653169D01*
X143401980Y-138604411D01*
X143397047Y-138566581D01*
X143384457Y-138541236D01*
X143382983Y-138539887D01*
X143354966Y-138528800D01*
X143312674Y-138524503D01*
X143265936Y-138526615D01*
X143224582Y-138534756D01*
X143200043Y-138546965D01*
X143186747Y-138556746D01*
X143172706Y-138558613D01*
X143153329Y-138550600D01*
X143124024Y-138530739D01*
X143080197Y-138497063D01*
X143076175Y-138493909D01*
X143078236Y-138482236D01*
X143095432Y-138462822D01*
X143121567Y-138441248D01*
X143150448Y-138423096D01*
X143159522Y-138418809D01*
X143192620Y-138410256D01*
X143241120Y-138404155D01*
X143295305Y-138401708D01*
X143297839Y-138401703D01*
X143375790Y-138406555D01*
G36*
X143766644Y-138403020D02*
G01*
X143785461Y-138408660D01*
X143791527Y-138421053D01*
X143791782Y-138426647D01*
X143792871Y-138442230D01*
X143800368Y-138444676D01*
X143820619Y-138433993D01*
X143832649Y-138426694D01*
X143870600Y-138411063D01*
X143915928Y-138403334D01*
X143963456Y-138402740D01*
X144008005Y-138408513D01*
X144044398Y-138419884D01*
X144067457Y-138436088D01*
X144072004Y-138456355D01*
X144069709Y-138461843D01*
X144052980Y-138484626D01*
X144027037Y-138512647D01*
X144022345Y-138517177D01*
X143997617Y-138538005D01*
X143976282Y-138544735D01*
X143946445Y-138540038D01*
X143934492Y-138536917D01*
X143897295Y-138529421D01*
X143871141Y-138532792D01*
X143849054Y-138544681D01*
X143828822Y-138560635D01*
X143813921Y-138580700D01*
X143803566Y-138608702D01*
X143796971Y-138648467D01*
X143793351Y-138703823D01*
X143791922Y-138778594D01*
X143791782Y-138823740D01*
X143791782Y-139017822D01*
X143666040Y-139017822D01*
X143666040Y-138401683D01*
X143728911Y-138401683D01*
X143766644Y-138403020D01*
G37*
X143766644Y-138403020D02*
X143785461Y-138408660D01*
X143791527Y-138421053D01*
X143791782Y-138426647D01*
X143792871Y-138442230D01*
X143800368Y-138444676D01*
X143820619Y-138433993D01*
X143832649Y-138426694D01*
X143870600Y-138411063D01*
X143915928Y-138403334D01*
X143963456Y-138402740D01*
X144008005Y-138408513D01*
X144044398Y-138419884D01*
X144067457Y-138436088D01*
X144072004Y-138456355D01*
X144069709Y-138461843D01*
X144052980Y-138484626D01*
X144027037Y-138512647D01*
X144022345Y-138517177D01*
X143997617Y-138538005D01*
X143976282Y-138544735D01*
X143946445Y-138540038D01*
X143934492Y-138536917D01*
X143897295Y-138529421D01*
X143871141Y-138532792D01*
X143849054Y-138544681D01*
X143828822Y-138560635D01*
X143813921Y-138580700D01*
X143803566Y-138608702D01*
X143796971Y-138648467D01*
X143793351Y-138703823D01*
X143791922Y-138778594D01*
X143791782Y-138823740D01*
X143791782Y-139017822D01*
X143666040Y-139017822D01*
X143666040Y-138401683D01*
X143728911Y-138401683D01*
X143766644Y-138403020D01*
G36*
X144558812Y-139017822D02*
G01*
X144489654Y-139017822D01*
X144449512Y-139016645D01*
X144428606Y-139011772D01*
X144421078Y-139001186D01*
X144420495Y-138994029D01*
X144419226Y-138979676D01*
X144411221Y-138976923D01*
X144390185Y-138985771D01*
X144373827Y-138994029D01*
X144311023Y-139013597D01*
X144242752Y-139014729D01*
X144187248Y-139000135D01*
X144135562Y-138964877D01*
X144096162Y-138912835D01*
X144074587Y-138851450D01*
X144074038Y-138848018D01*
X144070833Y-138810571D01*
X144069239Y-138756813D01*
X144069367Y-138716155D01*
X144206721Y-138716155D01*
X144209903Y-138770194D01*
X144217141Y-138814735D01*
X144226940Y-138839888D01*
X144264011Y-138874260D01*
X144308026Y-138886582D01*
X144353416Y-138876618D01*
X144392203Y-138846895D01*
X144406892Y-138826905D01*
X144415481Y-138803050D01*
X144419504Y-138768230D01*
X144420495Y-138715930D01*
X144418722Y-138664139D01*
X144414037Y-138618634D01*
X144407397Y-138588181D01*
X144406290Y-138585452D01*
X144379509Y-138553000D01*
X144340421Y-138535183D01*
X144296685Y-138532306D01*
X144255962Y-138544674D01*
X144225913Y-138572593D01*
X144222796Y-138578148D01*
X144213039Y-138612022D01*
X144207723Y-138660728D01*
X144206721Y-138716155D01*
X144069367Y-138716155D01*
X144069432Y-138695540D01*
X144070336Y-138662563D01*
X144076486Y-138580981D01*
X144089267Y-138519730D01*
X144110529Y-138474449D01*
X144142122Y-138440779D01*
X144172793Y-138421014D01*
X144215646Y-138407120D01*
X144268944Y-138402354D01*
X144323520Y-138406236D01*
X144370208Y-138418282D01*
X144394876Y-138432693D01*
X144420495Y-138455878D01*
X144420495Y-138162773D01*
X144558812Y-138162773D01*
X144558812Y-139017822D01*
G37*
X144558812Y-139017822D02*
X144489654Y-139017822D01*
X144449512Y-139016645D01*
X144428606Y-139011772D01*
X144421078Y-139001186D01*
X144420495Y-138994029D01*
X144419226Y-138979676D01*
X144411221Y-138976923D01*
X144390185Y-138985771D01*
X144373827Y-138994029D01*
X144311023Y-139013597D01*
X144242752Y-139014729D01*
X144187248Y-139000135D01*
X144135562Y-138964877D01*
X144096162Y-138912835D01*
X144074587Y-138851450D01*
X144074038Y-138848018D01*
X144070833Y-138810571D01*
X144069239Y-138756813D01*
X144069367Y-138716155D01*
X144206721Y-138716155D01*
X144209903Y-138770194D01*
X144217141Y-138814735D01*
X144226940Y-138839888D01*
X144264011Y-138874260D01*
X144308026Y-138886582D01*
X144353416Y-138876618D01*
X144392203Y-138846895D01*
X144406892Y-138826905D01*
X144415481Y-138803050D01*
X144419504Y-138768230D01*
X144420495Y-138715930D01*
X144418722Y-138664139D01*
X144414037Y-138618634D01*
X144407397Y-138588181D01*
X144406290Y-138585452D01*
X144379509Y-138553000D01*
X144340421Y-138535183D01*
X144296685Y-138532306D01*
X144255962Y-138544674D01*
X144225913Y-138572593D01*
X144222796Y-138578148D01*
X144213039Y-138612022D01*
X144207723Y-138660728D01*
X144206721Y-138716155D01*
X144069367Y-138716155D01*
X144069432Y-138695540D01*
X144070336Y-138662563D01*
X144076486Y-138580981D01*
X144089267Y-138519730D01*
X144110529Y-138474449D01*
X144142122Y-138440779D01*
X144172793Y-138421014D01*
X144215646Y-138407120D01*
X144268944Y-138402354D01*
X144323520Y-138406236D01*
X144370208Y-138418282D01*
X144394876Y-138432693D01*
X144420495Y-138455878D01*
X144420495Y-138162773D01*
X144558812Y-138162773D01*
X144558812Y-139017822D01*
G36*
X145041524Y-138404237D02*
G01*
X145091255Y-138407971D01*
X145221291Y-138797773D01*
X145241678Y-138728614D01*
X145253946Y-138685874D01*
X145270085Y-138628115D01*
X145287512Y-138564625D01*
X145296726Y-138530570D01*
X145331388Y-138401683D01*
X145474391Y-138401683D01*
X145431646Y-138536857D01*
X145410596Y-138603342D01*
X145385167Y-138683539D01*
X145358610Y-138767193D01*
X145334902Y-138841782D01*
X145280902Y-139011535D01*
X145222598Y-139015328D01*
X145164295Y-139019122D01*
X145132679Y-138914734D01*
X145113182Y-138849889D01*
X145091904Y-138778400D01*
X145073308Y-138715263D01*
X145072574Y-138712750D01*
X145058684Y-138669969D01*
X145046429Y-138640779D01*
X145037846Y-138629741D01*
X145036082Y-138631018D01*
X145029891Y-138648130D01*
X145018128Y-138684787D01*
X145002225Y-138736378D01*
X144983614Y-138798294D01*
X144973543Y-138832352D01*
X144919007Y-139017822D01*
X144803264Y-139017822D01*
X144710737Y-138725471D01*
X144684744Y-138643462D01*
X144661066Y-138568987D01*
X144640820Y-138505544D01*
X144625126Y-138456632D01*
X144615102Y-138425749D01*
X144612055Y-138416726D01*
X144614467Y-138407487D01*
X144633408Y-138403441D01*
X144672823Y-138403846D01*
X144678993Y-138404152D01*
X144752086Y-138407971D01*
X144799957Y-138584010D01*
X144817553Y-138648211D01*
X144833277Y-138704649D01*
X144845746Y-138748422D01*
X144853574Y-138774630D01*
X144855020Y-138778903D01*
X144861014Y-138773990D01*
X144873101Y-138748532D01*
X144889893Y-138705997D01*
X144910003Y-138649850D01*
X144927003Y-138599130D01*
X144991794Y-138400504D01*
X145041524Y-138404237D01*
G37*
X145041524Y-138404237D02*
X145091255Y-138407971D01*
X145221291Y-138797773D01*
X145241678Y-138728614D01*
X145253946Y-138685874D01*
X145270085Y-138628115D01*
X145287512Y-138564625D01*
X145296726Y-138530570D01*
X145331388Y-138401683D01*
X145474391Y-138401683D01*
X145431646Y-138536857D01*
X145410596Y-138603342D01*
X145385167Y-138683539D01*
X145358610Y-138767193D01*
X145334902Y-138841782D01*
X145280902Y-139011535D01*
X145222598Y-139015328D01*
X145164295Y-139019122D01*
X145132679Y-138914734D01*
X145113182Y-138849889D01*
X145091904Y-138778400D01*
X145073308Y-138715263D01*
X145072574Y-138712750D01*
X145058684Y-138669969D01*
X145046429Y-138640779D01*
X145037846Y-138629741D01*
X145036082Y-138631018D01*
X145029891Y-138648130D01*
X145018128Y-138684787D01*
X145002225Y-138736378D01*
X144983614Y-138798294D01*
X144973543Y-138832352D01*
X144919007Y-139017822D01*
X144803264Y-139017822D01*
X144710737Y-138725471D01*
X144684744Y-138643462D01*
X144661066Y-138568987D01*
X144640820Y-138505544D01*
X144625126Y-138456632D01*
X144615102Y-138425749D01*
X144612055Y-138416726D01*
X144614467Y-138407487D01*
X144633408Y-138403441D01*
X144672823Y-138403846D01*
X144678993Y-138404152D01*
X144752086Y-138407971D01*
X144799957Y-138584010D01*
X144817553Y-138648211D01*
X144833277Y-138704649D01*
X144845746Y-138748422D01*
X144853574Y-138774630D01*
X144855020Y-138778903D01*
X144861014Y-138773990D01*
X144873101Y-138748532D01*
X144889893Y-138705997D01*
X144910003Y-138649850D01*
X144927003Y-138599130D01*
X144991794Y-138400504D01*
X145041524Y-138404237D01*
G36*
X145798411Y-138405417D02*
G01*
X145851411Y-138418290D01*
X145866731Y-138425110D01*
X145896428Y-138442974D01*
X145919220Y-138463093D01*
X145936083Y-138488962D01*
X145947998Y-138524073D01*
X145955942Y-138571920D01*
X145960894Y-138635996D01*
X145963831Y-138719794D01*
X145964947Y-138775768D01*
X145969052Y-139017822D01*
X145898932Y-139017822D01*
X145856393Y-139016038D01*
X145834476Y-139009942D01*
X145828812Y-138999706D01*
X145825821Y-138988637D01*
X145812451Y-138990754D01*
X145794233Y-138999629D01*
X145748624Y-139013233D01*
X145690007Y-139016899D01*
X145628354Y-139010903D01*
X145573638Y-138995521D01*
X145568730Y-138993386D01*
X145518723Y-138958255D01*
X145485756Y-138909419D01*
X145470587Y-138852333D01*
X145471746Y-138831824D01*
X145595508Y-138831824D01*
X145606413Y-138859425D01*
X145638745Y-138879204D01*
X145690910Y-138889819D01*
X145718787Y-138891228D01*
X145765247Y-138887620D01*
X145796129Y-138873597D01*
X145803664Y-138866931D01*
X145824076Y-138830666D01*
X145828812Y-138797773D01*
X145828812Y-138753763D01*
X145767513Y-138753763D01*
X145696256Y-138757395D01*
X145646276Y-138768818D01*
X145614696Y-138788824D01*
X145607626Y-138797743D01*
X145595508Y-138831824D01*
X145471746Y-138831824D01*
X145473971Y-138792456D01*
X145496663Y-138735244D01*
X145527624Y-138696580D01*
X145546376Y-138679864D01*
X145564733Y-138668878D01*
X145588619Y-138662180D01*
X145623957Y-138658326D01*
X145676669Y-138655873D01*
X145697577Y-138655168D01*
X145828812Y-138650879D01*
X145828620Y-138611158D01*
X145823537Y-138569405D01*
X145805162Y-138544158D01*
X145768039Y-138528030D01*
X145767043Y-138527742D01*
X145714410Y-138521400D01*
X145662906Y-138529684D01*
X145624630Y-138549827D01*
X145609272Y-138559773D01*
X145592730Y-138558397D01*
X145567275Y-138543987D01*
X145552328Y-138533817D01*
X145523091Y-138512088D01*
X145504980Y-138495800D01*
X145502074Y-138491137D01*
X145514040Y-138467005D01*
X145549396Y-138438185D01*
X145564753Y-138428461D01*
X145608901Y-138411714D01*
X145668398Y-138402227D01*
X145734487Y-138400095D01*
X145798411Y-138405417D01*
G37*
X145798411Y-138405417D02*
X145851411Y-138418290D01*
X145866731Y-138425110D01*
X145896428Y-138442974D01*
X145919220Y-138463093D01*
X145936083Y-138488962D01*
X145947998Y-138524073D01*
X145955942Y-138571920D01*
X145960894Y-138635996D01*
X145963831Y-138719794D01*
X145964947Y-138775768D01*
X145969052Y-139017822D01*
X145898932Y-139017822D01*
X145856393Y-139016038D01*
X145834476Y-139009942D01*
X145828812Y-138999706D01*
X145825821Y-138988637D01*
X145812451Y-138990754D01*
X145794233Y-138999629D01*
X145748624Y-139013233D01*
X145690007Y-139016899D01*
X145628354Y-139010903D01*
X145573638Y-138995521D01*
X145568730Y-138993386D01*
X145518723Y-138958255D01*
X145485756Y-138909419D01*
X145470587Y-138852333D01*
X145471746Y-138831824D01*
X145595508Y-138831824D01*
X145606413Y-138859425D01*
X145638745Y-138879204D01*
X145690910Y-138889819D01*
X145718787Y-138891228D01*
X145765247Y-138887620D01*
X145796129Y-138873597D01*
X145803664Y-138866931D01*
X145824076Y-138830666D01*
X145828812Y-138797773D01*
X145828812Y-138753763D01*
X145767513Y-138753763D01*
X145696256Y-138757395D01*
X145646276Y-138768818D01*
X145614696Y-138788824D01*
X145607626Y-138797743D01*
X145595508Y-138831824D01*
X145471746Y-138831824D01*
X145473971Y-138792456D01*
X145496663Y-138735244D01*
X145527624Y-138696580D01*
X145546376Y-138679864D01*
X145564733Y-138668878D01*
X145588619Y-138662180D01*
X145623957Y-138658326D01*
X145676669Y-138655873D01*
X145697577Y-138655168D01*
X145828812Y-138650879D01*
X145828620Y-138611158D01*
X145823537Y-138569405D01*
X145805162Y-138544158D01*
X145768039Y-138528030D01*
X145767043Y-138527742D01*
X145714410Y-138521400D01*
X145662906Y-138529684D01*
X145624630Y-138549827D01*
X145609272Y-138559773D01*
X145592730Y-138558397D01*
X145567275Y-138543987D01*
X145552328Y-138533817D01*
X145523091Y-138512088D01*
X145504980Y-138495800D01*
X145502074Y-138491137D01*
X145514040Y-138467005D01*
X145549396Y-138438185D01*
X145564753Y-138428461D01*
X145608901Y-138411714D01*
X145668398Y-138402227D01*
X145734487Y-138400095D01*
X145798411Y-138405417D01*
G36*
X146395255Y-138401486D02*
G01*
X146443595Y-138411015D01*
X146471114Y-138425125D01*
X146500064Y-138448568D01*
X146458876Y-138500571D01*
X146433482Y-138532064D01*
X146416238Y-138547428D01*
X146399102Y-138549776D01*
X146374027Y-138542217D01*
X146362257Y-138537941D01*
X146314270Y-138531631D01*
X146270324Y-138545156D01*
X146238060Y-138575710D01*
X146232819Y-138585452D01*
X146227112Y-138611258D01*
X146222706Y-138658817D01*
X146219811Y-138724758D01*
X146218631Y-138805710D01*
X146218614Y-138817226D01*
X146218614Y-139017822D01*
X146080297Y-139017822D01*
X146080297Y-138401683D01*
X146149456Y-138401683D01*
X146189333Y-138402725D01*
X146210107Y-138407358D01*
X146217789Y-138417849D01*
X146218614Y-138427745D01*
X146218614Y-138453806D01*
X146251745Y-138427745D01*
X146289735Y-138409965D01*
X146340770Y-138401174D01*
X146395255Y-138401486D01*
G37*
X146395255Y-138401486D02*
X146443595Y-138411015D01*
X146471114Y-138425125D01*
X146500064Y-138448568D01*
X146458876Y-138500571D01*
X146433482Y-138532064D01*
X146416238Y-138547428D01*
X146399102Y-138549776D01*
X146374027Y-138542217D01*
X146362257Y-138537941D01*
X146314270Y-138531631D01*
X146270324Y-138545156D01*
X146238060Y-138575710D01*
X146232819Y-138585452D01*
X146227112Y-138611258D01*
X146222706Y-138658817D01*
X146219811Y-138724758D01*
X146218631Y-138805710D01*
X146218614Y-138817226D01*
X146218614Y-139017822D01*
X146080297Y-139017822D01*
X146080297Y-138401683D01*
X146149456Y-138401683D01*
X146189333Y-138402725D01*
X146210107Y-138407358D01*
X146217789Y-138417849D01*
X146218614Y-138427745D01*
X146218614Y-138453806D01*
X146251745Y-138427745D01*
X146289735Y-138409965D01*
X146340770Y-138401174D01*
X146395255Y-138401486D01*
G36*
X146792581Y-138404970D02*
G01*
X146852685Y-138420597D01*
X146903021Y-138452848D01*
X146927393Y-138476940D01*
X146967345Y-138533895D01*
X146990242Y-138599965D01*
X146998108Y-138681182D01*
X146998148Y-138687748D01*
X146998218Y-138753763D01*
X146618264Y-138753763D01*
X146626363Y-138788342D01*
X146640987Y-138819659D01*
X146666581Y-138852291D01*
X146671935Y-138857500D01*
X146717943Y-138885694D01*
X146770410Y-138890475D01*
X146830803Y-138871926D01*
X146841040Y-138866931D01*
X146872439Y-138851745D01*
X146893470Y-138843094D01*
X146897139Y-138842293D01*
X146909948Y-138850063D01*
X146934378Y-138869072D01*
X146946779Y-138879460D01*
X146972476Y-138903321D01*
X146980915Y-138919077D01*
X146975058Y-138933571D01*
X146971928Y-138937534D01*
X146950725Y-138954879D01*
X146915738Y-138975959D01*
X146891337Y-138988265D01*
X146822072Y-139009946D01*
X146745388Y-139016971D01*
X146672765Y-139008647D01*
X146652426Y-139002686D01*
X146589476Y-138968952D01*
X146542815Y-138917045D01*
X146512173Y-138846459D01*
X146497282Y-138756692D01*
X146495647Y-138709753D01*
X146500421Y-138641413D01*
X146620990Y-138641413D01*
X146632652Y-138646465D01*
X146663998Y-138650429D01*
X146709571Y-138652768D01*
X146740446Y-138653169D01*
X146795981Y-138652783D01*
X146831033Y-138650975D01*
X146850262Y-138646773D01*
X146858330Y-138639203D01*
X146859901Y-138628218D01*
X146849121Y-138594381D01*
X146821980Y-138560940D01*
X146786277Y-138535272D01*
X146750560Y-138524772D01*
X146702048Y-138534086D01*
X146660053Y-138561013D01*
X146630936Y-138599827D01*
X146620990Y-138641413D01*
X146500421Y-138641413D01*
X146502599Y-138610236D01*
X146524055Y-138530949D01*
X146560470Y-138471263D01*
X146612297Y-138430549D01*
X146679990Y-138408179D01*
X146716662Y-138403871D01*
X146792581Y-138404970D01*
G37*
X146792581Y-138404970D02*
X146852685Y-138420597D01*
X146903021Y-138452848D01*
X146927393Y-138476940D01*
X146967345Y-138533895D01*
X146990242Y-138599965D01*
X146998108Y-138681182D01*
X146998148Y-138687748D01*
X146998218Y-138753763D01*
X146618264Y-138753763D01*
X146626363Y-138788342D01*
X146640987Y-138819659D01*
X146666581Y-138852291D01*
X146671935Y-138857500D01*
X146717943Y-138885694D01*
X146770410Y-138890475D01*
X146830803Y-138871926D01*
X146841040Y-138866931D01*
X146872439Y-138851745D01*
X146893470Y-138843094D01*
X146897139Y-138842293D01*
X146909948Y-138850063D01*
X146934378Y-138869072D01*
X146946779Y-138879460D01*
X146972476Y-138903321D01*
X146980915Y-138919077D01*
X146975058Y-138933571D01*
X146971928Y-138937534D01*
X146950725Y-138954879D01*
X146915738Y-138975959D01*
X146891337Y-138988265D01*
X146822072Y-139009946D01*
X146745388Y-139016971D01*
X146672765Y-139008647D01*
X146652426Y-139002686D01*
X146589476Y-138968952D01*
X146542815Y-138917045D01*
X146512173Y-138846459D01*
X146497282Y-138756692D01*
X146495647Y-138709753D01*
X146500421Y-138641413D01*
X146620990Y-138641413D01*
X146632652Y-138646465D01*
X146663998Y-138650429D01*
X146709571Y-138652768D01*
X146740446Y-138653169D01*
X146795981Y-138652783D01*
X146831033Y-138650975D01*
X146850262Y-138646773D01*
X146858330Y-138639203D01*
X146859901Y-138628218D01*
X146849121Y-138594381D01*
X146821980Y-138560940D01*
X146786277Y-138535272D01*
X146750560Y-138524772D01*
X146702048Y-138534086D01*
X146660053Y-138561013D01*
X146630936Y-138599827D01*
X146620990Y-138641413D01*
X146500421Y-138641413D01*
X146502599Y-138610236D01*
X146524055Y-138530949D01*
X146560470Y-138471263D01*
X146612297Y-138430549D01*
X146679990Y-138408179D01*
X146716662Y-138403871D01*
X146792581Y-138404970D01*
G36*
X142221739Y-137465148D02*
G01*
X142287521Y-137494231D01*
X142337460Y-137542793D01*
X142371626Y-137610908D01*
X142390093Y-137698651D01*
X142391417Y-137712351D01*
X142392454Y-137808939D01*
X142379007Y-137893602D01*
X142351892Y-137962221D01*
X142337373Y-137984294D01*
X142286799Y-138031011D01*
X142222391Y-138061268D01*
X142150334Y-138073824D01*
X142076815Y-138067439D01*
X142020928Y-138047772D01*
X141972868Y-138014629D01*
X141933588Y-137971175D01*
X141932908Y-137970158D01*
X141916956Y-137943338D01*
X141906590Y-137916368D01*
X141900312Y-137882332D01*
X141896627Y-137834310D01*
X141895003Y-137794931D01*
X141894328Y-137759219D01*
X142020045Y-137759219D01*
X142021274Y-137794770D01*
X142025734Y-137842094D01*
X142033603Y-137872465D01*
X142047793Y-137894072D01*
X142061083Y-137906694D01*
X142108198Y-137933122D01*
X142157495Y-137936653D01*
X142203407Y-137917639D01*
X142226362Y-137896331D01*
X142242904Y-137874859D01*
X142252579Y-137854313D01*
X142256826Y-137827574D01*
X142257080Y-137787523D01*
X142255772Y-137750638D01*
X142252957Y-137697947D01*
X142248495Y-137663772D01*
X142240452Y-137641480D01*
X142226897Y-137624442D01*
X142216155Y-137614703D01*
X142171223Y-137589123D01*
X142122751Y-137587847D01*
X142082106Y-137602999D01*
X142047433Y-137634642D01*
X142026776Y-137686620D01*
X142020045Y-137759219D01*
X141894328Y-137759219D01*
X141893521Y-137716621D01*
X141896052Y-137658056D01*
X141903638Y-137614007D01*
X141917319Y-137579248D01*
X141938135Y-137548551D01*
X141945853Y-137539436D01*
X141994111Y-137494021D01*
X142045872Y-137467493D01*
X142109172Y-137456379D01*
X142140039Y-137455471D01*
X142221739Y-137465148D01*
G37*
X142221739Y-137465148D02*
X142287521Y-137494231D01*
X142337460Y-137542793D01*
X142371626Y-137610908D01*
X142390093Y-137698651D01*
X142391417Y-137712351D01*
X142392454Y-137808939D01*
X142379007Y-137893602D01*
X142351892Y-137962221D01*
X142337373Y-137984294D01*
X142286799Y-138031011D01*
X142222391Y-138061268D01*
X142150334Y-138073824D01*
X142076815Y-138067439D01*
X142020928Y-138047772D01*
X141972868Y-138014629D01*
X141933588Y-137971175D01*
X141932908Y-137970158D01*
X141916956Y-137943338D01*
X141906590Y-137916368D01*
X141900312Y-137882332D01*
X141896627Y-137834310D01*
X141895003Y-137794931D01*
X141894328Y-137759219D01*
X142020045Y-137759219D01*
X142021274Y-137794770D01*
X142025734Y-137842094D01*
X142033603Y-137872465D01*
X142047793Y-137894072D01*
X142061083Y-137906694D01*
X142108198Y-137933122D01*
X142157495Y-137936653D01*
X142203407Y-137917639D01*
X142226362Y-137896331D01*
X142242904Y-137874859D01*
X142252579Y-137854313D01*
X142256826Y-137827574D01*
X142257080Y-137787523D01*
X142255772Y-137750638D01*
X142252957Y-137697947D01*
X142248495Y-137663772D01*
X142240452Y-137641480D01*
X142226897Y-137624442D01*
X142216155Y-137614703D01*
X142171223Y-137589123D01*
X142122751Y-137587847D01*
X142082106Y-137602999D01*
X142047433Y-137634642D01*
X142026776Y-137686620D01*
X142020045Y-137759219D01*
X141894328Y-137759219D01*
X141893521Y-137716621D01*
X141896052Y-137658056D01*
X141903638Y-137614007D01*
X141917319Y-137579248D01*
X141938135Y-137548551D01*
X141945853Y-137539436D01*
X141994111Y-137494021D01*
X142045872Y-137467493D01*
X142109172Y-137456379D01*
X142140039Y-137455471D01*
X142221739Y-137465148D01*
G36*
X143403301Y-137472614D02*
G01*
X143415832Y-137478514D01*
X143459201Y-137510283D01*
X143500210Y-137556646D01*
X143530832Y-137607696D01*
X143539541Y-137631166D01*
X143547488Y-137673091D01*
X143552226Y-137723757D01*
X143552801Y-137744679D01*
X143552871Y-137810693D01*
X143172917Y-137810693D01*
X143181017Y-137845273D01*
X143200896Y-137886170D01*
X143235653Y-137921514D01*
X143277002Y-137944282D01*
X143303351Y-137949010D01*
X143339084Y-137943273D01*
X143381718Y-137928882D01*
X143396201Y-137922262D01*
X143449760Y-137895513D01*
X143495467Y-137930376D01*
X143521842Y-137953955D01*
X143535876Y-137973417D01*
X143536586Y-137979129D01*
X143524049Y-137992973D01*
X143496572Y-138014012D01*
X143471634Y-138030425D01*
X143404336Y-138059930D01*
X143328890Y-138073284D01*
X143254112Y-138069812D01*
X143194505Y-138051663D01*
X143133059Y-138012784D01*
X143089392Y-137961595D01*
X143062074Y-137895367D01*
X143049678Y-137811371D01*
X143048579Y-137772936D01*
X143052978Y-137684861D01*
X143053518Y-137682299D01*
X143179418Y-137682299D01*
X143182885Y-137690558D01*
X143197137Y-137695113D01*
X143226530Y-137697065D01*
X143275425Y-137697517D01*
X143294252Y-137697525D01*
X143351533Y-137696843D01*
X143387859Y-137694364D01*
X143407396Y-137689443D01*
X143414310Y-137681434D01*
X143414555Y-137678862D01*
X143406664Y-137658423D01*
X143386915Y-137629789D01*
X143378425Y-137619763D01*
X143346906Y-137591408D01*
X143314051Y-137580259D01*
X143296349Y-137579327D01*
X143248461Y-137590981D01*
X143208301Y-137622285D01*
X143182827Y-137667752D01*
X143182375Y-137669233D01*
X143179418Y-137682299D01*
X143053518Y-137682299D01*
X143067608Y-137615510D01*
X143093962Y-137560025D01*
X143126193Y-137520639D01*
X143185783Y-137477931D01*
X143255832Y-137455109D01*
X143330339Y-137453046D01*
X143403301Y-137472614D01*
G37*
X143403301Y-137472614D02*
X143415832Y-137478514D01*
X143459201Y-137510283D01*
X143500210Y-137556646D01*
X143530832Y-137607696D01*
X143539541Y-137631166D01*
X143547488Y-137673091D01*
X143552226Y-137723757D01*
X143552801Y-137744679D01*
X143552871Y-137810693D01*
X143172917Y-137810693D01*
X143181017Y-137845273D01*
X143200896Y-137886170D01*
X143235653Y-137921514D01*
X143277002Y-137944282D01*
X143303351Y-137949010D01*
X143339084Y-137943273D01*
X143381718Y-137928882D01*
X143396201Y-137922262D01*
X143449760Y-137895513D01*
X143495467Y-137930376D01*
X143521842Y-137953955D01*
X143535876Y-137973417D01*
X143536586Y-137979129D01*
X143524049Y-137992973D01*
X143496572Y-138014012D01*
X143471634Y-138030425D01*
X143404336Y-138059930D01*
X143328890Y-138073284D01*
X143254112Y-138069812D01*
X143194505Y-138051663D01*
X143133059Y-138012784D01*
X143089392Y-137961595D01*
X143062074Y-137895367D01*
X143049678Y-137811371D01*
X143048579Y-137772936D01*
X143052978Y-137684861D01*
X143053518Y-137682299D01*
X143179418Y-137682299D01*
X143182885Y-137690558D01*
X143197137Y-137695113D01*
X143226530Y-137697065D01*
X143275425Y-137697517D01*
X143294252Y-137697525D01*
X143351533Y-137696843D01*
X143387859Y-137694364D01*
X143407396Y-137689443D01*
X143414310Y-137681434D01*
X143414555Y-137678862D01*
X143406664Y-137658423D01*
X143386915Y-137629789D01*
X143378425Y-137619763D01*
X143346906Y-137591408D01*
X143314051Y-137580259D01*
X143296349Y-137579327D01*
X143248461Y-137590981D01*
X143208301Y-137622285D01*
X143182827Y-137667752D01*
X143182375Y-137669233D01*
X143179418Y-137682299D01*
X143053518Y-137682299D01*
X143067608Y-137615510D01*
X143093962Y-137560025D01*
X143126193Y-137520639D01*
X143185783Y-137477931D01*
X143255832Y-137455109D01*
X143330339Y-137453046D01*
X143403301Y-137472614D01*
G36*
X144774017Y-137456452D02*
G01*
X144821634Y-137465482D01*
X144871034Y-137484370D01*
X144876312Y-137486777D01*
X144913774Y-137506476D01*
X144939717Y-137524781D01*
X144948103Y-137536508D01*
X144940117Y-137555632D01*
X144920720Y-137583850D01*
X144912110Y-137594384D01*
X144876628Y-137635847D01*
X144830885Y-137608858D01*
X144787350Y-137590878D01*
X144737050Y-137581267D01*
X144688812Y-137580660D01*
X144651467Y-137589691D01*
X144642505Y-137595327D01*
X144625437Y-137621171D01*
X144623363Y-137650941D01*
X144636134Y-137674197D01*
X144643688Y-137678708D01*
X144666325Y-137684309D01*
X144706115Y-137690892D01*
X144755166Y-137697183D01*
X144764215Y-137698170D01*
X144842996Y-137711798D01*
X144900136Y-137734946D01*
X144938030Y-137769752D01*
X144959079Y-137818354D01*
X144965635Y-137877718D01*
X144956577Y-137945198D01*
X144927164Y-137998188D01*
X144877278Y-138036783D01*
X144806800Y-138061081D01*
X144728565Y-138070667D01*
X144664766Y-138070552D01*
X144613016Y-138061845D01*
X144577673Y-138049825D01*
X144533017Y-138028880D01*
X144491747Y-138004574D01*
X144477079Y-137993876D01*
X144439357Y-137963084D01*
X144484852Y-137917049D01*
X144530347Y-137871013D01*
X144582072Y-137905243D01*
X144633952Y-137930952D01*
X144689351Y-137944399D01*
X144742605Y-137945818D01*
X144788049Y-137935443D01*
X144820016Y-137913507D01*
X144830338Y-137894998D01*
X144828789Y-137865314D01*
X144803140Y-137842615D01*
X144753460Y-137826940D01*
X144699031Y-137819695D01*
X144615264Y-137805873D01*
X144553033Y-137779796D01*
X144511507Y-137740699D01*
X144489853Y-137687820D01*
X144486853Y-137625126D01*
X144501671Y-137559642D01*
X144535454Y-137510144D01*
X144588505Y-137476408D01*
X144661126Y-137458207D01*
X144714928Y-137454639D01*
X144774017Y-137456452D01*
G37*
X144774017Y-137456452D02*
X144821634Y-137465482D01*
X144871034Y-137484370D01*
X144876312Y-137486777D01*
X144913774Y-137506476D01*
X144939717Y-137524781D01*
X144948103Y-137536508D01*
X144940117Y-137555632D01*
X144920720Y-137583850D01*
X144912110Y-137594384D01*
X144876628Y-137635847D01*
X144830885Y-137608858D01*
X144787350Y-137590878D01*
X144737050Y-137581267D01*
X144688812Y-137580660D01*
X144651467Y-137589691D01*
X144642505Y-137595327D01*
X144625437Y-137621171D01*
X144623363Y-137650941D01*
X144636134Y-137674197D01*
X144643688Y-137678708D01*
X144666325Y-137684309D01*
X144706115Y-137690892D01*
X144755166Y-137697183D01*
X144764215Y-137698170D01*
X144842996Y-137711798D01*
X144900136Y-137734946D01*
X144938030Y-137769752D01*
X144959079Y-137818354D01*
X144965635Y-137877718D01*
X144956577Y-137945198D01*
X144927164Y-137998188D01*
X144877278Y-138036783D01*
X144806800Y-138061081D01*
X144728565Y-138070667D01*
X144664766Y-138070552D01*
X144613016Y-138061845D01*
X144577673Y-138049825D01*
X144533017Y-138028880D01*
X144491747Y-138004574D01*
X144477079Y-137993876D01*
X144439357Y-137963084D01*
X144484852Y-137917049D01*
X144530347Y-137871013D01*
X144582072Y-137905243D01*
X144633952Y-137930952D01*
X144689351Y-137944399D01*
X144742605Y-137945818D01*
X144788049Y-137935443D01*
X144820016Y-137913507D01*
X144830338Y-137894998D01*
X144828789Y-137865314D01*
X144803140Y-137842615D01*
X144753460Y-137826940D01*
X144699031Y-137819695D01*
X144615264Y-137805873D01*
X144553033Y-137779796D01*
X144511507Y-137740699D01*
X144489853Y-137687820D01*
X144486853Y-137625126D01*
X144501671Y-137559642D01*
X144535454Y-137510144D01*
X144588505Y-137476408D01*
X144661126Y-137458207D01*
X144714928Y-137454639D01*
X144774017Y-137456452D01*
G36*
X145370762Y-137466055D02*
G01*
X145434363Y-137500692D01*
X145484123Y-137555372D01*
X145507568Y-137599842D01*
X145517634Y-137639121D01*
X145524156Y-137695116D01*
X145526951Y-137759621D01*
X145525836Y-137824429D01*
X145520626Y-137881334D01*
X145514541Y-137911727D01*
X145494014Y-137953306D01*
X145458463Y-137997468D01*
X145415619Y-138036087D01*
X145373211Y-138061034D01*
X145372177Y-138061430D01*
X145319553Y-138072331D01*
X145257188Y-138072601D01*
X145197924Y-138062676D01*
X145175040Y-138054722D01*
X145116102Y-138021300D01*
X145073890Y-137977511D01*
X145046156Y-137919538D01*
X145030651Y-137843565D01*
X145027143Y-137803771D01*
X145027590Y-137753766D01*
X145162376Y-137753766D01*
X145166917Y-137826732D01*
X145179986Y-137882334D01*
X145200756Y-137917861D01*
X145215552Y-137928020D01*
X145253464Y-137935104D01*
X145298527Y-137933007D01*
X145337487Y-137922812D01*
X145347704Y-137917204D01*
X145374659Y-137884538D01*
X145392451Y-137834545D01*
X145400024Y-137773705D01*
X145396325Y-137708497D01*
X145388057Y-137669253D01*
X145364320Y-137623805D01*
X145326849Y-137595396D01*
X145281720Y-137585573D01*
X145235011Y-137595887D01*
X145199132Y-137621112D01*
X145180277Y-137641925D01*
X145169272Y-137662439D01*
X145164026Y-137690203D01*
X145162449Y-137732762D01*
X145162376Y-137753766D01*
X145027590Y-137753766D01*
X145028094Y-137697580D01*
X145045388Y-137610501D01*
X145079029Y-137542530D01*
X145129018Y-137493664D01*
X145195356Y-137463899D01*
X145209601Y-137460448D01*
X145295210Y-137452345D01*
X145370762Y-137466055D01*
G37*
X145370762Y-137466055D02*
X145434363Y-137500692D01*
X145484123Y-137555372D01*
X145507568Y-137599842D01*
X145517634Y-137639121D01*
X145524156Y-137695116D01*
X145526951Y-137759621D01*
X145525836Y-137824429D01*
X145520626Y-137881334D01*
X145514541Y-137911727D01*
X145494014Y-137953306D01*
X145458463Y-137997468D01*
X145415619Y-138036087D01*
X145373211Y-138061034D01*
X145372177Y-138061430D01*
X145319553Y-138072331D01*
X145257188Y-138072601D01*
X145197924Y-138062676D01*
X145175040Y-138054722D01*
X145116102Y-138021300D01*
X145073890Y-137977511D01*
X145046156Y-137919538D01*
X145030651Y-137843565D01*
X145027143Y-137803771D01*
X145027590Y-137753766D01*
X145162376Y-137753766D01*
X145166917Y-137826732D01*
X145179986Y-137882334D01*
X145200756Y-137917861D01*
X145215552Y-137928020D01*
X145253464Y-137935104D01*
X145298527Y-137933007D01*
X145337487Y-137922812D01*
X145347704Y-137917204D01*
X145374659Y-137884538D01*
X145392451Y-137834545D01*
X145400024Y-137773705D01*
X145396325Y-137708497D01*
X145388057Y-137669253D01*
X145364320Y-137623805D01*
X145326849Y-137595396D01*
X145281720Y-137585573D01*
X145235011Y-137595887D01*
X145199132Y-137621112D01*
X145180277Y-137641925D01*
X145169272Y-137662439D01*
X145164026Y-137690203D01*
X145162449Y-137732762D01*
X145162376Y-137753766D01*
X145027590Y-137753766D01*
X145028094Y-137697580D01*
X145045388Y-137610501D01*
X145079029Y-137542530D01*
X145129018Y-137493664D01*
X145195356Y-137463899D01*
X145209601Y-137460448D01*
X145295210Y-137452345D01*
X145370762Y-137466055D01*
G36*
X145753367Y-137654342D02*
G01*
X145754555Y-137746563D01*
X145758897Y-137816610D01*
X145767558Y-137867381D01*
X145781704Y-137901772D01*
X145802500Y-137922679D01*
X145831110Y-137933000D01*
X145866535Y-137935636D01*
X145903636Y-137932682D01*
X145931818Y-137921889D01*
X145952243Y-137900360D01*
X145966079Y-137865199D01*
X145974491Y-137813510D01*
X145978643Y-137742394D01*
X145979703Y-137654342D01*
X145979703Y-137458614D01*
X146118020Y-137458614D01*
X146118020Y-138062179D01*
X146048862Y-138062179D01*
X146007170Y-138060489D01*
X145985701Y-138054556D01*
X145979703Y-138043293D01*
X145976091Y-138033261D01*
X145961714Y-138035383D01*
X145932736Y-138049580D01*
X145866319Y-138071480D01*
X145795875Y-138069928D01*
X145728377Y-138046147D01*
X145696233Y-138027362D01*
X145671715Y-138007022D01*
X145653804Y-137981573D01*
X145641479Y-137947458D01*
X145633723Y-137901121D01*
X145629516Y-137839007D01*
X145627840Y-137757561D01*
X145627624Y-137694578D01*
X145627624Y-137458614D01*
X145753367Y-137458614D01*
X145753367Y-137654342D01*
G37*
X145753367Y-137654342D02*
X145754555Y-137746563D01*
X145758897Y-137816610D01*
X145767558Y-137867381D01*
X145781704Y-137901772D01*
X145802500Y-137922679D01*
X145831110Y-137933000D01*
X145866535Y-137935636D01*
X145903636Y-137932682D01*
X145931818Y-137921889D01*
X145952243Y-137900360D01*
X145966079Y-137865199D01*
X145974491Y-137813510D01*
X145978643Y-137742394D01*
X145979703Y-137654342D01*
X145979703Y-137458614D01*
X146118020Y-137458614D01*
X146118020Y-138062179D01*
X146048862Y-138062179D01*
X146007170Y-138060489D01*
X145985701Y-138054556D01*
X145979703Y-138043293D01*
X145976091Y-138033261D01*
X145961714Y-138035383D01*
X145932736Y-138049580D01*
X145866319Y-138071480D01*
X145795875Y-138069928D01*
X145728377Y-138046147D01*
X145696233Y-138027362D01*
X145671715Y-138007022D01*
X145653804Y-137981573D01*
X145641479Y-137947458D01*
X145633723Y-137901121D01*
X145629516Y-137839007D01*
X145627840Y-137757561D01*
X145627624Y-137694578D01*
X145627624Y-137458614D01*
X145753367Y-137458614D01*
X145753367Y-137654342D01*
G36*
X146977226Y-137463880D02*
G01*
X147050080Y-137494830D01*
X147073027Y-137509895D01*
X147102354Y-137533048D01*
X147120764Y-137551253D01*
X147123961Y-137557183D01*
X147114935Y-137570340D01*
X147091837Y-137592667D01*
X147073344Y-137608250D01*
X147022728Y-137648926D01*
X146982760Y-137615295D01*
X146951874Y-137593584D01*
X146921759Y-137586090D01*
X146887292Y-137587920D01*
X146832561Y-137601528D01*
X146794886Y-137629772D01*
X146771991Y-137675433D01*
X146761597Y-137741289D01*
X146761595Y-137741331D01*
X146762494Y-137814939D01*
X146776463Y-137868946D01*
X146804328Y-137905716D01*
X146823325Y-137918168D01*
X146873776Y-137933673D01*
X146927663Y-137933683D01*
X146974546Y-137918638D01*
X146985644Y-137911287D01*
X147013476Y-137892511D01*
X147035236Y-137889434D01*
X147058704Y-137903409D01*
X147084649Y-137928510D01*
X147125716Y-137970880D01*
X147080121Y-138008464D01*
X147009674Y-138050882D01*
X146930233Y-138071785D01*
X146847215Y-138070272D01*
X146792694Y-138056411D01*
X146728970Y-138022135D01*
X146678005Y-137968212D01*
X146654851Y-137930149D01*
X146636099Y-137875536D01*
X146626715Y-137806369D01*
X146626643Y-137731407D01*
X146635824Y-137659409D01*
X146654199Y-137599137D01*
X146657093Y-137592958D01*
X146699952Y-137532351D01*
X146757979Y-137488224D01*
X146826591Y-137461493D01*
X146901201Y-137453073D01*
X146977226Y-137463880D01*
G37*
X146977226Y-137463880D02*
X147050080Y-137494830D01*
X147073027Y-137509895D01*
X147102354Y-137533048D01*
X147120764Y-137551253D01*
X147123961Y-137557183D01*
X147114935Y-137570340D01*
X147091837Y-137592667D01*
X147073344Y-137608250D01*
X147022728Y-137648926D01*
X146982760Y-137615295D01*
X146951874Y-137593584D01*
X146921759Y-137586090D01*
X146887292Y-137587920D01*
X146832561Y-137601528D01*
X146794886Y-137629772D01*
X146771991Y-137675433D01*
X146761597Y-137741289D01*
X146761595Y-137741331D01*
X146762494Y-137814939D01*
X146776463Y-137868946D01*
X146804328Y-137905716D01*
X146823325Y-137918168D01*
X146873776Y-137933673D01*
X146927663Y-137933683D01*
X146974546Y-137918638D01*
X146985644Y-137911287D01*
X147013476Y-137892511D01*
X147035236Y-137889434D01*
X147058704Y-137903409D01*
X147084649Y-137928510D01*
X147125716Y-137970880D01*
X147080121Y-138008464D01*
X147009674Y-138050882D01*
X146930233Y-138071785D01*
X146847215Y-138070272D01*
X146792694Y-138056411D01*
X146728970Y-138022135D01*
X146678005Y-137968212D01*
X146654851Y-137930149D01*
X146636099Y-137875536D01*
X146626715Y-137806369D01*
X146626643Y-137731407D01*
X146635824Y-137659409D01*
X146654199Y-137599137D01*
X146657093Y-137592958D01*
X146699952Y-137532351D01*
X146757979Y-137488224D01*
X146826591Y-137461493D01*
X146901201Y-137453073D01*
X146977226Y-137463880D01*
G36*
X147437898Y-137456457D02*
G01*
X147470096Y-137464279D01*
X147531825Y-137492921D01*
X147584610Y-137536667D01*
X147621141Y-137589117D01*
X147626160Y-137600893D01*
X147633045Y-137631740D01*
X147637864Y-137677371D01*
X147639505Y-137723492D01*
X147639505Y-137810693D01*
X147457178Y-137810693D01*
X147381979Y-137810978D01*
X147329003Y-137812704D01*
X147295325Y-137817181D01*
X147278020Y-137825720D01*
X147274163Y-137839630D01*
X147280829Y-137860222D01*
X147292770Y-137884315D01*
X147326080Y-137924525D01*
X147372368Y-137944558D01*
X147428944Y-137943905D01*
X147493031Y-137922101D01*
X147548417Y-137895193D01*
X147594375Y-137931532D01*
X147640333Y-137967872D01*
X147597096Y-138007819D01*
X147539374Y-138045563D01*
X147468386Y-138068320D01*
X147392029Y-138074688D01*
X147318199Y-138063268D01*
X147306287Y-138059393D01*
X147241399Y-138025506D01*
X147193130Y-137974986D01*
X147160465Y-137906325D01*
X147142385Y-137818014D01*
X147142175Y-137816121D01*
X147140556Y-137719878D01*
X147147100Y-137685542D01*
X147274852Y-137685542D01*
X147286584Y-137690822D01*
X147318438Y-137694867D01*
X147365397Y-137697176D01*
X147395154Y-137697525D01*
X147450648Y-137697306D01*
X147485346Y-137695916D01*
X147503601Y-137692251D01*
X147509766Y-137685210D01*
X147508195Y-137673690D01*
X147506878Y-137669233D01*
X147484382Y-137627355D01*
X147449003Y-137593604D01*
X147417780Y-137578773D01*
X147376301Y-137579668D01*
X147334269Y-137598164D01*
X147299012Y-137628786D01*
X147277854Y-137666062D01*
X147274852Y-137685542D01*
X147147100Y-137685542D01*
X147156690Y-137635229D01*
X147188698Y-137564191D01*
X147234701Y-137508779D01*
X147292821Y-137471009D01*
X147361180Y-137452896D01*
X147437898Y-137456457D01*
G37*
X147437898Y-137456457D02*
X147470096Y-137464279D01*
X147531825Y-137492921D01*
X147584610Y-137536667D01*
X147621141Y-137589117D01*
X147626160Y-137600893D01*
X147633045Y-137631740D01*
X147637864Y-137677371D01*
X147639505Y-137723492D01*
X147639505Y-137810693D01*
X147457178Y-137810693D01*
X147381979Y-137810978D01*
X147329003Y-137812704D01*
X147295325Y-137817181D01*
X147278020Y-137825720D01*
X147274163Y-137839630D01*
X147280829Y-137860222D01*
X147292770Y-137884315D01*
X147326080Y-137924525D01*
X147372368Y-137944558D01*
X147428944Y-137943905D01*
X147493031Y-137922101D01*
X147548417Y-137895193D01*
X147594375Y-137931532D01*
X147640333Y-137967872D01*
X147597096Y-138007819D01*
X147539374Y-138045563D01*
X147468386Y-138068320D01*
X147392029Y-138074688D01*
X147318199Y-138063268D01*
X147306287Y-138059393D01*
X147241399Y-138025506D01*
X147193130Y-137974986D01*
X147160465Y-137906325D01*
X147142385Y-137818014D01*
X147142175Y-137816121D01*
X147140556Y-137719878D01*
X147147100Y-137685542D01*
X147274852Y-137685542D01*
X147286584Y-137690822D01*
X147318438Y-137694867D01*
X147365397Y-137697176D01*
X147395154Y-137697525D01*
X147450648Y-137697306D01*
X147485346Y-137695916D01*
X147503601Y-137692251D01*
X147509766Y-137685210D01*
X147508195Y-137673690D01*
X147506878Y-137669233D01*
X147484382Y-137627355D01*
X147449003Y-137593604D01*
X147417780Y-137578773D01*
X147376301Y-137579668D01*
X147334269Y-137598164D01*
X147299012Y-137628786D01*
X147277854Y-137666062D01*
X147274852Y-137685542D01*
X147147100Y-137685542D01*
X147156690Y-137635229D01*
X147188698Y-137564191D01*
X147234701Y-137508779D01*
X147292821Y-137471009D01*
X147361180Y-137452896D01*
X147437898Y-137456457D01*
G36*
X144005988Y-137469002D02*
G01*
X144037283Y-137483950D01*
X144067591Y-137505541D01*
X144090682Y-137530391D01*
X144107500Y-137562087D01*
X144118994Y-137604214D01*
X144126109Y-137660358D01*
X144129793Y-137734106D01*
X144130992Y-137829044D01*
X144131011Y-137838985D01*
X144131287Y-138062179D01*
X143992970Y-138062179D01*
X143992970Y-137856418D01*
X143992872Y-137780189D01*
X143992191Y-137724939D01*
X143990349Y-137686501D01*
X143986767Y-137660706D01*
X143980868Y-137643384D01*
X143972073Y-137630368D01*
X143959820Y-137617507D01*
X143916953Y-137589873D01*
X143870157Y-137584745D01*
X143825576Y-137602217D01*
X143810072Y-137615221D01*
X143798690Y-137627447D01*
X143790519Y-137640540D01*
X143785026Y-137658615D01*
X143781680Y-137685787D01*
X143779949Y-137726170D01*
X143779303Y-137783879D01*
X143779208Y-137854132D01*
X143779208Y-138062179D01*
X143640891Y-138062179D01*
X143640891Y-137458614D01*
X143710050Y-137458614D01*
X143751572Y-137460256D01*
X143772994Y-137466087D01*
X143779205Y-137477461D01*
X143779208Y-137477798D01*
X143782090Y-137488938D01*
X143794801Y-137487674D01*
X143820074Y-137475434D01*
X143877395Y-137457424D01*
X143942963Y-137455421D01*
X144005988Y-137469002D01*
G37*
X144005988Y-137469002D02*
X144037283Y-137483950D01*
X144067591Y-137505541D01*
X144090682Y-137530391D01*
X144107500Y-137562087D01*
X144118994Y-137604214D01*
X144126109Y-137660358D01*
X144129793Y-137734106D01*
X144130992Y-137829044D01*
X144131011Y-137838985D01*
X144131287Y-138062179D01*
X143992970Y-138062179D01*
X143992970Y-137856418D01*
X143992872Y-137780189D01*
X143992191Y-137724939D01*
X143990349Y-137686501D01*
X143986767Y-137660706D01*
X143980868Y-137643384D01*
X143972073Y-137630368D01*
X143959820Y-137617507D01*
X143916953Y-137589873D01*
X143870157Y-137584745D01*
X143825576Y-137602217D01*
X143810072Y-137615221D01*
X143798690Y-137627447D01*
X143790519Y-137640540D01*
X143785026Y-137658615D01*
X143781680Y-137685787D01*
X143779949Y-137726170D01*
X143779303Y-137783879D01*
X143779208Y-137854132D01*
X143779208Y-138062179D01*
X143640891Y-138062179D01*
X143640891Y-137458614D01*
X143710050Y-137458614D01*
X143751572Y-137460256D01*
X143772994Y-137466087D01*
X143779205Y-137477461D01*
X143779208Y-137477798D01*
X143782090Y-137488938D01*
X143794801Y-137487674D01*
X143820074Y-137475434D01*
X143877395Y-137457424D01*
X143942963Y-137455421D01*
X144005988Y-137469002D01*
G36*
X146559460Y-137458030D02*
G01*
X146602711Y-137471245D01*
X146630558Y-137487941D01*
X146639629Y-137501145D01*
X146637132Y-137516797D01*
X146620931Y-137541385D01*
X146607232Y-137558800D01*
X146578992Y-137590283D01*
X146557775Y-137603529D01*
X146539688Y-137602664D01*
X146486035Y-137589010D01*
X146446630Y-137589630D01*
X146414632Y-137605104D01*
X146403890Y-137614161D01*
X146369505Y-137646027D01*
X146369505Y-138062179D01*
X146231188Y-138062179D01*
X146231188Y-137458614D01*
X146300347Y-137458614D01*
X146341869Y-137460256D01*
X146363291Y-137466087D01*
X146369502Y-137477461D01*
X146369505Y-137477798D01*
X146372439Y-137489713D01*
X146385704Y-137488159D01*
X146404084Y-137479563D01*
X146442046Y-137463568D01*
X146472872Y-137453945D01*
X146512536Y-137451478D01*
X146559460Y-137458030D01*
G37*
X146559460Y-137458030D02*
X146602711Y-137471245D01*
X146630558Y-137487941D01*
X146639629Y-137501145D01*
X146637132Y-137516797D01*
X146620931Y-137541385D01*
X146607232Y-137558800D01*
X146578992Y-137590283D01*
X146557775Y-137603529D01*
X146539688Y-137602664D01*
X146486035Y-137589010D01*
X146446630Y-137589630D01*
X146414632Y-137605104D01*
X146403890Y-137614161D01*
X146369505Y-137646027D01*
X146369505Y-138062179D01*
X146231188Y-138062179D01*
X146231188Y-137458614D01*
X146300347Y-137458614D01*
X146341869Y-137460256D01*
X146363291Y-137466087D01*
X146369502Y-137477461D01*
X146369505Y-137477798D01*
X146372439Y-137489713D01*
X146385704Y-137488159D01*
X146404084Y-137479563D01*
X146442046Y-137463568D01*
X146472872Y-137453945D01*
X146512536Y-137451478D01*
X146559460Y-137458030D01*
G36*
X145136964Y-133290018D02*
G01*
X145193812Y-133591570D01*
X145613338Y-133764512D01*
X145864984Y-133593395D01*
X145935458Y-133545750D01*
X145999163Y-133503210D01*
X146053126Y-133467715D01*
X146094373Y-133441210D01*
X146119934Y-133425636D01*
X146126895Y-133422278D01*
X146139435Y-133430914D01*
X146166231Y-133454792D01*
X146204280Y-133490859D01*
X146250579Y-133536067D01*
X146302123Y-133587364D01*
X146355909Y-133641701D01*
X146408935Y-133696028D01*
X146458195Y-133747295D01*
X146500687Y-133792451D01*
X146533407Y-133828446D01*
X146553351Y-133852230D01*
X146558119Y-133860190D01*
X146551257Y-133874865D01*
X146532020Y-133907014D01*
X146502430Y-133953492D01*
X146464510Y-134011156D01*
X146420282Y-134076860D01*
X146394654Y-134114336D01*
X146347941Y-134182768D01*
X146306432Y-134244520D01*
X146272140Y-134296519D01*
X146247080Y-134335692D01*
X146233264Y-134358965D01*
X146231188Y-134363855D01*
X146235895Y-134377755D01*
X146248723Y-134410150D01*
X146267738Y-134456485D01*
X146291003Y-134512206D01*
X146316584Y-134572758D01*
X146342545Y-134633586D01*
X146366950Y-134690136D01*
X146387863Y-134737852D01*
X146403349Y-134772181D01*
X146411472Y-134788568D01*
X146411952Y-134789212D01*
X146424707Y-134792341D01*
X146458677Y-134799321D01*
X146510340Y-134809467D01*
X146576176Y-134822092D01*
X146652664Y-134836509D01*
X146697290Y-134844823D01*
X146779021Y-134860384D01*
X146852843Y-134875192D01*
X146915021Y-134888436D01*
X146961822Y-134899305D01*
X146989509Y-134906989D01*
X146995074Y-134909427D01*
X147000526Y-134925930D01*
X147004924Y-134963200D01*
X147008272Y-135016880D01*
X147010574Y-135082612D01*
X147011832Y-135156037D01*
X147012048Y-135232796D01*
X147011227Y-135308532D01*
X147009371Y-135378886D01*
X147006482Y-135439500D01*
X147002565Y-135486016D01*
X146997622Y-135514075D01*
X146994657Y-135519916D01*
X146976934Y-135526917D01*
X146939381Y-135536927D01*
X146886964Y-135548769D01*
X146824652Y-135561267D01*
X146802900Y-135565310D01*
X146698024Y-135584520D01*
X146615180Y-135599991D01*
X146551630Y-135612337D01*
X146504637Y-135622173D01*
X146471463Y-135630114D01*
X146449371Y-135636776D01*
X146435624Y-135642773D01*
X146427484Y-135648719D01*
X146426345Y-135649894D01*
X146414977Y-135668826D01*
X146397635Y-135705669D01*
X146376050Y-135755913D01*
X146351954Y-135815046D01*
X146327079Y-135878556D01*
X146303157Y-135941932D01*
X146281919Y-136000662D01*
X146265097Y-136050235D01*
X146254422Y-136086139D01*
X146251627Y-136103862D01*
X146251860Y-136104483D01*
X146261331Y-136118970D01*
X146282818Y-136150844D01*
X146314063Y-136196789D01*
X146352807Y-136253485D01*
X146396793Y-136317617D01*
X146409319Y-136335842D01*
X146453984Y-136401914D01*
X146493288Y-136462200D01*
X146525088Y-136513235D01*
X146547245Y-136551560D01*
X146557617Y-136573711D01*
X146558119Y-136576432D01*
X146549405Y-136590736D01*
X146525325Y-136619072D01*
X146488976Y-136658396D01*
X146443453Y-136705661D01*
X146391852Y-136757823D01*
X146337267Y-136811835D01*
X146282794Y-136864653D01*
X146231529Y-136913231D01*
X146186567Y-136954523D01*
X146151004Y-136985485D01*
X146127935Y-137003070D01*
X146121554Y-137005941D01*
X146106699Y-136999178D01*
X146076286Y-136980939D01*
X146035268Y-136954297D01*
X146003709Y-136932852D01*
X145946525Y-136893503D01*
X145878806Y-136847171D01*
X145810880Y-136800913D01*
X145774361Y-136776155D01*
X145650752Y-136692547D01*
X145546991Y-136748650D01*
X145499720Y-136773228D01*
X145459523Y-136792331D01*
X145432326Y-136803227D01*
X145425402Y-136804743D01*
X145417077Y-136793549D01*
X145400654Y-136761917D01*
X145377357Y-136712765D01*
X145348414Y-136649010D01*
X145315050Y-136573571D01*
X145278491Y-136489364D01*
X145239964Y-136399308D01*
X145200694Y-136306321D01*
X145161908Y-136213320D01*
X145124830Y-136123223D01*
X145090689Y-136038948D01*
X145060708Y-135963413D01*
X145036116Y-135899534D01*
X145018136Y-135850231D01*
X145007997Y-135818421D01*
X145006366Y-135807496D01*
X145019291Y-135793561D01*
X145047589Y-135770940D01*
X145085346Y-135744333D01*
X145088515Y-135742228D01*
X145186100Y-135664114D01*
X145264786Y-135572982D01*
X145323891Y-135471745D01*
X145362732Y-135363318D01*
X145380628Y-135250614D01*
X145376897Y-135136548D01*
X145350857Y-135024034D01*
X145301825Y-134915985D01*
X145287400Y-134892345D01*
X145212369Y-134796887D01*
X145123730Y-134720232D01*
X145024549Y-134662780D01*
X144917895Y-134624929D01*
X144806836Y-134607078D01*
X144694439Y-134609625D01*
X144583773Y-134632970D01*
X144477906Y-134677510D01*
X144379905Y-134743645D01*
X144349590Y-134770487D01*
X144272438Y-134854512D01*
X144216218Y-134942966D01*
X144177653Y-135042115D01*
X144156174Y-135140303D01*
X144150872Y-135250697D01*
X144168552Y-135361640D01*
X144207419Y-135469381D01*
X144265677Y-135570169D01*
X144341531Y-135660256D01*
X144433183Y-135735892D01*
X144445228Y-135743864D01*
X144483389Y-135769974D01*
X144512399Y-135792595D01*
X144526268Y-135807039D01*
X144526469Y-135807496D01*
X144523492Y-135823121D01*
X144511689Y-135858582D01*
X144492286Y-135910962D01*
X144466512Y-135977345D01*
X144435591Y-136054814D01*
X144400751Y-136140450D01*
X144363217Y-136231337D01*
X144324217Y-136324559D01*
X144284977Y-136417197D01*
X144246724Y-136506335D01*
X144210683Y-136589055D01*
X144178083Y-136662441D01*
X144150148Y-136723575D01*
X144128105Y-136769541D01*
X144113182Y-136797421D01*
X144107172Y-136804743D01*
X144088809Y-136799041D01*
X144054448Y-136783749D01*
X144010016Y-136761599D01*
X143985583Y-136748650D01*
X143881822Y-136692547D01*
X143758213Y-136776155D01*
X143695114Y-136818987D01*
X143626030Y-136866122D01*
X143561293Y-136910503D01*
X143528866Y-136932852D01*
X143483259Y-136963477D01*
X143444640Y-136987747D01*
X143418048Y-137002587D01*
X143409410Y-137005724D01*
X143396839Y-136997261D01*
X143369016Y-136973636D01*
X143328639Y-136937302D01*
X143278405Y-136890711D01*
X143221012Y-136836317D01*
X143184714Y-136801392D01*
X143121210Y-136738996D01*
X143066327Y-136683188D01*
X143022286Y-136636354D01*
X142991305Y-136600882D01*
X142975602Y-136579161D01*
X142974095Y-136574752D01*
X142981086Y-136557985D01*
X143000406Y-136524082D01*
X143029909Y-136476476D01*
X143067455Y-136418599D01*
X143110900Y-136353884D01*
X143123255Y-136335842D01*
X143168273Y-136270267D01*
X143208660Y-136211228D01*
X143242160Y-136162042D01*
X143266514Y-136126028D01*
X143279464Y-136106502D01*
X143280715Y-136104483D01*
X143278844Y-136088922D01*
X143268913Y-136054709D01*
X143252653Y-136006355D01*
X143231795Y-135948371D01*
X143208073Y-135885270D01*
X143183216Y-135821563D01*
X143158958Y-135761761D01*
X143137029Y-135710376D01*
X143119162Y-135671919D01*
X143107087Y-135650902D01*
X143106229Y-135649894D01*
X143098846Y-135643888D01*
X143086375Y-135637948D01*
X143066080Y-135631460D01*
X143035222Y-135623809D01*
X142991066Y-135614380D01*
X142930874Y-135602559D01*
X142851907Y-135587729D01*
X142751430Y-135569277D01*
X142729675Y-135565310D01*
X142665198Y-135552853D01*
X142608989Y-135540666D01*
X142566013Y-135529926D01*
X142541240Y-135521809D01*
X142537918Y-135519916D01*
X142532444Y-135503138D01*
X142527994Y-135465645D01*
X142524572Y-135411794D01*
X142522181Y-135345944D01*
X142520823Y-135272453D01*
X142520501Y-135195680D01*
X142521219Y-135119983D01*
X142522979Y-135049720D01*
X142525784Y-134989250D01*
X142529638Y-134942930D01*
X142534543Y-134915119D01*
X142537500Y-134909427D01*
X142553963Y-134903686D01*
X142591449Y-134894345D01*
X142646225Y-134882215D01*
X142714555Y-134868107D01*
X142792706Y-134852830D01*
X142835284Y-134844823D01*
X142916071Y-134829721D01*
X142988113Y-134816040D01*
X143047889Y-134804467D01*
X143091879Y-134795687D01*
X143116561Y-134790387D01*
X143120623Y-134789212D01*
X143127489Y-134775965D01*
X143142002Y-134744057D01*
X143162229Y-134698047D01*
X143186234Y-134642492D01*
X143212082Y-134581953D01*
X143237840Y-134520986D01*
X143261573Y-134464151D01*
X143281346Y-134416006D01*
X143295224Y-134381110D01*
X143301274Y-134364021D01*
X143301386Y-134363274D01*
X143294528Y-134349793D01*
X143275302Y-134318770D01*
X143245728Y-134273289D01*
X143207827Y-134216432D01*
X143163620Y-134151283D01*
X143137921Y-134113862D01*
X143091093Y-134045247D01*
X143049501Y-133982952D01*
X143015175Y-133930129D01*
X142990143Y-133889927D01*
X142976435Y-133865500D01*
X142974456Y-133860024D01*
X142982966Y-133847278D01*
X143006493Y-133820063D01*
X143042032Y-133781428D01*
X143086577Y-133734423D01*
X143137123Y-133682095D01*
X143190664Y-133627495D01*
X143244195Y-133573670D01*
X143294711Y-133523670D01*
X143339206Y-133480543D01*
X143374675Y-133447339D01*
X143398113Y-133427106D01*
X143405954Y-133422278D01*
X143418720Y-133429067D01*
X143449256Y-133448142D01*
X143494590Y-133477561D01*
X143551756Y-133515381D01*
X143617784Y-133559661D01*
X143667590Y-133593395D01*
X143919236Y-133764512D01*
X144128999Y-133678041D01*
X144338763Y-133591570D01*
X144395611Y-133290018D01*
X144452460Y-132988466D01*
X145080115Y-132988466D01*
X145136964Y-133290018D01*
G37*
X145136964Y-133290018D02*
X145193812Y-133591570D01*
X145613338Y-133764512D01*
X145864984Y-133593395D01*
X145935458Y-133545750D01*
X145999163Y-133503210D01*
X146053126Y-133467715D01*
X146094373Y-133441210D01*
X146119934Y-133425636D01*
X146126895Y-133422278D01*
X146139435Y-133430914D01*
X146166231Y-133454792D01*
X146204280Y-133490859D01*
X146250579Y-133536067D01*
X146302123Y-133587364D01*
X146355909Y-133641701D01*
X146408935Y-133696028D01*
X146458195Y-133747295D01*
X146500687Y-133792451D01*
X146533407Y-133828446D01*
X146553351Y-133852230D01*
X146558119Y-133860190D01*
X146551257Y-133874865D01*
X146532020Y-133907014D01*
X146502430Y-133953492D01*
X146464510Y-134011156D01*
X146420282Y-134076860D01*
X146394654Y-134114336D01*
X146347941Y-134182768D01*
X146306432Y-134244520D01*
X146272140Y-134296519D01*
X146247080Y-134335692D01*
X146233264Y-134358965D01*
X146231188Y-134363855D01*
X146235895Y-134377755D01*
X146248723Y-134410150D01*
X146267738Y-134456485D01*
X146291003Y-134512206D01*
X146316584Y-134572758D01*
X146342545Y-134633586D01*
X146366950Y-134690136D01*
X146387863Y-134737852D01*
X146403349Y-134772181D01*
X146411472Y-134788568D01*
X146411952Y-134789212D01*
X146424707Y-134792341D01*
X146458677Y-134799321D01*
X146510340Y-134809467D01*
X146576176Y-134822092D01*
X146652664Y-134836509D01*
X146697290Y-134844823D01*
X146779021Y-134860384D01*
X146852843Y-134875192D01*
X146915021Y-134888436D01*
X146961822Y-134899305D01*
X146989509Y-134906989D01*
X146995074Y-134909427D01*
X147000526Y-134925930D01*
X147004924Y-134963200D01*
X147008272Y-135016880D01*
X147010574Y-135082612D01*
X147011832Y-135156037D01*
X147012048Y-135232796D01*
X147011227Y-135308532D01*
X147009371Y-135378886D01*
X147006482Y-135439500D01*
X147002565Y-135486016D01*
X146997622Y-135514075D01*
X146994657Y-135519916D01*
X146976934Y-135526917D01*
X146939381Y-135536927D01*
X146886964Y-135548769D01*
X146824652Y-135561267D01*
X146802900Y-135565310D01*
X146698024Y-135584520D01*
X146615180Y-135599991D01*
X146551630Y-135612337D01*
X146504637Y-135622173D01*
X146471463Y-135630114D01*
X146449371Y-135636776D01*
X146435624Y-135642773D01*
X146427484Y-135648719D01*
X146426345Y-135649894D01*
X146414977Y-135668826D01*
X146397635Y-135705669D01*
X146376050Y-135755913D01*
X146351954Y-135815046D01*
X146327079Y-135878556D01*
X146303157Y-135941932D01*
X146281919Y-136000662D01*
X146265097Y-136050235D01*
X146254422Y-136086139D01*
X146251627Y-136103862D01*
X146251860Y-136104483D01*
X146261331Y-136118970D01*
X146282818Y-136150844D01*
X146314063Y-136196789D01*
X146352807Y-136253485D01*
X146396793Y-136317617D01*
X146409319Y-136335842D01*
X146453984Y-136401914D01*
X146493288Y-136462200D01*
X146525088Y-136513235D01*
X146547245Y-136551560D01*
X146557617Y-136573711D01*
X146558119Y-136576432D01*
X146549405Y-136590736D01*
X146525325Y-136619072D01*
X146488976Y-136658396D01*
X146443453Y-136705661D01*
X146391852Y-136757823D01*
X146337267Y-136811835D01*
X146282794Y-136864653D01*
X146231529Y-136913231D01*
X146186567Y-136954523D01*
X146151004Y-136985485D01*
X146127935Y-137003070D01*
X146121554Y-137005941D01*
X146106699Y-136999178D01*
X146076286Y-136980939D01*
X146035268Y-136954297D01*
X146003709Y-136932852D01*
X145946525Y-136893503D01*
X145878806Y-136847171D01*
X145810880Y-136800913D01*
X145774361Y-136776155D01*
X145650752Y-136692547D01*
X145546991Y-136748650D01*
X145499720Y-136773228D01*
X145459523Y-136792331D01*
X145432326Y-136803227D01*
X145425402Y-136804743D01*
X145417077Y-136793549D01*
X145400654Y-136761917D01*
X145377357Y-136712765D01*
X145348414Y-136649010D01*
X145315050Y-136573571D01*
X145278491Y-136489364D01*
X145239964Y-136399308D01*
X145200694Y-136306321D01*
X145161908Y-136213320D01*
X145124830Y-136123223D01*
X145090689Y-136038948D01*
X145060708Y-135963413D01*
X145036116Y-135899534D01*
X145018136Y-135850231D01*
X145007997Y-135818421D01*
X145006366Y-135807496D01*
X145019291Y-135793561D01*
X145047589Y-135770940D01*
X145085346Y-135744333D01*
X145088515Y-135742228D01*
X145186100Y-135664114D01*
X145264786Y-135572982D01*
X145323891Y-135471745D01*
X145362732Y-135363318D01*
X145380628Y-135250614D01*
X145376897Y-135136548D01*
X145350857Y-135024034D01*
X145301825Y-134915985D01*
X145287400Y-134892345D01*
X145212369Y-134796887D01*
X145123730Y-134720232D01*
X145024549Y-134662780D01*
X144917895Y-134624929D01*
X144806836Y-134607078D01*
X144694439Y-134609625D01*
X144583773Y-134632970D01*
X144477906Y-134677510D01*
X144379905Y-134743645D01*
X144349590Y-134770487D01*
X144272438Y-134854512D01*
X144216218Y-134942966D01*
X144177653Y-135042115D01*
X144156174Y-135140303D01*
X144150872Y-135250697D01*
X144168552Y-135361640D01*
X144207419Y-135469381D01*
X144265677Y-135570169D01*
X144341531Y-135660256D01*
X144433183Y-135735892D01*
X144445228Y-135743864D01*
X144483389Y-135769974D01*
X144512399Y-135792595D01*
X144526268Y-135807039D01*
X144526469Y-135807496D01*
X144523492Y-135823121D01*
X144511689Y-135858582D01*
X144492286Y-135910962D01*
X144466512Y-135977345D01*
X144435591Y-136054814D01*
X144400751Y-136140450D01*
X144363217Y-136231337D01*
X144324217Y-136324559D01*
X144284977Y-136417197D01*
X144246724Y-136506335D01*
X144210683Y-136589055D01*
X144178083Y-136662441D01*
X144150148Y-136723575D01*
X144128105Y-136769541D01*
X144113182Y-136797421D01*
X144107172Y-136804743D01*
X144088809Y-136799041D01*
X144054448Y-136783749D01*
X144010016Y-136761599D01*
X143985583Y-136748650D01*
X143881822Y-136692547D01*
X143758213Y-136776155D01*
X143695114Y-136818987D01*
X143626030Y-136866122D01*
X143561293Y-136910503D01*
X143528866Y-136932852D01*
X143483259Y-136963477D01*
X143444640Y-136987747D01*
X143418048Y-137002587D01*
X143409410Y-137005724D01*
X143396839Y-136997261D01*
X143369016Y-136973636D01*
X143328639Y-136937302D01*
X143278405Y-136890711D01*
X143221012Y-136836317D01*
X143184714Y-136801392D01*
X143121210Y-136738996D01*
X143066327Y-136683188D01*
X143022286Y-136636354D01*
X142991305Y-136600882D01*
X142975602Y-136579161D01*
X142974095Y-136574752D01*
X142981086Y-136557985D01*
X143000406Y-136524082D01*
X143029909Y-136476476D01*
X143067455Y-136418599D01*
X143110900Y-136353884D01*
X143123255Y-136335842D01*
X143168273Y-136270267D01*
X143208660Y-136211228D01*
X143242160Y-136162042D01*
X143266514Y-136126028D01*
X143279464Y-136106502D01*
X143280715Y-136104483D01*
X143278844Y-136088922D01*
X143268913Y-136054709D01*
X143252653Y-136006355D01*
X143231795Y-135948371D01*
X143208073Y-135885270D01*
X143183216Y-135821563D01*
X143158958Y-135761761D01*
X143137029Y-135710376D01*
X143119162Y-135671919D01*
X143107087Y-135650902D01*
X143106229Y-135649894D01*
X143098846Y-135643888D01*
X143086375Y-135637948D01*
X143066080Y-135631460D01*
X143035222Y-135623809D01*
X142991066Y-135614380D01*
X142930874Y-135602559D01*
X142851907Y-135587729D01*
X142751430Y-135569277D01*
X142729675Y-135565310D01*
X142665198Y-135552853D01*
X142608989Y-135540666D01*
X142566013Y-135529926D01*
X142541240Y-135521809D01*
X142537918Y-135519916D01*
X142532444Y-135503138D01*
X142527994Y-135465645D01*
X142524572Y-135411794D01*
X142522181Y-135345944D01*
X142520823Y-135272453D01*
X142520501Y-135195680D01*
X142521219Y-135119983D01*
X142522979Y-135049720D01*
X142525784Y-134989250D01*
X142529638Y-134942930D01*
X142534543Y-134915119D01*
X142537500Y-134909427D01*
X142553963Y-134903686D01*
X142591449Y-134894345D01*
X142646225Y-134882215D01*
X142714555Y-134868107D01*
X142792706Y-134852830D01*
X142835284Y-134844823D01*
X142916071Y-134829721D01*
X142988113Y-134816040D01*
X143047889Y-134804467D01*
X143091879Y-134795687D01*
X143116561Y-134790387D01*
X143120623Y-134789212D01*
X143127489Y-134775965D01*
X143142002Y-134744057D01*
X143162229Y-134698047D01*
X143186234Y-134642492D01*
X143212082Y-134581953D01*
X143237840Y-134520986D01*
X143261573Y-134464151D01*
X143281346Y-134416006D01*
X143295224Y-134381110D01*
X143301274Y-134364021D01*
X143301386Y-134363274D01*
X143294528Y-134349793D01*
X143275302Y-134318770D01*
X143245728Y-134273289D01*
X143207827Y-134216432D01*
X143163620Y-134151283D01*
X143137921Y-134113862D01*
X143091093Y-134045247D01*
X143049501Y-133982952D01*
X143015175Y-133930129D01*
X142990143Y-133889927D01*
X142976435Y-133865500D01*
X142974456Y-133860024D01*
X142982966Y-133847278D01*
X143006493Y-133820063D01*
X143042032Y-133781428D01*
X143086577Y-133734423D01*
X143137123Y-133682095D01*
X143190664Y-133627495D01*
X143244195Y-133573670D01*
X143294711Y-133523670D01*
X143339206Y-133480543D01*
X143374675Y-133447339D01*
X143398113Y-133427106D01*
X143405954Y-133422278D01*
X143418720Y-133429067D01*
X143449256Y-133448142D01*
X143494590Y-133477561D01*
X143551756Y-133515381D01*
X143617784Y-133559661D01*
X143667590Y-133593395D01*
X143919236Y-133764512D01*
X144128999Y-133678041D01*
X144338763Y-133591570D01*
X144395611Y-133290018D01*
X144452460Y-132988466D01*
X145080115Y-132988466D01*
X145136964Y-133290018D01*
%TO.C,U801*%
D17*
X130625714Y-65932380D02*
X130625714Y-66741904D01*
X130673333Y-66837142D01*
X130720952Y-66884761D01*
X130816190Y-66932380D01*
X131006666Y-66932380D01*
X131101904Y-66884761D01*
X131149523Y-66837142D01*
X131197142Y-66741904D01*
X131197142Y-65932380D01*
X131816190Y-66360952D02*
X131720952Y-66313333D01*
X131673333Y-66265714D01*
X131625714Y-66170476D01*
X131625714Y-66122857D01*
X131673333Y-66027619D01*
X131720952Y-65980000D01*
X131816190Y-65932380D01*
X132006666Y-65932380D01*
X132101904Y-65980000D01*
X132149523Y-66027619D01*
X132197142Y-66122857D01*
X132197142Y-66170476D01*
X132149523Y-66265714D01*
X132101904Y-66313333D01*
X132006666Y-66360952D01*
X131816190Y-66360952D01*
X131720952Y-66408571D01*
X131673333Y-66456190D01*
X131625714Y-66551428D01*
X131625714Y-66741904D01*
X131673333Y-66837142D01*
X131720952Y-66884761D01*
X131816190Y-66932380D01*
X132006666Y-66932380D01*
X132101904Y-66884761D01*
X132149523Y-66837142D01*
X132197142Y-66741904D01*
X132197142Y-66551428D01*
X132149523Y-66456190D01*
X132101904Y-66408571D01*
X132006666Y-66360952D01*
X132816190Y-65932380D02*
X132911428Y-65932380D01*
X133006666Y-65980000D01*
X133054285Y-66027619D01*
X133101904Y-66122857D01*
X133149523Y-66313333D01*
X133149523Y-66551428D01*
X133101904Y-66741904D01*
X133054285Y-66837142D01*
X133006666Y-66884761D01*
X132911428Y-66932380D01*
X132816190Y-66932380D01*
X132720952Y-66884761D01*
X132673333Y-66837142D01*
X132625714Y-66741904D01*
X132578095Y-66551428D01*
X132578095Y-66313333D01*
X132625714Y-66122857D01*
X132673333Y-66027619D01*
X132720952Y-65980000D01*
X132816190Y-65932380D01*
X134101904Y-66932380D02*
X133530476Y-66932380D01*
X133816190Y-66932380D02*
X133816190Y-65932380D01*
X133720952Y-66075238D01*
X133625714Y-66170476D01*
X133530476Y-66218095D01*
%TO.C,U501*%
D18*
X104242857Y-80794523D02*
X104242857Y-81822619D01*
X104303333Y-81943571D01*
X104363809Y-82004047D01*
X104484761Y-82064523D01*
X104726666Y-82064523D01*
X104847619Y-82004047D01*
X104908095Y-81943571D01*
X104968571Y-81822619D01*
X104968571Y-80794523D01*
X106178095Y-80794523D02*
X105573333Y-80794523D01*
X105512857Y-81399285D01*
X105573333Y-81338809D01*
X105694285Y-81278333D01*
X105996666Y-81278333D01*
X106117619Y-81338809D01*
X106178095Y-81399285D01*
X106238571Y-81520238D01*
X106238571Y-81822619D01*
X106178095Y-81943571D01*
X106117619Y-82004047D01*
X105996666Y-82064523D01*
X105694285Y-82064523D01*
X105573333Y-82004047D01*
X105512857Y-81943571D01*
X107024761Y-80794523D02*
X107145714Y-80794523D01*
X107266666Y-80855000D01*
X107327142Y-80915476D01*
X107387619Y-81036428D01*
X107448095Y-81278333D01*
X107448095Y-81580714D01*
X107387619Y-81822619D01*
X107327142Y-81943571D01*
X107266666Y-82004047D01*
X107145714Y-82064523D01*
X107024761Y-82064523D01*
X106903809Y-82004047D01*
X106843333Y-81943571D01*
X106782857Y-81822619D01*
X106722380Y-81580714D01*
X106722380Y-81278333D01*
X106782857Y-81036428D01*
X106843333Y-80915476D01*
X106903809Y-80855000D01*
X107024761Y-80794523D01*
X108657619Y-82064523D02*
X107931904Y-82064523D01*
X108294761Y-82064523D02*
X108294761Y-80794523D01*
X108173809Y-80975952D01*
X108052857Y-81096904D01*
X107931904Y-81157380D01*
%TO.C,U402*%
X112585355Y-99405689D02*
X112585355Y-100433785D01*
X112645831Y-100554737D01*
X112706307Y-100615213D01*
X112827259Y-100675689D01*
X113069164Y-100675689D01*
X113190117Y-100615213D01*
X113250593Y-100554737D01*
X113311069Y-100433785D01*
X113311069Y-99405689D01*
X114460117Y-99829023D02*
X114460117Y-100675689D01*
X114157736Y-99345213D02*
X113855355Y-100252356D01*
X114641545Y-100252356D01*
X115367259Y-99405689D02*
X115488212Y-99405689D01*
X115609164Y-99466166D01*
X115669640Y-99526642D01*
X115730117Y-99647594D01*
X115790593Y-99889499D01*
X115790593Y-100191880D01*
X115730117Y-100433785D01*
X115669640Y-100554737D01*
X115609164Y-100615213D01*
X115488212Y-100675689D01*
X115367259Y-100675689D01*
X115246307Y-100615213D01*
X115185831Y-100554737D01*
X115125355Y-100433785D01*
X115064878Y-100191880D01*
X115064878Y-99889499D01*
X115125355Y-99647594D01*
X115185831Y-99526642D01*
X115246307Y-99466166D01*
X115367259Y-99405689D01*
X116274402Y-99526642D02*
X116334878Y-99466166D01*
X116455831Y-99405689D01*
X116758212Y-99405689D01*
X116879164Y-99466166D01*
X116939640Y-99526642D01*
X117000117Y-99647594D01*
X117000117Y-99768546D01*
X116939640Y-99949975D01*
X116213926Y-100675689D01*
X117000117Y-100675689D01*
%TO.C,U401*%
X104984523Y-99535142D02*
X106012619Y-99535142D01*
X106133571Y-99474666D01*
X106194047Y-99414190D01*
X106254523Y-99293238D01*
X106254523Y-99051333D01*
X106194047Y-98930380D01*
X106133571Y-98869904D01*
X106012619Y-98809428D01*
X104984523Y-98809428D01*
X105407857Y-97660380D02*
X106254523Y-97660380D01*
X104924047Y-97962761D02*
X105831190Y-98265142D01*
X105831190Y-97478952D01*
X104984523Y-96753238D02*
X104984523Y-96632285D01*
X105045000Y-96511333D01*
X105105476Y-96450857D01*
X105226428Y-96390380D01*
X105468333Y-96329904D01*
X105770714Y-96329904D01*
X106012619Y-96390380D01*
X106133571Y-96450857D01*
X106194047Y-96511333D01*
X106254523Y-96632285D01*
X106254523Y-96753238D01*
X106194047Y-96874190D01*
X106133571Y-96934666D01*
X106012619Y-96995142D01*
X105770714Y-97055619D01*
X105468333Y-97055619D01*
X105226428Y-96995142D01*
X105105476Y-96934666D01*
X105045000Y-96874190D01*
X104984523Y-96753238D01*
X106254523Y-95120380D02*
X106254523Y-95846095D01*
X106254523Y-95483238D02*
X104984523Y-95483238D01*
X105165952Y-95604190D01*
X105286904Y-95725142D01*
X105347380Y-95846095D01*
%TO.C,U301*%
X106992856Y-136684523D02*
X106992856Y-137712619D01*
X107053332Y-137833571D01*
X107113808Y-137894047D01*
X107234760Y-137954523D01*
X107476665Y-137954523D01*
X107597618Y-137894047D01*
X107658094Y-137833571D01*
X107718570Y-137712619D01*
X107718570Y-136684523D01*
X108202379Y-136684523D02*
X108988570Y-136684523D01*
X108565237Y-137168333D01*
X108746665Y-137168333D01*
X108867618Y-137228809D01*
X108928094Y-137289285D01*
X108988570Y-137410238D01*
X108988570Y-137712619D01*
X108928094Y-137833571D01*
X108867618Y-137894047D01*
X108746665Y-137954523D01*
X108383808Y-137954523D01*
X108262856Y-137894047D01*
X108202379Y-137833571D01*
X109774760Y-136684523D02*
X109895713Y-136684523D01*
X110016665Y-136745000D01*
X110077141Y-136805476D01*
X110137618Y-136926428D01*
X110198094Y-137168333D01*
X110198094Y-137470714D01*
X110137618Y-137712619D01*
X110077141Y-137833571D01*
X110016665Y-137894047D01*
X109895713Y-137954523D01*
X109774760Y-137954523D01*
X109653808Y-137894047D01*
X109593332Y-137833571D01*
X109532856Y-137712619D01*
X109472379Y-137470714D01*
X109472379Y-137168333D01*
X109532856Y-136926428D01*
X109593332Y-136805476D01*
X109653808Y-136745000D01*
X109774760Y-136684523D01*
X111407618Y-137954523D02*
X110681903Y-137954523D01*
X111044760Y-137954523D02*
X111044760Y-136684523D01*
X110923808Y-136865952D01*
X110802856Y-136986904D01*
X110681903Y-137047380D01*
%TO.C,X801*%
D17*
X136932380Y-65181904D02*
X137932380Y-64515238D01*
X136932380Y-64515238D02*
X137932380Y-65181904D01*
X137360952Y-63991428D02*
X137313333Y-64086666D01*
X137265714Y-64134285D01*
X137170476Y-64181904D01*
X137122857Y-64181904D01*
X137027619Y-64134285D01*
X136980000Y-64086666D01*
X136932380Y-63991428D01*
X136932380Y-63800952D01*
X136980000Y-63705714D01*
X137027619Y-63658095D01*
X137122857Y-63610476D01*
X137170476Y-63610476D01*
X137265714Y-63658095D01*
X137313333Y-63705714D01*
X137360952Y-63800952D01*
X137360952Y-63991428D01*
X137408571Y-64086666D01*
X137456190Y-64134285D01*
X137551428Y-64181904D01*
X137741904Y-64181904D01*
X137837142Y-64134285D01*
X137884761Y-64086666D01*
X137932380Y-63991428D01*
X137932380Y-63800952D01*
X137884761Y-63705714D01*
X137837142Y-63658095D01*
X137741904Y-63610476D01*
X137551428Y-63610476D01*
X137456190Y-63658095D01*
X137408571Y-63705714D01*
X137360952Y-63800952D01*
X136932380Y-62991428D02*
X136932380Y-62896190D01*
X136980000Y-62800952D01*
X137027619Y-62753333D01*
X137122857Y-62705714D01*
X137313333Y-62658095D01*
X137551428Y-62658095D01*
X137741904Y-62705714D01*
X137837142Y-62753333D01*
X137884761Y-62800952D01*
X137932380Y-62896190D01*
X137932380Y-62991428D01*
X137884761Y-63086666D01*
X137837142Y-63134285D01*
X137741904Y-63181904D01*
X137551428Y-63229523D01*
X137313333Y-63229523D01*
X137122857Y-63181904D01*
X137027619Y-63134285D01*
X136980000Y-63086666D01*
X136932380Y-62991428D01*
X137932380Y-61705714D02*
X137932380Y-62277142D01*
X137932380Y-61991428D02*
X136932380Y-61991428D01*
X137075238Y-62086666D01*
X137170476Y-62181904D01*
X137218095Y-62277142D01*
%TO.C,C813*%
X124465952Y-47887142D02*
X124418333Y-47934761D01*
X124275476Y-47982380D01*
X124180238Y-47982380D01*
X124037380Y-47934761D01*
X123942142Y-47839523D01*
X123894523Y-47744285D01*
X123846904Y-47553809D01*
X123846904Y-47410952D01*
X123894523Y-47220476D01*
X123942142Y-47125238D01*
X124037380Y-47030000D01*
X124180238Y-46982380D01*
X124275476Y-46982380D01*
X124418333Y-47030000D01*
X124465952Y-47077619D01*
X125037380Y-47410952D02*
X124942142Y-47363333D01*
X124894523Y-47315714D01*
X124846904Y-47220476D01*
X124846904Y-47172857D01*
X124894523Y-47077619D01*
X124942142Y-47030000D01*
X125037380Y-46982380D01*
X125227857Y-46982380D01*
X125323095Y-47030000D01*
X125370714Y-47077619D01*
X125418333Y-47172857D01*
X125418333Y-47220476D01*
X125370714Y-47315714D01*
X125323095Y-47363333D01*
X125227857Y-47410952D01*
X125037380Y-47410952D01*
X124942142Y-47458571D01*
X124894523Y-47506190D01*
X124846904Y-47601428D01*
X124846904Y-47791904D01*
X124894523Y-47887142D01*
X124942142Y-47934761D01*
X125037380Y-47982380D01*
X125227857Y-47982380D01*
X125323095Y-47934761D01*
X125370714Y-47887142D01*
X125418333Y-47791904D01*
X125418333Y-47601428D01*
X125370714Y-47506190D01*
X125323095Y-47458571D01*
X125227857Y-47410952D01*
X126370714Y-47982380D02*
X125799285Y-47982380D01*
X126085000Y-47982380D02*
X126085000Y-46982380D01*
X125989761Y-47125238D01*
X125894523Y-47220476D01*
X125799285Y-47268095D01*
X126704047Y-46982380D02*
X127323095Y-46982380D01*
X126989761Y-47363333D01*
X127132619Y-47363333D01*
X127227857Y-47410952D01*
X127275476Y-47458571D01*
X127323095Y-47553809D01*
X127323095Y-47791904D01*
X127275476Y-47887142D01*
X127227857Y-47934761D01*
X127132619Y-47982380D01*
X126846904Y-47982380D01*
X126751666Y-47934761D01*
X126704047Y-47887142D01*
%TO.C,C809*%
X133750952Y-53697142D02*
X133703333Y-53744761D01*
X133560476Y-53792380D01*
X133465238Y-53792380D01*
X133322380Y-53744761D01*
X133227142Y-53649523D01*
X133179523Y-53554285D01*
X133131904Y-53363809D01*
X133131904Y-53220952D01*
X133179523Y-53030476D01*
X133227142Y-52935238D01*
X133322380Y-52840000D01*
X133465238Y-52792380D01*
X133560476Y-52792380D01*
X133703333Y-52840000D01*
X133750952Y-52887619D01*
X134322380Y-53220952D02*
X134227142Y-53173333D01*
X134179523Y-53125714D01*
X134131904Y-53030476D01*
X134131904Y-52982857D01*
X134179523Y-52887619D01*
X134227142Y-52840000D01*
X134322380Y-52792380D01*
X134512857Y-52792380D01*
X134608095Y-52840000D01*
X134655714Y-52887619D01*
X134703333Y-52982857D01*
X134703333Y-53030476D01*
X134655714Y-53125714D01*
X134608095Y-53173333D01*
X134512857Y-53220952D01*
X134322380Y-53220952D01*
X134227142Y-53268571D01*
X134179523Y-53316190D01*
X134131904Y-53411428D01*
X134131904Y-53601904D01*
X134179523Y-53697142D01*
X134227142Y-53744761D01*
X134322380Y-53792380D01*
X134512857Y-53792380D01*
X134608095Y-53744761D01*
X134655714Y-53697142D01*
X134703333Y-53601904D01*
X134703333Y-53411428D01*
X134655714Y-53316190D01*
X134608095Y-53268571D01*
X134512857Y-53220952D01*
X135322380Y-52792380D02*
X135417619Y-52792380D01*
X135512857Y-52840000D01*
X135560476Y-52887619D01*
X135608095Y-52982857D01*
X135655714Y-53173333D01*
X135655714Y-53411428D01*
X135608095Y-53601904D01*
X135560476Y-53697142D01*
X135512857Y-53744761D01*
X135417619Y-53792380D01*
X135322380Y-53792380D01*
X135227142Y-53744761D01*
X135179523Y-53697142D01*
X135131904Y-53601904D01*
X135084285Y-53411428D01*
X135084285Y-53173333D01*
X135131904Y-52982857D01*
X135179523Y-52887619D01*
X135227142Y-52840000D01*
X135322380Y-52792380D01*
X136131904Y-53792380D02*
X136322380Y-53792380D01*
X136417619Y-53744761D01*
X136465238Y-53697142D01*
X136560476Y-53554285D01*
X136608095Y-53363809D01*
X136608095Y-52982857D01*
X136560476Y-52887619D01*
X136512857Y-52840000D01*
X136417619Y-52792380D01*
X136227142Y-52792380D01*
X136131904Y-52840000D01*
X136084285Y-52887619D01*
X136036666Y-52982857D01*
X136036666Y-53220952D01*
X136084285Y-53316190D01*
X136131904Y-53363809D01*
X136227142Y-53411428D01*
X136417619Y-53411428D01*
X136512857Y-53363809D01*
X136560476Y-53316190D01*
X136608095Y-53220952D01*
%TO.C,C807*%
X126610952Y-56037142D02*
X126563333Y-56084761D01*
X126420476Y-56132380D01*
X126325238Y-56132380D01*
X126182380Y-56084761D01*
X126087142Y-55989523D01*
X126039523Y-55894285D01*
X125991904Y-55703809D01*
X125991904Y-55560952D01*
X126039523Y-55370476D01*
X126087142Y-55275238D01*
X126182380Y-55180000D01*
X126325238Y-55132380D01*
X126420476Y-55132380D01*
X126563333Y-55180000D01*
X126610952Y-55227619D01*
X127182380Y-55560952D02*
X127087142Y-55513333D01*
X127039523Y-55465714D01*
X126991904Y-55370476D01*
X126991904Y-55322857D01*
X127039523Y-55227619D01*
X127087142Y-55180000D01*
X127182380Y-55132380D01*
X127372857Y-55132380D01*
X127468095Y-55180000D01*
X127515714Y-55227619D01*
X127563333Y-55322857D01*
X127563333Y-55370476D01*
X127515714Y-55465714D01*
X127468095Y-55513333D01*
X127372857Y-55560952D01*
X127182380Y-55560952D01*
X127087142Y-55608571D01*
X127039523Y-55656190D01*
X126991904Y-55751428D01*
X126991904Y-55941904D01*
X127039523Y-56037142D01*
X127087142Y-56084761D01*
X127182380Y-56132380D01*
X127372857Y-56132380D01*
X127468095Y-56084761D01*
X127515714Y-56037142D01*
X127563333Y-55941904D01*
X127563333Y-55751428D01*
X127515714Y-55656190D01*
X127468095Y-55608571D01*
X127372857Y-55560952D01*
X128182380Y-55132380D02*
X128277619Y-55132380D01*
X128372857Y-55180000D01*
X128420476Y-55227619D01*
X128468095Y-55322857D01*
X128515714Y-55513333D01*
X128515714Y-55751428D01*
X128468095Y-55941904D01*
X128420476Y-56037142D01*
X128372857Y-56084761D01*
X128277619Y-56132380D01*
X128182380Y-56132380D01*
X128087142Y-56084761D01*
X128039523Y-56037142D01*
X127991904Y-55941904D01*
X127944285Y-55751428D01*
X127944285Y-55513333D01*
X127991904Y-55322857D01*
X128039523Y-55227619D01*
X128087142Y-55180000D01*
X128182380Y-55132380D01*
X128849047Y-55132380D02*
X129515714Y-55132380D01*
X129087142Y-56132380D01*
%TO.C,U802*%
X131245714Y-47242380D02*
X131245714Y-48051904D01*
X131293333Y-48147142D01*
X131340952Y-48194761D01*
X131436190Y-48242380D01*
X131626666Y-48242380D01*
X131721904Y-48194761D01*
X131769523Y-48147142D01*
X131817142Y-48051904D01*
X131817142Y-47242380D01*
X132436190Y-47670952D02*
X132340952Y-47623333D01*
X132293333Y-47575714D01*
X132245714Y-47480476D01*
X132245714Y-47432857D01*
X132293333Y-47337619D01*
X132340952Y-47290000D01*
X132436190Y-47242380D01*
X132626666Y-47242380D01*
X132721904Y-47290000D01*
X132769523Y-47337619D01*
X132817142Y-47432857D01*
X132817142Y-47480476D01*
X132769523Y-47575714D01*
X132721904Y-47623333D01*
X132626666Y-47670952D01*
X132436190Y-47670952D01*
X132340952Y-47718571D01*
X132293333Y-47766190D01*
X132245714Y-47861428D01*
X132245714Y-48051904D01*
X132293333Y-48147142D01*
X132340952Y-48194761D01*
X132436190Y-48242380D01*
X132626666Y-48242380D01*
X132721904Y-48194761D01*
X132769523Y-48147142D01*
X132817142Y-48051904D01*
X132817142Y-47861428D01*
X132769523Y-47766190D01*
X132721904Y-47718571D01*
X132626666Y-47670952D01*
X133436190Y-47242380D02*
X133531428Y-47242380D01*
X133626666Y-47290000D01*
X133674285Y-47337619D01*
X133721904Y-47432857D01*
X133769523Y-47623333D01*
X133769523Y-47861428D01*
X133721904Y-48051904D01*
X133674285Y-48147142D01*
X133626666Y-48194761D01*
X133531428Y-48242380D01*
X133436190Y-48242380D01*
X133340952Y-48194761D01*
X133293333Y-48147142D01*
X133245714Y-48051904D01*
X133198095Y-47861428D01*
X133198095Y-47623333D01*
X133245714Y-47432857D01*
X133293333Y-47337619D01*
X133340952Y-47290000D01*
X133436190Y-47242380D01*
X134150476Y-47337619D02*
X134198095Y-47290000D01*
X134293333Y-47242380D01*
X134531428Y-47242380D01*
X134626666Y-47290000D01*
X134674285Y-47337619D01*
X134721904Y-47432857D01*
X134721904Y-47528095D01*
X134674285Y-47670952D01*
X134102857Y-48242380D01*
X134721904Y-48242380D01*
%TO.C,FL801*%
D18*
X123553095Y-45549285D02*
X123129761Y-45549285D01*
X123129761Y-46214523D02*
X123129761Y-44944523D01*
X123734523Y-44944523D01*
X124823095Y-46214523D02*
X124218333Y-46214523D01*
X124218333Y-44944523D01*
X125427857Y-45488809D02*
X125306904Y-45428333D01*
X125246428Y-45367857D01*
X125185952Y-45246904D01*
X125185952Y-45186428D01*
X125246428Y-45065476D01*
X125306904Y-45005000D01*
X125427857Y-44944523D01*
X125669761Y-44944523D01*
X125790714Y-45005000D01*
X125851190Y-45065476D01*
X125911666Y-45186428D01*
X125911666Y-45246904D01*
X125851190Y-45367857D01*
X125790714Y-45428333D01*
X125669761Y-45488809D01*
X125427857Y-45488809D01*
X125306904Y-45549285D01*
X125246428Y-45609761D01*
X125185952Y-45730714D01*
X125185952Y-45972619D01*
X125246428Y-46093571D01*
X125306904Y-46154047D01*
X125427857Y-46214523D01*
X125669761Y-46214523D01*
X125790714Y-46154047D01*
X125851190Y-46093571D01*
X125911666Y-45972619D01*
X125911666Y-45730714D01*
X125851190Y-45609761D01*
X125790714Y-45549285D01*
X125669761Y-45488809D01*
X126697857Y-44944523D02*
X126818809Y-44944523D01*
X126939761Y-45005000D01*
X127000238Y-45065476D01*
X127060714Y-45186428D01*
X127121190Y-45428333D01*
X127121190Y-45730714D01*
X127060714Y-45972619D01*
X127000238Y-46093571D01*
X126939761Y-46154047D01*
X126818809Y-46214523D01*
X126697857Y-46214523D01*
X126576904Y-46154047D01*
X126516428Y-46093571D01*
X126455952Y-45972619D01*
X126395476Y-45730714D01*
X126395476Y-45428333D01*
X126455952Y-45186428D01*
X126516428Y-45065476D01*
X126576904Y-45005000D01*
X126697857Y-44944523D01*
X128330714Y-46214523D02*
X127605000Y-46214523D01*
X127967857Y-46214523D02*
X127967857Y-44944523D01*
X127846904Y-45125952D01*
X127725952Y-45246904D01*
X127605000Y-45307380D01*
%TO.C,X1401*%
D17*
X131969592Y-99654737D02*
X133148103Y-99890439D01*
X132440997Y-99183332D02*
X132676699Y-100361843D01*
X133787867Y-99250676D02*
X133383806Y-99654737D01*
X133585836Y-99452706D02*
X132878729Y-98745599D01*
X132912401Y-98913958D01*
X132912401Y-99048645D01*
X132878729Y-99149660D01*
X133922554Y-98173180D02*
X134393958Y-98644584D01*
X133484821Y-98072164D02*
X133821538Y-98745599D01*
X134259271Y-98307867D01*
X134191928Y-97432401D02*
X134259271Y-97365058D01*
X134360286Y-97331386D01*
X134427630Y-97331386D01*
X134528645Y-97365058D01*
X134697004Y-97466073D01*
X134865363Y-97634432D01*
X134966378Y-97802790D01*
X135000050Y-97903806D01*
X135000050Y-97971149D01*
X134966378Y-98072164D01*
X134899034Y-98139508D01*
X134798019Y-98173180D01*
X134730676Y-98173180D01*
X134629660Y-98139508D01*
X134461302Y-98038493D01*
X134292943Y-97870134D01*
X134191928Y-97701775D01*
X134158256Y-97600760D01*
X134158256Y-97533416D01*
X134191928Y-97432401D01*
X135808172Y-97230371D02*
X135404111Y-97634432D01*
X135606141Y-97432401D02*
X134899034Y-96725294D01*
X134932706Y-96893653D01*
X134932706Y-97028340D01*
X134899034Y-97129355D01*
%TO.C,D901*%
X101152380Y-95157976D02*
X100152380Y-95157976D01*
X100152380Y-94919880D01*
X100200000Y-94777023D01*
X100295238Y-94681785D01*
X100390476Y-94634166D01*
X100580952Y-94586547D01*
X100723809Y-94586547D01*
X100914285Y-94634166D01*
X101009523Y-94681785D01*
X101104761Y-94777023D01*
X101152380Y-94919880D01*
X101152380Y-95157976D01*
X101152380Y-94110357D02*
X101152380Y-93919880D01*
X101104761Y-93824642D01*
X101057142Y-93777023D01*
X100914285Y-93681785D01*
X100723809Y-93634166D01*
X100342857Y-93634166D01*
X100247619Y-93681785D01*
X100200000Y-93729404D01*
X100152380Y-93824642D01*
X100152380Y-94015119D01*
X100200000Y-94110357D01*
X100247619Y-94157976D01*
X100342857Y-94205595D01*
X100580952Y-94205595D01*
X100676190Y-94157976D01*
X100723809Y-94110357D01*
X100771428Y-94015119D01*
X100771428Y-93824642D01*
X100723809Y-93729404D01*
X100676190Y-93681785D01*
X100580952Y-93634166D01*
X100152380Y-93015119D02*
X100152380Y-92919880D01*
X100200000Y-92824642D01*
X100247619Y-92777023D01*
X100342857Y-92729404D01*
X100533333Y-92681785D01*
X100771428Y-92681785D01*
X100961904Y-92729404D01*
X101057142Y-92777023D01*
X101104761Y-92824642D01*
X101152380Y-92919880D01*
X101152380Y-93015119D01*
X101104761Y-93110357D01*
X101057142Y-93157976D01*
X100961904Y-93205595D01*
X100771428Y-93253214D01*
X100533333Y-93253214D01*
X100342857Y-93205595D01*
X100247619Y-93157976D01*
X100200000Y-93110357D01*
X100152380Y-93015119D01*
X101152380Y-91729404D02*
X101152380Y-92300833D01*
X101152380Y-92015119D02*
X100152380Y-92015119D01*
X100295238Y-92110357D01*
X100390476Y-92205595D01*
X100438095Y-92300833D01*
%TO.C,C304*%
X101057142Y-130819047D02*
X101104761Y-130866666D01*
X101152380Y-131009523D01*
X101152380Y-131104761D01*
X101104761Y-131247619D01*
X101009523Y-131342857D01*
X100914285Y-131390476D01*
X100723809Y-131438095D01*
X100580952Y-131438095D01*
X100390476Y-131390476D01*
X100295238Y-131342857D01*
X100200000Y-131247619D01*
X100152380Y-131104761D01*
X100152380Y-131009523D01*
X100200000Y-130866666D01*
X100247619Y-130819047D01*
X100152380Y-130485714D02*
X100152380Y-129866666D01*
X100533333Y-130200000D01*
X100533333Y-130057142D01*
X100580952Y-129961904D01*
X100628571Y-129914285D01*
X100723809Y-129866666D01*
X100961904Y-129866666D01*
X101057142Y-129914285D01*
X101104761Y-129961904D01*
X101152380Y-130057142D01*
X101152380Y-130342857D01*
X101104761Y-130438095D01*
X101057142Y-130485714D01*
X100152380Y-129247619D02*
X100152380Y-129152380D01*
X100200000Y-129057142D01*
X100247619Y-129009523D01*
X100342857Y-128961904D01*
X100533333Y-128914285D01*
X100771428Y-128914285D01*
X100961904Y-128961904D01*
X101057142Y-129009523D01*
X101104761Y-129057142D01*
X101152380Y-129152380D01*
X101152380Y-129247619D01*
X101104761Y-129342857D01*
X101057142Y-129390476D01*
X100961904Y-129438095D01*
X100771428Y-129485714D01*
X100533333Y-129485714D01*
X100342857Y-129438095D01*
X100247619Y-129390476D01*
X100200000Y-129342857D01*
X100152380Y-129247619D01*
X100485714Y-128057142D02*
X101152380Y-128057142D01*
X100104761Y-128295238D02*
X100819047Y-128533333D01*
X100819047Y-127914285D01*
%TO.C,C303*%
X102257142Y-130819047D02*
X102304761Y-130866666D01*
X102352380Y-131009523D01*
X102352380Y-131104761D01*
X102304761Y-131247619D01*
X102209523Y-131342857D01*
X102114285Y-131390476D01*
X101923809Y-131438095D01*
X101780952Y-131438095D01*
X101590476Y-131390476D01*
X101495238Y-131342857D01*
X101400000Y-131247619D01*
X101352380Y-131104761D01*
X101352380Y-131009523D01*
X101400000Y-130866666D01*
X101447619Y-130819047D01*
X101352380Y-130485714D02*
X101352380Y-129866666D01*
X101733333Y-130200000D01*
X101733333Y-130057142D01*
X101780952Y-129961904D01*
X101828571Y-129914285D01*
X101923809Y-129866666D01*
X102161904Y-129866666D01*
X102257142Y-129914285D01*
X102304761Y-129961904D01*
X102352380Y-130057142D01*
X102352380Y-130342857D01*
X102304761Y-130438095D01*
X102257142Y-130485714D01*
X101352380Y-129247619D02*
X101352380Y-129152380D01*
X101400000Y-129057142D01*
X101447619Y-129009523D01*
X101542857Y-128961904D01*
X101733333Y-128914285D01*
X101971428Y-128914285D01*
X102161904Y-128961904D01*
X102257142Y-129009523D01*
X102304761Y-129057142D01*
X102352380Y-129152380D01*
X102352380Y-129247619D01*
X102304761Y-129342857D01*
X102257142Y-129390476D01*
X102161904Y-129438095D01*
X101971428Y-129485714D01*
X101733333Y-129485714D01*
X101542857Y-129438095D01*
X101447619Y-129390476D01*
X101400000Y-129342857D01*
X101352380Y-129247619D01*
X101352380Y-128580952D02*
X101352380Y-127961904D01*
X101733333Y-128295238D01*
X101733333Y-128152380D01*
X101780952Y-128057142D01*
X101828571Y-128009523D01*
X101923809Y-127961904D01*
X102161904Y-127961904D01*
X102257142Y-128009523D01*
X102304761Y-128057142D01*
X102352380Y-128152380D01*
X102352380Y-128438095D01*
X102304761Y-128533333D01*
X102257142Y-128580952D01*
%TO.C,C302*%
X109580952Y-138957142D02*
X109533333Y-139004761D01*
X109390476Y-139052380D01*
X109295238Y-139052380D01*
X109152380Y-139004761D01*
X109057142Y-138909523D01*
X109009523Y-138814285D01*
X108961904Y-138623809D01*
X108961904Y-138480952D01*
X109009523Y-138290476D01*
X109057142Y-138195238D01*
X109152380Y-138100000D01*
X109295238Y-138052380D01*
X109390476Y-138052380D01*
X109533333Y-138100000D01*
X109580952Y-138147619D01*
X109914285Y-138052380D02*
X110533333Y-138052380D01*
X110200000Y-138433333D01*
X110342857Y-138433333D01*
X110438095Y-138480952D01*
X110485714Y-138528571D01*
X110533333Y-138623809D01*
X110533333Y-138861904D01*
X110485714Y-138957142D01*
X110438095Y-139004761D01*
X110342857Y-139052380D01*
X110057142Y-139052380D01*
X109961904Y-139004761D01*
X109914285Y-138957142D01*
X111152380Y-138052380D02*
X111247619Y-138052380D01*
X111342857Y-138100000D01*
X111390476Y-138147619D01*
X111438095Y-138242857D01*
X111485714Y-138433333D01*
X111485714Y-138671428D01*
X111438095Y-138861904D01*
X111390476Y-138957142D01*
X111342857Y-139004761D01*
X111247619Y-139052380D01*
X111152380Y-139052380D01*
X111057142Y-139004761D01*
X111009523Y-138957142D01*
X110961904Y-138861904D01*
X110914285Y-138671428D01*
X110914285Y-138433333D01*
X110961904Y-138242857D01*
X111009523Y-138147619D01*
X111057142Y-138100000D01*
X111152380Y-138052380D01*
X111866666Y-138147619D02*
X111914285Y-138100000D01*
X112009523Y-138052380D01*
X112247619Y-138052380D01*
X112342857Y-138100000D01*
X112390476Y-138147619D01*
X112438095Y-138242857D01*
X112438095Y-138338095D01*
X112390476Y-138480952D01*
X111819047Y-139052380D01*
X112438095Y-139052380D01*
%TO.C,C301*%
X108080952Y-130357142D02*
X108033333Y-130404761D01*
X107890476Y-130452380D01*
X107795238Y-130452380D01*
X107652380Y-130404761D01*
X107557142Y-130309523D01*
X107509523Y-130214285D01*
X107461904Y-130023809D01*
X107461904Y-129880952D01*
X107509523Y-129690476D01*
X107557142Y-129595238D01*
X107652380Y-129500000D01*
X107795238Y-129452380D01*
X107890476Y-129452380D01*
X108033333Y-129500000D01*
X108080952Y-129547619D01*
X108414285Y-129452380D02*
X109033333Y-129452380D01*
X108700000Y-129833333D01*
X108842857Y-129833333D01*
X108938095Y-129880952D01*
X108985714Y-129928571D01*
X109033333Y-130023809D01*
X109033333Y-130261904D01*
X108985714Y-130357142D01*
X108938095Y-130404761D01*
X108842857Y-130452380D01*
X108557142Y-130452380D01*
X108461904Y-130404761D01*
X108414285Y-130357142D01*
X109652380Y-129452380D02*
X109747619Y-129452380D01*
X109842857Y-129500000D01*
X109890476Y-129547619D01*
X109938095Y-129642857D01*
X109985714Y-129833333D01*
X109985714Y-130071428D01*
X109938095Y-130261904D01*
X109890476Y-130357142D01*
X109842857Y-130404761D01*
X109747619Y-130452380D01*
X109652380Y-130452380D01*
X109557142Y-130404761D01*
X109509523Y-130357142D01*
X109461904Y-130261904D01*
X109414285Y-130071428D01*
X109414285Y-129833333D01*
X109461904Y-129642857D01*
X109509523Y-129547619D01*
X109557142Y-129500000D01*
X109652380Y-129452380D01*
X110938095Y-130452380D02*
X110366666Y-130452380D01*
X110652380Y-130452380D02*
X110652380Y-129452380D01*
X110557142Y-129595238D01*
X110461904Y-129690476D01*
X110366666Y-129738095D01*
%TO.C,FB1501*%
D19*
X127130067Y-95764120D02*
X126941505Y-95952682D01*
X127237816Y-96248993D02*
X126672131Y-95683308D01*
X126941505Y-95413934D01*
X127614940Y-95279247D02*
X127722690Y-95225372D01*
X127776564Y-95225372D01*
X127857377Y-95252309D01*
X127938189Y-95333122D01*
X127965126Y-95413934D01*
X127965126Y-95467809D01*
X127938189Y-95548621D01*
X127722690Y-95764120D01*
X127157004Y-95198435D01*
X127345566Y-95009873D01*
X127426378Y-94982935D01*
X127480253Y-94982935D01*
X127561065Y-95009873D01*
X127614940Y-95063748D01*
X127641877Y-95144560D01*
X127641877Y-95198435D01*
X127614940Y-95279247D01*
X127426378Y-95467809D01*
X128584687Y-94902123D02*
X128261438Y-95225372D01*
X128423062Y-95063748D02*
X127857377Y-94498062D01*
X127884314Y-94632749D01*
X127884314Y-94740499D01*
X127857377Y-94821311D01*
X128530812Y-93824627D02*
X128261438Y-94094001D01*
X128503874Y-94390312D01*
X128503874Y-94336438D01*
X128530812Y-94255625D01*
X128665499Y-94120938D01*
X128746311Y-94094001D01*
X128800186Y-94094001D01*
X128880998Y-94120938D01*
X129015685Y-94255625D01*
X129042622Y-94336438D01*
X129042622Y-94390312D01*
X129015685Y-94471125D01*
X128880998Y-94605812D01*
X128800186Y-94632749D01*
X128746311Y-94632749D01*
X128907935Y-93447503D02*
X128961810Y-93393629D01*
X129042622Y-93366691D01*
X129096497Y-93366691D01*
X129177309Y-93393629D01*
X129311996Y-93474441D01*
X129446683Y-93609128D01*
X129527496Y-93743815D01*
X129554433Y-93824627D01*
X129554433Y-93878502D01*
X129527496Y-93959314D01*
X129473621Y-94013189D01*
X129392809Y-94040126D01*
X129338934Y-94040126D01*
X129258122Y-94013189D01*
X129123435Y-93932377D01*
X128988748Y-93797690D01*
X128907935Y-93663003D01*
X128880998Y-93582190D01*
X128880998Y-93528316D01*
X128907935Y-93447503D01*
X130200931Y-93285879D02*
X129877682Y-93609128D01*
X130039306Y-93447503D02*
X129473621Y-92881818D01*
X129500558Y-93016505D01*
X129500558Y-93124255D01*
X129473621Y-93205067D01*
%TO.C,TP1403*%
X119528256Y-76302183D02*
X119851505Y-75978934D01*
X120255566Y-76706244D02*
X119689881Y-76140558D01*
X120605752Y-76356057D02*
X120040067Y-75790372D01*
X120255566Y-75574873D01*
X120336378Y-75547935D01*
X120390253Y-75547935D01*
X120471065Y-75574873D01*
X120551877Y-75655685D01*
X120578815Y-75736497D01*
X120578815Y-75790372D01*
X120551877Y-75871184D01*
X120336378Y-76086683D01*
X121467749Y-75494061D02*
X121144500Y-75817309D01*
X121306125Y-75655685D02*
X120740439Y-75090000D01*
X120767377Y-75224687D01*
X120767377Y-75332436D01*
X120740439Y-75413248D01*
X121575499Y-74632064D02*
X121952622Y-75009187D01*
X121225312Y-74551251D02*
X121494687Y-75090000D01*
X121844873Y-74739813D01*
X121790998Y-74039441D02*
X121844873Y-73985566D01*
X121925685Y-73958629D01*
X121979560Y-73958629D01*
X122060372Y-73985566D01*
X122195059Y-74066378D01*
X122329746Y-74201065D01*
X122410558Y-74335752D01*
X122437496Y-74416564D01*
X122437496Y-74470439D01*
X122410558Y-74551251D01*
X122356683Y-74605126D01*
X122275871Y-74632064D01*
X122221996Y-74632064D01*
X122141184Y-74605126D01*
X122006497Y-74524314D01*
X121871810Y-74389627D01*
X121790998Y-74254940D01*
X121764061Y-74174128D01*
X121764061Y-74120253D01*
X121790998Y-74039441D01*
X122168122Y-73662317D02*
X122518308Y-73312131D01*
X122545245Y-73716192D01*
X122626057Y-73635380D01*
X122706870Y-73608442D01*
X122760744Y-73608442D01*
X122841557Y-73635380D01*
X122976244Y-73770067D01*
X123003181Y-73850879D01*
X123003181Y-73904754D01*
X122976244Y-73985566D01*
X122814619Y-74147190D01*
X122733807Y-74174128D01*
X122679932Y-74174128D01*
%TO.C,TP1402*%
X118768256Y-78737183D02*
X119091505Y-78413934D01*
X119495566Y-79141244D02*
X118929881Y-78575558D01*
X119845752Y-78791057D02*
X119280067Y-78225372D01*
X119495566Y-78009873D01*
X119576378Y-77982935D01*
X119630253Y-77982935D01*
X119711065Y-78009873D01*
X119791877Y-78090685D01*
X119818815Y-78171497D01*
X119818815Y-78225372D01*
X119791877Y-78306184D01*
X119576378Y-78521683D01*
X120707749Y-77929061D02*
X120384500Y-78252309D01*
X120546125Y-78090685D02*
X119980439Y-77525000D01*
X120007377Y-77659687D01*
X120007377Y-77767436D01*
X119980439Y-77848248D01*
X120815499Y-77067064D02*
X121192622Y-77444187D01*
X120465312Y-76986251D02*
X120734687Y-77525000D01*
X121084873Y-77174813D01*
X121030998Y-76474441D02*
X121084873Y-76420566D01*
X121165685Y-76393629D01*
X121219560Y-76393629D01*
X121300372Y-76420566D01*
X121435059Y-76501378D01*
X121569746Y-76636065D01*
X121650558Y-76770752D01*
X121677496Y-76851564D01*
X121677496Y-76905439D01*
X121650558Y-76986251D01*
X121596683Y-77040126D01*
X121515871Y-77067064D01*
X121461996Y-77067064D01*
X121381184Y-77040126D01*
X121246497Y-76959314D01*
X121111810Y-76824627D01*
X121030998Y-76689940D01*
X121004061Y-76609128D01*
X121004061Y-76555253D01*
X121030998Y-76474441D01*
X121488934Y-76124255D02*
X121488934Y-76070380D01*
X121515871Y-75989568D01*
X121650558Y-75854881D01*
X121731370Y-75827943D01*
X121785245Y-75827943D01*
X121866057Y-75854881D01*
X121919932Y-75908755D01*
X121973807Y-76016505D01*
X121973807Y-76663003D01*
X122323993Y-76312816D01*
%TO.C,TP1401*%
X116428256Y-79372183D02*
X116751505Y-79048934D01*
X117155566Y-79776244D02*
X116589881Y-79210558D01*
X117505752Y-79426057D02*
X116940067Y-78860372D01*
X117155566Y-78644873D01*
X117236378Y-78617935D01*
X117290253Y-78617935D01*
X117371065Y-78644873D01*
X117451877Y-78725685D01*
X117478815Y-78806497D01*
X117478815Y-78860372D01*
X117451877Y-78941184D01*
X117236378Y-79156683D01*
X118367749Y-78564061D02*
X118044500Y-78887309D01*
X118206125Y-78725685D02*
X117640439Y-78160000D01*
X117667377Y-78294687D01*
X117667377Y-78402436D01*
X117640439Y-78483248D01*
X118475499Y-77702064D02*
X118852622Y-78079187D01*
X118125312Y-77621251D02*
X118394687Y-78160000D01*
X118744873Y-77809813D01*
X118690998Y-77109441D02*
X118744873Y-77055566D01*
X118825685Y-77028629D01*
X118879560Y-77028629D01*
X118960372Y-77055566D01*
X119095059Y-77136378D01*
X119229746Y-77271065D01*
X119310558Y-77405752D01*
X119337496Y-77486564D01*
X119337496Y-77540439D01*
X119310558Y-77621251D01*
X119256683Y-77675126D01*
X119175871Y-77702064D01*
X119121996Y-77702064D01*
X119041184Y-77675126D01*
X118906497Y-77594314D01*
X118771810Y-77459627D01*
X118690998Y-77324940D01*
X118664061Y-77244128D01*
X118664061Y-77190253D01*
X118690998Y-77109441D01*
X119983993Y-76947816D02*
X119660744Y-77271065D01*
X119822369Y-77109441D02*
X119256683Y-76543755D01*
X119283621Y-76678442D01*
X119283621Y-76786192D01*
X119256683Y-76867004D01*
%TO.C,R1402*%
X132598809Y-90436904D02*
X132332142Y-90055952D01*
X132141666Y-90436904D02*
X132141666Y-89636904D01*
X132446428Y-89636904D01*
X132522619Y-89675000D01*
X132560714Y-89713095D01*
X132598809Y-89789285D01*
X132598809Y-89903571D01*
X132560714Y-89979761D01*
X132522619Y-90017857D01*
X132446428Y-90055952D01*
X132141666Y-90055952D01*
X133360714Y-90436904D02*
X132903571Y-90436904D01*
X133132142Y-90436904D02*
X133132142Y-89636904D01*
X133055952Y-89751190D01*
X132979761Y-89827380D01*
X132903571Y-89865476D01*
X134046428Y-89903571D02*
X134046428Y-90436904D01*
X133855952Y-89598809D02*
X133665476Y-90170238D01*
X134160714Y-90170238D01*
X134617857Y-89636904D02*
X134694047Y-89636904D01*
X134770238Y-89675000D01*
X134808333Y-89713095D01*
X134846428Y-89789285D01*
X134884523Y-89941666D01*
X134884523Y-90132142D01*
X134846428Y-90284523D01*
X134808333Y-90360714D01*
X134770238Y-90398809D01*
X134694047Y-90436904D01*
X134617857Y-90436904D01*
X134541666Y-90398809D01*
X134503571Y-90360714D01*
X134465476Y-90284523D01*
X134427380Y-90132142D01*
X134427380Y-89941666D01*
X134465476Y-89789285D01*
X134503571Y-89713095D01*
X134541666Y-89675000D01*
X134617857Y-89636904D01*
X135189285Y-89713095D02*
X135227380Y-89675000D01*
X135303571Y-89636904D01*
X135494047Y-89636904D01*
X135570238Y-89675000D01*
X135608333Y-89713095D01*
X135646428Y-89789285D01*
X135646428Y-89865476D01*
X135608333Y-89979761D01*
X135151190Y-90436904D01*
X135646428Y-90436904D01*
%TO.C,R1401*%
X123880817Y-85610623D02*
X123422881Y-85529811D01*
X123557568Y-85933872D02*
X122991883Y-85368186D01*
X123207382Y-85152687D01*
X123288194Y-85125750D01*
X123342069Y-85125750D01*
X123422881Y-85152687D01*
X123503693Y-85233499D01*
X123530631Y-85314311D01*
X123530631Y-85368186D01*
X123503693Y-85448998D01*
X123288194Y-85664498D01*
X124419565Y-85071875D02*
X124096316Y-85395124D01*
X124257940Y-85233499D02*
X123692255Y-84667814D01*
X123719192Y-84802501D01*
X123719192Y-84910250D01*
X123692255Y-84991063D01*
X124527315Y-84209878D02*
X124904438Y-84587002D01*
X124177128Y-84129066D02*
X124446502Y-84667814D01*
X124796689Y-84317627D01*
X124742814Y-83617255D02*
X124796689Y-83563380D01*
X124877501Y-83536443D01*
X124931376Y-83536443D01*
X125012188Y-83563380D01*
X125146875Y-83644192D01*
X125281562Y-83778879D01*
X125362374Y-83913566D01*
X125389311Y-83994379D01*
X125389311Y-84048253D01*
X125362374Y-84129066D01*
X125308499Y-84182940D01*
X125227687Y-84209878D01*
X125173812Y-84209878D01*
X125093000Y-84182940D01*
X124958313Y-84102128D01*
X124823626Y-83967441D01*
X124742814Y-83832754D01*
X124715876Y-83751942D01*
X124715876Y-83698067D01*
X124742814Y-83617255D01*
X126035809Y-83455631D02*
X125712560Y-83778879D01*
X125874185Y-83617255D02*
X125308499Y-83051570D01*
X125335437Y-83186257D01*
X125335437Y-83294006D01*
X125308499Y-83374818D01*
%TO.C,R1003*%
D17*
X151282380Y-83885238D02*
X150806190Y-84218571D01*
X151282380Y-84456666D02*
X150282380Y-84456666D01*
X150282380Y-84075714D01*
X150330000Y-83980476D01*
X150377619Y-83932857D01*
X150472857Y-83885238D01*
X150615714Y-83885238D01*
X150710952Y-83932857D01*
X150758571Y-83980476D01*
X150806190Y-84075714D01*
X150806190Y-84456666D01*
X151282380Y-82932857D02*
X151282380Y-83504285D01*
X151282380Y-83218571D02*
X150282380Y-83218571D01*
X150425238Y-83313809D01*
X150520476Y-83409047D01*
X150568095Y-83504285D01*
X150282380Y-82313809D02*
X150282380Y-82218571D01*
X150330000Y-82123333D01*
X150377619Y-82075714D01*
X150472857Y-82028095D01*
X150663333Y-81980476D01*
X150901428Y-81980476D01*
X151091904Y-82028095D01*
X151187142Y-82075714D01*
X151234761Y-82123333D01*
X151282380Y-82218571D01*
X151282380Y-82313809D01*
X151234761Y-82409047D01*
X151187142Y-82456666D01*
X151091904Y-82504285D01*
X150901428Y-82551904D01*
X150663333Y-82551904D01*
X150472857Y-82504285D01*
X150377619Y-82456666D01*
X150330000Y-82409047D01*
X150282380Y-82313809D01*
X150282380Y-81361428D02*
X150282380Y-81266190D01*
X150330000Y-81170952D01*
X150377619Y-81123333D01*
X150472857Y-81075714D01*
X150663333Y-81028095D01*
X150901428Y-81028095D01*
X151091904Y-81075714D01*
X151187142Y-81123333D01*
X151234761Y-81170952D01*
X151282380Y-81266190D01*
X151282380Y-81361428D01*
X151234761Y-81456666D01*
X151187142Y-81504285D01*
X151091904Y-81551904D01*
X150901428Y-81599523D01*
X150663333Y-81599523D01*
X150472857Y-81551904D01*
X150377619Y-81504285D01*
X150330000Y-81456666D01*
X150282380Y-81361428D01*
X150282380Y-80694761D02*
X150282380Y-80075714D01*
X150663333Y-80409047D01*
X150663333Y-80266190D01*
X150710952Y-80170952D01*
X150758571Y-80123333D01*
X150853809Y-80075714D01*
X151091904Y-80075714D01*
X151187142Y-80123333D01*
X151234761Y-80170952D01*
X151282380Y-80266190D01*
X151282380Y-80551904D01*
X151234761Y-80647142D01*
X151187142Y-80694761D01*
%TO.C,R1002*%
X151292380Y-89995238D02*
X150816190Y-90328571D01*
X151292380Y-90566666D02*
X150292380Y-90566666D01*
X150292380Y-90185714D01*
X150340000Y-90090476D01*
X150387619Y-90042857D01*
X150482857Y-89995238D01*
X150625714Y-89995238D01*
X150720952Y-90042857D01*
X150768571Y-90090476D01*
X150816190Y-90185714D01*
X150816190Y-90566666D01*
X151292380Y-89042857D02*
X151292380Y-89614285D01*
X151292380Y-89328571D02*
X150292380Y-89328571D01*
X150435238Y-89423809D01*
X150530476Y-89519047D01*
X150578095Y-89614285D01*
X150292380Y-88423809D02*
X150292380Y-88328571D01*
X150340000Y-88233333D01*
X150387619Y-88185714D01*
X150482857Y-88138095D01*
X150673333Y-88090476D01*
X150911428Y-88090476D01*
X151101904Y-88138095D01*
X151197142Y-88185714D01*
X151244761Y-88233333D01*
X151292380Y-88328571D01*
X151292380Y-88423809D01*
X151244761Y-88519047D01*
X151197142Y-88566666D01*
X151101904Y-88614285D01*
X150911428Y-88661904D01*
X150673333Y-88661904D01*
X150482857Y-88614285D01*
X150387619Y-88566666D01*
X150340000Y-88519047D01*
X150292380Y-88423809D01*
X150292380Y-87471428D02*
X150292380Y-87376190D01*
X150340000Y-87280952D01*
X150387619Y-87233333D01*
X150482857Y-87185714D01*
X150673333Y-87138095D01*
X150911428Y-87138095D01*
X151101904Y-87185714D01*
X151197142Y-87233333D01*
X151244761Y-87280952D01*
X151292380Y-87376190D01*
X151292380Y-87471428D01*
X151244761Y-87566666D01*
X151197142Y-87614285D01*
X151101904Y-87661904D01*
X150911428Y-87709523D01*
X150673333Y-87709523D01*
X150482857Y-87661904D01*
X150387619Y-87614285D01*
X150340000Y-87566666D01*
X150292380Y-87471428D01*
X150387619Y-86757142D02*
X150340000Y-86709523D01*
X150292380Y-86614285D01*
X150292380Y-86376190D01*
X150340000Y-86280952D01*
X150387619Y-86233333D01*
X150482857Y-86185714D01*
X150578095Y-86185714D01*
X150720952Y-86233333D01*
X151292380Y-86804761D01*
X151292380Y-86185714D01*
%TO.C,R1001*%
X150922380Y-95045238D02*
X150446190Y-95378571D01*
X150922380Y-95616666D02*
X149922380Y-95616666D01*
X149922380Y-95235714D01*
X149970000Y-95140476D01*
X150017619Y-95092857D01*
X150112857Y-95045238D01*
X150255714Y-95045238D01*
X150350952Y-95092857D01*
X150398571Y-95140476D01*
X150446190Y-95235714D01*
X150446190Y-95616666D01*
X150922380Y-94092857D02*
X150922380Y-94664285D01*
X150922380Y-94378571D02*
X149922380Y-94378571D01*
X150065238Y-94473809D01*
X150160476Y-94569047D01*
X150208095Y-94664285D01*
X149922380Y-93473809D02*
X149922380Y-93378571D01*
X149970000Y-93283333D01*
X150017619Y-93235714D01*
X150112857Y-93188095D01*
X150303333Y-93140476D01*
X150541428Y-93140476D01*
X150731904Y-93188095D01*
X150827142Y-93235714D01*
X150874761Y-93283333D01*
X150922380Y-93378571D01*
X150922380Y-93473809D01*
X150874761Y-93569047D01*
X150827142Y-93616666D01*
X150731904Y-93664285D01*
X150541428Y-93711904D01*
X150303333Y-93711904D01*
X150112857Y-93664285D01*
X150017619Y-93616666D01*
X149970000Y-93569047D01*
X149922380Y-93473809D01*
X149922380Y-92521428D02*
X149922380Y-92426190D01*
X149970000Y-92330952D01*
X150017619Y-92283333D01*
X150112857Y-92235714D01*
X150303333Y-92188095D01*
X150541428Y-92188095D01*
X150731904Y-92235714D01*
X150827142Y-92283333D01*
X150874761Y-92330952D01*
X150922380Y-92426190D01*
X150922380Y-92521428D01*
X150874761Y-92616666D01*
X150827142Y-92664285D01*
X150731904Y-92711904D01*
X150541428Y-92759523D01*
X150303333Y-92759523D01*
X150112857Y-92711904D01*
X150017619Y-92664285D01*
X149970000Y-92616666D01*
X149922380Y-92521428D01*
X150922380Y-91235714D02*
X150922380Y-91807142D01*
X150922380Y-91521428D02*
X149922380Y-91521428D01*
X150065238Y-91616666D01*
X150160476Y-91711904D01*
X150208095Y-91807142D01*
%TO.C,U604*%
X152572380Y-132434285D02*
X153381904Y-132434285D01*
X153477142Y-132386666D01*
X153524761Y-132339047D01*
X153572380Y-132243809D01*
X153572380Y-132053333D01*
X153524761Y-131958095D01*
X153477142Y-131910476D01*
X153381904Y-131862857D01*
X152572380Y-131862857D01*
X152572380Y-130958095D02*
X152572380Y-131148571D01*
X152620000Y-131243809D01*
X152667619Y-131291428D01*
X152810476Y-131386666D01*
X153000952Y-131434285D01*
X153381904Y-131434285D01*
X153477142Y-131386666D01*
X153524761Y-131339047D01*
X153572380Y-131243809D01*
X153572380Y-131053333D01*
X153524761Y-130958095D01*
X153477142Y-130910476D01*
X153381904Y-130862857D01*
X153143809Y-130862857D01*
X153048571Y-130910476D01*
X153000952Y-130958095D01*
X152953333Y-131053333D01*
X152953333Y-131243809D01*
X153000952Y-131339047D01*
X153048571Y-131386666D01*
X153143809Y-131434285D01*
X152572380Y-130243809D02*
X152572380Y-130148571D01*
X152620000Y-130053333D01*
X152667619Y-130005714D01*
X152762857Y-129958095D01*
X152953333Y-129910476D01*
X153191428Y-129910476D01*
X153381904Y-129958095D01*
X153477142Y-130005714D01*
X153524761Y-130053333D01*
X153572380Y-130148571D01*
X153572380Y-130243809D01*
X153524761Y-130339047D01*
X153477142Y-130386666D01*
X153381904Y-130434285D01*
X153191428Y-130481904D01*
X152953333Y-130481904D01*
X152762857Y-130434285D01*
X152667619Y-130386666D01*
X152620000Y-130339047D01*
X152572380Y-130243809D01*
X152905714Y-129053333D02*
X153572380Y-129053333D01*
X152524761Y-129291428D02*
X153239047Y-129529523D01*
X153239047Y-128910476D01*
%TO.C,C602*%
X153010952Y-124167142D02*
X152963333Y-124214761D01*
X152820476Y-124262380D01*
X152725238Y-124262380D01*
X152582380Y-124214761D01*
X152487142Y-124119523D01*
X152439523Y-124024285D01*
X152391904Y-123833809D01*
X152391904Y-123690952D01*
X152439523Y-123500476D01*
X152487142Y-123405238D01*
X152582380Y-123310000D01*
X152725238Y-123262380D01*
X152820476Y-123262380D01*
X152963333Y-123310000D01*
X153010952Y-123357619D01*
X153868095Y-123262380D02*
X153677619Y-123262380D01*
X153582380Y-123310000D01*
X153534761Y-123357619D01*
X153439523Y-123500476D01*
X153391904Y-123690952D01*
X153391904Y-124071904D01*
X153439523Y-124167142D01*
X153487142Y-124214761D01*
X153582380Y-124262380D01*
X153772857Y-124262380D01*
X153868095Y-124214761D01*
X153915714Y-124167142D01*
X153963333Y-124071904D01*
X153963333Y-123833809D01*
X153915714Y-123738571D01*
X153868095Y-123690952D01*
X153772857Y-123643333D01*
X153582380Y-123643333D01*
X153487142Y-123690952D01*
X153439523Y-123738571D01*
X153391904Y-123833809D01*
X154582380Y-123262380D02*
X154677619Y-123262380D01*
X154772857Y-123310000D01*
X154820476Y-123357619D01*
X154868095Y-123452857D01*
X154915714Y-123643333D01*
X154915714Y-123881428D01*
X154868095Y-124071904D01*
X154820476Y-124167142D01*
X154772857Y-124214761D01*
X154677619Y-124262380D01*
X154582380Y-124262380D01*
X154487142Y-124214761D01*
X154439523Y-124167142D01*
X154391904Y-124071904D01*
X154344285Y-123881428D01*
X154344285Y-123643333D01*
X154391904Y-123452857D01*
X154439523Y-123357619D01*
X154487142Y-123310000D01*
X154582380Y-123262380D01*
X155296666Y-123357619D02*
X155344285Y-123310000D01*
X155439523Y-123262380D01*
X155677619Y-123262380D01*
X155772857Y-123310000D01*
X155820476Y-123357619D01*
X155868095Y-123452857D01*
X155868095Y-123548095D01*
X155820476Y-123690952D01*
X155249047Y-124262380D01*
X155868095Y-124262380D01*
%TO.C,U701*%
X127185714Y-107052380D02*
X127185714Y-107861904D01*
X127233333Y-107957142D01*
X127280952Y-108004761D01*
X127376190Y-108052380D01*
X127566666Y-108052380D01*
X127661904Y-108004761D01*
X127709523Y-107957142D01*
X127757142Y-107861904D01*
X127757142Y-107052380D01*
X128138095Y-107052380D02*
X128804761Y-107052380D01*
X128376190Y-108052380D01*
X129376190Y-107052380D02*
X129471428Y-107052380D01*
X129566666Y-107100000D01*
X129614285Y-107147619D01*
X129661904Y-107242857D01*
X129709523Y-107433333D01*
X129709523Y-107671428D01*
X129661904Y-107861904D01*
X129614285Y-107957142D01*
X129566666Y-108004761D01*
X129471428Y-108052380D01*
X129376190Y-108052380D01*
X129280952Y-108004761D01*
X129233333Y-107957142D01*
X129185714Y-107861904D01*
X129138095Y-107671428D01*
X129138095Y-107433333D01*
X129185714Y-107242857D01*
X129233333Y-107147619D01*
X129280952Y-107100000D01*
X129376190Y-107052380D01*
X130661904Y-108052380D02*
X130090476Y-108052380D01*
X130376190Y-108052380D02*
X130376190Y-107052380D01*
X130280952Y-107195238D01*
X130185714Y-107290476D01*
X130090476Y-107338095D01*
%TO.C,C712*%
X152157142Y-120374047D02*
X152204761Y-120421666D01*
X152252380Y-120564523D01*
X152252380Y-120659761D01*
X152204761Y-120802619D01*
X152109523Y-120897857D01*
X152014285Y-120945476D01*
X151823809Y-120993095D01*
X151680952Y-120993095D01*
X151490476Y-120945476D01*
X151395238Y-120897857D01*
X151300000Y-120802619D01*
X151252380Y-120659761D01*
X151252380Y-120564523D01*
X151300000Y-120421666D01*
X151347619Y-120374047D01*
X151252380Y-120040714D02*
X151252380Y-119374047D01*
X152252380Y-119802619D01*
X152252380Y-118469285D02*
X152252380Y-119040714D01*
X152252380Y-118755000D02*
X151252380Y-118755000D01*
X151395238Y-118850238D01*
X151490476Y-118945476D01*
X151538095Y-119040714D01*
X151347619Y-118088333D02*
X151300000Y-118040714D01*
X151252380Y-117945476D01*
X151252380Y-117707380D01*
X151300000Y-117612142D01*
X151347619Y-117564523D01*
X151442857Y-117516904D01*
X151538095Y-117516904D01*
X151680952Y-117564523D01*
X152252380Y-118135952D01*
X152252380Y-117516904D01*
%TO.C,C711*%
X146652142Y-120061547D02*
X146699761Y-120109166D01*
X146747380Y-120252023D01*
X146747380Y-120347261D01*
X146699761Y-120490119D01*
X146604523Y-120585357D01*
X146509285Y-120632976D01*
X146318809Y-120680595D01*
X146175952Y-120680595D01*
X145985476Y-120632976D01*
X145890238Y-120585357D01*
X145795000Y-120490119D01*
X145747380Y-120347261D01*
X145747380Y-120252023D01*
X145795000Y-120109166D01*
X145842619Y-120061547D01*
X145747380Y-119728214D02*
X145747380Y-119061547D01*
X146747380Y-119490119D01*
X146747380Y-118156785D02*
X146747380Y-118728214D01*
X146747380Y-118442500D02*
X145747380Y-118442500D01*
X145890238Y-118537738D01*
X145985476Y-118632976D01*
X146033095Y-118728214D01*
X146747380Y-117204404D02*
X146747380Y-117775833D01*
X146747380Y-117490119D02*
X145747380Y-117490119D01*
X145890238Y-117585357D01*
X145985476Y-117680595D01*
X146033095Y-117775833D01*
%TO.C,C710*%
X152705952Y-116387142D02*
X152658333Y-116434761D01*
X152515476Y-116482380D01*
X152420238Y-116482380D01*
X152277380Y-116434761D01*
X152182142Y-116339523D01*
X152134523Y-116244285D01*
X152086904Y-116053809D01*
X152086904Y-115910952D01*
X152134523Y-115720476D01*
X152182142Y-115625238D01*
X152277380Y-115530000D01*
X152420238Y-115482380D01*
X152515476Y-115482380D01*
X152658333Y-115530000D01*
X152705952Y-115577619D01*
X153039285Y-115482380D02*
X153705952Y-115482380D01*
X153277380Y-116482380D01*
X154610714Y-116482380D02*
X154039285Y-116482380D01*
X154325000Y-116482380D02*
X154325000Y-115482380D01*
X154229761Y-115625238D01*
X154134523Y-115720476D01*
X154039285Y-115768095D01*
X155229761Y-115482380D02*
X155325000Y-115482380D01*
X155420238Y-115530000D01*
X155467857Y-115577619D01*
X155515476Y-115672857D01*
X155563095Y-115863333D01*
X155563095Y-116101428D01*
X155515476Y-116291904D01*
X155467857Y-116387142D01*
X155420238Y-116434761D01*
X155325000Y-116482380D01*
X155229761Y-116482380D01*
X155134523Y-116434761D01*
X155086904Y-116387142D01*
X155039285Y-116291904D01*
X154991666Y-116101428D01*
X154991666Y-115863333D01*
X155039285Y-115672857D01*
X155086904Y-115577619D01*
X155134523Y-115530000D01*
X155229761Y-115482380D01*
%TO.C,R501*%
X101420952Y-85672380D02*
X101087619Y-85196190D01*
X100849523Y-85672380D02*
X100849523Y-84672380D01*
X101230476Y-84672380D01*
X101325714Y-84720000D01*
X101373333Y-84767619D01*
X101420952Y-84862857D01*
X101420952Y-85005714D01*
X101373333Y-85100952D01*
X101325714Y-85148571D01*
X101230476Y-85196190D01*
X100849523Y-85196190D01*
X102325714Y-84672380D02*
X101849523Y-84672380D01*
X101801904Y-85148571D01*
X101849523Y-85100952D01*
X101944761Y-85053333D01*
X102182857Y-85053333D01*
X102278095Y-85100952D01*
X102325714Y-85148571D01*
X102373333Y-85243809D01*
X102373333Y-85481904D01*
X102325714Y-85577142D01*
X102278095Y-85624761D01*
X102182857Y-85672380D01*
X101944761Y-85672380D01*
X101849523Y-85624761D01*
X101801904Y-85577142D01*
X102992380Y-84672380D02*
X103087619Y-84672380D01*
X103182857Y-84720000D01*
X103230476Y-84767619D01*
X103278095Y-84862857D01*
X103325714Y-85053333D01*
X103325714Y-85291428D01*
X103278095Y-85481904D01*
X103230476Y-85577142D01*
X103182857Y-85624761D01*
X103087619Y-85672380D01*
X102992380Y-85672380D01*
X102897142Y-85624761D01*
X102849523Y-85577142D01*
X102801904Y-85481904D01*
X102754285Y-85291428D01*
X102754285Y-85053333D01*
X102801904Y-84862857D01*
X102849523Y-84767619D01*
X102897142Y-84720000D01*
X102992380Y-84672380D01*
X104278095Y-85672380D02*
X103706666Y-85672380D01*
X103992380Y-85672380D02*
X103992380Y-84672380D01*
X103897142Y-84815238D01*
X103801904Y-84910476D01*
X103706666Y-84958095D01*
%TO.C,L501*%
D19*
X111444761Y-81331904D02*
X111063809Y-81331904D01*
X111063809Y-80531904D01*
X112092380Y-80531904D02*
X111711428Y-80531904D01*
X111673333Y-80912857D01*
X111711428Y-80874761D01*
X111787619Y-80836666D01*
X111978095Y-80836666D01*
X112054285Y-80874761D01*
X112092380Y-80912857D01*
X112130476Y-80989047D01*
X112130476Y-81179523D01*
X112092380Y-81255714D01*
X112054285Y-81293809D01*
X111978095Y-81331904D01*
X111787619Y-81331904D01*
X111711428Y-81293809D01*
X111673333Y-81255714D01*
X112625714Y-80531904D02*
X112701904Y-80531904D01*
X112778095Y-80570000D01*
X112816190Y-80608095D01*
X112854285Y-80684285D01*
X112892380Y-80836666D01*
X112892380Y-81027142D01*
X112854285Y-81179523D01*
X112816190Y-81255714D01*
X112778095Y-81293809D01*
X112701904Y-81331904D01*
X112625714Y-81331904D01*
X112549523Y-81293809D01*
X112511428Y-81255714D01*
X112473333Y-81179523D01*
X112435238Y-81027142D01*
X112435238Y-80836666D01*
X112473333Y-80684285D01*
X112511428Y-80608095D01*
X112549523Y-80570000D01*
X112625714Y-80531904D01*
X113654285Y-81331904D02*
X113197142Y-81331904D01*
X113425714Y-81331904D02*
X113425714Y-80531904D01*
X113349523Y-80646190D01*
X113273333Y-80722380D01*
X113197142Y-80760476D01*
%TO.C,C505*%
D17*
X112520952Y-87657142D02*
X112473333Y-87704761D01*
X112330476Y-87752380D01*
X112235238Y-87752380D01*
X112092380Y-87704761D01*
X111997142Y-87609523D01*
X111949523Y-87514285D01*
X111901904Y-87323809D01*
X111901904Y-87180952D01*
X111949523Y-86990476D01*
X111997142Y-86895238D01*
X112092380Y-86800000D01*
X112235238Y-86752380D01*
X112330476Y-86752380D01*
X112473333Y-86800000D01*
X112520952Y-86847619D01*
X113425714Y-86752380D02*
X112949523Y-86752380D01*
X112901904Y-87228571D01*
X112949523Y-87180952D01*
X113044761Y-87133333D01*
X113282857Y-87133333D01*
X113378095Y-87180952D01*
X113425714Y-87228571D01*
X113473333Y-87323809D01*
X113473333Y-87561904D01*
X113425714Y-87657142D01*
X113378095Y-87704761D01*
X113282857Y-87752380D01*
X113044761Y-87752380D01*
X112949523Y-87704761D01*
X112901904Y-87657142D01*
X114092380Y-86752380D02*
X114187619Y-86752380D01*
X114282857Y-86800000D01*
X114330476Y-86847619D01*
X114378095Y-86942857D01*
X114425714Y-87133333D01*
X114425714Y-87371428D01*
X114378095Y-87561904D01*
X114330476Y-87657142D01*
X114282857Y-87704761D01*
X114187619Y-87752380D01*
X114092380Y-87752380D01*
X113997142Y-87704761D01*
X113949523Y-87657142D01*
X113901904Y-87561904D01*
X113854285Y-87371428D01*
X113854285Y-87133333D01*
X113901904Y-86942857D01*
X113949523Y-86847619D01*
X113997142Y-86800000D01*
X114092380Y-86752380D01*
X115330476Y-86752380D02*
X114854285Y-86752380D01*
X114806666Y-87228571D01*
X114854285Y-87180952D01*
X114949523Y-87133333D01*
X115187619Y-87133333D01*
X115282857Y-87180952D01*
X115330476Y-87228571D01*
X115378095Y-87323809D01*
X115378095Y-87561904D01*
X115330476Y-87657142D01*
X115282857Y-87704761D01*
X115187619Y-87752380D01*
X114949523Y-87752380D01*
X114854285Y-87704761D01*
X114806666Y-87657142D01*
%TO.C,C504*%
X108890952Y-91237142D02*
X108843333Y-91284761D01*
X108700476Y-91332380D01*
X108605238Y-91332380D01*
X108462380Y-91284761D01*
X108367142Y-91189523D01*
X108319523Y-91094285D01*
X108271904Y-90903809D01*
X108271904Y-90760952D01*
X108319523Y-90570476D01*
X108367142Y-90475238D01*
X108462380Y-90380000D01*
X108605238Y-90332380D01*
X108700476Y-90332380D01*
X108843333Y-90380000D01*
X108890952Y-90427619D01*
X109795714Y-90332380D02*
X109319523Y-90332380D01*
X109271904Y-90808571D01*
X109319523Y-90760952D01*
X109414761Y-90713333D01*
X109652857Y-90713333D01*
X109748095Y-90760952D01*
X109795714Y-90808571D01*
X109843333Y-90903809D01*
X109843333Y-91141904D01*
X109795714Y-91237142D01*
X109748095Y-91284761D01*
X109652857Y-91332380D01*
X109414761Y-91332380D01*
X109319523Y-91284761D01*
X109271904Y-91237142D01*
X110462380Y-90332380D02*
X110557619Y-90332380D01*
X110652857Y-90380000D01*
X110700476Y-90427619D01*
X110748095Y-90522857D01*
X110795714Y-90713333D01*
X110795714Y-90951428D01*
X110748095Y-91141904D01*
X110700476Y-91237142D01*
X110652857Y-91284761D01*
X110557619Y-91332380D01*
X110462380Y-91332380D01*
X110367142Y-91284761D01*
X110319523Y-91237142D01*
X110271904Y-91141904D01*
X110224285Y-90951428D01*
X110224285Y-90713333D01*
X110271904Y-90522857D01*
X110319523Y-90427619D01*
X110367142Y-90380000D01*
X110462380Y-90332380D01*
X111652857Y-90665714D02*
X111652857Y-91332380D01*
X111414761Y-90284761D02*
X111176666Y-90999047D01*
X111795714Y-90999047D01*
%TO.C,C503*%
X101180952Y-81167142D02*
X101133333Y-81214761D01*
X100990476Y-81262380D01*
X100895238Y-81262380D01*
X100752380Y-81214761D01*
X100657142Y-81119523D01*
X100609523Y-81024285D01*
X100561904Y-80833809D01*
X100561904Y-80690952D01*
X100609523Y-80500476D01*
X100657142Y-80405238D01*
X100752380Y-80310000D01*
X100895238Y-80262380D01*
X100990476Y-80262380D01*
X101133333Y-80310000D01*
X101180952Y-80357619D01*
X102085714Y-80262380D02*
X101609523Y-80262380D01*
X101561904Y-80738571D01*
X101609523Y-80690952D01*
X101704761Y-80643333D01*
X101942857Y-80643333D01*
X102038095Y-80690952D01*
X102085714Y-80738571D01*
X102133333Y-80833809D01*
X102133333Y-81071904D01*
X102085714Y-81167142D01*
X102038095Y-81214761D01*
X101942857Y-81262380D01*
X101704761Y-81262380D01*
X101609523Y-81214761D01*
X101561904Y-81167142D01*
X102752380Y-80262380D02*
X102847619Y-80262380D01*
X102942857Y-80310000D01*
X102990476Y-80357619D01*
X103038095Y-80452857D01*
X103085714Y-80643333D01*
X103085714Y-80881428D01*
X103038095Y-81071904D01*
X102990476Y-81167142D01*
X102942857Y-81214761D01*
X102847619Y-81262380D01*
X102752380Y-81262380D01*
X102657142Y-81214761D01*
X102609523Y-81167142D01*
X102561904Y-81071904D01*
X102514285Y-80881428D01*
X102514285Y-80643333D01*
X102561904Y-80452857D01*
X102609523Y-80357619D01*
X102657142Y-80310000D01*
X102752380Y-80262380D01*
X103419047Y-80262380D02*
X104038095Y-80262380D01*
X103704761Y-80643333D01*
X103847619Y-80643333D01*
X103942857Y-80690952D01*
X103990476Y-80738571D01*
X104038095Y-80833809D01*
X104038095Y-81071904D01*
X103990476Y-81167142D01*
X103942857Y-81214761D01*
X103847619Y-81262380D01*
X103561904Y-81262380D01*
X103466666Y-81214761D01*
X103419047Y-81167142D01*
%TO.C,C501*%
X104300952Y-89197142D02*
X104253333Y-89244761D01*
X104110476Y-89292380D01*
X104015238Y-89292380D01*
X103872380Y-89244761D01*
X103777142Y-89149523D01*
X103729523Y-89054285D01*
X103681904Y-88863809D01*
X103681904Y-88720952D01*
X103729523Y-88530476D01*
X103777142Y-88435238D01*
X103872380Y-88340000D01*
X104015238Y-88292380D01*
X104110476Y-88292380D01*
X104253333Y-88340000D01*
X104300952Y-88387619D01*
X105205714Y-88292380D02*
X104729523Y-88292380D01*
X104681904Y-88768571D01*
X104729523Y-88720952D01*
X104824761Y-88673333D01*
X105062857Y-88673333D01*
X105158095Y-88720952D01*
X105205714Y-88768571D01*
X105253333Y-88863809D01*
X105253333Y-89101904D01*
X105205714Y-89197142D01*
X105158095Y-89244761D01*
X105062857Y-89292380D01*
X104824761Y-89292380D01*
X104729523Y-89244761D01*
X104681904Y-89197142D01*
X105872380Y-88292380D02*
X105967619Y-88292380D01*
X106062857Y-88340000D01*
X106110476Y-88387619D01*
X106158095Y-88482857D01*
X106205714Y-88673333D01*
X106205714Y-88911428D01*
X106158095Y-89101904D01*
X106110476Y-89197142D01*
X106062857Y-89244761D01*
X105967619Y-89292380D01*
X105872380Y-89292380D01*
X105777142Y-89244761D01*
X105729523Y-89197142D01*
X105681904Y-89101904D01*
X105634285Y-88911428D01*
X105634285Y-88673333D01*
X105681904Y-88482857D01*
X105729523Y-88387619D01*
X105777142Y-88340000D01*
X105872380Y-88292380D01*
X107158095Y-89292380D02*
X106586666Y-89292380D01*
X106872380Y-89292380D02*
X106872380Y-88292380D01*
X106777142Y-88435238D01*
X106681904Y-88530476D01*
X106586666Y-88578095D01*
%TO.C,L401*%
D19*
X104784761Y-91609904D02*
X104403809Y-91609904D01*
X104403809Y-90809904D01*
X105394285Y-91076571D02*
X105394285Y-91609904D01*
X105203809Y-90771809D02*
X105013333Y-91343238D01*
X105508571Y-91343238D01*
X105965714Y-90809904D02*
X106041904Y-90809904D01*
X106118095Y-90848000D01*
X106156190Y-90886095D01*
X106194285Y-90962285D01*
X106232380Y-91114666D01*
X106232380Y-91305142D01*
X106194285Y-91457523D01*
X106156190Y-91533714D01*
X106118095Y-91571809D01*
X106041904Y-91609904D01*
X105965714Y-91609904D01*
X105889523Y-91571809D01*
X105851428Y-91533714D01*
X105813333Y-91457523D01*
X105775238Y-91305142D01*
X105775238Y-91114666D01*
X105813333Y-90962285D01*
X105851428Y-90886095D01*
X105889523Y-90848000D01*
X105965714Y-90809904D01*
X106994285Y-91609904D02*
X106537142Y-91609904D01*
X106765714Y-91609904D02*
X106765714Y-90809904D01*
X106689523Y-90924190D01*
X106613333Y-91000380D01*
X106537142Y-91038476D01*
%TO.C,C404*%
D17*
X110481142Y-97461047D02*
X110528761Y-97508666D01*
X110576380Y-97651523D01*
X110576380Y-97746761D01*
X110528761Y-97889619D01*
X110433523Y-97984857D01*
X110338285Y-98032476D01*
X110147809Y-98080095D01*
X110004952Y-98080095D01*
X109814476Y-98032476D01*
X109719238Y-97984857D01*
X109624000Y-97889619D01*
X109576380Y-97746761D01*
X109576380Y-97651523D01*
X109624000Y-97508666D01*
X109671619Y-97461047D01*
X109909714Y-96603904D02*
X110576380Y-96603904D01*
X109528761Y-96842000D02*
X110243047Y-97080095D01*
X110243047Y-96461047D01*
X109576380Y-95889619D02*
X109576380Y-95794380D01*
X109624000Y-95699142D01*
X109671619Y-95651523D01*
X109766857Y-95603904D01*
X109957333Y-95556285D01*
X110195428Y-95556285D01*
X110385904Y-95603904D01*
X110481142Y-95651523D01*
X110528761Y-95699142D01*
X110576380Y-95794380D01*
X110576380Y-95889619D01*
X110528761Y-95984857D01*
X110481142Y-96032476D01*
X110385904Y-96080095D01*
X110195428Y-96127714D01*
X109957333Y-96127714D01*
X109766857Y-96080095D01*
X109671619Y-96032476D01*
X109624000Y-95984857D01*
X109576380Y-95889619D01*
X109909714Y-94699142D02*
X110576380Y-94699142D01*
X109528761Y-94937238D02*
X110243047Y-95175333D01*
X110243047Y-94556285D01*
%TO.C,C401*%
X101593142Y-98731047D02*
X101640761Y-98778666D01*
X101688380Y-98921523D01*
X101688380Y-99016761D01*
X101640761Y-99159619D01*
X101545523Y-99254857D01*
X101450285Y-99302476D01*
X101259809Y-99350095D01*
X101116952Y-99350095D01*
X100926476Y-99302476D01*
X100831238Y-99254857D01*
X100736000Y-99159619D01*
X100688380Y-99016761D01*
X100688380Y-98921523D01*
X100736000Y-98778666D01*
X100783619Y-98731047D01*
X101021714Y-97873904D02*
X101688380Y-97873904D01*
X100640761Y-98112000D02*
X101355047Y-98350095D01*
X101355047Y-97731047D01*
X100688380Y-97159619D02*
X100688380Y-97064380D01*
X100736000Y-96969142D01*
X100783619Y-96921523D01*
X100878857Y-96873904D01*
X101069333Y-96826285D01*
X101307428Y-96826285D01*
X101497904Y-96873904D01*
X101593142Y-96921523D01*
X101640761Y-96969142D01*
X101688380Y-97064380D01*
X101688380Y-97159619D01*
X101640761Y-97254857D01*
X101593142Y-97302476D01*
X101497904Y-97350095D01*
X101307428Y-97397714D01*
X101069333Y-97397714D01*
X100878857Y-97350095D01*
X100783619Y-97302476D01*
X100736000Y-97254857D01*
X100688380Y-97159619D01*
X101688380Y-95873904D02*
X101688380Y-96445333D01*
X101688380Y-96159619D02*
X100688380Y-96159619D01*
X100831238Y-96254857D01*
X100926476Y-96350095D01*
X100974095Y-96445333D01*
%TO.C,L301*%
X102030952Y-138202380D02*
X101554761Y-138202380D01*
X101554761Y-137202380D01*
X102269047Y-137202380D02*
X102888095Y-137202380D01*
X102554761Y-137583333D01*
X102697619Y-137583333D01*
X102792857Y-137630952D01*
X102840476Y-137678571D01*
X102888095Y-137773809D01*
X102888095Y-138011904D01*
X102840476Y-138107142D01*
X102792857Y-138154761D01*
X102697619Y-138202380D01*
X102411904Y-138202380D01*
X102316666Y-138154761D01*
X102269047Y-138107142D01*
X103507142Y-137202380D02*
X103602380Y-137202380D01*
X103697619Y-137250000D01*
X103745238Y-137297619D01*
X103792857Y-137392857D01*
X103840476Y-137583333D01*
X103840476Y-137821428D01*
X103792857Y-138011904D01*
X103745238Y-138107142D01*
X103697619Y-138154761D01*
X103602380Y-138202380D01*
X103507142Y-138202380D01*
X103411904Y-138154761D01*
X103364285Y-138107142D01*
X103316666Y-138011904D01*
X103269047Y-137821428D01*
X103269047Y-137583333D01*
X103316666Y-137392857D01*
X103364285Y-137297619D01*
X103411904Y-137250000D01*
X103507142Y-137202380D01*
X104792857Y-138202380D02*
X104221428Y-138202380D01*
X104507142Y-138202380D02*
X104507142Y-137202380D01*
X104411904Y-137345238D01*
X104316666Y-137440476D01*
X104221428Y-137488095D01*
%TO.C,J1004*%
X153788095Y-94502380D02*
X153788095Y-95216666D01*
X153740476Y-95359523D01*
X153645238Y-95454761D01*
X153502380Y-95502380D01*
X153407142Y-95502380D01*
X154788095Y-95502380D02*
X154216666Y-95502380D01*
X154502380Y-95502380D02*
X154502380Y-94502380D01*
X154407142Y-94645238D01*
X154311904Y-94740476D01*
X154216666Y-94788095D01*
X155407142Y-94502380D02*
X155502380Y-94502380D01*
X155597619Y-94550000D01*
X155645238Y-94597619D01*
X155692857Y-94692857D01*
X155740476Y-94883333D01*
X155740476Y-95121428D01*
X155692857Y-95311904D01*
X155645238Y-95407142D01*
X155597619Y-95454761D01*
X155502380Y-95502380D01*
X155407142Y-95502380D01*
X155311904Y-95454761D01*
X155264285Y-95407142D01*
X155216666Y-95311904D01*
X155169047Y-95121428D01*
X155169047Y-94883333D01*
X155216666Y-94692857D01*
X155264285Y-94597619D01*
X155311904Y-94550000D01*
X155407142Y-94502380D01*
X156359523Y-94502380D02*
X156454761Y-94502380D01*
X156550000Y-94550000D01*
X156597619Y-94597619D01*
X156645238Y-94692857D01*
X156692857Y-94883333D01*
X156692857Y-95121428D01*
X156645238Y-95311904D01*
X156597619Y-95407142D01*
X156550000Y-95454761D01*
X156454761Y-95502380D01*
X156359523Y-95502380D01*
X156264285Y-95454761D01*
X156216666Y-95407142D01*
X156169047Y-95311904D01*
X156121428Y-95121428D01*
X156121428Y-94883333D01*
X156169047Y-94692857D01*
X156216666Y-94597619D01*
X156264285Y-94550000D01*
X156359523Y-94502380D01*
X157550000Y-94835714D02*
X157550000Y-95502380D01*
X157311904Y-94454761D02*
X157073809Y-95169047D01*
X157692857Y-95169047D01*
%TO.C,J1003*%
X143408095Y-40302380D02*
X143408095Y-41016666D01*
X143360476Y-41159523D01*
X143265238Y-41254761D01*
X143122380Y-41302380D01*
X143027142Y-41302380D01*
X144408095Y-41302380D02*
X143836666Y-41302380D01*
X144122380Y-41302380D02*
X144122380Y-40302380D01*
X144027142Y-40445238D01*
X143931904Y-40540476D01*
X143836666Y-40588095D01*
X145027142Y-40302380D02*
X145122380Y-40302380D01*
X145217619Y-40350000D01*
X145265238Y-40397619D01*
X145312857Y-40492857D01*
X145360476Y-40683333D01*
X145360476Y-40921428D01*
X145312857Y-41111904D01*
X145265238Y-41207142D01*
X145217619Y-41254761D01*
X145122380Y-41302380D01*
X145027142Y-41302380D01*
X144931904Y-41254761D01*
X144884285Y-41207142D01*
X144836666Y-41111904D01*
X144789047Y-40921428D01*
X144789047Y-40683333D01*
X144836666Y-40492857D01*
X144884285Y-40397619D01*
X144931904Y-40350000D01*
X145027142Y-40302380D01*
X145979523Y-40302380D02*
X146074761Y-40302380D01*
X146170000Y-40350000D01*
X146217619Y-40397619D01*
X146265238Y-40492857D01*
X146312857Y-40683333D01*
X146312857Y-40921428D01*
X146265238Y-41111904D01*
X146217619Y-41207142D01*
X146170000Y-41254761D01*
X146074761Y-41302380D01*
X145979523Y-41302380D01*
X145884285Y-41254761D01*
X145836666Y-41207142D01*
X145789047Y-41111904D01*
X145741428Y-40921428D01*
X145741428Y-40683333D01*
X145789047Y-40492857D01*
X145836666Y-40397619D01*
X145884285Y-40350000D01*
X145979523Y-40302380D01*
X146646190Y-40302380D02*
X147265238Y-40302380D01*
X146931904Y-40683333D01*
X147074761Y-40683333D01*
X147170000Y-40730952D01*
X147217619Y-40778571D01*
X147265238Y-40873809D01*
X147265238Y-41111904D01*
X147217619Y-41207142D01*
X147170000Y-41254761D01*
X147074761Y-41302380D01*
X146789047Y-41302380D01*
X146693809Y-41254761D01*
X146646190Y-41207142D01*
%TO.C,J1002*%
X101638095Y-120362380D02*
X101638095Y-121076666D01*
X101590476Y-121219523D01*
X101495238Y-121314761D01*
X101352380Y-121362380D01*
X101257142Y-121362380D01*
X102638095Y-121362380D02*
X102066666Y-121362380D01*
X102352380Y-121362380D02*
X102352380Y-120362380D01*
X102257142Y-120505238D01*
X102161904Y-120600476D01*
X102066666Y-120648095D01*
X103257142Y-120362380D02*
X103352380Y-120362380D01*
X103447619Y-120410000D01*
X103495238Y-120457619D01*
X103542857Y-120552857D01*
X103590476Y-120743333D01*
X103590476Y-120981428D01*
X103542857Y-121171904D01*
X103495238Y-121267142D01*
X103447619Y-121314761D01*
X103352380Y-121362380D01*
X103257142Y-121362380D01*
X103161904Y-121314761D01*
X103114285Y-121267142D01*
X103066666Y-121171904D01*
X103019047Y-120981428D01*
X103019047Y-120743333D01*
X103066666Y-120552857D01*
X103114285Y-120457619D01*
X103161904Y-120410000D01*
X103257142Y-120362380D01*
X104209523Y-120362380D02*
X104304761Y-120362380D01*
X104400000Y-120410000D01*
X104447619Y-120457619D01*
X104495238Y-120552857D01*
X104542857Y-120743333D01*
X104542857Y-120981428D01*
X104495238Y-121171904D01*
X104447619Y-121267142D01*
X104400000Y-121314761D01*
X104304761Y-121362380D01*
X104209523Y-121362380D01*
X104114285Y-121314761D01*
X104066666Y-121267142D01*
X104019047Y-121171904D01*
X103971428Y-120981428D01*
X103971428Y-120743333D01*
X104019047Y-120552857D01*
X104066666Y-120457619D01*
X104114285Y-120410000D01*
X104209523Y-120362380D01*
X104923809Y-120457619D02*
X104971428Y-120410000D01*
X105066666Y-120362380D01*
X105304761Y-120362380D01*
X105400000Y-120410000D01*
X105447619Y-120457619D01*
X105495238Y-120552857D01*
X105495238Y-120648095D01*
X105447619Y-120790952D01*
X104876190Y-121362380D01*
X105495238Y-121362380D01*
%TO.C,J1001*%
X113108095Y-40162380D02*
X113108095Y-40876666D01*
X113060476Y-41019523D01*
X112965238Y-41114761D01*
X112822380Y-41162380D01*
X112727142Y-41162380D01*
X114108095Y-41162380D02*
X113536666Y-41162380D01*
X113822380Y-41162380D02*
X113822380Y-40162380D01*
X113727142Y-40305238D01*
X113631904Y-40400476D01*
X113536666Y-40448095D01*
X114727142Y-40162380D02*
X114822380Y-40162380D01*
X114917619Y-40210000D01*
X114965238Y-40257619D01*
X115012857Y-40352857D01*
X115060476Y-40543333D01*
X115060476Y-40781428D01*
X115012857Y-40971904D01*
X114965238Y-41067142D01*
X114917619Y-41114761D01*
X114822380Y-41162380D01*
X114727142Y-41162380D01*
X114631904Y-41114761D01*
X114584285Y-41067142D01*
X114536666Y-40971904D01*
X114489047Y-40781428D01*
X114489047Y-40543333D01*
X114536666Y-40352857D01*
X114584285Y-40257619D01*
X114631904Y-40210000D01*
X114727142Y-40162380D01*
X115679523Y-40162380D02*
X115774761Y-40162380D01*
X115870000Y-40210000D01*
X115917619Y-40257619D01*
X115965238Y-40352857D01*
X116012857Y-40543333D01*
X116012857Y-40781428D01*
X115965238Y-40971904D01*
X115917619Y-41067142D01*
X115870000Y-41114761D01*
X115774761Y-41162380D01*
X115679523Y-41162380D01*
X115584285Y-41114761D01*
X115536666Y-41067142D01*
X115489047Y-40971904D01*
X115441428Y-40781428D01*
X115441428Y-40543333D01*
X115489047Y-40352857D01*
X115536666Y-40257619D01*
X115584285Y-40210000D01*
X115679523Y-40162380D01*
X116965238Y-41162380D02*
X116393809Y-41162380D01*
X116679523Y-41162380D02*
X116679523Y-40162380D01*
X116584285Y-40305238D01*
X116489047Y-40400476D01*
X116393809Y-40448095D01*
%TO.C,J601*%
X128744285Y-138682380D02*
X128744285Y-139396666D01*
X128696666Y-139539523D01*
X128601428Y-139634761D01*
X128458571Y-139682380D01*
X128363333Y-139682380D01*
X129649047Y-138682380D02*
X129458571Y-138682380D01*
X129363333Y-138730000D01*
X129315714Y-138777619D01*
X129220476Y-138920476D01*
X129172857Y-139110952D01*
X129172857Y-139491904D01*
X129220476Y-139587142D01*
X129268095Y-139634761D01*
X129363333Y-139682380D01*
X129553809Y-139682380D01*
X129649047Y-139634761D01*
X129696666Y-139587142D01*
X129744285Y-139491904D01*
X129744285Y-139253809D01*
X129696666Y-139158571D01*
X129649047Y-139110952D01*
X129553809Y-139063333D01*
X129363333Y-139063333D01*
X129268095Y-139110952D01*
X129220476Y-139158571D01*
X129172857Y-139253809D01*
X130363333Y-138682380D02*
X130458571Y-138682380D01*
X130553809Y-138730000D01*
X130601428Y-138777619D01*
X130649047Y-138872857D01*
X130696666Y-139063333D01*
X130696666Y-139301428D01*
X130649047Y-139491904D01*
X130601428Y-139587142D01*
X130553809Y-139634761D01*
X130458571Y-139682380D01*
X130363333Y-139682380D01*
X130268095Y-139634761D01*
X130220476Y-139587142D01*
X130172857Y-139491904D01*
X130125238Y-139301428D01*
X130125238Y-139063333D01*
X130172857Y-138872857D01*
X130220476Y-138777619D01*
X130268095Y-138730000D01*
X130363333Y-138682380D01*
X131649047Y-139682380D02*
X131077619Y-139682380D01*
X131363333Y-139682380D02*
X131363333Y-138682380D01*
X131268095Y-138825238D01*
X131172857Y-138920476D01*
X131077619Y-138968095D01*
%TO.C,J201*%
X114874285Y-135852380D02*
X114874285Y-136566666D01*
X114826666Y-136709523D01*
X114731428Y-136804761D01*
X114588571Y-136852380D01*
X114493333Y-136852380D01*
X115302857Y-135947619D02*
X115350476Y-135900000D01*
X115445714Y-135852380D01*
X115683809Y-135852380D01*
X115779047Y-135900000D01*
X115826666Y-135947619D01*
X115874285Y-136042857D01*
X115874285Y-136138095D01*
X115826666Y-136280952D01*
X115255238Y-136852380D01*
X115874285Y-136852380D01*
X116493333Y-135852380D02*
X116588571Y-135852380D01*
X116683809Y-135900000D01*
X116731428Y-135947619D01*
X116779047Y-136042857D01*
X116826666Y-136233333D01*
X116826666Y-136471428D01*
X116779047Y-136661904D01*
X116731428Y-136757142D01*
X116683809Y-136804761D01*
X116588571Y-136852380D01*
X116493333Y-136852380D01*
X116398095Y-136804761D01*
X116350476Y-136757142D01*
X116302857Y-136661904D01*
X116255238Y-136471428D01*
X116255238Y-136233333D01*
X116302857Y-136042857D01*
X116350476Y-135947619D01*
X116398095Y-135900000D01*
X116493333Y-135852380D01*
X117779047Y-136852380D02*
X117207619Y-136852380D01*
X117493333Y-136852380D02*
X117493333Y-135852380D01*
X117398095Y-135995238D01*
X117302857Y-136090476D01*
X117207619Y-136138095D01*
%TO.C,U602*%
X127755714Y-120652380D02*
X127755714Y-121461904D01*
X127803333Y-121557142D01*
X127850952Y-121604761D01*
X127946190Y-121652380D01*
X128136666Y-121652380D01*
X128231904Y-121604761D01*
X128279523Y-121557142D01*
X128327142Y-121461904D01*
X128327142Y-120652380D01*
X129231904Y-120652380D02*
X129041428Y-120652380D01*
X128946190Y-120700000D01*
X128898571Y-120747619D01*
X128803333Y-120890476D01*
X128755714Y-121080952D01*
X128755714Y-121461904D01*
X128803333Y-121557142D01*
X128850952Y-121604761D01*
X128946190Y-121652380D01*
X129136666Y-121652380D01*
X129231904Y-121604761D01*
X129279523Y-121557142D01*
X129327142Y-121461904D01*
X129327142Y-121223809D01*
X129279523Y-121128571D01*
X129231904Y-121080952D01*
X129136666Y-121033333D01*
X128946190Y-121033333D01*
X128850952Y-121080952D01*
X128803333Y-121128571D01*
X128755714Y-121223809D01*
X129946190Y-120652380D02*
X130041428Y-120652380D01*
X130136666Y-120700000D01*
X130184285Y-120747619D01*
X130231904Y-120842857D01*
X130279523Y-121033333D01*
X130279523Y-121271428D01*
X130231904Y-121461904D01*
X130184285Y-121557142D01*
X130136666Y-121604761D01*
X130041428Y-121652380D01*
X129946190Y-121652380D01*
X129850952Y-121604761D01*
X129803333Y-121557142D01*
X129755714Y-121461904D01*
X129708095Y-121271428D01*
X129708095Y-121033333D01*
X129755714Y-120842857D01*
X129803333Y-120747619D01*
X129850952Y-120700000D01*
X129946190Y-120652380D01*
X130660476Y-120747619D02*
X130708095Y-120700000D01*
X130803333Y-120652380D01*
X131041428Y-120652380D01*
X131136666Y-120700000D01*
X131184285Y-120747619D01*
X131231904Y-120842857D01*
X131231904Y-120938095D01*
X131184285Y-121080952D01*
X130612857Y-121652380D01*
X131231904Y-121652380D01*
%TO.C,U704*%
D19*
X117571904Y-90451428D02*
X118219523Y-90451428D01*
X118295714Y-90413333D01*
X118333809Y-90375238D01*
X118371904Y-90299047D01*
X118371904Y-90146666D01*
X118333809Y-90070476D01*
X118295714Y-90032380D01*
X118219523Y-89994285D01*
X117571904Y-89994285D01*
X117571904Y-89689523D02*
X117571904Y-89156190D01*
X118371904Y-89499047D01*
X117571904Y-88699047D02*
X117571904Y-88622857D01*
X117610000Y-88546666D01*
X117648095Y-88508571D01*
X117724285Y-88470476D01*
X117876666Y-88432380D01*
X118067142Y-88432380D01*
X118219523Y-88470476D01*
X118295714Y-88508571D01*
X118333809Y-88546666D01*
X118371904Y-88622857D01*
X118371904Y-88699047D01*
X118333809Y-88775238D01*
X118295714Y-88813333D01*
X118219523Y-88851428D01*
X118067142Y-88889523D01*
X117876666Y-88889523D01*
X117724285Y-88851428D01*
X117648095Y-88813333D01*
X117610000Y-88775238D01*
X117571904Y-88699047D01*
X117838571Y-87746666D02*
X118371904Y-87746666D01*
X117533809Y-87937142D02*
X118105238Y-88127619D01*
X118105238Y-87632380D01*
D17*
X115022373Y-89300300D02*
X115260469Y-89300300D01*
X115165231Y-89538395D02*
X115260469Y-89300300D01*
X115165231Y-89062204D01*
X115450945Y-89443157D02*
X115260469Y-89300300D01*
X115450945Y-89157442D01*
%TO.C,U703*%
D19*
X148153571Y-112366904D02*
X148153571Y-113014523D01*
X148191666Y-113090714D01*
X148229761Y-113128809D01*
X148305952Y-113166904D01*
X148458333Y-113166904D01*
X148534523Y-113128809D01*
X148572619Y-113090714D01*
X148610714Y-113014523D01*
X148610714Y-112366904D01*
X148915476Y-112366904D02*
X149448809Y-112366904D01*
X149105952Y-113166904D01*
X149905952Y-112366904D02*
X149982142Y-112366904D01*
X150058333Y-112405000D01*
X150096428Y-112443095D01*
X150134523Y-112519285D01*
X150172619Y-112671666D01*
X150172619Y-112862142D01*
X150134523Y-113014523D01*
X150096428Y-113090714D01*
X150058333Y-113128809D01*
X149982142Y-113166904D01*
X149905952Y-113166904D01*
X149829761Y-113128809D01*
X149791666Y-113090714D01*
X149753571Y-113014523D01*
X149715476Y-112862142D01*
X149715476Y-112671666D01*
X149753571Y-112519285D01*
X149791666Y-112443095D01*
X149829761Y-112405000D01*
X149905952Y-112366904D01*
X150439285Y-112366904D02*
X150934523Y-112366904D01*
X150667857Y-112671666D01*
X150782142Y-112671666D01*
X150858333Y-112709761D01*
X150896428Y-112747857D01*
X150934523Y-112824047D01*
X150934523Y-113014523D01*
X150896428Y-113090714D01*
X150858333Y-113128809D01*
X150782142Y-113166904D01*
X150553571Y-113166904D01*
X150477380Y-113128809D01*
X150439285Y-113090714D01*
%TO.C,J801*%
X123406428Y-40756904D02*
X123406428Y-41328333D01*
X123368333Y-41442619D01*
X123292142Y-41518809D01*
X123177857Y-41556904D01*
X123101666Y-41556904D01*
X123901666Y-41099761D02*
X123825476Y-41061666D01*
X123787380Y-41023571D01*
X123749285Y-40947380D01*
X123749285Y-40909285D01*
X123787380Y-40833095D01*
X123825476Y-40795000D01*
X123901666Y-40756904D01*
X124054047Y-40756904D01*
X124130238Y-40795000D01*
X124168333Y-40833095D01*
X124206428Y-40909285D01*
X124206428Y-40947380D01*
X124168333Y-41023571D01*
X124130238Y-41061666D01*
X124054047Y-41099761D01*
X123901666Y-41099761D01*
X123825476Y-41137857D01*
X123787380Y-41175952D01*
X123749285Y-41252142D01*
X123749285Y-41404523D01*
X123787380Y-41480714D01*
X123825476Y-41518809D01*
X123901666Y-41556904D01*
X124054047Y-41556904D01*
X124130238Y-41518809D01*
X124168333Y-41480714D01*
X124206428Y-41404523D01*
X124206428Y-41252142D01*
X124168333Y-41175952D01*
X124130238Y-41137857D01*
X124054047Y-41099761D01*
X124701666Y-40756904D02*
X124777857Y-40756904D01*
X124854047Y-40795000D01*
X124892142Y-40833095D01*
X124930238Y-40909285D01*
X124968333Y-41061666D01*
X124968333Y-41252142D01*
X124930238Y-41404523D01*
X124892142Y-41480714D01*
X124854047Y-41518809D01*
X124777857Y-41556904D01*
X124701666Y-41556904D01*
X124625476Y-41518809D01*
X124587380Y-41480714D01*
X124549285Y-41404523D01*
X124511190Y-41252142D01*
X124511190Y-41061666D01*
X124549285Y-40909285D01*
X124587380Y-40833095D01*
X124625476Y-40795000D01*
X124701666Y-40756904D01*
X125730238Y-41556904D02*
X125273095Y-41556904D01*
X125501666Y-41556904D02*
X125501666Y-40756904D01*
X125425476Y-40871190D01*
X125349285Y-40947380D01*
X125273095Y-40985476D01*
%TD*%
M02*
