%TF.GenerationSoftware,KiCad,Pcbnew,(5.1.6)-1*%
%TF.CreationDate,2020-12-21T13:22:22+01:00*%
%TF.ProjectId,PCB-Drone-With-FPGA,5043422d-4472-46f6-9e65-2d576974682d,rev?*%
%TF.SameCoordinates,Original*%
%TF.FileFunction,Paste,Bot*%
%TF.FilePolarity,Positive*%
%FSLAX46Y46*%
G04 Gerber Fmt 4.6, Leading zero omitted, Abs format (unit mm)*
G04 Created by KiCad (PCBNEW (5.1.6)-1) date 2020-12-21 13:22:22*
%MOMM*%
%LPD*%
G01*
G04 APERTURE LIST*
%ADD10R,1.925000X0.700000*%
%ADD11R,1.200000X1.800000*%
%ADD12R,0.600000X1.550000*%
%ADD13R,1.060000X0.650000*%
%ADD14R,1.600000X0.300000*%
%ADD15C,0.450000*%
%ADD16R,1.350000X4.200000*%
G04 APERTURE END LIST*
D10*
%TO.C,U603*%
X158587000Y-106695000D03*
X158587000Y-105425000D03*
X158587000Y-104155000D03*
X158587000Y-102885000D03*
X158587000Y-101615000D03*
X158587000Y-100345000D03*
X158587000Y-99075000D03*
X158587000Y-97805000D03*
X149163000Y-97805000D03*
X149163000Y-99075000D03*
X149163000Y-100345000D03*
X149163000Y-101615000D03*
X149163000Y-102885000D03*
X149163000Y-104155000D03*
X149163000Y-105425000D03*
X149163000Y-106695000D03*
%TD*%
%TO.C,R902*%
G36*
G01*
X141390000Y-133187500D02*
X141390000Y-133532500D01*
G75*
G02*
X141242500Y-133680000I-147500J0D01*
G01*
X140947500Y-133680000D01*
G75*
G02*
X140800000Y-133532500I0J147500D01*
G01*
X140800000Y-133187500D01*
G75*
G02*
X140947500Y-133040000I147500J0D01*
G01*
X141242500Y-133040000D01*
G75*
G02*
X141390000Y-133187500I0J-147500D01*
G01*
G37*
G36*
G01*
X142360000Y-133187500D02*
X142360000Y-133532500D01*
G75*
G02*
X142212500Y-133680000I-147500J0D01*
G01*
X141917500Y-133680000D01*
G75*
G02*
X141770000Y-133532500I0J147500D01*
G01*
X141770000Y-133187500D01*
G75*
G02*
X141917500Y-133040000I147500J0D01*
G01*
X142212500Y-133040000D01*
G75*
G02*
X142360000Y-133187500I0J-147500D01*
G01*
G37*
%TD*%
%TO.C,R901*%
G36*
G01*
X143312500Y-132735000D02*
X142967500Y-132735000D01*
G75*
G02*
X142820000Y-132587500I0J147500D01*
G01*
X142820000Y-132292500D01*
G75*
G02*
X142967500Y-132145000I147500J0D01*
G01*
X143312500Y-132145000D01*
G75*
G02*
X143460000Y-132292500I0J-147500D01*
G01*
X143460000Y-132587500D01*
G75*
G02*
X143312500Y-132735000I-147500J0D01*
G01*
G37*
G36*
G01*
X143312500Y-133705000D02*
X142967500Y-133705000D01*
G75*
G02*
X142820000Y-133557500I0J147500D01*
G01*
X142820000Y-133262500D01*
G75*
G02*
X142967500Y-133115000I147500J0D01*
G01*
X143312500Y-133115000D01*
G75*
G02*
X143460000Y-133262500I0J-147500D01*
G01*
X143460000Y-133557500D01*
G75*
G02*
X143312500Y-133705000I-147500J0D01*
G01*
G37*
%TD*%
D11*
%TO.C,J901*%
X140840000Y-138745000D03*
X152440000Y-138745000D03*
D12*
X142140000Y-134870000D03*
X143140000Y-134870000D03*
X144140000Y-134870000D03*
X145140000Y-134870000D03*
X146140000Y-134870000D03*
X147140000Y-134870000D03*
X148140000Y-134870000D03*
X149140000Y-134870000D03*
X150140000Y-134870000D03*
X151140000Y-134870000D03*
%TD*%
%TO.C,C1518*%
G36*
G01*
X118373729Y-79631506D02*
X117728494Y-78986271D01*
G75*
G02*
X117728494Y-78641557I172357J172357D01*
G01*
X118073209Y-78296842D01*
G75*
G02*
X118417923Y-78296842I172357J-172357D01*
G01*
X119063158Y-78942077D01*
G75*
G02*
X119063158Y-79286791I-172357J-172357D01*
G01*
X118718443Y-79631506D01*
G75*
G02*
X118373729Y-79631506I-172357J172357D01*
G01*
G37*
G36*
G01*
X117047903Y-80957332D02*
X116402668Y-80312097D01*
G75*
G02*
X116402668Y-79967383I172357J172357D01*
G01*
X116747383Y-79622668D01*
G75*
G02*
X117092097Y-79622668I172357J-172357D01*
G01*
X117737332Y-80267903D01*
G75*
G02*
X117737332Y-80612617I-172357J-172357D01*
G01*
X117392617Y-80957332D01*
G75*
G02*
X117047903Y-80957332I-172357J172357D01*
G01*
G37*
%TD*%
%TO.C,R605*%
G36*
G01*
X147565000Y-97999999D02*
X147565000Y-98900001D01*
G75*
G02*
X147315001Y-99150000I-249999J0D01*
G01*
X146664999Y-99150000D01*
G75*
G02*
X146415000Y-98900001I0J249999D01*
G01*
X146415000Y-97999999D01*
G75*
G02*
X146664999Y-97750000I249999J0D01*
G01*
X147315001Y-97750000D01*
G75*
G02*
X147565000Y-97999999I0J-249999D01*
G01*
G37*
G36*
G01*
X145515000Y-97999999D02*
X145515000Y-98900001D01*
G75*
G02*
X145265001Y-99150000I-249999J0D01*
G01*
X144614999Y-99150000D01*
G75*
G02*
X144365000Y-98900001I0J249999D01*
G01*
X144365000Y-97999999D01*
G75*
G02*
X144614999Y-97750000I249999J0D01*
G01*
X145265001Y-97750000D01*
G75*
G02*
X145515000Y-97999999I0J-249999D01*
G01*
G37*
%TD*%
D13*
%TO.C,U601*%
X118690000Y-129130000D03*
X118690000Y-130080000D03*
X118690000Y-128180000D03*
X116490000Y-128180000D03*
X116490000Y-129130000D03*
X116490000Y-130080000D03*
%TD*%
%TO.C,R604*%
G36*
G01*
X121439999Y-125980000D02*
X122340001Y-125980000D01*
G75*
G02*
X122590000Y-126229999I0J-249999D01*
G01*
X122590000Y-126880001D01*
G75*
G02*
X122340001Y-127130000I-249999J0D01*
G01*
X121439999Y-127130000D01*
G75*
G02*
X121190000Y-126880001I0J249999D01*
G01*
X121190000Y-126229999D01*
G75*
G02*
X121439999Y-125980000I249999J0D01*
G01*
G37*
G36*
G01*
X121439999Y-123930000D02*
X122340001Y-123930000D01*
G75*
G02*
X122590000Y-124179999I0J-249999D01*
G01*
X122590000Y-124830001D01*
G75*
G02*
X122340001Y-125080000I-249999J0D01*
G01*
X121439999Y-125080000D01*
G75*
G02*
X121190000Y-124830001I0J249999D01*
G01*
X121190000Y-124179999D01*
G75*
G02*
X121439999Y-123930000I249999J0D01*
G01*
G37*
%TD*%
%TO.C,R603*%
G36*
G01*
X117179999Y-125560000D02*
X118080001Y-125560000D01*
G75*
G02*
X118330000Y-125809999I0J-249999D01*
G01*
X118330000Y-126460001D01*
G75*
G02*
X118080001Y-126710000I-249999J0D01*
G01*
X117179999Y-126710000D01*
G75*
G02*
X116930000Y-126460001I0J249999D01*
G01*
X116930000Y-125809999D01*
G75*
G02*
X117179999Y-125560000I249999J0D01*
G01*
G37*
G36*
G01*
X117179999Y-123510000D02*
X118080001Y-123510000D01*
G75*
G02*
X118330000Y-123759999I0J-249999D01*
G01*
X118330000Y-124410001D01*
G75*
G02*
X118080001Y-124660000I-249999J0D01*
G01*
X117179999Y-124660000D01*
G75*
G02*
X116930000Y-124410001I0J249999D01*
G01*
X116930000Y-123759999D01*
G75*
G02*
X117179999Y-123510000I249999J0D01*
G01*
G37*
%TD*%
%TO.C,R602*%
G36*
G01*
X113899999Y-129580000D02*
X114800001Y-129580000D01*
G75*
G02*
X115050000Y-129829999I0J-249999D01*
G01*
X115050000Y-130480001D01*
G75*
G02*
X114800001Y-130730000I-249999J0D01*
G01*
X113899999Y-130730000D01*
G75*
G02*
X113650000Y-130480001I0J249999D01*
G01*
X113650000Y-129829999D01*
G75*
G02*
X113899999Y-129580000I249999J0D01*
G01*
G37*
G36*
G01*
X113899999Y-127530000D02*
X114800001Y-127530000D01*
G75*
G02*
X115050000Y-127779999I0J-249999D01*
G01*
X115050000Y-128430001D01*
G75*
G02*
X114800001Y-128680000I-249999J0D01*
G01*
X113899999Y-128680000D01*
G75*
G02*
X113650000Y-128430001I0J249999D01*
G01*
X113650000Y-127779999D01*
G75*
G02*
X113899999Y-127530000I249999J0D01*
G01*
G37*
%TD*%
%TO.C,R601*%
G36*
G01*
X119489999Y-125755000D02*
X120390001Y-125755000D01*
G75*
G02*
X120640000Y-126004999I0J-249999D01*
G01*
X120640000Y-126655001D01*
G75*
G02*
X120390001Y-126905000I-249999J0D01*
G01*
X119489999Y-126905000D01*
G75*
G02*
X119240000Y-126655001I0J249999D01*
G01*
X119240000Y-126004999D01*
G75*
G02*
X119489999Y-125755000I249999J0D01*
G01*
G37*
G36*
G01*
X119489999Y-123705000D02*
X120390001Y-123705000D01*
G75*
G02*
X120640000Y-123954999I0J-249999D01*
G01*
X120640000Y-124605001D01*
G75*
G02*
X120390001Y-124855000I-249999J0D01*
G01*
X119489999Y-124855000D01*
G75*
G02*
X119240000Y-124605001I0J249999D01*
G01*
X119240000Y-123954999D01*
G75*
G02*
X119489999Y-123705000I249999J0D01*
G01*
G37*
%TD*%
%TO.C,C603*%
G36*
G01*
X145989999Y-104865000D02*
X146890001Y-104865000D01*
G75*
G02*
X147140000Y-105114999I0J-249999D01*
G01*
X147140000Y-105765001D01*
G75*
G02*
X146890001Y-106015000I-249999J0D01*
G01*
X145989999Y-106015000D01*
G75*
G02*
X145740000Y-105765001I0J249999D01*
G01*
X145740000Y-105114999D01*
G75*
G02*
X145989999Y-104865000I249999J0D01*
G01*
G37*
G36*
G01*
X145989999Y-106915000D02*
X146890001Y-106915000D01*
G75*
G02*
X147140000Y-107164999I0J-249999D01*
G01*
X147140000Y-107815001D01*
G75*
G02*
X146890001Y-108065000I-249999J0D01*
G01*
X145989999Y-108065000D01*
G75*
G02*
X145740000Y-107815001I0J249999D01*
G01*
X145740000Y-107164999D01*
G75*
G02*
X145989999Y-106915000I249999J0D01*
G01*
G37*
%TD*%
%TO.C,C601*%
G36*
G01*
X120079999Y-131625000D02*
X120980001Y-131625000D01*
G75*
G02*
X121230000Y-131874999I0J-249999D01*
G01*
X121230000Y-132525001D01*
G75*
G02*
X120980001Y-132775000I-249999J0D01*
G01*
X120079999Y-132775000D01*
G75*
G02*
X119830000Y-132525001I0J249999D01*
G01*
X119830000Y-131874999D01*
G75*
G02*
X120079999Y-131625000I249999J0D01*
G01*
G37*
G36*
G01*
X120079999Y-129575000D02*
X120980001Y-129575000D01*
G75*
G02*
X121230000Y-129824999I0J-249999D01*
G01*
X121230000Y-130475001D01*
G75*
G02*
X120980001Y-130725000I-249999J0D01*
G01*
X120079999Y-130725000D01*
G75*
G02*
X119830000Y-130475001I0J249999D01*
G01*
X119830000Y-129824999D01*
G75*
G02*
X120079999Y-129575000I249999J0D01*
G01*
G37*
%TD*%
%TO.C,R704*%
G36*
G01*
X119590000Y-115599999D02*
X119590000Y-116500001D01*
G75*
G02*
X119340001Y-116750000I-249999J0D01*
G01*
X118689999Y-116750000D01*
G75*
G02*
X118440000Y-116500001I0J249999D01*
G01*
X118440000Y-115599999D01*
G75*
G02*
X118689999Y-115350000I249999J0D01*
G01*
X119340001Y-115350000D01*
G75*
G02*
X119590000Y-115599999I0J-249999D01*
G01*
G37*
G36*
G01*
X121640000Y-115599999D02*
X121640000Y-116500001D01*
G75*
G02*
X121390001Y-116750000I-249999J0D01*
G01*
X120739999Y-116750000D01*
G75*
G02*
X120490000Y-116500001I0J249999D01*
G01*
X120490000Y-115599999D01*
G75*
G02*
X120739999Y-115350000I249999J0D01*
G01*
X121390001Y-115350000D01*
G75*
G02*
X121640000Y-115599999I0J-249999D01*
G01*
G37*
%TD*%
%TO.C,C718*%
G36*
G01*
X115755001Y-116505000D02*
X114854999Y-116505000D01*
G75*
G02*
X114605000Y-116255001I0J249999D01*
G01*
X114605000Y-115604999D01*
G75*
G02*
X114854999Y-115355000I249999J0D01*
G01*
X115755001Y-115355000D01*
G75*
G02*
X116005000Y-115604999I0J-249999D01*
G01*
X116005000Y-116255001D01*
G75*
G02*
X115755001Y-116505000I-249999J0D01*
G01*
G37*
G36*
G01*
X115755001Y-118555000D02*
X114854999Y-118555000D01*
G75*
G02*
X114605000Y-118305001I0J249999D01*
G01*
X114605000Y-117654999D01*
G75*
G02*
X114854999Y-117405000I249999J0D01*
G01*
X115755001Y-117405000D01*
G75*
G02*
X116005000Y-117654999I0J-249999D01*
G01*
X116005000Y-118305001D01*
G75*
G02*
X115755001Y-118555000I-249999J0D01*
G01*
G37*
%TD*%
%TO.C,C717*%
G36*
G01*
X117655001Y-116505000D02*
X116754999Y-116505000D01*
G75*
G02*
X116505000Y-116255001I0J249999D01*
G01*
X116505000Y-115604999D01*
G75*
G02*
X116754999Y-115355000I249999J0D01*
G01*
X117655001Y-115355000D01*
G75*
G02*
X117905000Y-115604999I0J-249999D01*
G01*
X117905000Y-116255001D01*
G75*
G02*
X117655001Y-116505000I-249999J0D01*
G01*
G37*
G36*
G01*
X117655001Y-118555000D02*
X116754999Y-118555000D01*
G75*
G02*
X116505000Y-118305001I0J249999D01*
G01*
X116505000Y-117654999D01*
G75*
G02*
X116754999Y-117405000I249999J0D01*
G01*
X117655001Y-117405000D01*
G75*
G02*
X117905000Y-117654999I0J-249999D01*
G01*
X117905000Y-118305001D01*
G75*
G02*
X117655001Y-118555000I-249999J0D01*
G01*
G37*
%TD*%
%TO.C,C715*%
G36*
G01*
X114854999Y-121130000D02*
X115755001Y-121130000D01*
G75*
G02*
X116005000Y-121379999I0J-249999D01*
G01*
X116005000Y-122030001D01*
G75*
G02*
X115755001Y-122280000I-249999J0D01*
G01*
X114854999Y-122280000D01*
G75*
G02*
X114605000Y-122030001I0J249999D01*
G01*
X114605000Y-121379999D01*
G75*
G02*
X114854999Y-121130000I249999J0D01*
G01*
G37*
G36*
G01*
X114854999Y-119080000D02*
X115755001Y-119080000D01*
G75*
G02*
X116005000Y-119329999I0J-249999D01*
G01*
X116005000Y-119980001D01*
G75*
G02*
X115755001Y-120230000I-249999J0D01*
G01*
X114854999Y-120230000D01*
G75*
G02*
X114605000Y-119980001I0J249999D01*
G01*
X114605000Y-119329999D01*
G75*
G02*
X114854999Y-119080000I249999J0D01*
G01*
G37*
%TD*%
%TO.C,C714*%
G36*
G01*
X116754999Y-121130000D02*
X117655001Y-121130000D01*
G75*
G02*
X117905000Y-121379999I0J-249999D01*
G01*
X117905000Y-122030001D01*
G75*
G02*
X117655001Y-122280000I-249999J0D01*
G01*
X116754999Y-122280000D01*
G75*
G02*
X116505000Y-122030001I0J249999D01*
G01*
X116505000Y-121379999D01*
G75*
G02*
X116754999Y-121130000I249999J0D01*
G01*
G37*
G36*
G01*
X116754999Y-119080000D02*
X117655001Y-119080000D01*
G75*
G02*
X117905000Y-119329999I0J-249999D01*
G01*
X117905000Y-119980001D01*
G75*
G02*
X117655001Y-120230000I-249999J0D01*
G01*
X116754999Y-120230000D01*
G75*
G02*
X116505000Y-119980001I0J249999D01*
G01*
X116505000Y-119329999D01*
G75*
G02*
X116754999Y-119080000I249999J0D01*
G01*
G37*
%TD*%
%TO.C,C707*%
G36*
G01*
X117625001Y-106559999D02*
X117625001Y-107460001D01*
G75*
G02*
X117375002Y-107710000I-249999J0D01*
G01*
X116725000Y-107710000D01*
G75*
G02*
X116475001Y-107460001I0J249999D01*
G01*
X116475001Y-106559999D01*
G75*
G02*
X116725000Y-106310000I249999J0D01*
G01*
X117375002Y-106310000D01*
G75*
G02*
X117625001Y-106559999I0J-249999D01*
G01*
G37*
G36*
G01*
X119675001Y-106559999D02*
X119675001Y-107460001D01*
G75*
G02*
X119425002Y-107710000I-249999J0D01*
G01*
X118775000Y-107710000D01*
G75*
G02*
X118525001Y-107460001I0J249999D01*
G01*
X118525001Y-106559999D01*
G75*
G02*
X118775000Y-106310000I249999J0D01*
G01*
X119425002Y-106310000D01*
G75*
G02*
X119675001Y-106559999I0J-249999D01*
G01*
G37*
%TD*%
%TO.C,C706*%
G36*
G01*
X122520000Y-107500001D02*
X122520000Y-106599999D01*
G75*
G02*
X122769999Y-106350000I249999J0D01*
G01*
X123420001Y-106350000D01*
G75*
G02*
X123670000Y-106599999I0J-249999D01*
G01*
X123670000Y-107500001D01*
G75*
G02*
X123420001Y-107750000I-249999J0D01*
G01*
X122769999Y-107750000D01*
G75*
G02*
X122520000Y-107500001I0J249999D01*
G01*
G37*
G36*
G01*
X120470000Y-107500001D02*
X120470000Y-106599999D01*
G75*
G02*
X120719999Y-106350000I249999J0D01*
G01*
X121370001Y-106350000D01*
G75*
G02*
X121620000Y-106599999I0J-249999D01*
G01*
X121620000Y-107500001D01*
G75*
G02*
X121370001Y-107750000I-249999J0D01*
G01*
X120719999Y-107750000D01*
G75*
G02*
X120470000Y-107500001I0J249999D01*
G01*
G37*
%TD*%
D14*
%TO.C,U702*%
X117270000Y-108585000D03*
X117270000Y-109235000D03*
X117270000Y-109885000D03*
X117270000Y-110535000D03*
X117270000Y-111185000D03*
X117270000Y-111835000D03*
X117270000Y-112485000D03*
X117270000Y-113135000D03*
X117270000Y-113785000D03*
X117270000Y-114435000D03*
X122870000Y-114435000D03*
X122870000Y-113785000D03*
X122870000Y-113135000D03*
X122870000Y-112485000D03*
X122870000Y-111835000D03*
X122870000Y-111185000D03*
X122870000Y-110535000D03*
X122870000Y-109885000D03*
X122870000Y-109235000D03*
X122870000Y-108585000D03*
%TD*%
%TO.C,U705*%
G36*
G01*
X112105000Y-119575000D02*
X112105000Y-119275000D01*
G75*
G02*
X112255000Y-119125000I150000J0D01*
G01*
X113905000Y-119125000D01*
G75*
G02*
X114055000Y-119275000I0J-150000D01*
G01*
X114055000Y-119575000D01*
G75*
G02*
X113905000Y-119725000I-150000J0D01*
G01*
X112255000Y-119725000D01*
G75*
G02*
X112105000Y-119575000I0J150000D01*
G01*
G37*
G36*
G01*
X112105000Y-118305000D02*
X112105000Y-118005000D01*
G75*
G02*
X112255000Y-117855000I150000J0D01*
G01*
X113905000Y-117855000D01*
G75*
G02*
X114055000Y-118005000I0J-150000D01*
G01*
X114055000Y-118305000D01*
G75*
G02*
X113905000Y-118455000I-150000J0D01*
G01*
X112255000Y-118455000D01*
G75*
G02*
X112105000Y-118305000I0J150000D01*
G01*
G37*
G36*
G01*
X112105000Y-117035000D02*
X112105000Y-116735000D01*
G75*
G02*
X112255000Y-116585000I150000J0D01*
G01*
X113905000Y-116585000D01*
G75*
G02*
X114055000Y-116735000I0J-150000D01*
G01*
X114055000Y-117035000D01*
G75*
G02*
X113905000Y-117185000I-150000J0D01*
G01*
X112255000Y-117185000D01*
G75*
G02*
X112105000Y-117035000I0J150000D01*
G01*
G37*
G36*
G01*
X112105000Y-115765000D02*
X112105000Y-115465000D01*
G75*
G02*
X112255000Y-115315000I150000J0D01*
G01*
X113905000Y-115315000D01*
G75*
G02*
X114055000Y-115465000I0J-150000D01*
G01*
X114055000Y-115765000D01*
G75*
G02*
X113905000Y-115915000I-150000J0D01*
G01*
X112255000Y-115915000D01*
G75*
G02*
X112105000Y-115765000I0J150000D01*
G01*
G37*
G36*
G01*
X112105000Y-114495000D02*
X112105000Y-114195000D01*
G75*
G02*
X112255000Y-114045000I150000J0D01*
G01*
X113905000Y-114045000D01*
G75*
G02*
X114055000Y-114195000I0J-150000D01*
G01*
X114055000Y-114495000D01*
G75*
G02*
X113905000Y-114645000I-150000J0D01*
G01*
X112255000Y-114645000D01*
G75*
G02*
X112105000Y-114495000I0J150000D01*
G01*
G37*
G36*
G01*
X112105000Y-113225000D02*
X112105000Y-112925000D01*
G75*
G02*
X112255000Y-112775000I150000J0D01*
G01*
X113905000Y-112775000D01*
G75*
G02*
X114055000Y-112925000I0J-150000D01*
G01*
X114055000Y-113225000D01*
G75*
G02*
X113905000Y-113375000I-150000J0D01*
G01*
X112255000Y-113375000D01*
G75*
G02*
X112105000Y-113225000I0J150000D01*
G01*
G37*
G36*
G01*
X112105000Y-111955000D02*
X112105000Y-111655000D01*
G75*
G02*
X112255000Y-111505000I150000J0D01*
G01*
X113905000Y-111505000D01*
G75*
G02*
X114055000Y-111655000I0J-150000D01*
G01*
X114055000Y-111955000D01*
G75*
G02*
X113905000Y-112105000I-150000J0D01*
G01*
X112255000Y-112105000D01*
G75*
G02*
X112105000Y-111955000I0J150000D01*
G01*
G37*
G36*
G01*
X112105000Y-110685000D02*
X112105000Y-110385000D01*
G75*
G02*
X112255000Y-110235000I150000J0D01*
G01*
X113905000Y-110235000D01*
G75*
G02*
X114055000Y-110385000I0J-150000D01*
G01*
X114055000Y-110685000D01*
G75*
G02*
X113905000Y-110835000I-150000J0D01*
G01*
X112255000Y-110835000D01*
G75*
G02*
X112105000Y-110685000I0J150000D01*
G01*
G37*
G36*
G01*
X107155000Y-110685000D02*
X107155000Y-110385000D01*
G75*
G02*
X107305000Y-110235000I150000J0D01*
G01*
X108955000Y-110235000D01*
G75*
G02*
X109105000Y-110385000I0J-150000D01*
G01*
X109105000Y-110685000D01*
G75*
G02*
X108955000Y-110835000I-150000J0D01*
G01*
X107305000Y-110835000D01*
G75*
G02*
X107155000Y-110685000I0J150000D01*
G01*
G37*
G36*
G01*
X107155000Y-111955000D02*
X107155000Y-111655000D01*
G75*
G02*
X107305000Y-111505000I150000J0D01*
G01*
X108955000Y-111505000D01*
G75*
G02*
X109105000Y-111655000I0J-150000D01*
G01*
X109105000Y-111955000D01*
G75*
G02*
X108955000Y-112105000I-150000J0D01*
G01*
X107305000Y-112105000D01*
G75*
G02*
X107155000Y-111955000I0J150000D01*
G01*
G37*
G36*
G01*
X107155000Y-113225000D02*
X107155000Y-112925000D01*
G75*
G02*
X107305000Y-112775000I150000J0D01*
G01*
X108955000Y-112775000D01*
G75*
G02*
X109105000Y-112925000I0J-150000D01*
G01*
X109105000Y-113225000D01*
G75*
G02*
X108955000Y-113375000I-150000J0D01*
G01*
X107305000Y-113375000D01*
G75*
G02*
X107155000Y-113225000I0J150000D01*
G01*
G37*
G36*
G01*
X107155000Y-114495000D02*
X107155000Y-114195000D01*
G75*
G02*
X107305000Y-114045000I150000J0D01*
G01*
X108955000Y-114045000D01*
G75*
G02*
X109105000Y-114195000I0J-150000D01*
G01*
X109105000Y-114495000D01*
G75*
G02*
X108955000Y-114645000I-150000J0D01*
G01*
X107305000Y-114645000D01*
G75*
G02*
X107155000Y-114495000I0J150000D01*
G01*
G37*
G36*
G01*
X107155000Y-115765000D02*
X107155000Y-115465000D01*
G75*
G02*
X107305000Y-115315000I150000J0D01*
G01*
X108955000Y-115315000D01*
G75*
G02*
X109105000Y-115465000I0J-150000D01*
G01*
X109105000Y-115765000D01*
G75*
G02*
X108955000Y-115915000I-150000J0D01*
G01*
X107305000Y-115915000D01*
G75*
G02*
X107155000Y-115765000I0J150000D01*
G01*
G37*
G36*
G01*
X107155000Y-117035000D02*
X107155000Y-116735000D01*
G75*
G02*
X107305000Y-116585000I150000J0D01*
G01*
X108955000Y-116585000D01*
G75*
G02*
X109105000Y-116735000I0J-150000D01*
G01*
X109105000Y-117035000D01*
G75*
G02*
X108955000Y-117185000I-150000J0D01*
G01*
X107305000Y-117185000D01*
G75*
G02*
X107155000Y-117035000I0J150000D01*
G01*
G37*
G36*
G01*
X107155000Y-118305000D02*
X107155000Y-118005000D01*
G75*
G02*
X107305000Y-117855000I150000J0D01*
G01*
X108955000Y-117855000D01*
G75*
G02*
X109105000Y-118005000I0J-150000D01*
G01*
X109105000Y-118305000D01*
G75*
G02*
X108955000Y-118455000I-150000J0D01*
G01*
X107305000Y-118455000D01*
G75*
G02*
X107155000Y-118305000I0J150000D01*
G01*
G37*
G36*
G01*
X107155000Y-119575000D02*
X107155000Y-119275000D01*
G75*
G02*
X107305000Y-119125000I150000J0D01*
G01*
X108955000Y-119125000D01*
G75*
G02*
X109105000Y-119275000I0J-150000D01*
G01*
X109105000Y-119575000D01*
G75*
G02*
X108955000Y-119725000I-150000J0D01*
G01*
X107305000Y-119725000D01*
G75*
G02*
X107155000Y-119575000I0J150000D01*
G01*
G37*
%TD*%
D15*
%TO.C,U1201*%
X115150758Y-87000000D03*
X115857864Y-87707107D03*
X116564971Y-88414214D03*
X117272078Y-89121320D03*
X117979185Y-89828427D03*
X118686292Y-90535534D03*
X119393398Y-91242641D03*
X120100505Y-91949747D03*
X120807612Y-92656854D03*
X121514719Y-93363961D03*
X122221825Y-94071068D03*
X122928932Y-94778175D03*
X123636039Y-95485281D03*
X124343146Y-96192388D03*
X125050253Y-96899495D03*
X125757359Y-97606602D03*
X126464466Y-98313708D03*
X127171573Y-99020815D03*
X127878680Y-99727922D03*
X128585786Y-100435029D03*
X129292893Y-101142136D03*
X130000000Y-101849242D03*
X115857864Y-86292893D03*
X116564971Y-87000000D03*
X117272078Y-87707107D03*
X117979185Y-88414214D03*
X118686292Y-89121320D03*
X119393398Y-89828427D03*
X120100505Y-90535534D03*
X120807612Y-91242641D03*
X121514719Y-91949747D03*
X122221825Y-92656854D03*
X122928932Y-93363961D03*
X123636039Y-94071068D03*
X124343146Y-94778175D03*
X125050253Y-95485281D03*
X125757359Y-96192388D03*
X126464466Y-96899495D03*
X127171573Y-97606602D03*
X127878680Y-98313708D03*
X128585786Y-99020815D03*
X129292893Y-99727922D03*
X130000000Y-100435029D03*
X130707107Y-101142136D03*
X116564971Y-85585786D03*
X117272078Y-86292893D03*
X117979185Y-87000000D03*
X118686292Y-87707107D03*
X119393398Y-88414214D03*
X120100505Y-89121320D03*
X120807612Y-89828427D03*
X121514719Y-90535534D03*
X122221825Y-91242641D03*
X122928932Y-91949747D03*
X123636039Y-92656854D03*
X124343146Y-93363961D03*
X125050253Y-94071068D03*
X125757359Y-94778175D03*
X126464466Y-95485281D03*
X127171573Y-96192388D03*
X127878680Y-96899495D03*
X128585786Y-97606602D03*
X129292893Y-98313708D03*
X130000000Y-99020815D03*
X130707107Y-99727922D03*
X131414214Y-100435029D03*
X117272078Y-84878680D03*
X117979185Y-85585786D03*
X118686292Y-86292893D03*
X119393398Y-87000000D03*
X120100505Y-87707107D03*
X120807612Y-88414214D03*
X121514719Y-89121320D03*
X122221825Y-89828427D03*
X122928932Y-90535534D03*
X123636039Y-91242641D03*
X124343146Y-91949747D03*
X125050253Y-92656854D03*
X125757359Y-93363961D03*
X126464466Y-94071068D03*
X127171573Y-94778175D03*
X127878680Y-95485281D03*
X128585786Y-96192388D03*
X129292893Y-96899495D03*
X130000000Y-97606602D03*
X130707107Y-98313708D03*
X131414214Y-99020815D03*
X132121320Y-99727922D03*
X117979185Y-84171573D03*
X118686292Y-84878680D03*
X119393398Y-85585786D03*
X120100505Y-86292893D03*
X120807612Y-87000000D03*
X121514719Y-87707107D03*
X122221825Y-88414214D03*
X122928932Y-89121320D03*
X123636039Y-89828427D03*
X124343146Y-90535534D03*
X125050253Y-91242641D03*
X125757359Y-91949747D03*
X126464466Y-92656854D03*
X127171573Y-93363961D03*
X127878680Y-94071068D03*
X128585786Y-94778175D03*
X129292893Y-95485281D03*
X130000000Y-96192388D03*
X130707107Y-96899495D03*
X131414214Y-97606602D03*
X132121320Y-98313708D03*
X132828427Y-99020815D03*
X118686292Y-83464466D03*
X119393398Y-84171573D03*
X120100505Y-84878680D03*
X120807612Y-85585786D03*
X121514719Y-86292893D03*
X122221825Y-87000000D03*
X122928932Y-87707107D03*
X123636039Y-88414214D03*
X124343146Y-89121320D03*
X125050253Y-89828427D03*
X125757359Y-90535534D03*
X126464466Y-91242641D03*
X127171573Y-91949747D03*
X127878680Y-92656854D03*
X128585786Y-93363961D03*
X129292893Y-94071068D03*
X130000000Y-94778175D03*
X130707107Y-95485281D03*
X131414214Y-96192388D03*
X132121320Y-96899495D03*
X132828427Y-97606602D03*
X133535534Y-98313708D03*
X119393398Y-82757359D03*
X120100505Y-83464466D03*
X120807612Y-84171573D03*
X121514719Y-84878680D03*
X122221825Y-85585786D03*
X122928932Y-86292893D03*
X123636039Y-87000000D03*
X124343146Y-87707107D03*
X125050253Y-88414214D03*
X125757359Y-89121320D03*
X126464466Y-89828427D03*
X127171573Y-90535534D03*
X127878680Y-91242641D03*
X128585786Y-91949747D03*
X129292893Y-92656854D03*
X130000000Y-93363961D03*
X130707107Y-94071068D03*
X131414214Y-94778175D03*
X132121320Y-95485281D03*
X132828427Y-96192388D03*
X133535534Y-96899495D03*
X134242641Y-97606602D03*
X120100505Y-82050253D03*
X120807612Y-82757359D03*
X121514719Y-83464466D03*
X122221825Y-84171573D03*
X122928932Y-84878680D03*
X123636039Y-85585786D03*
X124343146Y-86292893D03*
X125050253Y-87000000D03*
X125757359Y-87707107D03*
X126464466Y-88414214D03*
X127171573Y-89121320D03*
X127878680Y-89828427D03*
X128585786Y-90535534D03*
X129292893Y-91242641D03*
X130000000Y-91949747D03*
X130707107Y-92656854D03*
X131414214Y-93363961D03*
X132121320Y-94071068D03*
X132828427Y-94778175D03*
X133535534Y-95485281D03*
X134242641Y-96192388D03*
X134949747Y-96899495D03*
X120807612Y-81343146D03*
X121514719Y-82050253D03*
X122221825Y-82757359D03*
X122928932Y-83464466D03*
X123636039Y-84171573D03*
X124343146Y-84878680D03*
X125050253Y-85585786D03*
X125757359Y-86292893D03*
X126464466Y-87000000D03*
X127171573Y-87707107D03*
X127878680Y-88414214D03*
X128585786Y-89121320D03*
X129292893Y-89828427D03*
X130000000Y-90535534D03*
X130707107Y-91242641D03*
X131414214Y-91949747D03*
X132121320Y-92656854D03*
X132828427Y-93363961D03*
X133535534Y-94071068D03*
X134242641Y-94778175D03*
X134949747Y-95485281D03*
X135656854Y-96192388D03*
X121514719Y-80636039D03*
X122221825Y-81343146D03*
X122928932Y-82050253D03*
X123636039Y-82757359D03*
X124343146Y-83464466D03*
X125050253Y-84171573D03*
X125757359Y-84878680D03*
X126464466Y-85585786D03*
X127171573Y-86292893D03*
X127878680Y-87000000D03*
X128585786Y-87707107D03*
X129292893Y-88414214D03*
X130000000Y-89121320D03*
X130707107Y-89828427D03*
X131414214Y-90535534D03*
X132121320Y-91242641D03*
X132828427Y-91949747D03*
X133535534Y-92656854D03*
X134242641Y-93363961D03*
X134949747Y-94071068D03*
X135656854Y-94778175D03*
X136363961Y-95485281D03*
X122221825Y-79928932D03*
X122928932Y-80636039D03*
X123636039Y-81343146D03*
X124343146Y-82050253D03*
X125050253Y-82757359D03*
X125757359Y-83464466D03*
X126464466Y-84171573D03*
X127171573Y-84878680D03*
X127878680Y-85585786D03*
X128585786Y-86292893D03*
X129292893Y-87000000D03*
X130000000Y-87707107D03*
X130707107Y-88414214D03*
X131414214Y-89121320D03*
X132121320Y-89828427D03*
X132828427Y-90535534D03*
X133535534Y-91242641D03*
X134242641Y-91949747D03*
X134949747Y-92656854D03*
X135656854Y-93363961D03*
X136363961Y-94071068D03*
X137071068Y-94778175D03*
X122928932Y-79221825D03*
X123636039Y-79928932D03*
X124343146Y-80636039D03*
X125050253Y-81343146D03*
X125757359Y-82050253D03*
X126464466Y-82757359D03*
X127171573Y-83464466D03*
X127878680Y-84171573D03*
X128585786Y-84878680D03*
X129292893Y-85585786D03*
X130000000Y-86292893D03*
X130707107Y-87000000D03*
X131414214Y-87707107D03*
X132121320Y-88414214D03*
X132828427Y-89121320D03*
X133535534Y-89828427D03*
X134242641Y-90535534D03*
X134949747Y-91242641D03*
X135656854Y-91949747D03*
X136363961Y-92656854D03*
X137071068Y-93363961D03*
X137778175Y-94071068D03*
X123636039Y-78514719D03*
X124343146Y-79221825D03*
X125050253Y-79928932D03*
X125757359Y-80636039D03*
X126464466Y-81343146D03*
X127171573Y-82050253D03*
X127878680Y-82757359D03*
X128585786Y-83464466D03*
X129292893Y-84171573D03*
X130000000Y-84878680D03*
X130707107Y-85585786D03*
X131414214Y-86292893D03*
X132121320Y-87000000D03*
X132828427Y-87707107D03*
X133535534Y-88414214D03*
X134242641Y-89121320D03*
X134949747Y-89828427D03*
X135656854Y-90535534D03*
X136363961Y-91242641D03*
X137071068Y-91949747D03*
X137778175Y-92656854D03*
X138485281Y-93363961D03*
X124343146Y-77807612D03*
X125050253Y-78514719D03*
X125757359Y-79221825D03*
X126464466Y-79928932D03*
X127171573Y-80636039D03*
X127878680Y-81343146D03*
X128585786Y-82050253D03*
X129292893Y-82757359D03*
X130000000Y-83464466D03*
X130707107Y-84171573D03*
X131414214Y-84878680D03*
X132121320Y-85585786D03*
X132828427Y-86292893D03*
X133535534Y-87000000D03*
X134242641Y-87707107D03*
X134949747Y-88414214D03*
X135656854Y-89121320D03*
X136363961Y-89828427D03*
X137071068Y-90535534D03*
X137778175Y-91242641D03*
X138485281Y-91949747D03*
X139192388Y-92656854D03*
X125050253Y-77100505D03*
X125757359Y-77807612D03*
X126464466Y-78514719D03*
X127171573Y-79221825D03*
X127878680Y-79928932D03*
X128585786Y-80636039D03*
X129292893Y-81343146D03*
X130000000Y-82050253D03*
X130707107Y-82757359D03*
X131414214Y-83464466D03*
X132121320Y-84171573D03*
X132828427Y-84878680D03*
X133535534Y-85585786D03*
X134242641Y-86292893D03*
X134949747Y-87000000D03*
X135656854Y-87707107D03*
X136363961Y-88414214D03*
X137071068Y-89121320D03*
X137778175Y-89828427D03*
X138485281Y-90535534D03*
X139192388Y-91242641D03*
X139899495Y-91949747D03*
X125757359Y-76393398D03*
X126464466Y-77100505D03*
X127171573Y-77807612D03*
X127878680Y-78514719D03*
X128585786Y-79221825D03*
X129292893Y-79928932D03*
X130000000Y-80636039D03*
X130707107Y-81343146D03*
X131414214Y-82050253D03*
X132121320Y-82757359D03*
X132828427Y-83464466D03*
X133535534Y-84171573D03*
X134242641Y-84878680D03*
X134949747Y-85585786D03*
X135656854Y-86292893D03*
X136363961Y-87000000D03*
X137071068Y-87707107D03*
X137778175Y-88414214D03*
X138485281Y-89121320D03*
X139192388Y-89828427D03*
X139899495Y-90535534D03*
X140606602Y-91242641D03*
X126464466Y-75686292D03*
X127171573Y-76393398D03*
X127878680Y-77100505D03*
X128585786Y-77807612D03*
X129292893Y-78514719D03*
X130000000Y-79221825D03*
X130707107Y-79928932D03*
X131414214Y-80636039D03*
X132121320Y-81343146D03*
X132828427Y-82050253D03*
X133535534Y-82757359D03*
X134242641Y-83464466D03*
X134949747Y-84171573D03*
X135656854Y-84878680D03*
X136363961Y-85585786D03*
X137071068Y-86292893D03*
X137778175Y-87000000D03*
X138485281Y-87707107D03*
X139192388Y-88414214D03*
X139899495Y-89121320D03*
X140606602Y-89828427D03*
X141313708Y-90535534D03*
X127171573Y-74979185D03*
X127878680Y-75686292D03*
X128585786Y-76393398D03*
X129292893Y-77100505D03*
X130000000Y-77807612D03*
X130707107Y-78514719D03*
X131414214Y-79221825D03*
X132121320Y-79928932D03*
X132828427Y-80636039D03*
X133535534Y-81343146D03*
X134242641Y-82050253D03*
X134949747Y-82757359D03*
X135656854Y-83464466D03*
X136363961Y-84171573D03*
X137071068Y-84878680D03*
X137778175Y-85585786D03*
X138485281Y-86292893D03*
X139192388Y-87000000D03*
X139899495Y-87707107D03*
X140606602Y-88414214D03*
X141313708Y-89121320D03*
X142020815Y-89828427D03*
X127878680Y-74272078D03*
X128585786Y-74979185D03*
X129292893Y-75686292D03*
X130000000Y-76393398D03*
X130707107Y-77100505D03*
X131414214Y-77807612D03*
X132121320Y-78514719D03*
X132828427Y-79221825D03*
X133535534Y-79928932D03*
X134242641Y-80636039D03*
X134949747Y-81343146D03*
X135656854Y-82050253D03*
X136363961Y-82757359D03*
X137071068Y-83464466D03*
X137778175Y-84171573D03*
X138485281Y-84878680D03*
X139192388Y-85585786D03*
X139899495Y-86292893D03*
X140606602Y-87000000D03*
X141313708Y-87707107D03*
X142020815Y-88414214D03*
X142727922Y-89121320D03*
X128585786Y-73564971D03*
X129292893Y-74272078D03*
X130000000Y-74979185D03*
X130707107Y-75686292D03*
X131414214Y-76393398D03*
X132121320Y-77100505D03*
X132828427Y-77807612D03*
X133535534Y-78514719D03*
X134242641Y-79221825D03*
X134949747Y-79928932D03*
X135656854Y-80636039D03*
X136363961Y-81343146D03*
X137071068Y-82050253D03*
X137778175Y-82757359D03*
X138485281Y-83464466D03*
X139192388Y-84171573D03*
X139899495Y-84878680D03*
X140606602Y-85585786D03*
X141313708Y-86292893D03*
X142020815Y-87000000D03*
X142727922Y-87707107D03*
X143435029Y-88414214D03*
X129292893Y-72857864D03*
X130000000Y-73564971D03*
X130707107Y-74272078D03*
X131414214Y-74979185D03*
X132121320Y-75686292D03*
X132828427Y-76393398D03*
X133535534Y-77100505D03*
X134242641Y-77807612D03*
X134949747Y-78514719D03*
X135656854Y-79221825D03*
X136363961Y-79928932D03*
X137071068Y-80636039D03*
X137778175Y-81343146D03*
X138485281Y-82050253D03*
X139192388Y-82757359D03*
X139899495Y-83464466D03*
X140606602Y-84171573D03*
X141313708Y-84878680D03*
X142020815Y-85585786D03*
X142727922Y-86292893D03*
X143435029Y-87000000D03*
X144142136Y-87707107D03*
X130000000Y-72150758D03*
X130707107Y-72857864D03*
X131414214Y-73564971D03*
X132121320Y-74272078D03*
X132828427Y-74979185D03*
X133535534Y-75686292D03*
X134242641Y-76393398D03*
X134949747Y-77100505D03*
X135656854Y-77807612D03*
X136363961Y-78514719D03*
X137071068Y-79221825D03*
X137778175Y-79928932D03*
X138485281Y-80636039D03*
X139192388Y-81343146D03*
X139899495Y-82050253D03*
X140606602Y-82757359D03*
X141313708Y-83464466D03*
X142020815Y-84171573D03*
X142727922Y-84878680D03*
X143435029Y-85585786D03*
X144142136Y-86292893D03*
X144849242Y-87000000D03*
%TD*%
D16*
%TO.C,J801*%
X127150000Y-42075000D03*
X132800000Y-42075000D03*
%TD*%
M02*
